<?xml version="1.0" encoding="utf-8" standalone="no"?>
<!DOCTYPE svg PUBLIC "-//W3C//DTD SVG 1.1//EN"
  "http://www.w3.org/Graphics/SVG/1.1/DTD/svg11.dtd">
<!-- Created with matplotlib (http://matplotlib.org/) -->
<svg height="304.597625pt" version="1.1" viewBox="0 0 287.512 304.597625" width="287.512pt" xmlns="http://www.w3.org/2000/svg" xmlns:xlink="http://www.w3.org/1999/xlink">
 <defs>
  <style type="text/css">
*{stroke-linecap:butt;stroke-linejoin:round;}
  </style>
 </defs>
 <g id="figure_1">
  <g id="patch_1">
   <path d="M -0 304.597625 
L 287.512 304.597625 
L 287.512 0 
L -0 0 
z
" style="fill:#ffffff;"/>
  </g>
  <g id="axes_1">
   <g id="patch_2">
    <path d="M 225.297448 212.177399 
C 234.997488 200.61734 242.129266 187.125595 246.218396 172.599592 
C 250.307527 158.07359 251.261289 142.842708 249.016241 127.920057 
C 246.771194 112.997406 241.378243 98.721359 233.196112 86.041514 
C 225.01398 73.361669 214.228199 62.565543 201.556204 54.371259 
L 172.656102 99.06363 
C 178.992099 103.160771 184.38499 108.558835 188.476056 114.898757 
C 192.567121 121.23868 195.263597 128.376703 196.386121 135.838028 
C 197.508644 143.299354 197.031763 150.914795 194.987198 158.177796 
C 192.942633 165.440798 189.376744 172.18667 184.526724 177.966699 
L 225.297448 212.177399 
z
" style="fill:#1f77b4;"/>
   </g>
   <g id="patch_3">
    <path d="M 201.556204 54.371259 
C 190.187774 47.01992 177.520548 41.90447 164.235251 39.299809 
C 150.949953 36.695149 137.288903 36.648785 123.986232 39.16321 
L 133.871116 91.459605 
C 140.522452 90.202393 147.352977 90.225574 153.995625 91.527905 
C 160.638274 92.830235 166.971887 95.38796 172.656102 99.06363 
L 201.556204 54.371259 
z
" style="fill:#ff7f0e;"/>
   </g>
   <g id="patch_4">
    <path d="M 123.986232 39.16321 
C 116.043839 40.664454 108.298226 43.065499 100.899284 46.319881 
C 93.500342 49.574263 86.496107 53.660854 80.022122 58.500571 
L 111.889061 101.128285 
C 115.126053 98.708427 118.628171 96.665131 122.327642 95.03794 
C 126.027113 93.410749 129.899919 92.210227 133.871116 91.459605 
L 123.986232 39.16321 
z
" style="fill:#2ca02c;"/>
   </g>
   <g id="patch_5">
    <path d="M 80.022122 58.500571 
C 74.062078 62.956084 68.585645 68.024323 63.682718 73.622093 
C 58.779791 79.219862 54.477346 85.316364 50.846007 91.811523 
L 97.301004 117.783762 
C 99.116673 114.536182 101.267896 111.487931 103.719359 108.689046 
C 106.170822 105.890162 108.909039 103.356042 111.889061 101.128285 
L 80.022122 58.500571 
z
" style="fill:#d62728;"/>
   </g>
   <g id="patch_6">
    <path d="M 50.846007 91.811523 
C 47.575312 97.661621 44.864443 103.807576 42.749534 110.16747 
C 40.634625 116.527364 39.125113 123.072816 38.241118 129.716584 
L 90.998559 136.736292 
C 91.440557 133.414408 92.195313 130.141682 93.252767 126.961735 
C 94.310222 123.781788 95.665656 120.708811 97.301004 117.783762 
L 50.846007 91.811523 
z
" style="fill:#9467bd;"/>
   </g>
   <g id="patch_7">
    <path d="M 38.241118 129.716584 
C 37.486368 135.389001 37.190263 141.113055 37.355685 146.833073 
C 37.521106 152.55309 38.147516 158.250466 39.228821 163.869785 
L 91.492411 153.812892 
C 90.951758 151.003233 90.638553 148.154545 90.555842 145.294536 
C 90.473132 142.434528 90.621184 139.5725 90.998559 136.736292 
L 38.241118 129.716584 
z
" style="fill:#8c564b;"/>
   </g>
   <g id="patch_8">
    <path d="M 39.228821 163.869785 
C 40.09933 168.393642 41.262606 172.856218 42.711307 177.229356 
C 44.160009 181.602493 45.891083 185.876974 47.893606 190.025826 
L 95.824803 166.890913 
C 94.823541 164.816487 93.958004 162.679247 93.233654 160.492678 
C 92.509303 158.306109 91.927665 156.074821 91.492411 153.812892 
L 39.228821 163.869785 
z
" style="fill:#e377c2;"/>
   </g>
   <g id="patch_9">
    <path d="M 47.893606 190.025826 
C 49.533806 193.424014 51.353539 196.732586 53.345096 199.937527 
C 55.336653 203.142467 57.497218 206.239245 59.817639 209.214743 
L 101.78682 176.485372 
C 100.626609 174.997623 99.546327 173.449234 98.550548 171.846763 
C 97.55477 170.244293 96.644903 168.590007 95.824803 166.890913 
L 47.893606 190.025826 
z
" style="fill:#7f7f7f;"/>
   </g>
   <g id="patch_10">
    <path d="M 59.817639 209.214743 
C 61.411883 211.259056 63.080278 213.244446 64.819486 215.166939 
C 66.558695 217.089433 68.367557 218.947747 70.242452 220.738165 
L 106.999226 182.247083 
C 106.061778 181.351874 105.157348 180.422716 104.287743 179.46147 
C 103.418139 178.500223 102.583941 177.507528 101.78682 176.485372 
L 59.817639 209.214743 
z
" style="fill:#bcbd22;"/>
   </g>
   <g id="patch_11">
    <path d="M 70.242452 220.738165 
C 72.096068 222.508261 74.01301 224.210832 75.989532 225.842547 
C 77.966053 227.474262 80.000864 229.034058 82.089984 230.518883 
L 112.922992 187.137442 
C 111.878432 186.395029 110.861027 185.615131 109.872766 184.799274 
C 108.884505 183.983416 107.926034 183.132131 106.999226 182.247083 
L 70.242452 220.738165 
z
" style="fill:#17becf;"/>
   </g>
   <g id="patch_12">
    <path d="M 82.089984 230.518883 
C 84.162616 231.99199 86.287368 233.390355 88.46015 234.711288 
C 90.632932 236.032221 92.852349 237.274873 95.114129 238.436853 
L 119.435065 191.096426 
C 118.304175 190.515437 117.194466 189.89411 116.108075 189.233644 
C 115.021684 188.573178 113.959308 187.873995 112.922992 187.137442 
L 82.089984 230.518883 
z
" style="fill:#1f77b4;"/>
   </g>
   <g id="patch_13">
    <path d="M 95.114129 238.436853 
C 97.218879 239.518159 99.3591 240.528981 101.531224 241.467636 
C 103.703348 242.40629 105.906168 243.272254 108.136011 244.064084 
L 125.946005 193.910042 
C 124.831084 193.514127 123.729674 193.081145 122.643612 192.611818 
C 121.55755 192.142491 120.48744 191.637079 119.435065 191.096426 
L 95.114129 238.436853 
z
" style="fill:#ff7f0e;"/>
   </g>
   <g id="patch_14">
    <path d="M 108.136011 244.064084 
C 109.932648 244.702081 111.746101 245.291692 113.574409 245.83228 
C 115.402717 246.372869 117.245218 246.864238 119.099919 247.305858 
L 131.42796 195.530929 
C 130.500609 195.310119 129.579358 195.064434 128.665205 194.79414 
C 127.751051 194.523846 126.844324 194.22904 125.946005 193.910042 
L 108.136011 244.064084 
z
" style="fill:#2ca02c;"/>
   </g>
   <g id="patch_15">
    <path d="M 119.099919 247.305858 
C 120.942099 247.744496 122.795656 248.133897 124.658611 248.473645 
C 126.521567 248.813393 128.393256 249.103366 130.271682 249.343256 
L 137.013841 196.549628 
C 136.074628 196.429683 135.138783 196.284696 134.207306 196.114823 
C 133.275828 195.944949 132.34905 195.750248 131.42796 195.530929 
L 119.099919 247.305858 
z
" style="fill:#d62728;"/>
   </g>
   <g id="patch_16">
    <path d="M 130.271682 249.343256 
C 131.976837 249.561018 133.687017 249.737442 135.400718 249.872373 
C 137.114418 250.007305 138.831135 250.100704 140.549358 250.152489 
L 142.152679 196.954245 
C 141.293567 196.928352 140.435209 196.881652 139.578359 196.814187 
C 138.721509 196.746721 137.866419 196.658509 137.013841 196.549628 
L 130.271682 249.343256 
z
" style="fill:#9467bd;"/>
   </g>
   <g id="patch_17">
    <path d="M 140.549358 250.152489 
C 142.153636 250.20084 143.758803 250.2129 145.363626 250.188659 
C 146.968449 250.164419 148.572519 250.103885 150.174605 250.007103 
L 146.965302 196.881552 
C 146.16426 196.929942 145.362225 196.96021 144.559813 196.97233 
C 143.757401 196.98445 142.954818 196.97842 142.152679 196.954245 
L 140.549358 250.152489 
z
" style="fill:#8c564b;"/>
   </g>
   <g id="patch_18">
    <path d="M 150.174605 250.007103 
C 151.677585 249.916309 153.178469 249.793633 154.676244 249.639161 
C 156.17402 249.484688 157.668349 249.298452 159.158222 249.080579 
L 151.457111 196.41829 
C 150.712174 196.527226 149.96501 196.620344 149.216122 196.69758 
C 148.467235 196.774817 147.716792 196.836154 146.965302 196.881552 
L 150.174605 250.007103 
z
" style="fill:#e377c2;"/>
   </g>
   <g id="patch_19">
    <path d="M 159.158222 249.080579 
C 160.573506 248.873614 161.984475 248.638143 163.390269 248.374311 
C 164.796062 248.110478 166.196395 247.818337 167.590415 247.498065 
L 155.673207 195.627033 
C 154.976198 195.787168 154.276031 195.933239 153.573134 196.065155 
C 152.870238 196.197072 152.164753 196.314807 151.457111 196.41829 
L 159.158222 249.080579 
z
" style="fill:#7f7f7f;"/>
   </g>
   <g id="patch_20">
    <path d="M 167.590415 247.498065 
C 168.789117 247.222667 169.982956 246.926514 171.171395 246.609739 
C 172.359833 246.292964 173.542692 245.955614 174.719438 245.597843 
L 159.237719 194.676921 
C 158.649346 194.855807 158.057917 195.024482 157.463697 195.182869 
C 156.869478 195.341257 156.272559 195.489334 155.673207 195.627033 
L 167.590415 247.498065 
z
" style="fill:#bcbd22;"/>
   </g>
   <g id="patch_21">
    <path d="M 174.719438 245.597843 
C 175.764256 245.280182 176.804124 244.946461 177.838673 244.5968 
C 178.873222 244.247138 179.902328 243.881576 180.925627 243.500244 
L 162.340813 193.628122 
C 161.829164 193.818788 161.314611 194.001569 160.797336 194.1764 
C 160.280062 194.351231 159.760128 194.518091 159.237719 194.676921 
L 174.719438 245.597843 
z
" style="fill:#17becf;"/>
   </g>
   <g id="patch_22">
    <path d="M 180.925627 243.500244 
C 181.93342 243.124691 182.935464 242.733885 183.931413 242.327962 
C 184.927362 241.922038 185.917102 241.501044 186.900292 241.065124 
L 165.328146 192.410562 
C 164.836551 192.628522 164.341681 192.839019 163.843707 193.041981 
C 163.345732 193.244943 162.84471 193.440345 162.340813 193.628122 
L 180.925627 243.500244 
z
" style="fill:#1f77b4;"/>
   </g>
   <g id="patch_23">
    <path d="M 186.900292 241.065124 
C 187.873397 240.633674 188.839976 240.187653 189.799702 239.727209 
C 190.759428 239.266765 191.712193 238.791952 192.657676 238.302928 
L 168.206838 191.029464 
C 167.734096 191.273976 167.257714 191.511383 166.777851 191.741605 
C 166.297988 191.971826 165.814699 192.194837 165.328146 192.410562 
L 186.900292 241.065124 
z
" style="fill:#ff7f0e;"/>
   </g>
   <g id="patch_24">
    <path d="M 192.657676 238.302928 
C 193.395768 237.921171 194.129364 237.530784 194.858313 237.131848 
C 195.587263 236.732912 196.311516 236.325453 197.030924 235.909556 
L 170.393462 189.832778 
C 170.033758 190.040727 169.671632 190.244456 169.307157 190.443924 
C 168.942682 190.643392 168.575884 190.838586 168.206838 191.029464 
L 192.657676 238.302928 
z
" style="fill:#2ca02c;"/>
   </g>
   <g id="patch_25">
    <path d="M 197.030924 235.909556 
C 197.747148 235.4955 198.458521 235.073107 199.164898 234.642465 
C 199.871274 234.211823 200.572606 233.77296 201.268751 233.325967 
L 172.512375 188.540983 
C 172.164303 188.76448 171.813637 188.983911 171.460449 189.199233 
C 171.107261 189.414554 170.751574 189.62575 170.393462 189.832778 
L 197.030924 235.909556 
z
" style="fill:#d62728;"/>
   </g>
   <g id="patch_26">
    <path d="M 201.268751 233.325967 
C 201.83804 232.960427 202.403831 232.589468 202.966048 232.21314 
C 203.528264 231.836813 204.08688 231.455134 204.641819 231.068155 
L 174.19891 187.412078 
C 173.92144 187.605567 173.642132 187.796406 173.361024 187.98457 
C 173.079916 188.172734 172.79702 188.358214 172.512375 188.540983 
L 201.268751 233.325967 
z
" style="fill:#9467bd;"/>
   </g>
   <g id="patch_27">
    <path d="M 204.641819 231.068155 
C 205.18017 230.692744 205.715038 230.312362 206.246353 229.927058 
C 206.777668 229.541754 207.305409 229.151544 207.829506 228.756478 
L 175.792753 186.256239 
C 175.530704 186.453772 175.266834 186.648877 175.001177 186.841529 
C 174.735519 187.034181 174.468085 187.224372 174.19891 187.412078 
L 204.641819 231.068155 
z
" style="fill:#8c564b;"/>
   </g>
   <g id="patch_28">
    <path d="M 207.829506 228.756478 
C 208.312498 228.392398 208.792377 228.024208 209.269093 227.651948 
C 209.745808 227.279688 210.219342 226.903372 210.689642 226.523041 
L 177.222821 185.13952 
C 176.987671 185.329686 176.750904 185.517844 176.512546 185.703974 
C 176.274189 185.890104 176.034249 186.074199 175.792753 186.256239 
L 207.829506 228.756478 
z
" style="fill:#e377c2;"/>
   </g>
   <g id="patch_29">
    <path d="M 210.689642 226.523041 
C 211.041295 226.23866 211.391131 225.95204 211.73913 225.6632 
C 212.087129 225.37436 212.433284 225.083306 212.777574 224.790054 
L 178.266787 184.273027 
C 178.094642 184.419653 177.921565 184.56518 177.747565 184.7096 
C 177.573565 184.85402 177.398647 184.99733 177.222821 185.13952 
L 210.689642 226.523041 
z
" style="fill:#7f7f7f;"/>
   </g>
   <g id="patch_30">
    <path d="M 212.777574 224.790054 
C 213.116265 224.50157 213.453144 224.210966 213.788191 223.918258 
C 214.123239 223.62555 214.456448 223.330745 214.787799 223.033859 
L 179.271899 183.39493 
C 179.106224 183.543373 178.939619 183.690775 178.772096 183.837129 
C 178.604572 183.983483 178.436132 184.128785 178.266787 184.273027 
L 212.777574 224.790054 
z
" style="fill:#bcbd22;"/>
   </g>
   <g id="patch_31">
    <path d="M 214.787799 223.033859 
C 215.067119 222.783593 215.345115 222.531851 215.621775 222.278646 
C 215.898434 222.02544 216.173754 221.770775 216.447721 221.514659 
L 180.101861 182.63533 
C 179.964877 182.763387 179.827217 182.89072 179.688887 183.017323 
C 179.550558 183.143926 179.41156 183.269796 179.271899 183.39493 
L 214.787799 223.033859 
z
" style="fill:#17becf;"/>
   </g>
   <g id="patch_32">
    <path d="M 216.447721 221.514659 
C 216.677371 221.299974 216.906068 221.084273 217.133806 220.867562 
C 217.361544 220.650851 217.588321 220.433132 217.81413 220.214412 
L 180.785065 181.985206 
C 180.672161 182.094566 180.558772 182.203426 180.444903 182.311781 
C 180.331034 182.420137 180.216685 182.527987 180.101861 182.63533 
L 216.447721 221.514659 
z
" style="fill:#1f77b4;"/>
   </g>
   <g id="patch_33">
    <path d="M 217.81413 220.214412 
C 218.035978 219.999529 218.256889 219.783681 218.476858 219.566875 
C 218.696827 219.350069 218.915851 219.132307 219.133924 218.913594 
L 181.444962 181.334797 
C 181.335926 181.444153 181.226413 181.553035 181.116429 181.661438 
C 181.006445 181.769841 180.895989 181.877764 180.785065 181.985206 
L 217.81413 220.214412 
z
" style="fill:#ff7f0e;"/>
   </g>
   <g id="patch_34">
    <path d="M 219.133924 218.913594 
C 219.315652 218.731334 219.496718 218.548415 219.677119 218.364841 
C 219.857519 218.181267 220.037254 217.99704 220.216318 217.812162 
L 181.986159 180.784081 
C 181.896627 180.87652 181.80676 180.968634 181.716559 181.060421 
C 181.626359 181.152207 181.535826 181.243667 181.444962 181.334797 
L 219.133924 218.913594 
z
" style="fill:#2ca02c;"/>
   </g>
   <g id="patch_35">
    <path d="M 220.216318 217.812162 
C 220.392825 217.629926 220.568679 217.447059 220.743878 217.263565 
C 220.919076 217.080071 221.093619 216.895952 221.267501 216.71121 
L 182.51175 180.233605 
C 182.424809 180.325976 182.337538 180.418036 182.249939 180.509783 
C 182.162339 180.60153 182.074412 180.692963 181.986159 180.784081 
L 220.216318 217.812162 
z
" style="fill:#d62728;"/>
   </g>
   <g id="patch_36">
    <path d="M 221.267501 216.71121 
C 221.431303 216.537178 221.594519 216.362595 221.757145 216.187463 
C 221.919771 216.012331 222.081807 215.836653 222.24325 215.66043 
L 182.999625 179.708215 
C 182.918904 179.796326 182.837886 179.884166 182.756572 179.971732 
C 182.675259 180.059297 182.593652 180.146589 182.51175 180.233605 
L 221.267501 216.71121 
z
" style="fill:#9467bd;"/>
   </g>
   <g id="patch_37">
    <path d="M 222.24325 215.66043 
C 222.391032 215.499118 222.538317 215.337351 222.685102 215.175131 
C 222.831887 215.012911 222.978171 214.850239 223.123953 214.687118 
L 183.439977 179.221559 
C 183.367086 179.30312 183.293943 179.384456 183.220551 179.465566 
C 183.147159 179.546676 183.073516 179.627559 182.999625 179.708215 
L 222.24325 215.66043 
z
" style="fill:#8c564b;"/>
   </g>
   <g id="patch_38">
    <path d="M 223.123953 214.687118 
C 223.26116 214.533591 223.39792 214.379667 223.534234 214.225347 
C 223.670547 214.071027 223.806412 213.916312 223.941828 213.761203 
L 183.848914 178.758602 
C 183.781206 178.836156 183.713274 178.913513 183.645117 178.990674 
C 183.57696 179.067834 183.50858 179.144796 183.439977 179.221559 
L 223.123953 214.687118 
z
" style="fill:#e377c2;"/>
   </g>
   <g id="patch_39">
    <path d="M 223.941828 213.761203 
C 224.031299 213.658721 224.120573 213.556067 224.20965 213.453243 
C 224.298727 213.350418 224.387608 213.247423 224.47629 213.144257 
L 184.116145 178.450129 
C 184.071804 178.501711 184.027364 178.553209 183.982825 178.604621 
C 183.938286 178.656034 183.893649 178.70736 183.848914 178.758602 
L 223.941828 213.761203 
z
" style="fill:#7f7f7f;"/>
   </g>
   <g id="patch_40">
    <path d="M 224.47629 213.144257 
C 224.548195 213.06061 224.619969 212.97685 224.691613 212.892979 
C 224.763258 212.809109 224.834771 212.725127 224.906155 212.641034 
L 184.331077 178.198517 
C 184.295386 178.240563 184.259629 178.282554 184.223807 178.32449 
C 184.187985 178.366425 184.152097 178.408305 184.116145 178.450129 
L 224.47629 213.144257 
z
" style="fill:#bcbd22;"/>
   </g>
   <g id="patch_41">
    <path d="M 224.906155 212.641034 
C 224.945415 212.594782 224.984637 212.548498 225.023818 212.502179 
C 225.063 212.455861 225.102142 212.409509 225.141244 212.363124 
L 184.448622 178.059562 
C 184.429071 178.082755 184.4095 178.105931 184.389909 178.12909 
C 184.370318 178.152249 184.350708 178.175391 184.331077 178.198517 
L 224.906155 212.641034 
z
" style="fill:#17becf;"/>
   </g>
   <g id="patch_42">
    <path d="M 225.141244 212.363124 
C 225.167312 212.332201 225.193363 212.301262 225.219396 212.270309 
C 225.245429 212.239356 225.271444 212.208388 225.297442 212.177405 
L 184.526721 177.966703 
C 184.513722 177.982194 184.500714 177.997678 184.487698 178.013155 
C 184.474681 178.028631 184.461656 178.0441 184.448622 178.059562 
L 225.141244 212.363124 
z
" style="fill:#1f77b4;"/>
   </g>
   <g id="patch_43">
    <path d="M 225.297442 212.177405 
C 225.297442 212.177405 225.297442 212.177405 225.297442 212.177405 
L 184.526721 177.966703 
C 184.526721 177.966703 184.526721 177.966703 184.526721 177.966703 
L 225.297442 212.177405 
z
" style="fill:#ff7f0e;"/>
   </g>
   <g id="patch_44">
    <path d="M 225.297442 212.177405 
C 225.297442 212.177405 225.297442 212.177405 225.297442 212.177405 
L 184.526721 177.966703 
C 184.526721 177.966703 184.526721 177.966703 184.526721 177.966703 
L 225.297442 212.177405 
z
" style="fill:#2ca02c;"/>
   </g>
   <g id="patch_45">
    <path d="M 225.297442 212.177405 
C 225.297442 212.177405 225.297442 212.177405 225.297442 212.177405 
L 184.526721 177.966703 
C 184.526721 177.966703 184.526721 177.966703 184.526721 177.966703 
L 225.297442 212.177405 
z
" style="fill:#d62728;"/>
   </g>
   <g id="patch_46">
    <path d="M 225.297442 212.177405 
C 225.297442 212.177405 225.297442 212.177405 225.297442 212.177405 
L 184.526721 177.966703 
C 184.526721 177.966703 184.526721 177.966703 184.526721 177.966703 
L 225.297442 212.177405 
z
" style="fill:#9467bd;"/>
   </g>
   <g id="patch_47">
    <path d="M 225.297442 212.177405 
C 225.297442 212.177405 225.297442 212.177405 225.297442 212.177405 
L 184.526721 177.966703 
C 184.526721 177.966703 184.526721 177.966703 184.526721 177.966703 
L 225.297442 212.177405 
z
" style="fill:#8c564b;"/>
   </g>
   <g id="patch_48">
    <path d="M 225.297442 212.177405 
C 225.297442 212.177405 225.297442 212.177405 225.297442 212.177405 
L 184.526721 177.966703 
C 184.526721 177.966703 184.526721 177.966703 184.526721 177.966703 
L 225.297442 212.177405 
z
" style="fill:#e377c2;"/>
   </g>
   <g id="patch_49">
    <path d="M 225.297442 212.177405 
C 225.297442 212.177405 225.297442 212.177405 225.297442 212.177405 
L 184.526721 177.966703 
C 184.526721 177.966703 184.526721 177.966703 184.526721 177.966703 
L 225.297442 212.177405 
z
" style="fill:#7f7f7f;"/>
   </g>
   <g id="patch_50">
    <path d="M 225.297442 212.177405 
C 225.297442 212.177405 225.297442 212.177405 225.297442 212.177405 
L 184.526721 177.966703 
C 184.526721 177.966703 184.526721 177.966703 184.526721 177.966703 
L 225.297442 212.177405 
z
" style="fill:#bcbd22;"/>
   </g>
   <g id="patch_51">
    <path d="M 225.297442 212.177405 
C 225.297442 212.177405 225.297442 212.177405 225.297442 212.177405 
L 184.526721 177.966703 
C 184.526721 177.966703 184.526721 177.966703 184.526721 177.966703 
L 225.297442 212.177405 
z
" style="fill:#17becf;"/>
   </g>
   <g id="patch_52">
    <path d="M 225.297442 212.177405 
C 225.297442 212.177405 225.297442 212.177405 225.297442 212.177405 
L 184.526721 177.966703 
C 184.526721 177.966703 184.526721 177.966703 184.526721 177.966703 
L 225.297442 212.177405 
z
" style="fill:#1f77b4;"/>
   </g>
   <g id="patch_53">
    <path d="M 225.297442 212.177405 
C 225.297442 212.177405 225.297442 212.177405 225.297442 212.177405 
L 184.526721 177.966703 
C 184.526721 177.966703 184.526721 177.966703 184.526721 177.966703 
L 225.297442 212.177405 
z
" style="fill:#ff7f0e;"/>
   </g>
   <g id="patch_54">
    <path d="M 225.297442 212.177405 
C 225.297442 212.177405 225.297442 212.177405 225.297442 212.177405 
L 184.526721 177.966703 
C 184.526721 177.966703 184.526721 177.966703 184.526721 177.966703 
L 225.297442 212.177405 
z
" style="fill:#2ca02c;"/>
   </g>
   <g id="patch_55">
    <path d="M 225.297442 212.177405 
C 225.297442 212.177405 225.297442 212.177405 225.297442 212.177405 
L 184.526721 177.966703 
C 184.526721 177.966703 184.526721 177.966703 184.526721 177.966703 
L 225.297442 212.177405 
z
" style="fill:#d62728;"/>
   </g>
   <g id="patch_56">
    <path d="M 225.297442 212.177405 
C 225.297442 212.177405 225.297442 212.177405 225.297442 212.177405 
L 184.526721 177.966703 
C 184.526721 177.966703 184.526721 177.966703 184.526721 177.966703 
L 225.297442 212.177405 
z
" style="fill:#9467bd;"/>
   </g>
   <g id="patch_57">
    <path d="M 225.297442 212.177405 
C 225.297442 212.177405 225.297442 212.177405 225.297442 212.177405 
L 184.526721 177.966703 
C 184.526721 177.966703 184.526721 177.966703 184.526721 177.966703 
L 225.297442 212.177405 
z
" style="fill:#8c564b;"/>
   </g>
   <g id="patch_58">
    <path d="M 225.297442 212.177405 
C 225.297442 212.177405 225.297442 212.177405 225.297442 212.177405 
L 184.526721 177.966703 
C 184.526721 177.966703 184.526721 177.966703 184.526721 177.966703 
L 225.297442 212.177405 
z
" style="fill:#e377c2;"/>
   </g>
   <g id="patch_59">
    <path d="M 225.297442 212.177405 
C 225.297442 212.177405 225.297442 212.177405 225.297442 212.177405 
L 184.526721 177.966703 
C 184.526721 177.966703 184.526721 177.966703 184.526721 177.966703 
L 225.297442 212.177405 
z
" style="fill:#7f7f7f;"/>
   </g>
   <g id="patch_60">
    <path d="M 225.297442 212.177405 
C 225.297442 212.177405 225.297442 212.177405 225.297442 212.177405 
L 184.526721 177.966703 
C 184.526721 177.966703 184.526721 177.966703 184.526721 177.966703 
L 225.297442 212.177405 
z
" style="fill:#bcbd22;"/>
   </g>
   <g id="patch_61">
    <path d="M 225.297442 212.177405 
C 225.297442 212.177405 225.297442 212.177405 225.297442 212.177405 
L 184.526721 177.966703 
C 184.526721 177.966703 184.526721 177.966703 184.526721 177.966703 
L 225.297442 212.177405 
z
" style="fill:#17becf;"/>
   </g>
   <g id="patch_62">
    <path d="M 225.297442 212.177405 
C 225.297442 212.177405 225.297442 212.177405 225.297442 212.177405 
L 184.526721 177.966703 
C 184.526721 177.966703 184.526721 177.966703 184.526721 177.966703 
L 225.297442 212.177405 
z
" style="fill:#1f77b4;"/>
   </g>
   <g id="patch_63">
    <path d="M 225.297442 212.177405 
C 225.297442 212.177405 225.297442 212.177405 225.297442 212.177405 
L 184.526721 177.966703 
C 184.526721 177.966703 184.526721 177.966703 184.526721 177.966703 
L 225.297442 212.177405 
z
" style="fill:#ff7f0e;"/>
   </g>
   <g id="patch_64">
    <path d="M 225.297442 212.177405 
C 225.297442 212.177405 225.297442 212.177405 225.297442 212.177405 
L 184.526721 177.966703 
C 184.526721 177.966703 184.526721 177.966703 184.526721 177.966703 
L 225.297442 212.177405 
z
" style="fill:#2ca02c;"/>
   </g>
   <g id="patch_65">
    <path d="M 225.297442 212.177405 
C 225.297442 212.177405 225.297442 212.177405 225.297442 212.177405 
L 184.526721 177.966703 
C 184.526721 177.966703 184.526721 177.966703 184.526721 177.966703 
L 225.297442 212.177405 
z
" style="fill:#d62728;"/>
   </g>
   <g id="patch_66">
    <path d="M 225.297442 212.177405 
C 225.297442 212.177405 225.297442 212.177405 225.297442 212.177405 
L 184.526721 177.966703 
C 184.526721 177.966703 184.526721 177.966703 184.526721 177.966703 
L 225.297442 212.177405 
z
" style="fill:#9467bd;"/>
   </g>
   <g id="patch_67">
    <path d="M 225.297442 212.177405 
C 225.297442 212.177405 225.297442 212.177405 225.297442 212.177405 
L 184.526721 177.966703 
C 184.526721 177.966703 184.526721 177.966703 184.526721 177.966703 
L 225.297442 212.177405 
z
" style="fill:#8c564b;"/>
   </g>
   <g id="patch_68">
    <path d="M 225.297442 212.177405 
C 225.297442 212.177405 225.297442 212.177405 225.297442 212.177405 
L 184.526721 177.966703 
C 184.526721 177.966703 184.526721 177.966703 184.526721 177.966703 
L 225.297442 212.177405 
z
" style="fill:#e377c2;"/>
   </g>
   <g id="patch_69">
    <path d="M 225.297442 212.177405 
C 225.297442 212.177405 225.297442 212.177405 225.297442 212.177405 
L 184.526721 177.966703 
C 184.526721 177.966703 184.526721 177.966703 184.526721 177.966703 
L 225.297442 212.177405 
z
" style="fill:#7f7f7f;"/>
   </g>
   <g id="patch_70">
    <path d="M 225.297442 212.177405 
C 225.297442 212.177405 225.297442 212.177405 225.297442 212.177405 
L 184.526721 177.966703 
C 184.526721 177.966703 184.526721 177.966703 184.526721 177.966703 
L 225.297442 212.177405 
z
" style="fill:#bcbd22;"/>
   </g>
   <g id="patch_71">
    <path d="M 225.297442 212.177405 
C 225.297442 212.177405 225.297442 212.177405 225.297442 212.177405 
L 184.526721 177.966703 
C 184.526721 177.966703 184.526721 177.966703 184.526721 177.966703 
L 225.297442 212.177405 
z
" style="fill:#17becf;"/>
   </g>
   <g id="patch_72">
    <path d="M 225.297442 212.177405 
C 225.297442 212.177405 225.297442 212.177405 225.297442 212.177405 
L 184.526721 177.966703 
C 184.526721 177.966703 184.526721 177.966703 184.526721 177.966703 
L 225.297442 212.177405 
z
" style="fill:#1f77b4;"/>
   </g>
   <g id="patch_73">
    <path d="M 225.297442 212.177405 
C 225.297442 212.177405 225.297442 212.177405 225.297442 212.177405 
L 184.526721 177.966703 
C 184.526721 177.966703 184.526721 177.966703 184.526721 177.966703 
L 225.297442 212.177405 
z
" style="fill:#ff7f0e;"/>
   </g>
   <g id="patch_74">
    <path d="M 225.297442 212.177405 
C 225.297442 212.177405 225.297442 212.177405 225.297442 212.177405 
L 184.526721 177.966703 
C 184.526721 177.966703 184.526721 177.966703 184.526721 177.966703 
L 225.297442 212.177405 
z
" style="fill:#2ca02c;"/>
   </g>
   <g id="patch_75">
    <path d="M 225.297442 212.177405 
C 225.297442 212.177405 225.297442 212.177405 225.297442 212.177405 
L 184.526721 177.966703 
C 184.526721 177.966703 184.526721 177.966703 184.526721 177.966703 
L 225.297442 212.177405 
z
" style="fill:#d62728;"/>
   </g>
   <g id="patch_76">
    <path d="M 225.297442 212.177405 
C 225.297442 212.177405 225.297442 212.177405 225.297442 212.177405 
L 184.526721 177.966703 
C 184.526721 177.966703 184.526721 177.966703 184.526721 177.966703 
L 225.297442 212.177405 
z
" style="fill:#9467bd;"/>
   </g>
   <g id="patch_77">
    <path d="M 225.297442 212.177405 
C 225.297442 212.177405 225.297442 212.177405 225.297442 212.177405 
L 184.526721 177.966703 
C 184.526721 177.966703 184.526721 177.966703 184.526721 177.966703 
L 225.297442 212.177405 
z
" style="fill:#8c564b;"/>
   </g>
   <g id="patch_78">
    <path d="M 225.297442 212.177405 
C 225.297442 212.177405 225.297442 212.177405 225.297442 212.177405 
L 184.526721 177.966703 
C 184.526721 177.966703 184.526721 177.966703 184.526721 177.966703 
L 225.297442 212.177405 
z
" style="fill:#e377c2;"/>
   </g>
   <g id="patch_79">
    <path d="M 225.297442 212.177405 
C 225.297442 212.177405 225.297442 212.177405 225.297442 212.177405 
L 184.526721 177.966703 
C 184.526721 177.966703 184.526721 177.966703 184.526721 177.966703 
L 225.297442 212.177405 
z
" style="fill:#7f7f7f;"/>
   </g>
   <g id="patch_80">
    <path d="M 225.297442 212.177405 
C 225.297442 212.177405 225.297442 212.177405 225.297442 212.177405 
L 184.526721 177.966703 
C 184.526721 177.966703 184.526721 177.966703 184.526721 177.966703 
L 225.297442 212.177405 
z
" style="fill:#bcbd22;"/>
   </g>
   <g id="patch_81">
    <path d="M 225.297442 212.177405 
C 225.297442 212.177405 225.297442 212.177405 225.297442 212.177405 
L 184.526721 177.966703 
C 184.526721 177.966703 184.526721 177.966703 184.526721 177.966703 
L 225.297442 212.177405 
z
" style="fill:#17becf;"/>
   </g>
   <g id="patch_82">
    <path d="M 225.297442 212.177405 
C 225.297442 212.177405 225.297442 212.177405 225.297442 212.177405 
L 184.526721 177.966703 
C 184.526721 177.966703 184.526721 177.966703 184.526721 177.966703 
L 225.297442 212.177405 
z
" style="fill:#1f77b4;"/>
   </g>
   <g id="patch_83">
    <path d="M 225.297442 212.177405 
C 225.297442 212.177405 225.297442 212.177405 225.297442 212.177405 
L 184.526721 177.966703 
C 184.526721 177.966703 184.526721 177.966703 184.526721 177.966703 
L 225.297442 212.177405 
z
" style="fill:#ff7f0e;"/>
   </g>
   <g id="patch_84">
    <path d="M 225.297442 212.177405 
C 225.297442 212.177405 225.297442 212.177405 225.297442 212.177405 
L 184.526721 177.966703 
C 184.526721 177.966703 184.526721 177.966703 184.526721 177.966703 
L 225.297442 212.177405 
z
" style="fill:#2ca02c;"/>
   </g>
   <g id="patch_85">
    <path d="M 225.297442 212.177405 
C 225.297442 212.177405 225.297442 212.177405 225.297442 212.177405 
L 184.526721 177.966703 
C 184.526721 177.966703 184.526721 177.966703 184.526721 177.966703 
L 225.297442 212.177405 
z
" style="fill:#d62728;"/>
   </g>
   <g id="patch_86">
    <path d="M 225.297442 212.177405 
C 225.297442 212.177405 225.297442 212.177405 225.297442 212.177405 
L 184.526721 177.966703 
C 184.526721 177.966703 184.526721 177.966703 184.526721 177.966703 
L 225.297442 212.177405 
z
" style="fill:#9467bd;"/>
   </g>
   <g id="patch_87">
    <path d="M 225.297442 212.177405 
C 225.297442 212.177405 225.297442 212.177405 225.297442 212.177405 
L 184.526721 177.966703 
C 184.526721 177.966703 184.526721 177.966703 184.526721 177.966703 
L 225.297442 212.177405 
z
" style="fill:#8c564b;"/>
   </g>
   <g id="patch_88">
    <path d="M 225.297442 212.177405 
C 225.297442 212.177405 225.297442 212.177405 225.297442 212.177405 
L 184.526721 177.966703 
C 184.526721 177.966703 184.526721 177.966703 184.526721 177.966703 
L 225.297442 212.177405 
z
" style="fill:#e377c2;"/>
   </g>
   <g id="patch_89">
    <path d="M 225.297442 212.177405 
C 225.297442 212.177405 225.297442 212.177405 225.297442 212.177405 
L 184.526721 177.966703 
C 184.526721 177.966703 184.526721 177.966703 184.526721 177.966703 
L 225.297442 212.177405 
z
" style="fill:#7f7f7f;"/>
   </g>
   <g id="patch_90">
    <path d="M 225.297442 212.177405 
C 225.297442 212.177405 225.297442 212.177405 225.297442 212.177405 
L 184.526721 177.966703 
C 184.526721 177.966703 184.526721 177.966703 184.526721 177.966703 
L 225.297442 212.177405 
z
" style="fill:#bcbd22;"/>
   </g>
   <g id="patch_91">
    <path d="M 225.297442 212.177405 
C 225.297442 212.177405 225.297442 212.177405 225.297442 212.177405 
L 184.526721 177.966703 
C 184.526721 177.966703 184.526721 177.966703 184.526721 177.966703 
L 225.297442 212.177405 
z
" style="fill:#17becf;"/>
   </g>
   <g id="patch_92">
    <path d="M 225.297442 212.177405 
C 225.297442 212.177405 225.297442 212.177405 225.297442 212.177405 
L 184.526721 177.966703 
C 184.526721 177.966703 184.526721 177.966703 184.526721 177.966703 
L 225.297442 212.177405 
z
" style="fill:#1f77b4;"/>
   </g>
   <g id="patch_93">
    <path d="M 225.297442 212.177405 
C 225.297442 212.177405 225.297442 212.177405 225.297442 212.177405 
L 184.526721 177.966703 
C 184.526721 177.966703 184.526721 177.966703 184.526721 177.966703 
L 225.297442 212.177405 
z
" style="fill:#ff7f0e;"/>
   </g>
   <g id="patch_94">
    <path d="M 225.297442 212.177405 
C 225.297442 212.177405 225.297442 212.177405 225.297442 212.177405 
L 184.526721 177.966703 
C 184.526721 177.966703 184.526721 177.966703 184.526721 177.966703 
L 225.297442 212.177405 
z
" style="fill:#2ca02c;"/>
   </g>
   <g id="patch_95">
    <path d="M 225.297442 212.177405 
C 225.297442 212.177405 225.297442 212.177405 225.297442 212.177405 
L 184.526721 177.966703 
C 184.526721 177.966703 184.526721 177.966703 184.526721 177.966703 
L 225.297442 212.177405 
z
" style="fill:#d62728;"/>
   </g>
   <g id="patch_96">
    <path d="M 225.297442 212.177405 
C 225.297442 212.177405 225.297442 212.177405 225.297442 212.177405 
L 184.526721 177.966703 
C 184.526721 177.966703 184.526721 177.966703 184.526721 177.966703 
L 225.297442 212.177405 
z
" style="fill:#9467bd;"/>
   </g>
   <g id="patch_97">
    <path d="M 225.297442 212.177405 
C 225.297442 212.177405 225.297442 212.177405 225.297442 212.177405 
L 184.526721 177.966703 
C 184.526721 177.966703 184.526721 177.966703 184.526721 177.966703 
L 225.297442 212.177405 
z
" style="fill:#8c564b;"/>
   </g>
   <g id="patch_98">
    <path d="M 225.297442 212.177405 
C 225.297442 212.177405 225.297442 212.177405 225.297442 212.177405 
L 184.526721 177.966703 
C 184.526721 177.966703 184.526721 177.966703 184.526721 177.966703 
L 225.297442 212.177405 
z
" style="fill:#e377c2;"/>
   </g>
   <g id="patch_99">
    <path d="M 225.297442 212.177405 
C 225.297442 212.177405 225.297442 212.177405 225.297442 212.177405 
L 184.526721 177.966703 
C 184.526721 177.966703 184.526721 177.966703 184.526721 177.966703 
L 225.297442 212.177405 
z
" style="fill:#7f7f7f;"/>
   </g>
   <g id="patch_100">
    <path d="M 225.297442 212.177405 
C 225.297442 212.177405 225.297442 212.177405 225.297442 212.177405 
L 184.526721 177.966703 
C 184.526721 177.966703 184.526721 177.966703 184.526721 177.966703 
L 225.297442 212.177405 
z
" style="fill:#bcbd22;"/>
   </g>
   <g id="patch_101">
    <path d="M 225.297442 212.177405 
C 225.297442 212.177405 225.297442 212.177405 225.297442 212.177405 
L 184.526721 177.966703 
C 184.526721 177.966703 184.526721 177.966703 184.526721 177.966703 
L 225.297442 212.177405 
z
" style="fill:#17becf;"/>
   </g>
   <g id="patch_102">
    <path d="M 225.297442 212.177405 
C 225.297442 212.177405 225.297442 212.177405 225.297442 212.177405 
L 184.526721 177.966703 
C 184.526721 177.966703 184.526721 177.966703 184.526721 177.966703 
L 225.297442 212.177405 
z
" style="fill:#1f77b4;"/>
   </g>
   <g id="patch_103">
    <path d="M 225.297442 212.177405 
C 225.297442 212.177405 225.297442 212.177405 225.297442 212.177405 
L 184.526721 177.966703 
C 184.526721 177.966703 184.526721 177.966703 184.526721 177.966703 
L 225.297442 212.177405 
z
" style="fill:#ff7f0e;"/>
   </g>
   <g id="patch_104">
    <path d="M 225.297442 212.177405 
C 225.297442 212.177405 225.297442 212.177405 225.297442 212.177405 
L 184.526721 177.966703 
C 184.526721 177.966703 184.526721 177.966703 184.526721 177.966703 
L 225.297442 212.177405 
z
" style="fill:#2ca02c;"/>
   </g>
   <g id="patch_105">
    <path d="M 225.297442 212.177405 
C 225.297442 212.177405 225.297442 212.177405 225.297442 212.177405 
L 184.526721 177.966703 
C 184.526721 177.966703 184.526721 177.966703 184.526721 177.966703 
L 225.297442 212.177405 
z
" style="fill:#d62728;"/>
   </g>
   <g id="patch_106">
    <path d="M 225.297442 212.177405 
C 225.297442 212.177405 225.297442 212.177405 225.297442 212.177405 
L 184.526721 177.966703 
C 184.526721 177.966703 184.526721 177.966703 184.526721 177.966703 
L 225.297442 212.177405 
z
" style="fill:#9467bd;"/>
   </g>
   <g id="patch_107">
    <path d="M 225.297442 212.177405 
C 225.297442 212.177405 225.297442 212.177405 225.297442 212.177405 
L 184.526721 177.966703 
C 184.526721 177.966703 184.526721 177.966703 184.526721 177.966703 
L 225.297442 212.177405 
z
" style="fill:#8c564b;"/>
   </g>
   <g id="patch_108">
    <path d="M 225.297442 212.177405 
C 225.297442 212.177405 225.297442 212.177405 225.297442 212.177405 
L 184.526721 177.966703 
C 184.526721 177.966703 184.526721 177.966703 184.526721 177.966703 
L 225.297442 212.177405 
z
" style="fill:#e377c2;"/>
   </g>
   <g id="patch_109">
    <path d="M 225.297442 212.177405 
C 225.297442 212.177405 225.297442 212.177405 225.297442 212.177405 
L 184.526721 177.966703 
C 184.526721 177.966703 184.526721 177.966703 184.526721 177.966703 
L 225.297442 212.177405 
z
" style="fill:#7f7f7f;"/>
   </g>
   <g id="patch_110">
    <path d="M 225.297442 212.177405 
C 225.297442 212.177405 225.297442 212.177405 225.297442 212.177405 
L 184.526721 177.966703 
C 184.526721 177.966703 184.526721 177.966703 184.526721 177.966703 
L 225.297442 212.177405 
z
" style="fill:#bcbd22;"/>
   </g>
   <g id="patch_111">
    <path d="M 225.297442 212.177405 
C 225.297442 212.177405 225.297442 212.177405 225.297442 212.177405 
L 184.526721 177.966703 
C 184.526721 177.966703 184.526721 177.966703 184.526721 177.966703 
L 225.297442 212.177405 
z
" style="fill:#17becf;"/>
   </g>
   <g id="patch_112">
    <path d="M 225.297442 212.177405 
C 225.297442 212.177405 225.297442 212.177405 225.297442 212.177405 
L 184.526721 177.966703 
C 184.526721 177.966703 184.526721 177.966703 184.526721 177.966703 
L 225.297442 212.177405 
z
" style="fill:#1f77b4;"/>
   </g>
   <g id="patch_113">
    <path d="M 225.297442 212.177405 
C 225.297442 212.177405 225.297442 212.177405 225.297442 212.177405 
L 184.526721 177.966703 
C 184.526721 177.966703 184.526721 177.966703 184.526721 177.966703 
L 225.297442 212.177405 
z
" style="fill:#ff7f0e;"/>
   </g>
   <g id="patch_114">
    <path d="M 225.297442 212.177405 
C 225.297442 212.177405 225.297442 212.177405 225.297442 212.177405 
L 184.526721 177.966703 
C 184.526721 177.966703 184.526721 177.966703 184.526721 177.966703 
L 225.297442 212.177405 
z
" style="fill:#2ca02c;"/>
   </g>
   <g id="patch_115">
    <path d="M 225.297442 212.177405 
C 225.297442 212.177405 225.297442 212.177405 225.297442 212.177405 
L 184.526721 177.966703 
C 184.526721 177.966703 184.526721 177.966703 184.526721 177.966703 
L 225.297442 212.177405 
z
" style="fill:#d62728;"/>
   </g>
   <g id="patch_116">
    <path d="M 225.297442 212.177405 
C 225.297442 212.177405 225.297442 212.177405 225.297442 212.177405 
L 184.526721 177.966703 
C 184.526721 177.966703 184.526721 177.966703 184.526721 177.966703 
L 225.297442 212.177405 
z
" style="fill:#9467bd;"/>
   </g>
   <g id="patch_117">
    <path d="M 225.297442 212.177405 
C 225.297442 212.177405 225.297442 212.177405 225.297442 212.177405 
L 184.526721 177.966703 
C 184.526721 177.966703 184.526721 177.966703 184.526721 177.966703 
L 225.297442 212.177405 
z
" style="fill:#8c564b;"/>
   </g>
   <g id="patch_118">
    <path d="M 225.297442 212.177405 
C 225.297442 212.177405 225.297442 212.177405 225.297442 212.177405 
L 184.526721 177.966703 
C 184.526721 177.966703 184.526721 177.966703 184.526721 177.966703 
L 225.297442 212.177405 
z
" style="fill:#e377c2;"/>
   </g>
   <g id="patch_119">
    <path d="M 225.297442 212.177405 
C 225.297442 212.177405 225.297442 212.177405 225.297442 212.177405 
L 184.526721 177.966703 
C 184.526721 177.966703 184.526721 177.966703 184.526721 177.966703 
L 225.297442 212.177405 
z
" style="fill:#7f7f7f;"/>
   </g>
   <g id="patch_120">
    <path d="M 225.297442 212.177405 
C 225.297442 212.177405 225.297442 212.177405 225.297442 212.177405 
L 184.526721 177.966703 
C 184.526721 177.966703 184.526721 177.966703 184.526721 177.966703 
L 225.297442 212.177405 
z
" style="fill:#bcbd22;"/>
   </g>
   <g id="patch_121">
    <path d="M 225.297442 212.177405 
C 225.297442 212.177405 225.297442 212.177405 225.297442 212.177405 
L 184.526721 177.966703 
C 184.526721 177.966703 184.526721 177.966703 184.526721 177.966703 
L 225.297442 212.177405 
z
" style="fill:#17becf;"/>
   </g>
   <g id="patch_122">
    <path d="M 225.297442 212.177405 
C 225.297442 212.177405 225.297442 212.177405 225.297442 212.177405 
L 184.526721 177.966703 
C 184.526721 177.966703 184.526721 177.966703 184.526721 177.966703 
L 225.297442 212.177405 
z
" style="fill:#1f77b4;"/>
   </g>
   <g id="patch_123">
    <path d="M 225.297442 212.177405 
C 225.297442 212.177405 225.297442 212.177405 225.297442 212.177405 
L 184.526721 177.966703 
C 184.526721 177.966703 184.526721 177.966703 184.526721 177.966703 
L 225.297442 212.177405 
z
" style="fill:#ff7f0e;"/>
   </g>
   <g id="patch_124">
    <path d="M 225.297442 212.177405 
C 225.297442 212.177405 225.297442 212.177405 225.297442 212.177405 
L 184.526721 177.966703 
C 184.526721 177.966703 184.526721 177.966703 184.526721 177.966703 
L 225.297442 212.177405 
z
" style="fill:#2ca02c;"/>
   </g>
   <g id="patch_125">
    <path d="M 225.297442 212.177405 
C 225.297442 212.177405 225.297442 212.177405 225.297442 212.177405 
L 184.526721 177.966703 
C 184.526721 177.966703 184.526721 177.966703 184.526721 177.966703 
L 225.297442 212.177405 
z
" style="fill:#d62728;"/>
   </g>
   <g id="patch_126">
    <path d="M 225.297442 212.177405 
C 225.297442 212.177405 225.297442 212.177405 225.297442 212.177405 
L 184.526721 177.966703 
C 184.526721 177.966703 184.526721 177.966703 184.526721 177.966703 
L 225.297442 212.177405 
z
" style="fill:#9467bd;"/>
   </g>
   <g id="patch_127">
    <path d="M 225.297442 212.177405 
C 225.297442 212.177405 225.297442 212.177405 225.297442 212.177405 
L 184.526721 177.966703 
C 184.526721 177.966703 184.526721 177.966703 184.526721 177.966703 
L 225.297442 212.177405 
z
" style="fill:#8c564b;"/>
   </g>
   <g id="patch_128">
    <path d="M 225.297442 212.177405 
C 225.297442 212.177405 225.297442 212.177405 225.297442 212.177405 
L 184.526721 177.966703 
C 184.526721 177.966703 184.526721 177.966703 184.526721 177.966703 
L 225.297442 212.177405 
z
" style="fill:#e377c2;"/>
   </g>
   <g id="patch_129">
    <path d="M 225.297442 212.177405 
C 225.297442 212.177405 225.297442 212.177405 225.297442 212.177405 
L 184.526721 177.966703 
C 184.526721 177.966703 184.526721 177.966703 184.526721 177.966703 
L 225.297442 212.177405 
z
" style="fill:#7f7f7f;"/>
   </g>
   <g id="patch_130">
    <path d="M 225.297442 212.177405 
C 225.297442 212.177405 225.297442 212.177405 225.297442 212.177405 
L 184.526721 177.966703 
C 184.526721 177.966703 184.526721 177.966703 184.526721 177.966703 
L 225.297442 212.177405 
z
" style="fill:#bcbd22;"/>
   </g>
   <g id="patch_131">
    <path d="M 225.297442 212.177405 
C 225.297442 212.177405 225.297442 212.177405 225.297442 212.177405 
L 184.526721 177.966703 
C 184.526721 177.966703 184.526721 177.966703 184.526721 177.966703 
L 225.297442 212.177405 
z
" style="fill:#17becf;"/>
   </g>
   <g id="patch_132">
    <path d="M 225.297442 212.177405 
C 225.297442 212.177405 225.297442 212.177405 225.297442 212.177405 
L 184.526721 177.966703 
C 184.526721 177.966703 184.526721 177.966703 184.526721 177.966703 
L 225.297442 212.177405 
z
" style="fill:#1f77b4;"/>
   </g>
   <g id="patch_133">
    <path d="M 225.297442 212.177405 
C 225.297442 212.177405 225.297442 212.177405 225.297442 212.177405 
L 184.526721 177.966703 
C 184.526721 177.966703 184.526721 177.966703 184.526721 177.966703 
L 225.297442 212.177405 
z
" style="fill:#ff7f0e;"/>
   </g>
   <g id="patch_134">
    <path d="M 225.297442 212.177405 
C 225.297442 212.177405 225.297442 212.177405 225.297442 212.177405 
L 184.526721 177.966703 
C 184.526721 177.966703 184.526721 177.966703 184.526721 177.966703 
L 225.297442 212.177405 
z
" style="fill:#2ca02c;"/>
   </g>
   <g id="patch_135">
    <path d="M 225.297442 212.177405 
C 225.297442 212.177405 225.297442 212.177405 225.297442 212.177405 
L 184.526721 177.966703 
C 184.526721 177.966703 184.526721 177.966703 184.526721 177.966703 
L 225.297442 212.177405 
z
" style="fill:#d62728;"/>
   </g>
   <g id="patch_136">
    <path d="M 225.297442 212.177405 
C 225.297442 212.177405 225.297442 212.177405 225.297442 212.177405 
L 184.526721 177.966703 
C 184.526721 177.966703 184.526721 177.966703 184.526721 177.966703 
L 225.297442 212.177405 
z
" style="fill:#9467bd;"/>
   </g>
   <g id="patch_137">
    <path d="M 225.297442 212.177405 
C 225.297442 212.177405 225.297442 212.177405 225.297442 212.177405 
L 184.526721 177.966703 
C 184.526721 177.966703 184.526721 177.966703 184.526721 177.966703 
L 225.297442 212.177405 
z
" style="fill:#8c564b;"/>
   </g>
   <g id="patch_138">
    <path d="M 225.297442 212.177405 
C 225.297442 212.177405 225.297442 212.177405 225.297442 212.177405 
L 184.526721 177.966703 
C 184.526721 177.966703 184.526721 177.966703 184.526721 177.966703 
L 225.297442 212.177405 
z
" style="fill:#e377c2;"/>
   </g>
   <g id="patch_139">
    <path d="M 225.297442 212.177405 
C 225.297442 212.177405 225.297442 212.177405 225.297442 212.177405 
L 184.526721 177.966703 
C 184.526721 177.966703 184.526721 177.966703 184.526721 177.966703 
L 225.297442 212.177405 
z
" style="fill:#7f7f7f;"/>
   </g>
   <g id="patch_140">
    <path d="M 225.297442 212.177405 
C 225.297442 212.177405 225.297442 212.177405 225.297442 212.177405 
L 184.526721 177.966703 
C 184.526721 177.966703 184.526721 177.966703 184.526721 177.966703 
L 225.297442 212.177405 
z
" style="fill:#bcbd22;"/>
   </g>
   <g id="patch_141">
    <path d="M 225.297442 212.177405 
C 225.297442 212.177405 225.297442 212.177405 225.297442 212.177405 
L 184.526721 177.966703 
C 184.526721 177.966703 184.526721 177.966703 184.526721 177.966703 
L 225.297442 212.177405 
z
" style="fill:#17becf;"/>
   </g>
   <g id="patch_142">
    <path d="M 225.297442 212.177405 
C 225.297442 212.177405 225.297442 212.177405 225.297442 212.177405 
L 184.526721 177.966703 
C 184.526721 177.966703 184.526721 177.966703 184.526721 177.966703 
L 225.297442 212.177405 
z
" style="fill:#1f77b4;"/>
   </g>
   <g id="patch_143">
    <path d="M 225.297442 212.177405 
C 225.297442 212.177405 225.297442 212.177405 225.297442 212.177405 
L 184.526721 177.966703 
C 184.526721 177.966703 184.526721 177.966703 184.526721 177.966703 
L 225.297442 212.177405 
z
" style="fill:#ff7f0e;"/>
   </g>
   <g id="patch_144">
    <path d="M 225.297442 212.177405 
C 225.297442 212.177405 225.297442 212.177405 225.297442 212.177405 
L 184.526721 177.966703 
C 184.526721 177.966703 184.526721 177.966703 184.526721 177.966703 
L 225.297442 212.177405 
z
" style="fill:#2ca02c;"/>
   </g>
   <g id="patch_145">
    <path d="M 225.297442 212.177405 
C 225.297442 212.177405 225.297442 212.177405 225.297442 212.177405 
L 184.526721 177.966703 
C 184.526721 177.966703 184.526721 177.966703 184.526721 177.966703 
L 225.297442 212.177405 
z
" style="fill:#d62728;"/>
   </g>
   <g id="patch_146">
    <path d="M 225.297442 212.177405 
C 225.297442 212.177405 225.297442 212.177405 225.297442 212.177405 
L 184.526721 177.966703 
C 184.526721 177.966703 184.526721 177.966703 184.526721 177.966703 
L 225.297442 212.177405 
z
" style="fill:#9467bd;"/>
   </g>
   <g id="patch_147">
    <path d="M 225.297442 212.177405 
C 225.297442 212.177405 225.297442 212.177405 225.297442 212.177405 
L 184.526721 177.966703 
C 184.526721 177.966703 184.526721 177.966703 184.526721 177.966703 
L 225.297442 212.177405 
z
" style="fill:#8c564b;"/>
   </g>
   <g id="patch_148">
    <path d="M 225.297442 212.177405 
C 225.297442 212.177405 225.297442 212.177405 225.297442 212.177405 
L 184.526721 177.966703 
C 184.526721 177.966703 184.526721 177.966703 184.526721 177.966703 
L 225.297442 212.177405 
z
" style="fill:#e377c2;"/>
   </g>
   <g id="patch_149">
    <path d="M 225.297442 212.177405 
C 225.297442 212.177405 225.297442 212.177405 225.297442 212.177405 
L 184.526721 177.966703 
C 184.526721 177.966703 184.526721 177.966703 184.526721 177.966703 
L 225.297442 212.177405 
z
" style="fill:#7f7f7f;"/>
   </g>
   <g id="patch_150">
    <path d="M 225.297442 212.177405 
C 225.297442 212.177405 225.297442 212.177405 225.297442 212.177405 
L 184.526721 177.966703 
C 184.526721 177.966703 184.526721 177.966703 184.526721 177.966703 
L 225.297442 212.177405 
z
" style="fill:#bcbd22;"/>
   </g>
   <g id="patch_151">
    <path d="M 225.297442 212.177405 
C 225.297442 212.177405 225.297442 212.177405 225.297442 212.177405 
L 184.526721 177.966703 
C 184.526721 177.966703 184.526721 177.966703 184.526721 177.966703 
L 225.297442 212.177405 
z
" style="fill:#17becf;"/>
   </g>
   <g id="patch_152">
    <path d="M 225.297442 212.177405 
C 225.297442 212.177405 225.297442 212.177405 225.297442 212.177405 
L 184.526721 177.966703 
C 184.526721 177.966703 184.526721 177.966703 184.526721 177.966703 
L 225.297442 212.177405 
z
" style="fill:#1f77b4;"/>
   </g>
   <g id="patch_153">
    <path d="M 225.297442 212.177405 
C 225.297442 212.177405 225.297442 212.177405 225.297442 212.177405 
L 184.526721 177.966703 
C 184.526721 177.966703 184.526721 177.966703 184.526721 177.966703 
L 225.297442 212.177405 
z
" style="fill:#ff7f0e;"/>
   </g>
   <g id="patch_154">
    <path d="M 225.297442 212.177405 
C 225.297442 212.177405 225.297442 212.177405 225.297442 212.177405 
L 184.526721 177.966703 
C 184.526721 177.966703 184.526721 177.966703 184.526721 177.966703 
L 225.297442 212.177405 
z
" style="fill:#2ca02c;"/>
   </g>
   <g id="patch_155">
    <path d="M 225.297442 212.177405 
C 225.297442 212.177405 225.297442 212.177405 225.297442 212.177405 
L 184.526721 177.966703 
C 184.526721 177.966703 184.526721 177.966703 184.526721 177.966703 
L 225.297442 212.177405 
z
" style="fill:#d62728;"/>
   </g>
   <g id="patch_156">
    <path d="M 225.297442 212.177405 
C 225.297442 212.177405 225.297442 212.177405 225.297442 212.177405 
L 184.526721 177.966703 
C 184.526721 177.966703 184.526721 177.966703 184.526721 177.966703 
L 225.297442 212.177405 
z
" style="fill:#9467bd;"/>
   </g>
   <g id="patch_157">
    <path d="M 225.297442 212.177405 
C 225.297442 212.177405 225.297442 212.177405 225.297442 212.177405 
L 184.526721 177.966703 
C 184.526721 177.966703 184.526721 177.966703 184.526721 177.966703 
L 225.297442 212.177405 
z
" style="fill:#8c564b;"/>
   </g>
   <g id="patch_158">
    <path d="M 225.297442 212.177405 
C 225.297442 212.177405 225.297442 212.177405 225.297442 212.177405 
L 184.526721 177.966703 
C 184.526721 177.966703 184.526721 177.966703 184.526721 177.966703 
L 225.297442 212.177405 
z
" style="fill:#e377c2;"/>
   </g>
   <g id="patch_159">
    <path d="M 225.297442 212.177405 
C 225.297442 212.177405 225.297442 212.177405 225.297442 212.177405 
L 184.526721 177.966703 
C 184.526721 177.966703 184.526721 177.966703 184.526721 177.966703 
L 225.297442 212.177405 
z
" style="fill:#7f7f7f;"/>
   </g>
   <g id="patch_160">
    <path d="M 225.297442 212.177405 
C 225.297442 212.177405 225.297442 212.177405 225.297442 212.177405 
L 184.526721 177.966703 
C 184.526721 177.966703 184.526721 177.966703 184.526721 177.966703 
L 225.297442 212.177405 
z
" style="fill:#bcbd22;"/>
   </g>
   <g id="patch_161">
    <path d="M 225.297442 212.177405 
C 225.297442 212.177405 225.297442 212.177405 225.297442 212.177405 
L 184.526721 177.966703 
C 184.526721 177.966703 184.526721 177.966703 184.526721 177.966703 
L 225.297442 212.177405 
z
" style="fill:#17becf;"/>
   </g>
   <g id="patch_162">
    <path d="M 225.297442 212.177405 
C 225.297442 212.177405 225.297442 212.177405 225.297442 212.177405 
L 184.526721 177.966703 
C 184.526721 177.966703 184.526721 177.966703 184.526721 177.966703 
L 225.297442 212.177405 
z
" style="fill:#1f77b4;"/>
   </g>
   <g id="patch_163">
    <path d="M 225.297442 212.177405 
C 225.297442 212.177405 225.297442 212.177405 225.297442 212.177405 
L 184.526721 177.966703 
C 184.526721 177.966703 184.526721 177.966703 184.526721 177.966703 
L 225.297442 212.177405 
z
" style="fill:#ff7f0e;"/>
   </g>
   <g id="patch_164">
    <path d="M 225.297442 212.177405 
C 225.297442 212.177405 225.297442 212.177405 225.297442 212.177405 
L 184.526721 177.966703 
C 184.526721 177.966703 184.526721 177.966703 184.526721 177.966703 
L 225.297442 212.177405 
z
" style="fill:#2ca02c;"/>
   </g>
   <g id="patch_165">
    <path d="M 225.297442 212.177405 
C 225.297442 212.177405 225.297442 212.177405 225.297442 212.177405 
L 184.526721 177.966703 
C 184.526721 177.966703 184.526721 177.966703 184.526721 177.966703 
L 225.297442 212.177405 
z
" style="fill:#d62728;"/>
   </g>
   <g id="patch_166">
    <path d="M 225.297442 212.177405 
C 225.297442 212.177405 225.297442 212.177405 225.297442 212.177405 
L 184.526721 177.966703 
C 184.526721 177.966703 184.526721 177.966703 184.526721 177.966703 
L 225.297442 212.177405 
z
" style="fill:#9467bd;"/>
   </g>
   <g id="patch_167">
    <path d="M 225.297442 212.177405 
C 225.297442 212.177405 225.297442 212.177405 225.297442 212.177405 
L 184.526721 177.966703 
C 184.526721 177.966703 184.526721 177.966703 184.526721 177.966703 
L 225.297442 212.177405 
z
" style="fill:#8c564b;"/>
   </g>
   <g id="patch_168">
    <path d="M 225.297442 212.177405 
C 225.297442 212.177405 225.297442 212.177405 225.297442 212.177405 
L 184.526721 177.966703 
C 184.526721 177.966703 184.526721 177.966703 184.526721 177.966703 
L 225.297442 212.177405 
z
" style="fill:#e377c2;"/>
   </g>
   <g id="patch_169">
    <path d="M 225.297442 212.177405 
C 225.297442 212.177405 225.297442 212.177405 225.297442 212.177405 
L 184.526721 177.966703 
C 184.526721 177.966703 184.526721 177.966703 184.526721 177.966703 
L 225.297442 212.177405 
z
" style="fill:#7f7f7f;"/>
   </g>
   <g id="patch_170">
    <path d="M 225.297442 212.177405 
C 225.297442 212.177405 225.297442 212.177405 225.297442 212.177405 
L 184.526721 177.966703 
C 184.526721 177.966703 184.526721 177.966703 184.526721 177.966703 
L 225.297442 212.177405 
z
" style="fill:#bcbd22;"/>
   </g>
   <g id="patch_171">
    <path d="M 225.297442 212.177405 
C 225.297442 212.177405 225.297442 212.177405 225.297442 212.177405 
L 184.526721 177.966703 
C 184.526721 177.966703 184.526721 177.966703 184.526721 177.966703 
L 225.297442 212.177405 
z
" style="fill:#17becf;"/>
   </g>
   <g id="patch_172">
    <path d="M 225.297442 212.177405 
C 225.297442 212.177405 225.297442 212.177405 225.297442 212.177405 
L 184.526721 177.966703 
C 184.526721 177.966703 184.526721 177.966703 184.526721 177.966703 
L 225.297442 212.177405 
z
" style="fill:#1f77b4;"/>
   </g>
   <g id="patch_173">
    <path d="M 225.297442 212.177405 
C 225.297442 212.177405 225.297442 212.177405 225.297442 212.177405 
L 184.526721 177.966703 
C 184.526721 177.966703 184.526721 177.966703 184.526721 177.966703 
L 225.297442 212.177405 
z
" style="fill:#ff7f0e;"/>
   </g>
   <g id="patch_174">
    <path d="M 225.297442 212.177405 
C 225.297442 212.177405 225.297442 212.177405 225.297442 212.177405 
L 184.526721 177.966703 
C 184.526721 177.966703 184.526721 177.966703 184.526721 177.966703 
L 225.297442 212.177405 
z
" style="fill:#2ca02c;"/>
   </g>
   <g id="patch_175">
    <path d="M 225.297442 212.177405 
C 225.297442 212.177405 225.297442 212.177405 225.297442 212.177405 
L 184.526721 177.966703 
C 184.526721 177.966703 184.526721 177.966703 184.526721 177.966703 
L 225.297442 212.177405 
z
" style="fill:#d62728;"/>
   </g>
   <g id="patch_176">
    <path d="M 225.297442 212.177405 
C 225.297442 212.177405 225.297442 212.177405 225.297442 212.177405 
L 184.526721 177.966703 
C 184.526721 177.966703 184.526721 177.966703 184.526721 177.966703 
L 225.297442 212.177405 
z
" style="fill:#9467bd;"/>
   </g>
   <g id="patch_177">
    <path d="M 225.297442 212.177405 
C 225.297442 212.177405 225.297442 212.177405 225.297442 212.177405 
L 184.526721 177.966703 
C 184.526721 177.966703 184.526721 177.966703 184.526721 177.966703 
L 225.297442 212.177405 
z
" style="fill:#8c564b;"/>
   </g>
   <g id="patch_178">
    <path d="M 225.297442 212.177405 
C 225.297442 212.177405 225.297442 212.177405 225.297442 212.177405 
L 184.526721 177.966703 
C 184.526721 177.966703 184.526721 177.966703 184.526721 177.966703 
L 225.297442 212.177405 
z
" style="fill:#e377c2;"/>
   </g>
   <g id="patch_179">
    <path d="M 225.297442 212.177405 
C 225.297442 212.177405 225.297442 212.177405 225.297442 212.177405 
L 184.526721 177.966703 
C 184.526721 177.966703 184.526721 177.966703 184.526721 177.966703 
L 225.297442 212.177405 
z
" style="fill:#7f7f7f;"/>
   </g>
   <g id="patch_180">
    <path d="M 225.297442 212.177405 
C 225.297442 212.177405 225.297442 212.177405 225.297442 212.177405 
L 184.526721 177.966703 
C 184.526721 177.966703 184.526721 177.966703 184.526721 177.966703 
L 225.297442 212.177405 
z
" style="fill:#bcbd22;"/>
   </g>
   <g id="patch_181">
    <path d="M 225.297442 212.177405 
C 225.297442 212.177405 225.297442 212.177405 225.297442 212.177405 
L 184.526721 177.966703 
C 184.526721 177.966703 184.526721 177.966703 184.526721 177.966703 
L 225.297442 212.177405 
z
" style="fill:#17becf;"/>
   </g>
   <g id="patch_182">
    <path d="M 225.297442 212.177405 
C 225.297442 212.177405 225.297442 212.177405 225.297442 212.177405 
L 184.526721 177.966703 
C 184.526721 177.966703 184.526721 177.966703 184.526721 177.966703 
L 225.297442 212.177405 
z
" style="fill:#1f77b4;"/>
   </g>
   <g id="patch_183">
    <path d="M 225.297442 212.177405 
C 225.297442 212.177405 225.297442 212.177405 225.297442 212.177405 
L 184.526721 177.966703 
C 184.526721 177.966703 184.526721 177.966703 184.526721 177.966703 
L 225.297442 212.177405 
z
" style="fill:#ff7f0e;"/>
   </g>
   <g id="patch_184">
    <path d="M 225.297442 212.177405 
C 225.297442 212.177405 225.297442 212.177405 225.297442 212.177405 
L 184.526721 177.966703 
C 184.526721 177.966703 184.526721 177.966703 184.526721 177.966703 
L 225.297442 212.177405 
z
" style="fill:#2ca02c;"/>
   </g>
   <g id="patch_185">
    <path d="M 225.297442 212.177405 
C 225.297442 212.177405 225.297442 212.177405 225.297442 212.177405 
L 184.526721 177.966703 
C 184.526721 177.966703 184.526721 177.966703 184.526721 177.966703 
L 225.297442 212.177405 
z
" style="fill:#d62728;"/>
   </g>
   <g id="patch_186">
    <path d="M 225.297442 212.177405 
C 225.297442 212.177405 225.297442 212.177405 225.297442 212.177405 
L 184.526721 177.966703 
C 184.526721 177.966703 184.526721 177.966703 184.526721 177.966703 
L 225.297442 212.177405 
z
" style="fill:#9467bd;"/>
   </g>
   <g id="patch_187">
    <path d="M 225.297442 212.177405 
C 225.297442 212.177405 225.297442 212.177405 225.297442 212.177405 
L 184.526721 177.966703 
C 184.526721 177.966703 184.526721 177.966703 184.526721 177.966703 
L 225.297442 212.177405 
z
" style="fill:#8c564b;"/>
   </g>
   <g id="patch_188">
    <path d="M 225.297442 212.177405 
C 225.297442 212.177405 225.297442 212.177405 225.297442 212.177405 
L 184.526721 177.966703 
C 184.526721 177.966703 184.526721 177.966703 184.526721 177.966703 
L 225.297442 212.177405 
z
" style="fill:#e377c2;"/>
   </g>
   <g id="patch_189">
    <path d="M 225.297442 212.177405 
C 225.297442 212.177405 225.297442 212.177405 225.297442 212.177405 
L 184.526721 177.966703 
C 184.526721 177.966703 184.526721 177.966703 184.526721 177.966703 
L 225.297442 212.177405 
z
" style="fill:#7f7f7f;"/>
   </g>
   <g id="patch_190">
    <path d="M 225.297442 212.177405 
C 225.297442 212.177405 225.297442 212.177405 225.297442 212.177405 
L 184.526721 177.966703 
C 184.526721 177.966703 184.526721 177.966703 184.526721 177.966703 
L 225.297442 212.177405 
z
" style="fill:#bcbd22;"/>
   </g>
   <g id="patch_191">
    <path d="M 225.297442 212.177405 
C 225.297442 212.177405 225.297442 212.177405 225.297442 212.177405 
L 184.526721 177.966703 
C 184.526721 177.966703 184.526721 177.966703 184.526721 177.966703 
L 225.297442 212.177405 
z
" style="fill:#17becf;"/>
   </g>
   <g id="patch_192">
    <path d="M 225.297442 212.177405 
C 225.297442 212.177405 225.297442 212.177405 225.297442 212.177405 
L 184.526721 177.966703 
C 184.526721 177.966703 184.526721 177.966703 184.526721 177.966703 
L 225.297442 212.177405 
z
" style="fill:#1f77b4;"/>
   </g>
   <g id="patch_193">
    <path d="M 225.297442 212.177405 
C 225.297442 212.177405 225.297442 212.177405 225.297442 212.177405 
L 184.526721 177.966703 
C 184.526721 177.966703 184.526721 177.966703 184.526721 177.966703 
L 225.297442 212.177405 
z
" style="fill:#ff7f0e;"/>
   </g>
   <g id="patch_194">
    <path d="M 225.297442 212.177405 
C 225.297442 212.177405 225.297442 212.177405 225.297442 212.177405 
L 184.526721 177.966703 
C 184.526721 177.966703 184.526721 177.966703 184.526721 177.966703 
L 225.297442 212.177405 
z
" style="fill:#2ca02c;"/>
   </g>
   <g id="patch_195">
    <path d="M 225.297442 212.177405 
C 225.297442 212.177405 225.297442 212.177405 225.297442 212.177405 
L 184.526721 177.966703 
C 184.526721 177.966703 184.526721 177.966703 184.526721 177.966703 
L 225.297442 212.177405 
z
" style="fill:#d62728;"/>
   </g>
   <g id="patch_196">
    <path d="M 225.297442 212.177405 
C 225.297442 212.177405 225.297442 212.177405 225.297442 212.177405 
L 184.526721 177.966703 
C 184.526721 177.966703 184.526721 177.966703 184.526721 177.966703 
L 225.297442 212.177405 
z
" style="fill:#9467bd;"/>
   </g>
   <g id="patch_197">
    <path d="M 225.297442 212.177405 
C 225.297442 212.177405 225.297442 212.177405 225.297442 212.177405 
L 184.526721 177.966703 
C 184.526721 177.966703 184.526721 177.966703 184.526721 177.966703 
L 225.297442 212.177405 
z
" style="fill:#8c564b;"/>
   </g>
   <g id="patch_198">
    <path d="M 225.297442 212.177405 
C 225.297442 212.177405 225.297442 212.177405 225.297442 212.177405 
L 184.526721 177.966703 
C 184.526721 177.966703 184.526721 177.966703 184.526721 177.966703 
L 225.297442 212.177405 
z
" style="fill:#e377c2;"/>
   </g>
   <g id="patch_199">
    <path d="M 225.297442 212.177405 
C 225.297442 212.177405 225.297442 212.177405 225.297442 212.177405 
L 184.526721 177.966703 
C 184.526721 177.966703 184.526721 177.966703 184.526721 177.966703 
L 225.297442 212.177405 
z
" style="fill:#7f7f7f;"/>
   </g>
   <g id="patch_200">
    <path d="M 225.297442 212.177405 
C 225.297442 212.177405 225.297442 212.177405 225.297442 212.177405 
L 184.526721 177.966703 
C 184.526721 177.966703 184.526721 177.966703 184.526721 177.966703 
L 225.297442 212.177405 
z
" style="fill:#bcbd22;"/>
   </g>
   <g id="patch_201">
    <path d="M 225.297442 212.177405 
C 225.297442 212.177405 225.297442 212.177405 225.297442 212.177405 
L 184.526721 177.966703 
C 184.526721 177.966703 184.526721 177.966703 184.526721 177.966703 
L 225.297442 212.177405 
z
" style="fill:#17becf;"/>
   </g>
   <g id="patch_202">
    <path d="M 225.297442 212.177405 
C 225.297442 212.177405 225.297442 212.177405 225.297442 212.177405 
L 184.526721 177.966703 
C 184.526721 177.966703 184.526721 177.966703 184.526721 177.966703 
L 225.297442 212.177405 
z
" style="fill:#1f77b4;"/>
   </g>
   <g id="patch_203">
    <path d="M 225.297442 212.177405 
C 225.297442 212.177405 225.297442 212.177405 225.297442 212.177405 
L 184.526721 177.966703 
C 184.526721 177.966703 184.526721 177.966703 184.526721 177.966703 
L 225.297442 212.177405 
z
" style="fill:#ff7f0e;"/>
   </g>
   <g id="patch_204">
    <path d="M 225.297442 212.177405 
C 225.297442 212.177405 225.297442 212.177405 225.297442 212.177405 
L 184.526721 177.966703 
C 184.526721 177.966703 184.526721 177.966703 184.526721 177.966703 
L 225.297442 212.177405 
z
" style="fill:#2ca02c;"/>
   </g>
   <g id="patch_205">
    <path d="M 225.297442 212.177405 
C 225.297442 212.177405 225.297442 212.177405 225.297442 212.177405 
L 184.526721 177.966703 
C 184.526721 177.966703 184.526721 177.966703 184.526721 177.966703 
L 225.297442 212.177405 
z
" style="fill:#d62728;"/>
   </g>
   <g id="patch_206">
    <path d="M 225.297442 212.177405 
C 225.297442 212.177405 225.297442 212.177405 225.297442 212.177405 
L 184.526721 177.966703 
C 184.526721 177.966703 184.526721 177.966703 184.526721 177.966703 
L 225.297442 212.177405 
z
" style="fill:#9467bd;"/>
   </g>
   <g id="patch_207">
    <path d="M 225.297442 212.177405 
C 225.297442 212.177405 225.297442 212.177405 225.297442 212.177405 
L 184.526721 177.966703 
C 184.526721 177.966703 184.526721 177.966703 184.526721 177.966703 
L 225.297442 212.177405 
z
" style="fill:#8c564b;"/>
   </g>
   <g id="patch_208">
    <path d="M 225.297442 212.177405 
C 225.297442 212.177405 225.297442 212.177405 225.297442 212.177405 
L 184.526721 177.966703 
C 184.526721 177.966703 184.526721 177.966703 184.526721 177.966703 
L 225.297442 212.177405 
z
" style="fill:#e377c2;"/>
   </g>
   <g id="patch_209">
    <path d="M 225.297442 212.177405 
C 225.297442 212.177405 225.297442 212.177405 225.297442 212.177405 
L 184.526721 177.966703 
C 184.526721 177.966703 184.526721 177.966703 184.526721 177.966703 
L 225.297442 212.177405 
z
" style="fill:#7f7f7f;"/>
   </g>
   <g id="patch_210">
    <path d="M 225.297442 212.177405 
C 225.297442 212.177405 225.297442 212.177405 225.297442 212.177405 
L 184.526721 177.966703 
C 184.526721 177.966703 184.526721 177.966703 184.526721 177.966703 
L 225.297442 212.177405 
z
" style="fill:#bcbd22;"/>
   </g>
   <g id="patch_211">
    <path d="M 225.297442 212.177405 
C 225.297442 212.177405 225.297442 212.177405 225.297442 212.177405 
L 184.526721 177.966703 
C 184.526721 177.966703 184.526721 177.966703 184.526721 177.966703 
L 225.297442 212.177405 
z
" style="fill:#17becf;"/>
   </g>
   <g id="patch_212">
    <path d="M 225.297442 212.177405 
C 225.297442 212.177405 225.297442 212.177405 225.297442 212.177405 
L 184.526721 177.966703 
C 184.526721 177.966703 184.526721 177.966703 184.526721 177.966703 
L 225.297442 212.177405 
z
" style="fill:#1f77b4;"/>
   </g>
   <g id="patch_213">
    <path d="M 225.297442 212.177405 
C 225.297442 212.177405 225.297442 212.177405 225.297442 212.177405 
L 184.526721 177.966703 
C 184.526721 177.966703 184.526721 177.966703 184.526721 177.966703 
L 225.297442 212.177405 
z
" style="fill:#ff7f0e;"/>
   </g>
   <g id="patch_214">
    <path d="M 225.297442 212.177405 
C 225.297442 212.177405 225.297442 212.177405 225.297442 212.177405 
L 184.526721 177.966703 
C 184.526721 177.966703 184.526721 177.966703 184.526721 177.966703 
L 225.297442 212.177405 
z
" style="fill:#2ca02c;"/>
   </g>
   <g id="patch_215">
    <path d="M 225.297442 212.177405 
C 225.297442 212.177405 225.297442 212.177405 225.297442 212.177405 
L 184.526721 177.966703 
C 184.526721 177.966703 184.526721 177.966703 184.526721 177.966703 
L 225.297442 212.177405 
z
" style="fill:#d62728;"/>
   </g>
   <g id="patch_216">
    <path d="M 225.297442 212.177405 
C 225.297442 212.177405 225.297442 212.177405 225.297442 212.177405 
L 184.526721 177.966703 
C 184.526721 177.966703 184.526721 177.966703 184.526721 177.966703 
L 225.297442 212.177405 
z
" style="fill:#9467bd;"/>
   </g>
   <g id="patch_217">
    <path d="M 225.297442 212.177405 
C 225.297442 212.177405 225.297442 212.177405 225.297442 212.177405 
L 184.526721 177.966703 
C 184.526721 177.966703 184.526721 177.966703 184.526721 177.966703 
L 225.297442 212.177405 
z
" style="fill:#8c564b;"/>
   </g>
   <g id="patch_218">
    <path d="M 225.297442 212.177405 
C 225.297442 212.177405 225.297442 212.177405 225.297442 212.177405 
L 184.526721 177.966703 
C 184.526721 177.966703 184.526721 177.966703 184.526721 177.966703 
L 225.297442 212.177405 
z
" style="fill:#e377c2;"/>
   </g>
   <g id="patch_219">
    <path d="M 225.297442 212.177405 
C 225.297442 212.177405 225.297442 212.177405 225.297442 212.177405 
L 184.526721 177.966703 
C 184.526721 177.966703 184.526721 177.966703 184.526721 177.966703 
L 225.297442 212.177405 
z
" style="fill:#7f7f7f;"/>
   </g>
   <g id="patch_220">
    <path d="M 225.297442 212.177405 
C 225.297442 212.177405 225.297442 212.177405 225.297442 212.177405 
L 184.526721 177.966703 
C 184.526721 177.966703 184.526721 177.966703 184.526721 177.966703 
L 225.297442 212.177405 
z
" style="fill:#bcbd22;"/>
   </g>
   <g id="patch_221">
    <path d="M 225.297442 212.177405 
C 225.297442 212.177405 225.297442 212.177405 225.297442 212.177405 
L 184.526721 177.966703 
C 184.526721 177.966703 184.526721 177.966703 184.526721 177.966703 
L 225.297442 212.177405 
z
" style="fill:#17becf;"/>
   </g>
   <g id="patch_222">
    <path d="M 225.297442 212.177405 
C 225.297442 212.177405 225.297442 212.177405 225.297442 212.177405 
L 184.526721 177.966703 
C 184.526721 177.966703 184.526721 177.966703 184.526721 177.966703 
L 225.297442 212.177405 
z
" style="fill:#1f77b4;"/>
   </g>
   <g id="patch_223">
    <path d="M 225.297442 212.177405 
C 225.297442 212.177405 225.297442 212.177405 225.297442 212.177405 
L 184.526721 177.966703 
C 184.526721 177.966703 184.526721 177.966703 184.526721 177.966703 
L 225.297442 212.177405 
z
" style="fill:#ff7f0e;"/>
   </g>
   <g id="patch_224">
    <path d="M 225.297442 212.177405 
C 225.297442 212.177405 225.297442 212.177405 225.297442 212.177405 
L 184.526721 177.966703 
C 184.526721 177.966703 184.526721 177.966703 184.526721 177.966703 
L 225.297442 212.177405 
z
" style="fill:#2ca02c;"/>
   </g>
   <g id="patch_225">
    <path d="M 225.297442 212.177405 
C 225.297442 212.177405 225.297442 212.177405 225.297442 212.177405 
L 184.526721 177.966703 
C 184.526721 177.966703 184.526721 177.966703 184.526721 177.966703 
L 225.297442 212.177405 
z
" style="fill:#d62728;"/>
   </g>
   <g id="patch_226">
    <path d="M 225.297442 212.177405 
C 225.297442 212.177405 225.297442 212.177405 225.297442 212.177405 
L 184.526721 177.966703 
C 184.526721 177.966703 184.526721 177.966703 184.526721 177.966703 
L 225.297442 212.177405 
z
" style="fill:#9467bd;"/>
   </g>
   <g id="patch_227">
    <path d="M 225.297442 212.177405 
C 225.297442 212.177405 225.297442 212.177405 225.297442 212.177405 
L 184.526721 177.966703 
C 184.526721 177.966703 184.526721 177.966703 184.526721 177.966703 
L 225.297442 212.177405 
z
" style="fill:#8c564b;"/>
   </g>
   <g id="patch_228">
    <path d="M 225.297442 212.177405 
C 225.297442 212.177405 225.297442 212.177405 225.297442 212.177405 
L 184.526721 177.966703 
C 184.526721 177.966703 184.526721 177.966703 184.526721 177.966703 
L 225.297442 212.177405 
z
" style="fill:#e377c2;"/>
   </g>
   <g id="patch_229">
    <path d="M 225.297442 212.177405 
C 225.297442 212.177405 225.297442 212.177405 225.297442 212.177405 
L 184.526721 177.966703 
C 184.526721 177.966703 184.526721 177.966703 184.526721 177.966703 
L 225.297442 212.177405 
z
" style="fill:#7f7f7f;"/>
   </g>
   <g id="patch_230">
    <path d="M 225.297442 212.177405 
C 225.297442 212.177405 225.297442 212.177405 225.297442 212.177405 
L 184.526721 177.966703 
C 184.526721 177.966703 184.526721 177.966703 184.526721 177.966703 
L 225.297442 212.177405 
z
" style="fill:#bcbd22;"/>
   </g>
   <g id="patch_231">
    <path d="M 225.297442 212.177405 
C 225.297442 212.177405 225.297442 212.177405 225.297442 212.177405 
L 184.526721 177.966703 
C 184.526721 177.966703 184.526721 177.966703 184.526721 177.966703 
L 225.297442 212.177405 
z
" style="fill:#17becf;"/>
   </g>
   <g id="patch_232">
    <path d="M 225.297442 212.177405 
C 225.297442 212.177405 225.297442 212.177405 225.297442 212.177405 
L 184.526721 177.966703 
C 184.526721 177.966703 184.526721 177.966703 184.526721 177.966703 
L 225.297442 212.177405 
z
" style="fill:#1f77b4;"/>
   </g>
   <g id="patch_233">
    <path d="M 225.297442 212.177405 
C 225.297442 212.177405 225.297442 212.177405 225.297442 212.177405 
L 184.526721 177.966703 
C 184.526721 177.966703 184.526721 177.966703 184.526721 177.966703 
L 225.297442 212.177405 
z
" style="fill:#ff7f0e;"/>
   </g>
   <g id="patch_234">
    <path d="M 225.297442 212.177405 
C 225.297442 212.177405 225.297442 212.177405 225.297442 212.177405 
L 184.526721 177.966703 
C 184.526721 177.966703 184.526721 177.966703 184.526721 177.966703 
L 225.297442 212.177405 
z
" style="fill:#2ca02c;"/>
   </g>
   <g id="patch_235">
    <path d="M 225.297442 212.177405 
C 225.297442 212.177405 225.297442 212.177405 225.297442 212.177405 
L 184.526721 177.966703 
C 184.526721 177.966703 184.526721 177.966703 184.526721 177.966703 
L 225.297442 212.177405 
z
" style="fill:#d62728;"/>
   </g>
   <g id="patch_236">
    <path d="M 225.297442 212.177405 
C 225.297442 212.177405 225.297442 212.177405 225.297442 212.177405 
L 184.526721 177.966703 
C 184.526721 177.966703 184.526721 177.966703 184.526721 177.966703 
L 225.297442 212.177405 
z
" style="fill:#9467bd;"/>
   </g>
   <g id="patch_237">
    <path d="M 225.297442 212.177405 
C 225.297442 212.177405 225.297442 212.177405 225.297442 212.177405 
L 184.526721 177.966703 
C 184.526721 177.966703 184.526721 177.966703 184.526721 177.966703 
L 225.297442 212.177405 
z
" style="fill:#8c564b;"/>
   </g>
   <g id="patch_238">
    <path d="M 225.297442 212.177405 
C 225.297442 212.177405 225.297442 212.177405 225.297442 212.177405 
L 184.526721 177.966703 
C 184.526721 177.966703 184.526721 177.966703 184.526721 177.966703 
L 225.297442 212.177405 
z
" style="fill:#e377c2;"/>
   </g>
   <g id="patch_239">
    <path d="M 225.297442 212.177405 
C 225.297442 212.177405 225.297442 212.177405 225.297442 212.177405 
L 184.526721 177.966703 
C 184.526721 177.966703 184.526721 177.966703 184.526721 177.966703 
L 225.297442 212.177405 
z
" style="fill:#7f7f7f;"/>
   </g>
   <g id="patch_240">
    <path d="M 225.297442 212.177405 
C 225.297442 212.177405 225.297442 212.177405 225.297442 212.177405 
L 184.526721 177.966703 
C 184.526721 177.966703 184.526721 177.966703 184.526721 177.966703 
L 225.297442 212.177405 
z
" style="fill:#bcbd22;"/>
   </g>
   <g id="patch_241">
    <path d="M 225.297442 212.177405 
C 225.297442 212.177405 225.297442 212.177405 225.297442 212.177405 
L 184.526721 177.966703 
C 184.526721 177.966703 184.526721 177.966703 184.526721 177.966703 
L 225.297442 212.177405 
z
" style="fill:#17becf;"/>
   </g>
   <g id="patch_242">
    <path d="M 225.297442 212.177405 
C 225.297442 212.177405 225.297442 212.177405 225.297442 212.177405 
L 184.526721 177.966703 
C 184.526721 177.966703 184.526721 177.966703 184.526721 177.966703 
L 225.297442 212.177405 
z
" style="fill:#1f77b4;"/>
   </g>
   <g id="patch_243">
    <path d="M 225.297442 212.177405 
C 225.297442 212.177405 225.297442 212.177405 225.297442 212.177405 
L 184.526721 177.966703 
C 184.526721 177.966703 184.526721 177.966703 184.526721 177.966703 
L 225.297442 212.177405 
z
" style="fill:#ff7f0e;"/>
   </g>
   <g id="patch_244">
    <path d="M 225.297442 212.177405 
C 225.297442 212.177405 225.297442 212.177405 225.297442 212.177405 
L 184.526721 177.966703 
C 184.526721 177.966703 184.526721 177.966703 184.526721 177.966703 
L 225.297442 212.177405 
z
" style="fill:#2ca02c;"/>
   </g>
   <g id="patch_245">
    <path d="M 225.297442 212.177405 
C 225.297442 212.177405 225.297442 212.177405 225.297442 212.177405 
L 184.526721 177.966703 
C 184.526721 177.966703 184.526721 177.966703 184.526721 177.966703 
L 225.297442 212.177405 
z
" style="fill:#d62728;"/>
   </g>
   <g id="patch_246">
    <path d="M 225.297442 212.177405 
C 225.297442 212.177405 225.297442 212.177405 225.297442 212.177405 
L 184.526721 177.966703 
C 184.526721 177.966703 184.526721 177.966703 184.526721 177.966703 
L 225.297442 212.177405 
z
" style="fill:#9467bd;"/>
   </g>
   <g id="patch_247">
    <path d="M 225.297442 212.177405 
C 225.297442 212.177405 225.297442 212.177405 225.297442 212.177405 
L 184.526721 177.966703 
C 184.526721 177.966703 184.526721 177.966703 184.526721 177.966703 
L 225.297442 212.177405 
z
" style="fill:#8c564b;"/>
   </g>
   <g id="patch_248">
    <path d="M 225.297442 212.177405 
C 225.297442 212.177405 225.297442 212.177405 225.297442 212.177405 
L 184.526721 177.966703 
C 184.526721 177.966703 184.526721 177.966703 184.526721 177.966703 
L 225.297442 212.177405 
z
" style="fill:#e377c2;"/>
   </g>
   <g id="patch_249">
    <path d="M 225.297442 212.177405 
C 225.297442 212.177405 225.297442 212.177405 225.297442 212.177405 
L 184.526721 177.966703 
C 184.526721 177.966703 184.526721 177.966703 184.526721 177.966703 
L 225.297442 212.177405 
z
" style="fill:#7f7f7f;"/>
   </g>
   <g id="patch_250">
    <path d="M 225.297442 212.177405 
C 225.297442 212.177405 225.297442 212.177405 225.297442 212.177405 
L 184.526721 177.966703 
C 184.526721 177.966703 184.526721 177.966703 184.526721 177.966703 
L 225.297442 212.177405 
z
" style="fill:#bcbd22;"/>
   </g>
   <g id="patch_251">
    <path d="M 225.297442 212.177405 
C 225.297442 212.177405 225.297442 212.177405 225.297442 212.177405 
L 184.526721 177.966703 
C 184.526721 177.966703 184.526721 177.966703 184.526721 177.966703 
L 225.297442 212.177405 
z
" style="fill:#17becf;"/>
   </g>
   <g id="patch_252">
    <path d="M 225.297442 212.177405 
C 225.297442 212.177405 225.297442 212.177405 225.297442 212.177405 
L 184.526721 177.966703 
C 184.526721 177.966703 184.526721 177.966703 184.526721 177.966703 
L 225.297442 212.177405 
z
" style="fill:#1f77b4;"/>
   </g>
   <g id="patch_253">
    <path d="M 225.297442 212.177405 
C 225.297442 212.177405 225.297442 212.177405 225.297442 212.177405 
L 184.526721 177.966703 
C 184.526721 177.966703 184.526721 177.966703 184.526721 177.966703 
L 225.297442 212.177405 
z
" style="fill:#ff7f0e;"/>
   </g>
   <g id="patch_254">
    <path d="M 225.297442 212.177405 
C 225.297442 212.177405 225.297442 212.177405 225.297442 212.177405 
L 184.526721 177.966703 
C 184.526721 177.966703 184.526721 177.966703 184.526721 177.966703 
L 225.297442 212.177405 
z
" style="fill:#2ca02c;"/>
   </g>
   <g id="patch_255">
    <path d="M 225.297442 212.177405 
C 225.297442 212.177405 225.297442 212.177405 225.297442 212.177405 
L 184.526721 177.966703 
C 184.526721 177.966703 184.526721 177.966703 184.526721 177.966703 
L 225.297442 212.177405 
z
" style="fill:#d62728;"/>
   </g>
   <g id="patch_256">
    <path d="M 225.297442 212.177405 
C 225.297442 212.177405 225.297442 212.177405 225.297442 212.177405 
L 184.526721 177.966703 
C 184.526721 177.966703 184.526721 177.966703 184.526721 177.966703 
L 225.297442 212.177405 
z
" style="fill:#9467bd;"/>
   </g>
   <g id="patch_257">
    <path d="M 225.297442 212.177405 
C 225.297442 212.177405 225.297442 212.177405 225.297442 212.177405 
L 184.526721 177.966703 
C 184.526721 177.966703 184.526721 177.966703 184.526721 177.966703 
L 225.297442 212.177405 
z
" style="fill:#8c564b;"/>
   </g>
   <g id="patch_258">
    <path d="M 225.297442 212.177405 
C 225.297442 212.177405 225.297442 212.177405 225.297442 212.177405 
L 184.526721 177.966703 
C 184.526721 177.966703 184.526721 177.966703 184.526721 177.966703 
L 225.297442 212.177405 
z
" style="fill:#e377c2;"/>
   </g>
   <g id="patch_259">
    <path d="M 225.297442 212.177405 
C 225.297442 212.177405 225.297442 212.177405 225.297442 212.177405 
L 184.526721 177.966703 
C 184.526721 177.966703 184.526721 177.966703 184.526721 177.966703 
L 225.297442 212.177405 
z
" style="fill:#7f7f7f;"/>
   </g>
   <g id="patch_260">
    <path d="M 225.297442 212.177405 
C 225.297442 212.177405 225.297442 212.177405 225.297442 212.177405 
L 184.526721 177.966703 
C 184.526721 177.966703 184.526721 177.966703 184.526721 177.966703 
L 225.297442 212.177405 
z
" style="fill:#bcbd22;"/>
   </g>
   <g id="patch_261">
    <path d="M 225.297442 212.177405 
C 225.297442 212.177405 225.297442 212.177405 225.297442 212.177405 
L 184.526721 177.966703 
C 184.526721 177.966703 184.526721 177.966703 184.526721 177.966703 
L 225.297442 212.177405 
z
" style="fill:#17becf;"/>
   </g>
   <g id="patch_262">
    <path d="M 225.297442 212.177405 
C 225.297442 212.177405 225.297442 212.177405 225.297442 212.177405 
L 184.526721 177.966703 
C 184.526721 177.966703 184.526721 177.966703 184.526721 177.966703 
L 225.297442 212.177405 
z
" style="fill:#1f77b4;"/>
   </g>
   <g id="patch_263">
    <path d="M 225.297442 212.177405 
C 225.297442 212.177405 225.297442 212.177405 225.297442 212.177405 
L 184.526721 177.966703 
C 184.526721 177.966703 184.526721 177.966703 184.526721 177.966703 
L 225.297442 212.177405 
z
" style="fill:#ff7f0e;"/>
   </g>
   <g id="patch_264">
    <path d="M 225.297442 212.177405 
C 225.297442 212.177405 225.297442 212.177405 225.297442 212.177405 
L 184.526721 177.966703 
C 184.526721 177.966703 184.526721 177.966703 184.526721 177.966703 
L 225.297442 212.177405 
z
" style="fill:#2ca02c;"/>
   </g>
   <g id="patch_265">
    <path d="M 225.297442 212.177405 
C 225.297442 212.177405 225.297442 212.177405 225.297442 212.177405 
L 184.526721 177.966703 
C 184.526721 177.966703 184.526721 177.966703 184.526721 177.966703 
L 225.297442 212.177405 
z
" style="fill:#d62728;"/>
   </g>
   <g id="patch_266">
    <path d="M 225.297442 212.177405 
C 225.297442 212.177405 225.297442 212.177405 225.297442 212.177405 
L 184.526721 177.966703 
C 184.526721 177.966703 184.526721 177.966703 184.526721 177.966703 
L 225.297442 212.177405 
z
" style="fill:#9467bd;"/>
   </g>
   <g id="patch_267">
    <path d="M 225.297442 212.177405 
C 225.297442 212.177405 225.297442 212.177405 225.297442 212.177405 
L 184.526721 177.966703 
C 184.526721 177.966703 184.526721 177.966703 184.526721 177.966703 
L 225.297442 212.177405 
z
" style="fill:#8c564b;"/>
   </g>
   <g id="patch_268">
    <path d="M 225.297442 212.177405 
C 225.297442 212.177405 225.297442 212.177405 225.297442 212.177405 
L 184.526721 177.966703 
C 184.526721 177.966703 184.526721 177.966703 184.526721 177.966703 
L 225.297442 212.177405 
z
" style="fill:#e377c2;"/>
   </g>
   <g id="patch_269">
    <path d="M 225.297442 212.177405 
C 225.297442 212.177405 225.297442 212.177405 225.297442 212.177405 
L 184.526721 177.966703 
C 184.526721 177.966703 184.526721 177.966703 184.526721 177.966703 
L 225.297442 212.177405 
z
" style="fill:#7f7f7f;"/>
   </g>
   <g id="patch_270">
    <path d="M 225.297442 212.177405 
C 225.297442 212.177405 225.297442 212.177405 225.297442 212.177405 
L 184.526721 177.966703 
C 184.526721 177.966703 184.526721 177.966703 184.526721 177.966703 
L 225.297442 212.177405 
z
" style="fill:#bcbd22;"/>
   </g>
   <g id="patch_271">
    <path d="M 225.297442 212.177405 
C 225.297442 212.177405 225.297442 212.177405 225.297442 212.177405 
L 184.526721 177.966703 
C 184.526721 177.966703 184.526721 177.966703 184.526721 177.966703 
L 225.297442 212.177405 
z
" style="fill:#17becf;"/>
   </g>
   <g id="patch_272">
    <path d="M 225.297442 212.177405 
C 225.297442 212.177405 225.297442 212.177405 225.297442 212.177405 
L 184.526721 177.966703 
C 184.526721 177.966703 184.526721 177.966703 184.526721 177.966703 
L 225.297442 212.177405 
z
" style="fill:#1f77b4;"/>
   </g>
   <g id="patch_273">
    <path d="M 225.297442 212.177405 
C 225.297442 212.177405 225.297442 212.177405 225.297442 212.177405 
L 184.526721 177.966703 
C 184.526721 177.966703 184.526721 177.966703 184.526721 177.966703 
L 225.297442 212.177405 
z
" style="fill:#ff7f0e;"/>
   </g>
   <g id="patch_274">
    <path d="M 225.297442 212.177405 
C 225.297442 212.177405 225.297442 212.177405 225.297442 212.177405 
L 184.526721 177.966703 
C 184.526721 177.966703 184.526721 177.966703 184.526721 177.966703 
L 225.297442 212.177405 
z
" style="fill:#2ca02c;"/>
   </g>
   <g id="patch_275">
    <path d="M 225.297442 212.177405 
C 225.297442 212.177405 225.297442 212.177405 225.297442 212.177405 
L 184.526721 177.966703 
C 184.526721 177.966703 184.526721 177.966703 184.526721 177.966703 
L 225.297442 212.177405 
z
" style="fill:#d62728;"/>
   </g>
   <g id="patch_276">
    <path d="M 225.297442 212.177405 
C 225.297442 212.177405 225.297442 212.177405 225.297442 212.177405 
L 184.526721 177.966703 
C 184.526721 177.966703 184.526721 177.966703 184.526721 177.966703 
L 225.297442 212.177405 
z
" style="fill:#9467bd;"/>
   </g>
   <g id="patch_277">
    <path d="M 225.297442 212.177405 
C 225.297442 212.177405 225.297442 212.177405 225.297442 212.177405 
L 184.526721 177.966703 
C 184.526721 177.966703 184.526721 177.966703 184.526721 177.966703 
L 225.297442 212.177405 
z
" style="fill:#8c564b;"/>
   </g>
   <g id="patch_278">
    <path d="M 225.297442 212.177405 
C 225.297442 212.177405 225.297442 212.177405 225.297442 212.177405 
L 184.526721 177.966703 
C 184.526721 177.966703 184.526721 177.966703 184.526721 177.966703 
L 225.297442 212.177405 
z
" style="fill:#e377c2;"/>
   </g>
   <g id="patch_279">
    <path d="M 225.297442 212.177405 
C 225.297442 212.177405 225.297442 212.177405 225.297442 212.177405 
L 184.526721 177.966703 
C 184.526721 177.966703 184.526721 177.966703 184.526721 177.966703 
L 225.297442 212.177405 
z
" style="fill:#7f7f7f;"/>
   </g>
   <g id="patch_280">
    <path d="M 225.297442 212.177405 
C 225.297442 212.177405 225.297442 212.177405 225.297442 212.177405 
L 184.526721 177.966703 
C 184.526721 177.966703 184.526721 177.966703 184.526721 177.966703 
L 225.297442 212.177405 
z
" style="fill:#bcbd22;"/>
   </g>
   <g id="patch_281">
    <path d="M 225.297442 212.177405 
C 225.297442 212.177405 225.297442 212.177405 225.297442 212.177405 
L 184.526721 177.966703 
C 184.526721 177.966703 184.526721 177.966703 184.526721 177.966703 
L 225.297442 212.177405 
z
" style="fill:#17becf;"/>
   </g>
   <g id="patch_282">
    <path d="M 225.297442 212.177405 
C 225.297442 212.177405 225.297442 212.177405 225.297442 212.177405 
L 184.526721 177.966703 
C 184.526721 177.966703 184.526721 177.966703 184.526721 177.966703 
L 225.297442 212.177405 
z
" style="fill:#1f77b4;"/>
   </g>
   <g id="patch_283">
    <path d="M 225.297442 212.177405 
C 225.297442 212.177405 225.297442 212.177405 225.297442 212.177405 
L 184.526721 177.966703 
C 184.526721 177.966703 184.526721 177.966703 184.526721 177.966703 
L 225.297442 212.177405 
z
" style="fill:#ff7f0e;"/>
   </g>
   <g id="patch_284">
    <path d="M 225.297442 212.177405 
C 225.297442 212.177405 225.297442 212.177405 225.297442 212.177405 
L 184.526721 177.966703 
C 184.526721 177.966703 184.526721 177.966703 184.526721 177.966703 
L 225.297442 212.177405 
z
" style="fill:#2ca02c;"/>
   </g>
   <g id="patch_285">
    <path d="M 225.297442 212.177405 
C 225.297442 212.177405 225.297442 212.177405 225.297442 212.177405 
L 184.526721 177.966703 
C 184.526721 177.966703 184.526721 177.966703 184.526721 177.966703 
L 225.297442 212.177405 
z
" style="fill:#d62728;"/>
   </g>
   <g id="patch_286">
    <path d="M 225.297442 212.177405 
C 225.297442 212.177405 225.297442 212.177405 225.297442 212.177405 
L 184.526721 177.966703 
C 184.526721 177.966703 184.526721 177.966703 184.526721 177.966703 
L 225.297442 212.177405 
z
" style="fill:#9467bd;"/>
   </g>
   <g id="matplotlib.axis_1">
    <g id="text_1">
     <!-- Clinically Healthy Reference -->
     <defs>
      <path d="M 67 4 
Q 61.8125 1.3125 56.203125 -0.046875 
Q 50.59375 -1.421875 44.484375 -1.421875 
Q 26.265625 -1.421875 15.625 8.765625 
Q 4.984375 18.953125 4.984375 36.375 
Q 4.984375 53.859375 15.625 64.03125 
Q 26.265625 74.21875 44.484375 74.21875 
Q 50.59375 74.21875 56.203125 72.84375 
Q 61.8125 71.484375 67 68.796875 
L 67 53.71875 
Q 61.765625 57.28125 56.6875 58.9375 
Q 51.609375 60.59375 46 60.59375 
Q 35.9375 60.59375 30.171875 54.140625 
Q 24.421875 47.703125 24.421875 36.375 
Q 24.421875 25.09375 30.171875 18.640625 
Q 35.9375 12.203125 46 12.203125 
Q 51.609375 12.203125 56.6875 13.859375 
Q 61.765625 15.53125 67 19.09375 
z
" id="DejaVuSans-Bold-43"/>
      <path d="M 8.40625 75.984375 
L 25.875 75.984375 
L 25.875 0 
L 8.40625 0 
z
" id="DejaVuSans-Bold-6c"/>
      <path d="M 8.40625 54.6875 
L 25.875 54.6875 
L 25.875 0 
L 8.40625 0 
z
M 8.40625 75.984375 
L 25.875 75.984375 
L 25.875 61.71875 
L 8.40625 61.71875 
z
" id="DejaVuSans-Bold-69"/>
      <path d="M 63.375 33.296875 
L 63.375 0 
L 45.796875 0 
L 45.796875 5.421875 
L 45.796875 25.484375 
Q 45.796875 32.5625 45.484375 35.25 
Q 45.171875 37.9375 44.390625 39.203125 
Q 43.359375 40.921875 41.59375 41.875 
Q 39.84375 42.828125 37.59375 42.828125 
Q 32.125 42.828125 29 38.59375 
Q 25.875 34.375 25.875 26.90625 
L 25.875 0 
L 8.40625 0 
L 8.40625 54.6875 
L 25.875 54.6875 
L 25.875 46.6875 
Q 29.828125 51.46875 34.265625 53.734375 
Q 38.71875 56 44.09375 56 
Q 53.5625 56 58.46875 50.1875 
Q 63.375 44.390625 63.375 33.296875 
z
" id="DejaVuSans-Bold-6e"/>
      <path d="M 52.59375 52.984375 
L 52.59375 38.71875 
Q 49.03125 41.15625 45.4375 42.328125 
Q 41.84375 43.5 37.984375 43.5 
Q 30.671875 43.5 26.59375 39.234375 
Q 22.515625 34.96875 22.515625 27.296875 
Q 22.515625 19.625 26.59375 15.34375 
Q 30.671875 11.078125 37.984375 11.078125 
Q 42.09375 11.078125 45.78125 12.296875 
Q 49.46875 13.53125 52.59375 15.921875 
L 52.59375 1.609375 
Q 48.484375 0.09375 44.265625 -0.65625 
Q 40.046875 -1.421875 35.796875 -1.421875 
Q 21 -1.421875 12.640625 6.171875 
Q 4.296875 13.765625 4.296875 27.296875 
Q 4.296875 40.828125 12.640625 48.40625 
Q 21 56 35.796875 56 
Q 40.09375 56 44.265625 55.25 
Q 48.4375 54.5 52.59375 52.984375 
z
" id="DejaVuSans-Bold-63"/>
      <path d="M 32.90625 24.609375 
Q 27.4375 24.609375 24.671875 22.75 
Q 21.921875 20.90625 21.921875 17.28125 
Q 21.921875 13.96875 24.140625 12.078125 
Q 26.375 10.203125 30.328125 10.203125 
Q 35.25 10.203125 38.625 13.734375 
Q 42 17.28125 42 22.609375 
L 42 24.609375 
z
M 59.625 31.203125 
L 59.625 0 
L 42 0 
L 42 8.109375 
Q 38.484375 3.125 34.078125 0.84375 
Q 29.6875 -1.421875 23.390625 -1.421875 
Q 14.890625 -1.421875 9.59375 3.53125 
Q 4.296875 8.5 4.296875 16.40625 
Q 4.296875 26.03125 10.90625 30.515625 
Q 17.53125 35.015625 31.6875 35.015625 
L 42 35.015625 
L 42 36.375 
Q 42 40.53125 38.71875 42.453125 
Q 35.453125 44.390625 28.515625 44.390625 
Q 22.90625 44.390625 18.0625 43.265625 
Q 13.234375 42.140625 9.078125 39.890625 
L 9.078125 53.21875 
Q 14.703125 54.59375 20.359375 55.296875 
Q 26.03125 56 31.6875 56 
Q 46.484375 56 53.046875 50.171875 
Q 59.625 44.34375 59.625 31.203125 
z
" id="DejaVuSans-Bold-61"/>
      <path d="M 1.21875 54.6875 
L 18.703125 54.6875 
L 33.40625 17.578125 
L 45.90625 54.6875 
L 63.375 54.6875 
L 40.375 -5.171875 
Q 36.921875 -14.3125 32.296875 -17.9375 
Q 27.6875 -21.578125 20.125 -21.578125 
L 10.015625 -21.578125 
L 10.015625 -10.109375 
L 15.484375 -10.109375 
Q 19.921875 -10.109375 21.9375 -8.6875 
Q 23.96875 -7.28125 25.09375 -3.609375 
L 25.59375 -2.09375 
z
" id="DejaVuSans-Bold-79"/>
      <path id="DejaVuSans-Bold-20"/>
      <path d="M 9.1875 72.90625 
L 27.984375 72.90625 
L 27.984375 45.125 
L 55.71875 45.125 
L 55.71875 72.90625 
L 74.515625 72.90625 
L 74.515625 0 
L 55.71875 0 
L 55.71875 30.90625 
L 27.984375 30.90625 
L 27.984375 0 
L 9.1875 0 
z
" id="DejaVuSans-Bold-48"/>
      <path d="M 62.984375 27.484375 
L 62.984375 22.515625 
L 22.125 22.515625 
Q 22.75 16.359375 26.5625 13.28125 
Q 30.375 10.203125 37.203125 10.203125 
Q 42.71875 10.203125 48.5 11.84375 
Q 54.296875 13.484375 60.40625 16.796875 
L 60.40625 3.328125 
Q 54.203125 0.984375 48 -0.21875 
Q 41.796875 -1.421875 35.59375 -1.421875 
Q 20.75 -1.421875 12.515625 6.125 
Q 4.296875 13.671875 4.296875 27.296875 
Q 4.296875 40.671875 12.375 48.328125 
Q 20.453125 56 34.625 56 
Q 47.515625 56 55.25 48.234375 
Q 62.984375 40.484375 62.984375 27.484375 
z
M 45.015625 33.296875 
Q 45.015625 38.28125 42.109375 41.328125 
Q 39.203125 44.390625 34.515625 44.390625 
Q 29.4375 44.390625 26.265625 41.53125 
Q 23.09375 38.671875 22.3125 33.296875 
z
" id="DejaVuSans-Bold-65"/>
      <path d="M 27.484375 70.21875 
L 27.484375 54.6875 
L 45.515625 54.6875 
L 45.515625 42.1875 
L 27.484375 42.1875 
L 27.484375 19 
Q 27.484375 15.1875 29 13.84375 
Q 30.515625 12.5 35.015625 12.5 
L 44 12.5 
L 44 0 
L 29 0 
Q 18.65625 0 14.328125 4.3125 
Q 10.015625 8.640625 10.015625 19 
L 10.015625 42.1875 
L 1.3125 42.1875 
L 1.3125 54.6875 
L 10.015625 54.6875 
L 10.015625 70.21875 
z
" id="DejaVuSans-Bold-74"/>
      <path d="M 63.375 33.296875 
L 63.375 0 
L 45.796875 0 
L 45.796875 5.421875 
L 45.796875 25.390625 
Q 45.796875 32.5625 45.484375 35.25 
Q 45.171875 37.9375 44.390625 39.203125 
Q 43.359375 40.921875 41.59375 41.875 
Q 39.84375 42.828125 37.59375 42.828125 
Q 32.125 42.828125 29 38.59375 
Q 25.875 34.375 25.875 26.90625 
L 25.875 0 
L 8.40625 0 
L 8.40625 75.984375 
L 25.875 75.984375 
L 25.875 46.6875 
Q 29.828125 51.46875 34.265625 53.734375 
Q 38.71875 56 44.09375 56 
Q 53.5625 56 58.46875 50.1875 
Q 63.375 44.390625 63.375 33.296875 
z
" id="DejaVuSans-Bold-68"/>
      <path d="M 35.890625 40.578125 
Q 41.796875 40.578125 44.359375 42.765625 
Q 46.921875 44.96875 46.921875 50 
Q 46.921875 54.984375 44.359375 57.125 
Q 41.796875 59.28125 35.890625 59.28125 
L 27.984375 59.28125 
L 27.984375 40.578125 
z
M 27.984375 27.59375 
L 27.984375 0 
L 9.1875 0 
L 9.1875 72.90625 
L 37.890625 72.90625 
Q 52.296875 72.90625 59 68.0625 
Q 65.71875 63.234375 65.71875 52.78125 
Q 65.71875 45.5625 62.21875 40.921875 
Q 58.734375 36.28125 51.703125 34.078125 
Q 55.5625 33.203125 58.609375 30.09375 
Q 61.671875 27 64.796875 20.703125 
L 75 0 
L 54.984375 0 
L 46.09375 18.109375 
Q 43.40625 23.578125 40.640625 25.578125 
Q 37.890625 27.59375 33.296875 27.59375 
z
" id="DejaVuSans-Bold-52"/>
      <path d="M 44.390625 75.984375 
L 44.390625 64.5 
L 34.71875 64.5 
Q 31 64.5 29.53125 63.15625 
Q 28.078125 61.8125 28.078125 58.5 
L 28.078125 54.6875 
L 43.015625 54.6875 
L 43.015625 42.1875 
L 28.078125 42.1875 
L 28.078125 0 
L 10.59375 0 
L 10.59375 42.1875 
L 1.90625 42.1875 
L 1.90625 54.6875 
L 10.59375 54.6875 
L 10.59375 58.5 
Q 10.59375 67.4375 15.578125 71.703125 
Q 20.5625 75.984375 31 75.984375 
z
" id="DejaVuSans-Bold-66"/>
      <path d="M 49.03125 39.796875 
Q 46.734375 40.875 44.453125 41.375 
Q 42.1875 41.890625 39.890625 41.890625 
Q 33.15625 41.890625 29.515625 37.5625 
Q 25.875 33.25 25.875 25.203125 
L 25.875 0 
L 8.40625 0 
L 8.40625 54.6875 
L 25.875 54.6875 
L 25.875 45.703125 
Q 29.25 51.078125 33.609375 53.53125 
Q 37.984375 56 44.09375 56 
Q 44.96875 56 45.984375 55.921875 
Q 47.015625 55.859375 48.96875 55.609375 
z
" id="DejaVuSans-Bold-72"/>
     </defs>
     <g transform="translate(8.894203 293.729344)scale(0.17 -0.17)">
      <use xlink:href="#DejaVuSans-Bold-43"/>
      <use x="73.388672" xlink:href="#DejaVuSans-Bold-6c"/>
      <use x="107.666016" xlink:href="#DejaVuSans-Bold-69"/>
      <use x="141.943359" xlink:href="#DejaVuSans-Bold-6e"/>
      <use x="213.134766" xlink:href="#DejaVuSans-Bold-69"/>
      <use x="247.412109" xlink:href="#DejaVuSans-Bold-63"/>
      <use x="306.689453" xlink:href="#DejaVuSans-Bold-61"/>
      <use x="374.169922" xlink:href="#DejaVuSans-Bold-6c"/>
      <use x="408.447266" xlink:href="#DejaVuSans-Bold-6c"/>
      <use x="442.724609" xlink:href="#DejaVuSans-Bold-79"/>
      <use x="507.910156" xlink:href="#DejaVuSans-Bold-20"/>
      <use x="542.724609" xlink:href="#DejaVuSans-Bold-48"/>
      <use x="626.416016" xlink:href="#DejaVuSans-Bold-65"/>
      <use x="694.238281" xlink:href="#DejaVuSans-Bold-61"/>
      <use x="761.71875" xlink:href="#DejaVuSans-Bold-6c"/>
      <use x="795.996094" xlink:href="#DejaVuSans-Bold-74"/>
      <use x="843.798828" xlink:href="#DejaVuSans-Bold-68"/>
      <use x="914.990234" xlink:href="#DejaVuSans-Bold-79"/>
      <use x="980.175781" xlink:href="#DejaVuSans-Bold-20"/>
      <use x="1014.990234" xlink:href="#DejaVuSans-Bold-52"/>
      <use x="1091.992188" xlink:href="#DejaVuSans-Bold-65"/>
      <use x="1159.814453" xlink:href="#DejaVuSans-Bold-66"/>
      <use x="1203.320312" xlink:href="#DejaVuSans-Bold-65"/>
      <use x="1271.142578" xlink:href="#DejaVuSans-Bold-72"/>
      <use x="1320.458984" xlink:href="#DejaVuSans-Bold-65"/>
      <use x="1388.28125" xlink:href="#DejaVuSans-Bold-6e"/>
      <use x="1459.472656" xlink:href="#DejaVuSans-Bold-63"/>
      <use x="1518.75" xlink:href="#DejaVuSans-Bold-65"/>
     </g>
    </g>
   </g>
   <g id="matplotlib.axis_2"/>
  </g>
 </g>
</svg>
