<?xml version="1.0" encoding="utf-8" standalone="no"?>
<!DOCTYPE svg PUBLIC "-//W3C//DTD SVG 1.1//EN"
  "http://www.w3.org/Graphics/SVG/1.1/DTD/svg11.dtd">
<!-- Created with matplotlib (https://matplotlib.org/) -->
<svg height="288.137625pt" version="1.1" viewBox="0 0 271.163594 288.137625" width="271.163594pt" xmlns="http://www.w3.org/2000/svg" xmlns:xlink="http://www.w3.org/1999/xlink">
 <metadata>
  <rdf:RDF xmlns:cc="http://creativecommons.org/ns#" xmlns:dc="http://purl.org/dc/elements/1.1/" xmlns:rdf="http://www.w3.org/1999/02/22-rdf-syntax-ns#">
   <cc:Work>
    <dc:type rdf:resource="http://purl.org/dc/dcmitype/StillImage"/>
    <dc:date>2024-02-20T15:39:35.749055</dc:date>
    <dc:format>image/svg+xml</dc:format>
    <dc:creator>
     <cc:Agent>
      <dc:title>Matplotlib v3.3.4, https://matplotlib.org/</dc:title>
     </cc:Agent>
    </dc:creator>
   </cc:Work>
  </rdf:RDF>
 </metadata>
 <defs>
  <style type="text/css">*{stroke-linecap:butt;stroke-linejoin:round;}</style>
 </defs>
 <g id="figure_1">
  <g id="patch_1">
   <path d="M 0 288.137625 
L 271.163594 288.137625 
L 271.163594 -0 
L 0 -0 
z
" style="fill:#ffffff;"/>
  </g>
  <g id="axes_1">
   <g id="patch_2">
    <path d="M 217.123244 202.197399 
C 228.122945 189.088466 235.800981 173.518272 239.504226 156.811282 
C 243.207471 140.104292 242.827857 122.748052 238.397675 106.218955 
C 233.967493 89.689859 225.616025 74.470261 214.053683 61.854803 
C 202.49134 49.239345 188.055537 39.596174 171.974242 33.745578 
L 153.778019 83.760789 
C 161.818667 86.686087 169.036569 91.507673 174.81774 97.815402 
C 180.598911 104.12313 184.774645 111.732929 186.989736 119.997478 
C 189.204827 128.262026 189.394634 136.940146 187.543011 145.293641 
C 185.691389 153.647136 181.852371 161.432233 176.352521 167.986699 
L 217.123244 202.197399 
z
" style="fill:#1f77b4;"/>
   </g>
   <g id="patch_3">
    <path d="M 171.974242 33.745578 
C 148.410355 25.172711 122.558599 25.19588 99.010116 33.810968 
C 75.461634 42.426056 55.698174 59.090975 43.229629 80.846116 
L 89.405713 107.311058 
C 95.639985 96.433487 105.521715 88.101028 117.295957 83.793484 
C 129.070198 79.48594 141.996076 79.474356 153.778019 83.760789 
L 171.974242 33.745578 
z
" style="fill:#ff7f0e;"/>
   </g>
   <g id="patch_4">
    <path d="M 43.229629 80.846116 
C 37.415569 90.990501 33.312494 102.023882 31.08553 113.50223 
C 28.858567 124.980578 28.537995 136.747819 30.136715 148.330389 
L 82.859256 141.053195 
C 82.059896 135.26191 82.220182 129.378289 83.333664 123.639115 
C 84.447145 117.899941 86.498683 112.38325 89.405713 107.311058 
L 43.229629 80.846116 
z
" style="fill:#2ca02c;"/>
   </g>
   <g id="patch_5">
    <path d="M 30.136715 148.330389 
C 31.496103 158.179018 34.228614 167.788808 38.25448 176.879234 
C 42.280346 185.969659 47.560008 194.451395 53.939345 202.076845 
L 94.760571 167.926423 
C 91.570902 164.113698 88.931071 159.87283 86.918138 155.327617 
C 84.905205 150.782404 83.53895 145.977509 82.859256 141.053195 
L 30.136715 148.330389 
z
" style="fill:#d62728;"/>
   </g>
   <g id="patch_6">
    <path d="M 53.939345 202.076845 
C 59.058373 208.195803 64.849121 213.719919 71.202411 218.54504 
C 77.555701 223.370162 84.431353 227.465773 91.699732 230.754657 
L 113.640764 182.265328 
C 110.006575 180.620887 106.568749 178.573081 103.392104 176.16052 
C 100.215459 173.747959 97.320085 170.985902 94.760571 167.926423 
L 53.939345 202.076845 
z
" style="fill:#9467bd;"/>
   </g>
   <g id="patch_7">
    <path d="M 91.699732 230.754657 
C 98.576938 233.866537 105.765693 236.238067 113.144587 237.829193 
C 120.523482 239.42032 128.050739 240.222035 135.599233 240.220799 
L 135.590515 186.998399 
C 131.816268 186.999018 128.052639 186.59816 124.363192 185.802597 
C 120.673745 185.007033 117.079367 183.821269 113.640764 182.265328 
L 91.699732 230.754657 
z
" style="fill:#8c564b;"/>
   </g>
   <g id="patch_8">
    <path d="M 135.599233 240.220799 
C 138.26004 240.220363 140.919895 240.120159 143.573192 239.920397 
C 146.22649 239.720636 148.871364 239.421458 151.502242 239.023493 
L 143.542019 186.399747 
C 142.226581 186.598729 140.904143 186.748318 139.577495 186.848199 
C 138.250846 186.948079 136.920918 186.998181 135.590515 186.998399 
L 135.599233 240.220799 
z
" style="fill:#e377c2;"/>
   </g>
   <g id="patch_9">
    <path d="M 151.502242 239.023493 
C 154.069806 238.635106 156.622298 238.152894 159.154594 237.577824 
C 161.686891 237.002754 164.197295 236.335212 166.680769 235.576537 
L 151.131283 184.676269 
C 149.889546 185.055606 148.634344 185.389377 147.368196 185.676912 
C 146.102047 185.964447 144.825801 186.205553 143.542019 186.399747 
L 151.502242 239.023493 
z
" style="fill:#7f7f7f;"/>
   </g>
   <g id="patch_10">
    <path d="M 166.680769 235.576537 
C 168.770034 234.938289 170.839155 234.235875 172.885192 233.470293 
C 174.93123 232.704711 176.953215 231.876324 178.948273 230.986309 
L 157.265035 182.381154 
C 156.267506 182.826162 155.256513 183.240356 154.233495 183.623147 
C 153.210476 184.005938 152.175915 184.357145 151.131283 184.676269 
L 166.680769 235.576537 
z
" style="fill:#bcbd22;"/>
   </g>
   <g id="patch_11">
    <path d="M 178.948273 230.986309 
C 180.563277 230.26584 182.160075 229.505237 183.737181 228.705207 
C 185.314287 227.905178 186.871212 227.065971 188.406504 226.188368 
L 161.994151 179.982184 
C 161.226504 180.420986 160.448042 180.840589 159.659489 181.240604 
C 158.870936 181.640618 158.072537 182.02092 157.265035 182.381154 
L 178.948273 230.986309 
z
" style="fill:#17becf;"/>
   </g>
   <g id="patch_12">
    <path d="M 188.406504 226.188368 
C 189.674315 225.463662 190.927079 224.712944 192.163999 223.936689 
C 193.400919 223.160434 194.621734 222.358807 195.825669 221.532318 
L 165.703733 177.654159 
C 165.101766 178.067404 164.491358 178.468217 163.872898 178.856344 
C 163.254438 179.244472 162.628056 179.619831 161.994151 179.982184 
L 188.406504 226.188368 
z
" style="fill:#1f77b4;"/>
   </g>
   <g id="patch_13">
    <path d="M 195.825669 221.532318 
C 196.785506 220.873399 197.734468 220.198777 198.672171 219.508725 
C 199.609875 218.818672 200.536195 218.113282 201.450756 217.392839 
L 168.516276 175.584419 
C 168.058996 175.944641 167.595836 176.297336 167.126984 176.642362 
C 166.658132 176.987389 166.183651 177.3247 165.703733 177.654159 
L 195.825669 221.532318 
z
" style="fill:#ff7f0e;"/>
   </g>
   <g id="patch_14">
    <path d="M 201.450756 217.392839 
C 202.051027 216.919976 202.646189 216.440664 203.236138 215.954985 
C 203.826087 215.469306 204.41079 214.977288 204.990143 214.479017 
L 170.28597 174.127508 
C 169.996293 174.376644 169.703942 174.622653 169.408968 174.865492 
C 169.113993 175.108332 168.816412 175.347988 168.516276 175.584419 
L 201.450756 217.392839 
z
" style="fill:#2ca02c;"/>
   </g>
   <g id="patch_15">
    <path d="M 204.990143 214.479017 
C 205.399632 214.126838 205.806434 213.771547 206.210514 213.413175 
C 206.614595 213.054804 207.015942 212.693362 207.414521 212.328882 
L 171.498159 173.052441 
C 171.298869 173.234681 171.098196 173.415402 170.896156 173.594588 
C 170.694115 173.773773 170.490714 173.951419 170.28597 174.127508 
L 204.990143 214.479017 
z
" style="fill:#d62728;"/>
   </g>
   <g id="patch_16">
    <path d="M 207.414521 212.328882 
C 207.742241 212.029198 208.068082 211.727466 208.392026 211.423704 
C 208.715969 211.119943 209.038009 210.814157 209.358125 210.506364 
L 172.469961 172.141182 
C 172.309903 172.295078 172.148883 172.447971 171.986911 172.599852 
C 171.82494 172.751733 171.662019 172.902599 171.498159 173.052441 
L 207.414521 212.328882 
z
" style="fill:#9467bd;"/>
   </g>
   <g id="patch_17">
    <path d="M 209.358125 210.506364 
C 209.568652 210.303943 209.778345 210.100655 209.987198 209.896508 
C 210.196051 209.69236 210.404064 209.487354 210.61123 209.281494 
L 173.096513 171.528747 
C 172.99293 171.631677 172.888924 171.73418 172.784497 171.836254 
C 172.680071 171.938328 172.575224 172.039971 172.469961 172.141182 
L 209.358125 210.506364 
z
" style="fill:#8c564b;"/>
   </g>
   <g id="patch_18">
    <path d="M 210.61123 209.281494 
C 210.784341 209.109475 210.95686 208.93686 211.128784 208.763654 
C 211.300707 208.590448 211.472035 208.416651 211.642763 208.242266 
L 173.61228 171.009133 
C 173.526916 171.096325 173.441252 171.183224 173.35529 171.269827 
C 173.269328 171.35643 173.183069 171.442737 173.096513 171.528747 
L 210.61123 209.281494 
z
" style="fill:#e377c2;"/>
   </g>
   <g id="patch_19">
    <path d="M 211.642763 208.242266 
C 211.774308 208.107905 211.905496 207.973195 212.036327 207.838138 
C 212.167158 207.703081 212.29763 207.567678 212.427743 207.431929 
L 174.00477 170.603965 
C 173.939714 170.671839 173.874477 170.73954 173.809062 170.807069 
C 173.743647 170.874597 173.678052 170.941952 173.61228 171.009133 
L 211.642763 208.242266 
z
" style="fill:#7f7f7f;"/>
   </g>
   <g id="patch_20">
    <path d="M 212.427743 207.431929 
C 212.549552 207.304846 212.671045 207.17746 212.792221 207.049774 
C 212.913397 206.922087 213.034256 206.7941 213.154798 206.665814 
L 174.368297 170.220907 
C 174.308027 170.28505 174.247597 170.349044 174.187009 170.412887 
C 174.126421 170.47673 174.065674 170.540423 174.00477 170.603965 
L 212.427743 207.431929 
z
" style="fill:#bcbd22;"/>
   </g>
   <g id="patch_21">
    <path d="M 213.154798 206.665814 
C 213.272599 206.540444 213.390097 206.414788 213.507289 206.288848 
C 213.624482 206.162908 213.741369 206.036683 213.857949 205.910177 
L 174.719873 169.843088 
C 174.661583 169.906342 174.603139 169.969454 174.544543 170.032424 
C 174.485947 170.095394 174.427198 170.158222 174.368297 170.220907 
L 213.154798 206.665814 
z
" style="fill:#17becf;"/>
   </g>
   <g id="patch_22">
    <path d="M 213.857949 205.910177 
C 213.971818 205.786612 214.085395 205.662778 214.198678 205.538675 
C 214.31196 205.414572 214.424949 205.290202 214.537643 205.165564 
L 175.05972 169.470782 
C 175.003373 169.533101 174.946879 169.595286 174.890237 169.657337 
C 174.833596 169.719389 174.776808 169.781306 174.719873 169.843088 
L 213.857949 205.910177 
z
" style="fill:#1f77b4;"/>
   </g>
   <g id="patch_23">
    <path d="M 214.537643 205.165564 
C 214.650337 205.040926 214.762735 204.916022 214.874838 204.790852 
C 214.98694 204.665682 215.098746 204.540246 215.210254 204.414547 
L 175.396025 169.095273 
C 175.340271 169.158123 175.284368 169.220841 175.228317 169.283426 
C 175.172266 169.346011 175.116067 169.408463 175.05972 169.470782 
L 214.537643 205.165564 
z
" style="fill:#ff7f0e;"/>
   </g>
   <g id="patch_24">
    <path d="M 215.210254 204.414547 
C 215.284592 204.330747 215.358799 204.246831 215.432872 204.162797 
C 215.506946 204.078763 215.580887 203.994613 215.654695 203.910346 
L 175.618246 168.843173 
C 175.581342 168.885306 175.544371 168.927382 175.507335 168.969399 
C 175.470298 169.011415 175.433195 169.053374 175.396025 169.095273 
L 215.210254 204.414547 
z
" style="fill:#2ca02c;"/>
   </g>
   <g id="patch_25">
    <path d="M 215.654695 203.910346 
C 215.723231 203.832097 215.791653 203.753749 215.859959 203.6753 
C 215.928266 203.596851 215.996457 203.518302 216.064533 203.439653 
L 175.823165 168.607827 
C 175.789127 168.647151 175.755031 168.686425 175.720878 168.72565 
C 175.686725 168.764874 175.652514 168.804049 175.618246 168.843173 
L 215.654695 203.910346 
z
" style="fill:#d62728;"/>
   </g>
   <g id="patch_26">
    <path d="M 216.064533 203.439653 
C 216.13261 203.361004 216.200571 203.282256 216.268416 203.203408 
C 216.336261 203.12456 216.403991 203.045612 216.471605 202.966566 
L 176.026701 168.371283 
C 175.992894 168.410806 175.959029 168.45028 175.925106 168.489704 
C 175.891184 168.529128 175.857203 168.568502 175.823165 168.607827 
L 216.064533 203.439653 
z
" style="fill:#9467bd;"/>
   </g>
   <g id="patch_27">
    <path d="M 216.471605 202.966566 
C 216.502811 202.930083 216.533993 202.893579 216.56515 202.857054 
C 216.596307 202.820529 216.627439 202.783983 216.658546 202.747416 
L 176.120171 168.261708 
C 176.104618 168.279991 176.089052 168.298264 176.073473 168.316527 
C 176.057895 168.334789 176.042304 168.353041 176.026701 168.371283 
L 216.471605 202.966566 
z
" style="fill:#8c564b;"/>
   </g>
   <g id="patch_28">
    <path d="M 216.658546 202.747416 
C 216.684469 202.716943 216.710374 202.686456 216.736263 202.655954 
C 216.762151 202.625453 216.788022 202.594936 216.813876 202.564406 
L 176.197836 168.170203 
C 176.18491 168.185468 176.171974 168.200726 176.15903 168.215977 
C 176.146086 168.231228 176.133133 168.246472 176.120171 168.261708 
L 216.658546 202.747416 
z
" style="fill:#e377c2;"/>
   </g>
   <g id="patch_29">
    <path d="M 216.813876 202.564406 
C 216.83973 202.533875 216.865567 202.503329 216.891386 202.472769 
C 216.917206 202.442209 216.943008 202.411635 216.968793 202.381046 
L 176.275295 168.078523 
C 176.262402 168.093817 176.249501 168.109105 176.236592 168.124385 
C 176.223682 168.139665 176.210763 168.154937 176.197836 168.170203 
L 216.813876 202.564406 
z
" style="fill:#7f7f7f;"/>
   </g>
   <g id="patch_30">
    <path d="M 216.968793 202.381046 
C 216.994578 202.350457 217.020346 202.319853 217.046096 202.289235 
C 217.071847 202.258617 217.09758 202.227984 217.123296 202.197337 
L 176.352546 167.986669 
C 176.339688 168.001992 176.326822 168.017308 176.313947 168.032617 
C 176.301071 168.047927 176.288187 168.063228 176.275295 168.078523 
L 216.968793 202.381046 
z
" style="fill:#bcbd22;"/>
   </g>
   <g id="matplotlib.axis_1">
    <g id="text_1">
     <!-- Clinically Healthy Reference -->
     <g transform="translate(0.72 283.749344)scale(0.17 -0.17)">
      <defs>
       <path d="M 67 4 
Q 61.8125 1.3125 56.203125 -0.046875 
Q 50.59375 -1.421875 44.484375 -1.421875 
Q 26.265625 -1.421875 15.625 8.765625 
Q 4.984375 18.953125 4.984375 36.375 
Q 4.984375 53.859375 15.625 64.03125 
Q 26.265625 74.21875 44.484375 74.21875 
Q 50.59375 74.21875 56.203125 72.84375 
Q 61.8125 71.484375 67 68.796875 
L 67 53.71875 
Q 61.765625 57.28125 56.6875 58.9375 
Q 51.609375 60.59375 46 60.59375 
Q 35.9375 60.59375 30.171875 54.140625 
Q 24.421875 47.703125 24.421875 36.375 
Q 24.421875 25.09375 30.171875 18.640625 
Q 35.9375 12.203125 46 12.203125 
Q 51.609375 12.203125 56.6875 13.859375 
Q 61.765625 15.53125 67 19.09375 
z
" id="DejaVuSans-Bold-67"/>
       <path d="M 8.40625 75.984375 
L 25.875 75.984375 
L 25.875 0 
L 8.40625 0 
z
" id="DejaVuSans-Bold-108"/>
       <path d="M 8.40625 54.6875 
L 25.875 54.6875 
L 25.875 0 
L 8.40625 0 
z
M 8.40625 75.984375 
L 25.875 75.984375 
L 25.875 61.71875 
L 8.40625 61.71875 
z
" id="DejaVuSans-Bold-105"/>
       <path d="M 63.375 33.296875 
L 63.375 0 
L 45.796875 0 
L 45.796875 5.421875 
L 45.796875 25.484375 
Q 45.796875 32.5625 45.484375 35.25 
Q 45.171875 37.9375 44.390625 39.203125 
Q 43.359375 40.921875 41.59375 41.875 
Q 39.84375 42.828125 37.59375 42.828125 
Q 32.125 42.828125 29 38.59375 
Q 25.875 34.375 25.875 26.90625 
L 25.875 0 
L 8.40625 0 
L 8.40625 54.6875 
L 25.875 54.6875 
L 25.875 46.6875 
Q 29.828125 51.46875 34.265625 53.734375 
Q 38.71875 56 44.09375 56 
Q 53.5625 56 58.46875 50.1875 
Q 63.375 44.390625 63.375 33.296875 
z
" id="DejaVuSans-Bold-110"/>
       <path d="M 52.59375 52.984375 
L 52.59375 38.71875 
Q 49.03125 41.15625 45.4375 42.328125 
Q 41.84375 43.5 37.984375 43.5 
Q 30.671875 43.5 26.59375 39.234375 
Q 22.515625 34.96875 22.515625 27.296875 
Q 22.515625 19.625 26.59375 15.34375 
Q 30.671875 11.078125 37.984375 11.078125 
Q 42.09375 11.078125 45.78125 12.296875 
Q 49.46875 13.53125 52.59375 15.921875 
L 52.59375 1.609375 
Q 48.484375 0.09375 44.265625 -0.65625 
Q 40.046875 -1.421875 35.796875 -1.421875 
Q 21 -1.421875 12.640625 6.171875 
Q 4.296875 13.765625 4.296875 27.296875 
Q 4.296875 40.828125 12.640625 48.40625 
Q 21 56 35.796875 56 
Q 40.09375 56 44.265625 55.25 
Q 48.4375 54.5 52.59375 52.984375 
z
" id="DejaVuSans-Bold-99"/>
       <path d="M 32.90625 24.609375 
Q 27.4375 24.609375 24.671875 22.75 
Q 21.921875 20.90625 21.921875 17.28125 
Q 21.921875 13.96875 24.140625 12.078125 
Q 26.375 10.203125 30.328125 10.203125 
Q 35.25 10.203125 38.625 13.734375 
Q 42 17.28125 42 22.609375 
L 42 24.609375 
z
M 59.625 31.203125 
L 59.625 0 
L 42 0 
L 42 8.109375 
Q 38.484375 3.125 34.078125 0.84375 
Q 29.6875 -1.421875 23.390625 -1.421875 
Q 14.890625 -1.421875 9.59375 3.53125 
Q 4.296875 8.5 4.296875 16.40625 
Q 4.296875 26.03125 10.90625 30.515625 
Q 17.53125 35.015625 31.6875 35.015625 
L 42 35.015625 
L 42 36.375 
Q 42 40.53125 38.71875 42.453125 
Q 35.453125 44.390625 28.515625 44.390625 
Q 22.90625 44.390625 18.0625 43.265625 
Q 13.234375 42.140625 9.078125 39.890625 
L 9.078125 53.21875 
Q 14.703125 54.59375 20.359375 55.296875 
Q 26.03125 56 31.6875 56 
Q 46.484375 56 53.046875 50.171875 
Q 59.625 44.34375 59.625 31.203125 
z
" id="DejaVuSans-Bold-97"/>
       <path d="M 1.21875 54.6875 
L 18.703125 54.6875 
L 33.40625 17.578125 
L 45.90625 54.6875 
L 63.375 54.6875 
L 40.375 -5.171875 
Q 36.921875 -14.3125 32.296875 -17.9375 
Q 27.6875 -21.578125 20.125 -21.578125 
L 10.015625 -21.578125 
L 10.015625 -10.109375 
L 15.484375 -10.109375 
Q 19.921875 -10.109375 21.9375 -8.6875 
Q 23.96875 -7.28125 25.09375 -3.609375 
L 25.59375 -2.09375 
z
" id="DejaVuSans-Bold-121"/>
       <path id="DejaVuSans-Bold-32"/>
       <path d="M 9.1875 72.90625 
L 27.984375 72.90625 
L 27.984375 45.125 
L 55.71875 45.125 
L 55.71875 72.90625 
L 74.515625 72.90625 
L 74.515625 0 
L 55.71875 0 
L 55.71875 30.90625 
L 27.984375 30.90625 
L 27.984375 0 
L 9.1875 0 
z
" id="DejaVuSans-Bold-72"/>
       <path d="M 62.984375 27.484375 
L 62.984375 22.515625 
L 22.125 22.515625 
Q 22.75 16.359375 26.5625 13.28125 
Q 30.375 10.203125 37.203125 10.203125 
Q 42.71875 10.203125 48.5 11.84375 
Q 54.296875 13.484375 60.40625 16.796875 
L 60.40625 3.328125 
Q 54.203125 0.984375 48 -0.21875 
Q 41.796875 -1.421875 35.59375 -1.421875 
Q 20.75 -1.421875 12.515625 6.125 
Q 4.296875 13.671875 4.296875 27.296875 
Q 4.296875 40.671875 12.375 48.328125 
Q 20.453125 56 34.625 56 
Q 47.515625 56 55.25 48.234375 
Q 62.984375 40.484375 62.984375 27.484375 
z
M 45.015625 33.296875 
Q 45.015625 38.28125 42.109375 41.328125 
Q 39.203125 44.390625 34.515625 44.390625 
Q 29.4375 44.390625 26.265625 41.53125 
Q 23.09375 38.671875 22.3125 33.296875 
z
" id="DejaVuSans-Bold-101"/>
       <path d="M 27.484375 70.21875 
L 27.484375 54.6875 
L 45.515625 54.6875 
L 45.515625 42.1875 
L 27.484375 42.1875 
L 27.484375 19 
Q 27.484375 15.1875 29 13.84375 
Q 30.515625 12.5 35.015625 12.5 
L 44 12.5 
L 44 0 
L 29 0 
Q 18.65625 0 14.328125 4.3125 
Q 10.015625 8.640625 10.015625 19 
L 10.015625 42.1875 
L 1.3125 42.1875 
L 1.3125 54.6875 
L 10.015625 54.6875 
L 10.015625 70.21875 
z
" id="DejaVuSans-Bold-116"/>
       <path d="M 63.375 33.296875 
L 63.375 0 
L 45.796875 0 
L 45.796875 5.421875 
L 45.796875 25.390625 
Q 45.796875 32.5625 45.484375 35.25 
Q 45.171875 37.9375 44.390625 39.203125 
Q 43.359375 40.921875 41.59375 41.875 
Q 39.84375 42.828125 37.59375 42.828125 
Q 32.125 42.828125 29 38.59375 
Q 25.875 34.375 25.875 26.90625 
L 25.875 0 
L 8.40625 0 
L 8.40625 75.984375 
L 25.875 75.984375 
L 25.875 46.6875 
Q 29.828125 51.46875 34.265625 53.734375 
Q 38.71875 56 44.09375 56 
Q 53.5625 56 58.46875 50.1875 
Q 63.375 44.390625 63.375 33.296875 
z
" id="DejaVuSans-Bold-104"/>
       <path d="M 35.890625 40.578125 
Q 41.796875 40.578125 44.359375 42.765625 
Q 46.921875 44.96875 46.921875 50 
Q 46.921875 54.984375 44.359375 57.125 
Q 41.796875 59.28125 35.890625 59.28125 
L 27.984375 59.28125 
L 27.984375 40.578125 
z
M 27.984375 27.59375 
L 27.984375 0 
L 9.1875 0 
L 9.1875 72.90625 
L 37.890625 72.90625 
Q 52.296875 72.90625 59 68.0625 
Q 65.71875 63.234375 65.71875 52.78125 
Q 65.71875 45.5625 62.21875 40.921875 
Q 58.734375 36.28125 51.703125 34.078125 
Q 55.5625 33.203125 58.609375 30.09375 
Q 61.671875 27 64.796875 20.703125 
L 75 0 
L 54.984375 0 
L 46.09375 18.109375 
Q 43.40625 23.578125 40.640625 25.578125 
Q 37.890625 27.59375 33.296875 27.59375 
z
" id="DejaVuSans-Bold-82"/>
       <path d="M 44.390625 75.984375 
L 44.390625 64.5 
L 34.71875 64.5 
Q 31 64.5 29.53125 63.15625 
Q 28.078125 61.8125 28.078125 58.5 
L 28.078125 54.6875 
L 43.015625 54.6875 
L 43.015625 42.1875 
L 28.078125 42.1875 
L 28.078125 0 
L 10.59375 0 
L 10.59375 42.1875 
L 1.90625 42.1875 
L 1.90625 54.6875 
L 10.59375 54.6875 
L 10.59375 58.5 
Q 10.59375 67.4375 15.578125 71.703125 
Q 20.5625 75.984375 31 75.984375 
z
" id="DejaVuSans-Bold-102"/>
       <path d="M 49.03125 39.796875 
Q 46.734375 40.875 44.453125 41.375 
Q 42.1875 41.890625 39.890625 41.890625 
Q 33.15625 41.890625 29.515625 37.5625 
Q 25.875 33.25 25.875 25.203125 
L 25.875 0 
L 8.40625 0 
L 8.40625 54.6875 
L 25.875 54.6875 
L 25.875 45.703125 
Q 29.25 51.078125 33.609375 53.53125 
Q 37.984375 56 44.09375 56 
Q 44.96875 56 45.984375 55.921875 
Q 47.015625 55.859375 48.96875 55.609375 
z
" id="DejaVuSans-Bold-114"/>
      </defs>
      <use xlink:href="#DejaVuSans-Bold-67"/>
      <use x="73.388672" xlink:href="#DejaVuSans-Bold-108"/>
      <use x="107.666016" xlink:href="#DejaVuSans-Bold-105"/>
      <use x="141.943359" xlink:href="#DejaVuSans-Bold-110"/>
      <use x="213.134766" xlink:href="#DejaVuSans-Bold-105"/>
      <use x="247.412109" xlink:href="#DejaVuSans-Bold-99"/>
      <use x="306.689453" xlink:href="#DejaVuSans-Bold-97"/>
      <use x="374.169922" xlink:href="#DejaVuSans-Bold-108"/>
      <use x="408.447266" xlink:href="#DejaVuSans-Bold-108"/>
      <use x="442.724609" xlink:href="#DejaVuSans-Bold-121"/>
      <use x="507.910156" xlink:href="#DejaVuSans-Bold-32"/>
      <use x="542.724609" xlink:href="#DejaVuSans-Bold-72"/>
      <use x="626.416016" xlink:href="#DejaVuSans-Bold-101"/>
      <use x="694.238281" xlink:href="#DejaVuSans-Bold-97"/>
      <use x="761.71875" xlink:href="#DejaVuSans-Bold-108"/>
      <use x="795.996094" xlink:href="#DejaVuSans-Bold-116"/>
      <use x="843.798828" xlink:href="#DejaVuSans-Bold-104"/>
      <use x="914.990234" xlink:href="#DejaVuSans-Bold-121"/>
      <use x="980.175781" xlink:href="#DejaVuSans-Bold-32"/>
      <use x="1014.990234" xlink:href="#DejaVuSans-Bold-82"/>
      <use x="1091.992188" xlink:href="#DejaVuSans-Bold-101"/>
      <use x="1159.814453" xlink:href="#DejaVuSans-Bold-102"/>
      <use x="1203.320312" xlink:href="#DejaVuSans-Bold-101"/>
      <use x="1271.142578" xlink:href="#DejaVuSans-Bold-114"/>
      <use x="1320.458984" xlink:href="#DejaVuSans-Bold-101"/>
      <use x="1388.28125" xlink:href="#DejaVuSans-Bold-110"/>
      <use x="1459.472656" xlink:href="#DejaVuSans-Bold-99"/>
      <use x="1518.75" xlink:href="#DejaVuSans-Bold-101"/>
     </g>
    </g>
   </g>
   <g id="matplotlib.axis_2"/>
  </g>
 </g>
</svg>
