<?xml version="1.0" encoding="utf-8" standalone="no"?>
<!DOCTYPE svg PUBLIC "-//W3C//DTD SVG 1.1//EN"
  "http://www.w3.org/Graphics/SVG/1.1/DTD/svg11.dtd">
<!-- Created with matplotlib (https://matplotlib.org/) -->
<svg height="288.137625pt" version="1.1" viewBox="0 0 271.163594 288.137625" width="271.163594pt" xmlns="http://www.w3.org/2000/svg" xmlns:xlink="http://www.w3.org/1999/xlink">
 <metadata>
  <rdf:RDF xmlns:cc="http://creativecommons.org/ns#" xmlns:dc="http://purl.org/dc/elements/1.1/" xmlns:rdf="http://www.w3.org/1999/02/22-rdf-syntax-ns#">
   <cc:Work>
    <dc:type rdf:resource="http://purl.org/dc/dcmitype/StillImage"/>
    <dc:date>2024-02-20T15:39:41.785540</dc:date>
    <dc:format>image/svg+xml</dc:format>
    <dc:creator>
     <cc:Agent>
      <dc:title>Matplotlib v3.3.4, https://matplotlib.org/</dc:title>
     </cc:Agent>
    </dc:creator>
   </cc:Work>
  </rdf:RDF>
 </metadata>
 <defs>
  <style type="text/css">*{stroke-linecap:butt;stroke-linejoin:round;}</style>
 </defs>
 <g id="figure_1">
  <g id="patch_1">
   <path d="M 0 288.137625 
L 271.163594 288.137625 
L 271.163594 -0 
L 0 -0 
z
" style="fill:#ffffff;"/>
  </g>
  <g id="axes_1">
   <g id="patch_2">
    <path d="M 217.123244 202.197399 
C 233.02674 183.244351 241.835193 159.326939 242.023513 134.586209 
C 242.211834 109.845479 233.768488 85.796751 218.155351 66.603806 
L 176.868574 100.189903 
C 184.675142 109.786375 188.896815 121.81074 188.802655 134.181105 
C 188.708495 146.551469 184.304268 158.510175 176.352521 167.986699 
L 217.123244 202.197399 
z
" style="fill:#1f77b4;"/>
   </g>
   <g id="patch_3">
    <path d="M 218.155351 66.603806 
C 205.549741 51.10796 188.833138 39.468987 169.925892 33.023935 
C 151.018647 26.578884 130.673587 25.584376 111.227889 30.154658 
L 123.404843 81.965329 
C 133.127692 79.680188 143.300222 80.177442 152.753845 83.399968 
C 162.207468 86.622493 170.565769 92.44198 176.868574 100.189903 
L 218.155351 66.603806 
z
" style="fill:#ff7f0e;"/>
   </g>
   <g id="patch_4">
    <path d="M 111.227889 30.154658 
C 96.418308 33.635322 82.525562 40.250762 70.488525 49.553904 
C 58.451488 58.857046 48.547563 70.633493 41.446057 84.087389 
L 88.513927 108.931695 
C 92.06468 102.204746 97.016642 96.316523 103.035161 91.664952 
C 109.05368 87.013381 116.000052 83.705661 123.404843 81.965329 
L 111.227889 30.154658 
z
" style="fill:#2ca02c;"/>
   </g>
   <g id="patch_5">
    <path d="M 41.446057 84.087389 
C 34.864621 96.55601 30.825564 110.208882 29.563987 124.251326 
C 28.302409 138.293771 29.843271 152.447944 34.096886 165.889989 
L 84.839341 149.832995 
C 82.712534 143.111972 81.942103 136.034885 82.572892 129.013663 
C 83.203681 121.992441 85.223209 115.166005 88.513927 108.931695 
L 41.446057 84.087389 
z
" style="fill:#d62728;"/>
   </g>
   <g id="patch_6">
    <path d="M 34.096886 165.889989 
C 37.622297 177.030805 42.958295 187.515452 49.890394 196.922487 
C 56.822492 206.329523 65.256548 214.531193 74.853546 221.197822 
L 105.217671 177.486911 
C 100.419173 174.153596 96.202145 170.052761 92.736095 165.349244 
C 89.270046 160.645726 86.602047 155.403403 84.839341 149.832995 
L 34.096886 165.889989 
z
" style="fill:#9467bd;"/>
   </g>
   <g id="patch_7">
    <path d="M 74.853546 221.197822 
C 79.265027 224.262292 83.902146 226.988452 88.72515 229.352933 
C 93.548155 231.717414 98.543223 233.713439 103.667535 235.323897 
L 119.624666 184.549948 
C 117.06251 183.744719 114.564976 182.746707 112.153474 181.564466 
C 109.741971 180.382226 107.423412 179.019146 105.217671 177.486911 
L 74.853546 221.197822 
z
" style="fill:#8c564b;"/>
   </g>
   <g id="patch_8">
    <path d="M 103.667535 235.323897 
C 107.07593 236.39508 110.536096 237.293984 114.034891 238.017193 
C 117.533686 238.740402 121.066674 239.287001 124.620438 239.654912 
L 130.101117 186.715456 
C 128.324236 186.5315 126.557741 186.258201 124.808344 185.896596 
C 123.058947 185.534992 121.328864 185.08554 119.624666 184.549948 
L 103.667535 235.323897 
z
" style="fill:#e377c2;"/>
   </g>
   <g id="patch_9">
    <path d="M 124.620438 239.654912 
C 126.654485 239.865492 128.694177 240.017413 130.736976 240.110487 
C 132.779774 240.203561 134.824831 240.23775 136.869599 240.21301 
L 136.225698 186.994505 
C 135.203314 187.006875 134.180786 186.989781 133.159386 186.943244 
C 132.137987 186.896706 131.118141 186.820746 130.101117 186.715456 
L 124.620438 239.654912 
z
" style="fill:#7f7f7f;"/>
   </g>
   <g id="patch_10">
    <path d="M 136.869599 240.21301 
C 138.733261 240.190461 140.59601 240.118968 142.455917 239.998605 
C 144.315825 239.878243 146.172251 239.709052 148.023275 239.491207 
L 141.802536 186.633604 
C 140.877024 186.742526 139.948811 186.827121 139.018857 186.887303 
C 138.088903 186.947484 137.157529 186.98323 136.225698 186.994505 
L 136.869599 240.21301 
z
" style="fill:#bcbd22;"/>
   </g>
   <g id="patch_11">
    <path d="M 148.023275 239.491207 
C 149.69471 239.294498 151.361245 239.058177 153.021474 238.782443 
C 154.681704 238.506709 156.33516 238.191639 157.980449 237.8375 
L 146.781123 185.80675 
C 145.958478 185.98382 145.13175 186.141354 144.301636 186.279222 
C 143.471521 186.417089 142.638253 186.535249 141.802536 186.633604 
L 148.023275 239.491207 
z
" style="fill:#17becf;"/>
   </g>
   <g id="patch_12">
    <path d="M 157.980449 237.8375 
C 159.56402 237.496645 161.139605 237.119688 162.705971 236.706922 
C 164.272338 236.294155 165.829078 235.845688 167.374976 235.361871 
L 151.478387 184.568936 
C 150.705438 184.810844 149.927067 185.035078 149.143884 185.241461 
C 148.360701 185.447844 147.572909 185.636323 146.781123 185.80675 
L 157.980449 237.8375 
z
" style="fill:#1f77b4;"/>
   </g>
   <g id="patch_13">
    <path d="M 167.374976 235.361871 
C 168.844541 234.901944 170.303952 234.410182 171.75218 233.886933 
C 173.200408 233.363684 174.637111 232.80907 176.061275 232.223485 
L 155.821536 182.999743 
C 155.109454 183.292535 154.391102 183.569842 153.666988 183.831466 
C 152.942875 184.093091 152.213169 184.338972 151.478387 184.568936 
L 167.374976 235.361871 
z
" style="fill:#ff7f0e;"/>
   </g>
   <g id="patch_14">
    <path d="M 176.061275 232.223485 
C 177.240271 231.738707 178.410463 231.23279 179.571285 230.705977 
C 180.732107 230.179164 181.883372 229.631541 183.024522 229.063372 
L 159.30316 181.419686 
C 158.732584 181.70377 158.156952 181.977582 157.576541 182.240988 
C 156.99613 182.504395 156.411034 182.757354 155.821536 182.999743 
L 176.061275 232.223485 
z
" style="fill:#2ca02c;"/>
   </g>
   <g id="patch_15">
    <path d="M 183.024522 229.063372 
C 183.8192 228.667709 184.608897 228.262121 185.393428 227.846701 
C 186.177959 227.431282 186.957262 227.006065 187.731155 226.57115 
L 161.656476 180.173575 
C 161.26953 180.391033 160.879878 180.603641 160.487612 180.811351 
C 160.095347 181.01906 159.700498 181.221855 159.30316 181.419686 
L 183.024522 229.063372 
z
" style="fill:#d62728;"/>
   </g>
   <g id="patch_16">
    <path d="M 187.731155 226.57115 
C 188.413414 226.187732 189.091424 225.796801 189.765061 225.398428 
C 190.438697 225.000056 191.10792 224.594267 191.772607 224.181134 
L 163.677202 178.978567 
C 163.344859 179.185133 163.010247 179.388028 162.673429 179.587214 
C 162.33661 179.7864 161.997606 179.981866 161.656476 180.173575 
L 187.731155 226.57115 
z
" style="fill:#9467bd;"/>
   </g>
   <g id="patch_17">
    <path d="M 191.772607 224.181134 
C 192.405029 223.788056 193.033309 223.388352 193.657344 222.982089 
C 194.281378 222.575826 194.901133 222.163026 195.516504 221.743757 
L 165.549151 177.759879 
C 165.241465 177.969513 164.931588 178.175913 164.61957 178.379044 
C 164.307553 178.582176 163.993413 178.782028 163.677202 178.978567 
L 191.772607 224.181134 
z
" style="fill:#8c564b;"/>
   </g>
   <g id="patch_18">
    <path d="M 195.516504 221.743757 
C 196.024002 221.397986 196.528497 221.04783 197.029934 220.693328 
C 197.531371 220.338826 198.029732 219.979991 198.524958 219.616864 
L 167.053378 176.696432 
C 166.805764 176.877995 166.556584 177.057413 166.305866 177.234664 
C 166.055147 177.411915 165.802899 177.586993 165.549151 177.759879 
L 195.516504 221.743757 
z
" style="fill:#e377c2;"/>
   </g>
   <g id="patch_19">
    <path d="M 198.524958 219.616864 
C 199.016961 219.256101 199.505852 218.891115 199.991579 218.521947 
C 200.477305 218.152778 200.959849 217.77944 201.439156 217.401975 
L 168.510477 175.588987 
C 168.270823 175.77772 168.029551 175.964389 167.786688 176.148973 
C 167.543824 176.333558 167.299379 176.51605 167.053378 176.696432 
L 198.524958 219.616864 
z
" style="fill:#7f7f7f;"/>
   </g>
   <g id="patch_20">
    <path d="M 201.439156 217.401975 
C 201.878745 217.055788 202.315598 216.706141 202.749673 216.353066 
C 203.183749 215.999991 203.615033 215.643498 204.043487 215.283622 
L 169.812642 174.529811 
C 169.598415 174.709749 169.382773 174.887995 169.165735 175.064533 
C 168.948697 175.241071 168.730271 175.415894 168.510477 175.588987 
L 201.439156 217.401975 
z
" style="fill:#bcbd22;"/>
   </g>
   <g id="patch_21">
    <path d="M 204.043487 215.283622 
C 204.465379 214.929257 204.884514 214.571621 205.300853 214.210748 
C 205.717192 213.849874 206.130723 213.485774 206.541408 213.118479 
L 171.061603 173.44724 
C 170.85626 173.630887 170.649495 173.812937 170.441325 173.993374 
C 170.233155 174.173811 170.023588 174.352628 169.812642 174.529811 
L 204.043487 215.283622 
z
" style="fill:#17becf;"/>
   </g>
   <g id="patch_22">
    <path d="M 206.541408 213.118479 
C 206.861185 212.832489 207.179229 212.544568 207.495524 212.254732 
C 207.811819 211.964896 208.126359 211.673151 208.439126 211.379512 
L 172.010461 172.577756 
C 171.854078 172.724575 171.696808 172.870448 171.53866 173.015366 
C 171.380513 173.160284 171.221491 173.304244 171.061603 173.44724 
L 206.541408 213.118479 
z
" style="fill:#1f77b4;"/>
   </g>
   <g id="patch_23">
    <path d="M 208.439126 211.379512 
C 208.742731 211.094475 209.044661 210.807659 209.3449 210.519078 
C 209.645139 210.230498 209.943682 209.940158 210.240513 209.648074 
L 172.911155 171.712037 
C 172.762739 171.858079 172.613468 172.003249 172.463348 172.147539 
C 172.313229 172.291829 172.162264 172.435237 172.010461 172.577756 
L 208.439126 211.379512 
z
" style="fill:#ff7f0e;"/>
   </g>
   <g id="patch_24">
    <path d="M 210.240513 209.648074 
C 210.507417 209.385438 210.772933 209.121396 211.03705 208.855959 
C 211.301167 208.590521 211.563882 208.323692 211.825183 208.055482 
L 173.70349 170.915741 
C 173.572839 171.049846 173.441482 171.183261 173.309423 171.315979 
C 173.177365 171.448698 173.044607 171.580719 172.911155 171.712037 
L 210.240513 209.648074 
z
" style="fill:#2ca02c;"/>
   </g>
   <g id="patch_25">
    <path d="M 211.825183 208.055482 
C 212.062965 207.811413 212.299574 207.566204 212.535001 207.319863 
C 212.770429 207.073522 213.004672 206.826051 213.237722 206.577461 
L 174.40976 170.17673 
C 174.293234 170.301026 174.176113 170.424761 174.058399 170.547931 
C 173.940686 170.671102 173.822381 170.793707 173.70349 170.915741 
L 211.825183 208.055482 
z
" style="fill:#d62728;"/>
   </g>
   <g id="patch_26">
    <path d="M 213.237722 206.577461 
C 213.462178 206.338038 213.685525 206.097579 213.907756 205.856092 
C 214.129987 205.614604 214.3511 205.372089 214.571089 205.128556 
L 175.076443 169.452278 
C 174.966449 169.574045 174.855892 169.695302 174.744776 169.816046 
C 174.633661 169.93679 174.521987 170.057019 174.40976 170.17673 
L 213.237722 206.577461 
z
" style="fill:#9467bd;"/>
   </g>
   <g id="patch_27">
    <path d="M 214.571089 205.128556 
C 214.788205 204.888202 215.004223 204.646859 215.219136 204.404533 
C 215.434049 204.162207 215.647855 203.918902 215.860547 203.674624 
L 175.721172 168.725312 
C 175.614826 168.847451 175.507923 168.969104 175.400466 169.090266 
C 175.29301 169.211429 175.185001 169.332101 175.076443 169.452278 
L 214.571089 205.128556 
z
" style="fill:#8c564b;"/>
   </g>
   <g id="patch_28">
    <path d="M 215.860547 203.674624 
C 216.073239 203.430347 216.284816 203.1851 216.495269 202.938891 
C 216.705722 202.692682 216.915051 202.445514 217.123248 202.197394 
L 176.352522 167.986697 
C 176.248424 168.110757 176.14376 168.234341 176.038533 168.357445 
C 175.933306 168.48055 175.827518 168.603173 175.721172 168.725312 
L 215.860547 203.674624 
z
" style="fill:#e377c2;"/>
   </g>
   <g id="matplotlib.axis_1">
    <g id="text_1">
     <!-- Clinically Healthy Reference -->
     <g transform="translate(0.72 283.749344)scale(0.17 -0.17)">
      <defs>
       <path d="M 67 4 
Q 61.8125 1.3125 56.203125 -0.046875 
Q 50.59375 -1.421875 44.484375 -1.421875 
Q 26.265625 -1.421875 15.625 8.765625 
Q 4.984375 18.953125 4.984375 36.375 
Q 4.984375 53.859375 15.625 64.03125 
Q 26.265625 74.21875 44.484375 74.21875 
Q 50.59375 74.21875 56.203125 72.84375 
Q 61.8125 71.484375 67 68.796875 
L 67 53.71875 
Q 61.765625 57.28125 56.6875 58.9375 
Q 51.609375 60.59375 46 60.59375 
Q 35.9375 60.59375 30.171875 54.140625 
Q 24.421875 47.703125 24.421875 36.375 
Q 24.421875 25.09375 30.171875 18.640625 
Q 35.9375 12.203125 46 12.203125 
Q 51.609375 12.203125 56.6875 13.859375 
Q 61.765625 15.53125 67 19.09375 
z
" id="DejaVuSans-Bold-67"/>
       <path d="M 8.40625 75.984375 
L 25.875 75.984375 
L 25.875 0 
L 8.40625 0 
z
" id="DejaVuSans-Bold-108"/>
       <path d="M 8.40625 54.6875 
L 25.875 54.6875 
L 25.875 0 
L 8.40625 0 
z
M 8.40625 75.984375 
L 25.875 75.984375 
L 25.875 61.71875 
L 8.40625 61.71875 
z
" id="DejaVuSans-Bold-105"/>
       <path d="M 63.375 33.296875 
L 63.375 0 
L 45.796875 0 
L 45.796875 5.421875 
L 45.796875 25.484375 
Q 45.796875 32.5625 45.484375 35.25 
Q 45.171875 37.9375 44.390625 39.203125 
Q 43.359375 40.921875 41.59375 41.875 
Q 39.84375 42.828125 37.59375 42.828125 
Q 32.125 42.828125 29 38.59375 
Q 25.875 34.375 25.875 26.90625 
L 25.875 0 
L 8.40625 0 
L 8.40625 54.6875 
L 25.875 54.6875 
L 25.875 46.6875 
Q 29.828125 51.46875 34.265625 53.734375 
Q 38.71875 56 44.09375 56 
Q 53.5625 56 58.46875 50.1875 
Q 63.375 44.390625 63.375 33.296875 
z
" id="DejaVuSans-Bold-110"/>
       <path d="M 52.59375 52.984375 
L 52.59375 38.71875 
Q 49.03125 41.15625 45.4375 42.328125 
Q 41.84375 43.5 37.984375 43.5 
Q 30.671875 43.5 26.59375 39.234375 
Q 22.515625 34.96875 22.515625 27.296875 
Q 22.515625 19.625 26.59375 15.34375 
Q 30.671875 11.078125 37.984375 11.078125 
Q 42.09375 11.078125 45.78125 12.296875 
Q 49.46875 13.53125 52.59375 15.921875 
L 52.59375 1.609375 
Q 48.484375 0.09375 44.265625 -0.65625 
Q 40.046875 -1.421875 35.796875 -1.421875 
Q 21 -1.421875 12.640625 6.171875 
Q 4.296875 13.765625 4.296875 27.296875 
Q 4.296875 40.828125 12.640625 48.40625 
Q 21 56 35.796875 56 
Q 40.09375 56 44.265625 55.25 
Q 48.4375 54.5 52.59375 52.984375 
z
" id="DejaVuSans-Bold-99"/>
       <path d="M 32.90625 24.609375 
Q 27.4375 24.609375 24.671875 22.75 
Q 21.921875 20.90625 21.921875 17.28125 
Q 21.921875 13.96875 24.140625 12.078125 
Q 26.375 10.203125 30.328125 10.203125 
Q 35.25 10.203125 38.625 13.734375 
Q 42 17.28125 42 22.609375 
L 42 24.609375 
z
M 59.625 31.203125 
L 59.625 0 
L 42 0 
L 42 8.109375 
Q 38.484375 3.125 34.078125 0.84375 
Q 29.6875 -1.421875 23.390625 -1.421875 
Q 14.890625 -1.421875 9.59375 3.53125 
Q 4.296875 8.5 4.296875 16.40625 
Q 4.296875 26.03125 10.90625 30.515625 
Q 17.53125 35.015625 31.6875 35.015625 
L 42 35.015625 
L 42 36.375 
Q 42 40.53125 38.71875 42.453125 
Q 35.453125 44.390625 28.515625 44.390625 
Q 22.90625 44.390625 18.0625 43.265625 
Q 13.234375 42.140625 9.078125 39.890625 
L 9.078125 53.21875 
Q 14.703125 54.59375 20.359375 55.296875 
Q 26.03125 56 31.6875 56 
Q 46.484375 56 53.046875 50.171875 
Q 59.625 44.34375 59.625 31.203125 
z
" id="DejaVuSans-Bold-97"/>
       <path d="M 1.21875 54.6875 
L 18.703125 54.6875 
L 33.40625 17.578125 
L 45.90625 54.6875 
L 63.375 54.6875 
L 40.375 -5.171875 
Q 36.921875 -14.3125 32.296875 -17.9375 
Q 27.6875 -21.578125 20.125 -21.578125 
L 10.015625 -21.578125 
L 10.015625 -10.109375 
L 15.484375 -10.109375 
Q 19.921875 -10.109375 21.9375 -8.6875 
Q 23.96875 -7.28125 25.09375 -3.609375 
L 25.59375 -2.09375 
z
" id="DejaVuSans-Bold-121"/>
       <path id="DejaVuSans-Bold-32"/>
       <path d="M 9.1875 72.90625 
L 27.984375 72.90625 
L 27.984375 45.125 
L 55.71875 45.125 
L 55.71875 72.90625 
L 74.515625 72.90625 
L 74.515625 0 
L 55.71875 0 
L 55.71875 30.90625 
L 27.984375 30.90625 
L 27.984375 0 
L 9.1875 0 
z
" id="DejaVuSans-Bold-72"/>
       <path d="M 62.984375 27.484375 
L 62.984375 22.515625 
L 22.125 22.515625 
Q 22.75 16.359375 26.5625 13.28125 
Q 30.375 10.203125 37.203125 10.203125 
Q 42.71875 10.203125 48.5 11.84375 
Q 54.296875 13.484375 60.40625 16.796875 
L 60.40625 3.328125 
Q 54.203125 0.984375 48 -0.21875 
Q 41.796875 -1.421875 35.59375 -1.421875 
Q 20.75 -1.421875 12.515625 6.125 
Q 4.296875 13.671875 4.296875 27.296875 
Q 4.296875 40.671875 12.375 48.328125 
Q 20.453125 56 34.625 56 
Q 47.515625 56 55.25 48.234375 
Q 62.984375 40.484375 62.984375 27.484375 
z
M 45.015625 33.296875 
Q 45.015625 38.28125 42.109375 41.328125 
Q 39.203125 44.390625 34.515625 44.390625 
Q 29.4375 44.390625 26.265625 41.53125 
Q 23.09375 38.671875 22.3125 33.296875 
z
" id="DejaVuSans-Bold-101"/>
       <path d="M 27.484375 70.21875 
L 27.484375 54.6875 
L 45.515625 54.6875 
L 45.515625 42.1875 
L 27.484375 42.1875 
L 27.484375 19 
Q 27.484375 15.1875 29 13.84375 
Q 30.515625 12.5 35.015625 12.5 
L 44 12.5 
L 44 0 
L 29 0 
Q 18.65625 0 14.328125 4.3125 
Q 10.015625 8.640625 10.015625 19 
L 10.015625 42.1875 
L 1.3125 42.1875 
L 1.3125 54.6875 
L 10.015625 54.6875 
L 10.015625 70.21875 
z
" id="DejaVuSans-Bold-116"/>
       <path d="M 63.375 33.296875 
L 63.375 0 
L 45.796875 0 
L 45.796875 5.421875 
L 45.796875 25.390625 
Q 45.796875 32.5625 45.484375 35.25 
Q 45.171875 37.9375 44.390625 39.203125 
Q 43.359375 40.921875 41.59375 41.875 
Q 39.84375 42.828125 37.59375 42.828125 
Q 32.125 42.828125 29 38.59375 
Q 25.875 34.375 25.875 26.90625 
L 25.875 0 
L 8.40625 0 
L 8.40625 75.984375 
L 25.875 75.984375 
L 25.875 46.6875 
Q 29.828125 51.46875 34.265625 53.734375 
Q 38.71875 56 44.09375 56 
Q 53.5625 56 58.46875 50.1875 
Q 63.375 44.390625 63.375 33.296875 
z
" id="DejaVuSans-Bold-104"/>
       <path d="M 35.890625 40.578125 
Q 41.796875 40.578125 44.359375 42.765625 
Q 46.921875 44.96875 46.921875 50 
Q 46.921875 54.984375 44.359375 57.125 
Q 41.796875 59.28125 35.890625 59.28125 
L 27.984375 59.28125 
L 27.984375 40.578125 
z
M 27.984375 27.59375 
L 27.984375 0 
L 9.1875 0 
L 9.1875 72.90625 
L 37.890625 72.90625 
Q 52.296875 72.90625 59 68.0625 
Q 65.71875 63.234375 65.71875 52.78125 
Q 65.71875 45.5625 62.21875 40.921875 
Q 58.734375 36.28125 51.703125 34.078125 
Q 55.5625 33.203125 58.609375 30.09375 
Q 61.671875 27 64.796875 20.703125 
L 75 0 
L 54.984375 0 
L 46.09375 18.109375 
Q 43.40625 23.578125 40.640625 25.578125 
Q 37.890625 27.59375 33.296875 27.59375 
z
" id="DejaVuSans-Bold-82"/>
       <path d="M 44.390625 75.984375 
L 44.390625 64.5 
L 34.71875 64.5 
Q 31 64.5 29.53125 63.15625 
Q 28.078125 61.8125 28.078125 58.5 
L 28.078125 54.6875 
L 43.015625 54.6875 
L 43.015625 42.1875 
L 28.078125 42.1875 
L 28.078125 0 
L 10.59375 0 
L 10.59375 42.1875 
L 1.90625 42.1875 
L 1.90625 54.6875 
L 10.59375 54.6875 
L 10.59375 58.5 
Q 10.59375 67.4375 15.578125 71.703125 
Q 20.5625 75.984375 31 75.984375 
z
" id="DejaVuSans-Bold-102"/>
       <path d="M 49.03125 39.796875 
Q 46.734375 40.875 44.453125 41.375 
Q 42.1875 41.890625 39.890625 41.890625 
Q 33.15625 41.890625 29.515625 37.5625 
Q 25.875 33.25 25.875 25.203125 
L 25.875 0 
L 8.40625 0 
L 8.40625 54.6875 
L 25.875 54.6875 
L 25.875 45.703125 
Q 29.25 51.078125 33.609375 53.53125 
Q 37.984375 56 44.09375 56 
Q 44.96875 56 45.984375 55.921875 
Q 47.015625 55.859375 48.96875 55.609375 
z
" id="DejaVuSans-Bold-114"/>
      </defs>
      <use xlink:href="#DejaVuSans-Bold-67"/>
      <use x="73.388672" xlink:href="#DejaVuSans-Bold-108"/>
      <use x="107.666016" xlink:href="#DejaVuSans-Bold-105"/>
      <use x="141.943359" xlink:href="#DejaVuSans-Bold-110"/>
      <use x="213.134766" xlink:href="#DejaVuSans-Bold-105"/>
      <use x="247.412109" xlink:href="#DejaVuSans-Bold-99"/>
      <use x="306.689453" xlink:href="#DejaVuSans-Bold-97"/>
      <use x="374.169922" xlink:href="#DejaVuSans-Bold-108"/>
      <use x="408.447266" xlink:href="#DejaVuSans-Bold-108"/>
      <use x="442.724609" xlink:href="#DejaVuSans-Bold-121"/>
      <use x="507.910156" xlink:href="#DejaVuSans-Bold-32"/>
      <use x="542.724609" xlink:href="#DejaVuSans-Bold-72"/>
      <use x="626.416016" xlink:href="#DejaVuSans-Bold-101"/>
      <use x="694.238281" xlink:href="#DejaVuSans-Bold-97"/>
      <use x="761.71875" xlink:href="#DejaVuSans-Bold-108"/>
      <use x="795.996094" xlink:href="#DejaVuSans-Bold-116"/>
      <use x="843.798828" xlink:href="#DejaVuSans-Bold-104"/>
      <use x="914.990234" xlink:href="#DejaVuSans-Bold-121"/>
      <use x="980.175781" xlink:href="#DejaVuSans-Bold-32"/>
      <use x="1014.990234" xlink:href="#DejaVuSans-Bold-82"/>
      <use x="1091.992188" xlink:href="#DejaVuSans-Bold-101"/>
      <use x="1159.814453" xlink:href="#DejaVuSans-Bold-102"/>
      <use x="1203.320312" xlink:href="#DejaVuSans-Bold-101"/>
      <use x="1271.142578" xlink:href="#DejaVuSans-Bold-114"/>
      <use x="1320.458984" xlink:href="#DejaVuSans-Bold-101"/>
      <use x="1388.28125" xlink:href="#DejaVuSans-Bold-110"/>
      <use x="1459.472656" xlink:href="#DejaVuSans-Bold-99"/>
      <use x="1518.75" xlink:href="#DejaVuSans-Bold-101"/>
     </g>
    </g>
   </g>
   <g id="matplotlib.axis_2"/>
  </g>
 </g>
</svg>
