<?xml version="1.0" encoding="utf-8" standalone="no"?>
<!DOCTYPE svg PUBLIC "-//W3C//DTD SVG 1.1//EN"
  "http://www.w3.org/Graphics/SVG/1.1/DTD/svg11.dtd">
<!-- Created with matplotlib (https://matplotlib.org/) -->
<svg height="286.186375pt" version="1.1" viewBox="0 0 332.996685 286.186375" width="332.996685pt" xmlns="http://www.w3.org/2000/svg" xmlns:xlink="http://www.w3.org/1999/xlink">
 <metadata>
  <rdf:RDF xmlns:cc="http://creativecommons.org/ns#" xmlns:dc="http://purl.org/dc/elements/1.1/" xmlns:rdf="http://www.w3.org/1999/02/22-rdf-syntax-ns#">
   <cc:Work>
    <dc:type rdf:resource="http://purl.org/dc/dcmitype/StillImage"/>
    <dc:date>2021-09-02T00:46:55.736506</dc:date>
    <dc:format>image/svg+xml</dc:format>
    <dc:creator>
     <cc:Agent>
      <dc:title>Matplotlib v3.3.4, https://matplotlib.org/</dc:title>
     </cc:Agent>
    </dc:creator>
   </cc:Work>
  </rdf:RDF>
 </metadata>
 <defs>
  <style type="text/css">*{stroke-linecap:butt;stroke-linejoin:round;}</style>
 </defs>
 <g id="figure_1">
  <g id="patch_1">
   <path d="M 0 286.186375 
L 332.996685 286.186375 
L 332.996685 0 
L 0 0 
z
" style="fill:#ffffff;"/>
  </g>
  <g id="axes_1">
   <g id="patch_2">
    <path d="M 52.617183 38.428989 
L 158.394497 38.428989 
L 157.554395 29.823859 
" style="fill:none;stroke:#000000;stroke-linecap:round;"/>
   </g>
   <g id="text_1">
    <g id="patch_3">
     <path d="M 0.72 50.954551 
L 50.61375 50.954551 
L 50.61375 25.903426 
L 0.72 25.903426 
z
" style="fill:#ffffff;"/>
    </g>
    <!-- Bacteria -->
    <g transform="translate(0.72 35.021551)scale(0.12 -0.12)">
     <defs>
      <path d="M 16.890625 72.90625 
L 42.09375 72.90625 
Q 52.34375 72.90625 57.421875 69.09375 
Q 62.5 65.28125 62.5 57.625 
Q 62.5 50.59375 58.125 45.484375 
Q 53.765625 40.375 46.6875 39.3125 
Q 52.734375 37.9375 55.765625 34.078125 
Q 58.796875 30.21875 58.796875 23.78125 
Q 58.796875 12.796875 50.65625 6.390625 
Q 42.53125 0 28.421875 0 
L 2.6875 0 
z
M 19.28125 34.8125 
L 14.109375 8.109375 
L 29.984375 8.109375 
Q 38.921875 8.109375 43.75 12.203125 
Q 48.578125 16.3125 48.578125 23.78125 
Q 48.578125 29.546875 45.375 32.171875 
Q 42.1875 34.8125 35.109375 34.8125 
z
M 25.09375 64.796875 
L 20.796875 42.828125 
L 35.5 42.828125 
Q 43.359375 42.828125 47.78125 46.234375 
Q 52.203125 49.65625 52.203125 55.71875 
Q 52.203125 60.453125 49.21875 62.625 
Q 46.234375 64.796875 39.703125 64.796875 
z
" id="DejaVuSans-Oblique-66"/>
      <path d="M 53.71875 31.203125 
L 47.609375 0 
L 38.625 0 
L 40.28125 8.296875 
Q 36.328125 3.421875 31.265625 1 
Q 26.21875 -1.421875 20.015625 -1.421875 
Q 13.03125 -1.421875 8.5625 2.84375 
Q 4.109375 7.125 4.109375 13.8125 
Q 4.109375 23.390625 11.75 28.953125 
Q 19.390625 34.515625 32.8125 34.515625 
L 45.3125 34.515625 
L 45.796875 36.921875 
Q 45.90625 37.3125 45.953125 37.765625 
Q 46 38.234375 46 39.203125 
Q 46 43.5625 42.453125 45.96875 
Q 38.921875 48.390625 32.515625 48.390625 
Q 28.125 48.390625 23.5 47.265625 
Q 18.890625 46.140625 14.015625 43.890625 
L 15.578125 52.203125 
Q 20.65625 54.109375 25.515625 55.046875 
Q 30.375 56 34.90625 56 
Q 44.578125 56 49.625 51.796875 
Q 54.6875 47.609375 54.6875 39.59375 
Q 54.6875 37.984375 54.4375 35.8125 
Q 54.203125 33.640625 53.71875 31.203125 
z
M 44 27.484375 
L 35.015625 27.484375 
Q 23.96875 27.484375 18.671875 24.53125 
Q 13.375 21.578125 13.375 15.375 
Q 13.375 11.078125 16.078125 8.640625 
Q 18.796875 6.203125 23.578125 6.203125 
Q 30.90625 6.203125 36.375 11.453125 
Q 41.84375 16.703125 43.609375 25.484375 
z
" id="DejaVuSans-Oblique-97"/>
      <path d="M 53.609375 52.59375 
L 51.8125 43.703125 
Q 48.578125 46.046875 44.9375 47.21875 
Q 41.3125 48.390625 37.40625 48.390625 
Q 33.109375 48.390625 29.21875 46.875 
Q 25.34375 45.359375 22.703125 42.578125 
Q 18.5 38.328125 16.203125 32.609375 
Q 13.921875 26.90625 13.921875 20.796875 
Q 13.921875 13.421875 17.609375 9.8125 
Q 21.296875 6.203125 28.8125 6.203125 
Q 32.515625 6.203125 36.6875 7.328125 
Q 40.875 8.453125 45.40625 10.6875 
L 43.703125 1.8125 
Q 39.796875 0.203125 35.671875 -0.609375 
Q 31.546875 -1.421875 27.203125 -1.421875 
Q 16.3125 -1.421875 10.453125 4.015625 
Q 4.59375 9.46875 4.59375 19.578125 
Q 4.59375 28.078125 7.640625 35.234375 
Q 10.6875 42.390625 16.703125 48.09375 
Q 20.796875 52 26.3125 54 
Q 31.84375 56 38.375 56 
Q 42.1875 56 45.9375 55.140625 
Q 49.703125 54.296875 53.609375 52.59375 
z
" id="DejaVuSans-Oblique-99"/>
      <path d="M 42.28125 54.6875 
L 40.921875 47.703125 
L 23 47.703125 
L 17.1875 18.015625 
Q 16.890625 16.359375 16.75 15.234375 
Q 16.609375 14.109375 16.609375 13.484375 
Q 16.609375 10.359375 18.484375 8.9375 
Q 20.359375 7.515625 24.515625 7.515625 
L 33.59375 7.515625 
L 32.078125 0 
L 23.484375 0 
Q 15.484375 0 11.546875 3.125 
Q 7.625 6.25 7.625 12.59375 
Q 7.625 13.71875 7.765625 15.0625 
Q 7.90625 16.40625 8.203125 18.015625 
L 14.015625 47.703125 
L 6.390625 47.703125 
L 7.8125 54.6875 
L 15.28125 54.6875 
L 18.3125 70.21875 
L 27.296875 70.21875 
L 24.3125 54.6875 
z
" id="DejaVuSans-Oblique-116"/>
      <path d="M 48.09375 32.234375 
Q 48.25 33.015625 48.3125 33.84375 
Q 48.390625 34.671875 48.390625 35.5 
Q 48.390625 41.453125 44.890625 44.921875 
Q 41.40625 48.390625 35.40625 48.390625 
Q 28.71875 48.390625 23.578125 44.15625 
Q 18.453125 39.9375 15.828125 32.171875 
z
M 55.90625 25.203125 
L 14.109375 25.203125 
Q 13.8125 23.34375 13.71875 22.265625 
Q 13.625 21.1875 13.625 20.40625 
Q 13.625 13.625 17.796875 9.90625 
Q 21.96875 6.203125 29.59375 6.203125 
Q 35.453125 6.203125 40.671875 7.515625 
Q 45.90625 8.84375 50.390625 11.375 
L 48.6875 2.484375 
Q 43.84375 0.53125 38.6875 -0.4375 
Q 33.546875 -1.421875 28.21875 -1.421875 
Q 16.84375 -1.421875 10.71875 4.015625 
Q 4.59375 9.46875 4.59375 19.484375 
Q 4.59375 28.03125 7.640625 35.375 
Q 10.6875 42.71875 16.609375 48.484375 
Q 20.40625 52.09375 25.65625 54.046875 
Q 30.90625 56 36.8125 56 
Q 46.09375 56 51.578125 50.4375 
Q 57.078125 44.875 57.078125 35.5 
Q 57.078125 33.25 56.78125 30.6875 
Q 56.5 28.125 55.90625 25.203125 
z
" id="DejaVuSans-Oblique-101"/>
      <path d="M 44.578125 46.390625 
Q 43.21875 47.125 41.453125 47.515625 
Q 39.703125 47.90625 37.703125 47.90625 
Q 30.515625 47.90625 25.140625 42.453125 
Q 19.78125 37.015625 18.015625 27.875 
L 12.5 0 
L 3.515625 0 
L 14.203125 54.6875 
L 23.1875 54.6875 
L 21.484375 46.1875 
Q 25.046875 50.921875 30 53.453125 
Q 34.96875 56 40.578125 56 
Q 42.046875 56 43.453125 55.828125 
Q 44.875 55.671875 46.296875 55.28125 
z
" id="DejaVuSans-Oblique-114"/>
      <path d="M 18.3125 75.984375 
L 27.296875 75.984375 
L 25.09375 64.59375 
L 16.109375 64.59375 
z
M 14.203125 54.6875 
L 23.1875 54.6875 
L 12.5 0 
L 3.515625 0 
z
" id="DejaVuSans-Oblique-105"/>
     </defs>
     <use xlink:href="#DejaVuSans-Oblique-66"/>
     <use x="68.603516" xlink:href="#DejaVuSans-Oblique-97"/>
     <use x="129.882812" xlink:href="#DejaVuSans-Oblique-99"/>
     <use x="184.863281" xlink:href="#DejaVuSans-Oblique-116"/>
     <use x="224.072266" xlink:href="#DejaVuSans-Oblique-101"/>
     <use x="285.595703" xlink:href="#DejaVuSans-Oblique-114"/>
     <use x="326.708984" xlink:href="#DejaVuSans-Oblique-105"/>
     <use x="354.492188" xlink:href="#DejaVuSans-Oblique-97"/>
    </g>
    <!-- (75.3%) -->
    <g transform="translate(3.129375 48.458926)scale(0.12 -0.12)">
     <defs>
      <path d="M 42.671875 75.875 
Q 29.734375 59.71875 23.359375 45.1875 
Q 17 30.671875 17 17.1875 
Q 17 9.46875 18.84375 1.875 
Q 20.703125 -5.71875 24.421875 -13.1875 
L 16.609375 -13.1875 
Q 12.109375 -4.78125 9.90625 3.140625 
Q 7.71875 11.078125 7.71875 18.703125 
Q 7.71875 33.203125 14.421875 47.4375 
Q 21.140625 61.671875 34.71875 75.875 
z
" id="DejaVuSans-Oblique-40"/>
      <path d="M 12.796875 72.90625 
L 62.703125 72.90625 
L 61.8125 68.703125 
L 20.125 0 
L 9.28125 0 
L 48.6875 64.59375 
L 11.1875 64.59375 
z
" id="DejaVuSans-Oblique-55"/>
      <path d="M 58.109375 72.90625 
L 56.59375 64.703125 
L 26.421875 64.703125 
L 22.90625 46.6875 
Q 25.140625 47.40625 27.453125 47.75 
Q 29.78125 48.09375 32.171875 48.09375 
Q 42.28125 48.09375 48.140625 42.671875 
Q 54 37.25 54 27.984375 
Q 54 21.484375 51 15.53125 
Q 48 9.578125 42.484375 5.078125 
Q 38.578125 1.953125 32.9375 0.265625 
Q 27.296875 -1.421875 20.609375 -1.421875 
Q 16.21875 -1.421875 11.625 -0.640625 
Q 7.03125 0.140625 2 1.703125 
L 3.8125 10.890625 
Q 8.296875 8.6875 12.8125 7.59375 
Q 17.328125 6.5 21.921875 6.5 
Q 31.453125 6.5 37.671875 12.203125 
Q 43.890625 17.921875 43.890625 26.515625 
Q 43.890625 32.859375 39.8125 36.375 
Q 35.75 39.890625 28.421875 39.890625 
Q 24.5625 39.890625 20.390625 38.984375 
Q 16.21875 38.09375 11.8125 36.28125 
L 18.890625 72.90625 
z
" id="DejaVuSans-Oblique-53"/>
      <path d="M 8.203125 12.40625 
L 18.5 12.40625 
L 16.109375 0 
L 5.8125 0 
z
" id="DejaVuSans-Oblique-46"/>
      <path d="M 15.828125 71.09375 
Q 21.1875 72.65625 26.234375 73.4375 
Q 31.296875 74.21875 36.1875 74.21875 
Q 45.84375 74.21875 51.5 69.921875 
Q 57.171875 65.625 57.171875 58.40625 
Q 57.171875 51.3125 52.703125 46.234375 
Q 48.25 41.15625 40.375 39.3125 
Q 46.53125 37.546875 49.40625 33.828125 
Q 52.296875 30.125 52.296875 24.03125 
Q 52.296875 18.171875 49.484375 13.03125 
Q 46.6875 7.90625 41.40625 4.203125 
Q 37.40625 1.375 31.828125 -0.015625 
Q 26.265625 -1.421875 19 -1.421875 
Q 14.40625 -1.421875 9.71875 -0.515625 
Q 5.03125 0.390625 0.203125 2.203125 
L 2 11.53125 
Q 6.59375 8.984375 11.25 7.734375 
Q 15.921875 6.5 20.796875 6.5 
Q 30.421875 6.5 36.40625 11.453125 
Q 42.390625 16.40625 42.390625 24.3125 
Q 42.390625 29.390625 38.578125 32.140625 
Q 34.765625 34.90625 27.6875 34.90625 
L 19.1875 34.90625 
L 20.703125 42.921875 
L 29.6875 42.921875 
Q 37.796875 42.921875 42.453125 46.625 
Q 47.125 50.34375 47.125 56.6875 
Q 47.125 61.28125 43.703125 63.796875 
Q 40.28125 66.3125 34.078125 66.3125 
Q 29.390625 66.3125 24.484375 65.3125 
Q 19.578125 64.3125 14.3125 62.3125 
z
" id="DejaVuSans-Oblique-51"/>
      <path d="M 23.484375 34.515625 
Q 16.84375 34.515625 12.953125 38.84375 
Q 9.078125 43.171875 9.078125 50.59375 
Q 9.078125 61.140625 14.734375 67.671875 
Q 20.40625 74.21875 29.5 74.21875 
Q 36.140625 74.21875 40.015625 69.84375 
Q 43.890625 65.484375 43.890625 58.015625 
Q 43.890625 47.5625 38.21875 41.03125 
Q 32.5625 34.515625 23.484375 34.515625 
z
M 36.078125 57.71875 
Q 36.078125 62.84375 34.171875 65.421875 
Q 32.28125 68.015625 28.515625 68.015625 
Q 23.046875 68.015625 19.96875 63.28125 
Q 16.890625 58.546875 16.890625 50.09375 
Q 16.890625 45.609375 18.859375 43.15625 
Q 20.84375 40.71875 24.515625 40.71875 
Q 29.734375 40.71875 32.90625 45.359375 
Q 36.078125 50 36.078125 57.71875 
z
M 78.078125 21.78125 
Q 78.078125 27 76.21875 29.578125 
Q 74.359375 32.171875 70.609375 32.171875 
Q 65.1875 32.171875 62.078125 27.40625 
Q 58.984375 22.65625 58.984375 14.203125 
Q 58.984375 9.671875 60.953125 7.21875 
Q 62.9375 4.78125 66.609375 4.78125 
Q 71.828125 4.78125 74.953125 9.421875 
Q 78.078125 14.0625 78.078125 21.78125 
z
M 65.578125 -1.421875 
Q 58.9375 -1.421875 55.078125 2.921875 
Q 51.21875 7.28125 51.21875 14.703125 
Q 51.21875 25.25 56.859375 31.765625 
Q 62.5 38.28125 71.578125 38.28125 
Q 78.21875 38.28125 82.046875 33.984375 
Q 85.890625 29.6875 85.890625 22.21875 
Q 85.890625 11.71875 80.25 5.140625 
Q 74.609375 -1.421875 65.578125 -1.421875 
z
M 82.171875 74.21875 
L 21.921875 -1.421875 
L 14.109375 -1.421875 
L 74.421875 74.21875 
z
" id="DejaVuSans-Oblique-37"/>
      <path d="M -6.203125 -13.1875 
Q 6.78125 2.984375 13.125 17.5 
Q 19.484375 32.03125 19.484375 45.515625 
Q 19.484375 53.21875 17.65625 60.8125 
Q 15.828125 68.40625 12.109375 75.875 
L 19.921875 75.875 
Q 24.421875 67.4375 26.609375 59.5625 
Q 28.8125 51.703125 28.8125 44.09375 
Q 28.8125 29.546875 22.046875 15.203125 
Q 15.28125 0.875 1.8125 -13.1875 
z
" id="DejaVuSans-Oblique-41"/>
     </defs>
     <use xlink:href="#DejaVuSans-Oblique-40"/>
     <use x="39.013672" xlink:href="#DejaVuSans-Oblique-55"/>
     <use x="102.636719" xlink:href="#DejaVuSans-Oblique-53"/>
     <use x="166.259766" xlink:href="#DejaVuSans-Oblique-46"/>
     <use x="198.046875" xlink:href="#DejaVuSans-Oblique-51"/>
     <use x="261.669922" xlink:href="#DejaVuSans-Oblique-37"/>
     <use x="356.689453" xlink:href="#DejaVuSans-Oblique-41"/>
    </g>
   </g>
   <g id="patch_4">
    <path d="M 282.789957 229.123011 
L 177.011563 229.123011 
L 177.851665 237.728141 
" style="fill:none;stroke:#000000;stroke-linecap:round;"/>
   </g>
   <g id="text_2">
    <g id="patch_5">
     <path d="M 284.79231 241.648574 
L 332.276685 241.648574 
L 332.276685 216.597449 
L 284.79231 216.597449 
z
" style="fill:#ffffff;"/>
    </g>
    <!-- Fungi -->
    <g transform="translate(284.79231 225.715574)scale(0.12 -0.12)">
     <defs>
      <path d="M 16.890625 72.90625 
L 58.6875 72.90625 
L 57.078125 64.59375 
L 25.09375 64.59375 
L 20.90625 43.109375 
L 49.8125 43.109375 
L 48.1875 34.8125 
L 19.28125 34.8125 
L 12.5 0 
L 2.6875 0 
z
" id="DejaVuSans-Oblique-70"/>
      <path d="M 6.6875 21.6875 
L 13.09375 54.6875 
L 22.125 54.6875 
L 15.71875 22.015625 
Q 15.234375 19.625 15.015625 17.921875 
Q 14.796875 16.21875 14.796875 15.09375 
Q 14.796875 10.9375 17.328125 8.65625 
Q 19.875 6.390625 24.515625 6.390625 
Q 31.734375 6.390625 37 11.265625 
Q 42.28125 16.15625 43.890625 24.421875 
L 49.90625 54.6875 
L 58.890625 54.6875 
L 48.296875 0 
L 39.3125 0 
L 41.109375 8.59375 
Q 37.3125 3.8125 32.0625 1.1875 
Q 26.8125 -1.421875 20.90625 -1.421875 
Q 13.71875 -1.421875 9.71875 2.515625 
Q 5.71875 6.453125 5.71875 13.484375 
Q 5.71875 14.9375 5.953125 17.140625 
Q 6.203125 19.34375 6.6875 21.6875 
z
" id="DejaVuSans-Oblique-117"/>
      <path d="M 55.71875 33.015625 
L 49.3125 0 
L 40.28125 0 
L 46.6875 32.671875 
Q 47.125 34.96875 47.359375 36.71875 
Q 47.609375 38.484375 47.609375 39.5 
Q 47.609375 43.609375 45.015625 45.890625 
Q 42.4375 48.1875 37.796875 48.1875 
Q 30.5625 48.1875 25.34375 43.375 
Q 20.125 38.578125 18.5 30.328125 
L 12.5 0 
L 3.515625 0 
L 14.109375 54.6875 
L 23.09375 54.6875 
L 21.296875 46.09375 
Q 25.046875 50.828125 30.3125 53.40625 
Q 35.59375 56 41.40625 56 
Q 48.640625 56 52.609375 52.09375 
Q 56.59375 48.1875 56.59375 41.109375 
Q 56.59375 39.359375 56.375 37.359375 
Q 56.15625 35.359375 55.71875 33.015625 
z
" id="DejaVuSans-Oblique-110"/>
      <path d="M 59.625 54.6875 
L 50.296875 6.78125 
Q 47.609375 -7.125 40.015625 -13.953125 
Q 32.421875 -20.796875 19.578125 -20.796875 
Q 14.84375 -20.796875 10.78125 -20.09375 
Q 6.734375 -19.390625 3.21875 -17.921875 
L 4.890625 -9.1875 
Q 8.203125 -11.328125 11.90625 -12.34375 
Q 15.625 -13.375 19.828125 -13.375 
Q 28.375 -13.375 33.859375 -8.703125 
Q 39.359375 -4.046875 41.109375 4.6875 
L 41.890625 8.796875 
Q 38.140625 4.5 33.15625 2.25 
Q 28.171875 0 22.40625 0 
Q 14.109375 0 9.34375 5.484375 
Q 4.59375 10.984375 4.59375 20.609375 
Q 4.59375 28.171875 7.46875 35.421875 
Q 10.359375 42.671875 15.578125 48.296875 
Q 19.046875 52 23.65625 54 
Q 28.265625 56 33.296875 56 
Q 38.8125 56 42.90625 53.4375 
Q 47.015625 50.875 49.03125 46.1875 
L 50.59375 54.6875 
z
M 46.09375 34.625 
Q 46.09375 41.265625 42.96875 44.875 
Q 39.84375 48.484375 34.078125 48.484375 
Q 30.515625 48.484375 27.296875 47.0625 
Q 24.078125 45.65625 21.78125 43.109375 
Q 18.0625 38.921875 15.984375 33.234375 
Q 13.921875 27.546875 13.921875 21.484375 
Q 13.921875 14.75 17.0625 11.125 
Q 20.21875 7.515625 26.125 7.515625 
Q 34.671875 7.515625 40.375 15.25 
Q 46.09375 23 46.09375 34.625 
z
" id="DejaVuSans-Oblique-103"/>
     </defs>
     <use xlink:href="#DejaVuSans-Oblique-70"/>
     <use x="53.519531" xlink:href="#DejaVuSans-Oblique-117"/>
     <use x="116.898438" xlink:href="#DejaVuSans-Oblique-110"/>
     <use x="180.277344" xlink:href="#DejaVuSans-Oblique-103"/>
     <use x="243.753906" xlink:href="#DejaVuSans-Oblique-105"/>
    </g>
    <!-- (24.7%) -->
    <g transform="translate(284.79231 239.152949)scale(0.12 -0.12)">
     <defs>
      <path d="M 46.09375 35.203125 
L 14.59375 8.203125 
L 49.421875 8.203125 
L 47.703125 0 
L 0.390625 0 
L 2 8.296875 
L 34.90625 36.53125 
Q 41.5 42.234375 44.25 46.546875 
Q 47.015625 50.875 47.015625 55.421875 
Q 47.015625 60.15625 43.6875 63.125 
Q 40.375 66.109375 35.015625 66.109375 
Q 30.375 66.109375 24.703125 64.453125 
Q 19.046875 62.796875 12.59375 59.625 
L 14.40625 69.390625 
Q 20.453125 71.78125 25.96875 73 
Q 31.5 74.21875 36.1875 74.21875 
Q 45.75 74.21875 51.578125 69.140625 
Q 57.421875 64.0625 57.421875 55.8125 
Q 57.421875 50.25 54.640625 45.1875 
Q 51.859375 40.140625 46.09375 35.203125 
z
" id="DejaVuSans-Oblique-50"/>
      <path d="M 43.015625 72.90625 
L 55.421875 72.90625 
L 46.09375 25.390625 
L 56.5 25.390625 
L 54.890625 17.1875 
L 44.484375 17.1875 
L 41.21875 0 
L 31.390625 0 
L 34.71875 17.1875 
L 1.8125 17.1875 
L 3.71875 26.703125 
z
M 43.890625 64.3125 
L 11.375 25.390625 
L 36.28125 25.390625 
z
" id="DejaVuSans-Oblique-52"/>
     </defs>
     <use xlink:href="#DejaVuSans-Oblique-40"/>
     <use x="39.013672" xlink:href="#DejaVuSans-Oblique-50"/>
     <use x="102.636719" xlink:href="#DejaVuSans-Oblique-52"/>
     <use x="166.259766" xlink:href="#DejaVuSans-Oblique-46"/>
     <use x="198.046875" xlink:href="#DejaVuSans-Oblique-55"/>
     <use x="261.669922" xlink:href="#DejaVuSans-Oblique-37"/>
     <use x="356.689453" xlink:href="#DejaVuSans-Oblique-41"/>
    </g>
   </g>
   <g id="patch_6">
    <path d="M 249.244478 202.197399 
C 256.002664 194.143305 261.530422 185.132182 265.64747 175.457916 
C 269.764518 165.78365 272.425607 155.552567 273.543948 145.098342 
C 274.66229 134.644117 274.225593 124.081648 272.2481 113.755418 
C 270.270607 103.429188 266.774052 93.452688 261.872471 84.15129 
C 256.970889 74.849892 250.718153 66.325824 243.318187 58.857088 
C 235.918222 51.388352 227.452357 45.057034 218.196697 40.069623 
C 208.941037 35.082212 198.997308 31.493523 188.689811 29.420595 
C 178.382315 27.347668 167.824338 26.813286 157.360215 27.834877 
C 146.896092 28.856467 136.640832 31.422804 126.928897 35.450187 
C 117.216961 39.477571 108.155091 44.921738 100.038828 51.605134 
C 91.922565 58.28853 84.841112 66.1377 79.025423 74.896654 
C 73.209733 83.655607 68.723725 93.228077 65.713703 103.301868 
C 62.703682 113.37566 61.20273 123.840056 61.259798 134.353774 
C 61.316867 144.867491 62.931328 155.314977 66.05053 165.355499 
C 69.169732 175.396022 73.759392 184.919228 79.669823 193.614532 
C 85.580255 202.309837 92.746498 210.08167 100.934836 216.676565 
L 134.318933 175.226283 
C 130.224764 171.928835 126.641642 168.042918 123.686427 163.695266 
C 120.731211 159.347614 118.436381 154.586011 116.87678 149.56575 
C 115.317179 144.545488 114.509948 139.321746 114.481414 134.064887 
C 114.45288 128.808028 115.203356 123.57583 116.708367 118.538934 
C 118.213377 113.502038 120.456382 108.715804 123.364226 104.336327 
C 126.272071 99.95685 129.812798 96.032265 133.870929 92.690567 
C 137.929061 89.348869 142.459996 86.626785 147.315963 84.613094 
C 152.171931 82.599402 157.299561 81.316234 162.531623 80.805438 
C 167.763684 80.294643 173.042672 80.561834 178.196421 81.598298 
C 183.350169 82.634761 188.322033 84.429106 192.949864 86.922812 
C 197.577694 89.416517 201.810626 92.582176 205.510609 96.316544 
C 209.210592 100.050912 212.33696 104.312946 214.78775 108.963645 
C 217.238541 113.614344 218.986819 118.602594 219.975565 123.765709 
C 220.964312 128.928824 221.18266 134.210058 220.623489 139.437171 
C 220.064318 144.664284 218.733774 149.779825 216.67525 154.616958 
C 214.616726 159.454091 211.852847 163.959653 208.473754 167.986699 
L 249.244478 202.197399 
z
" style="fill:#1f77b4;"/>
   </g>
   <g id="patch_7">
    <path d="M 100.934836 216.676565 
C 122.624885 234.145752 150.327479 242.423211 178.045845 239.717123 
C 205.764211 237.011036 231.342748 223.53185 249.244478 202.197399 
L 208.473754 167.986699 
C 199.522889 178.653925 186.733621 185.393518 172.874437 186.746562 
C 159.015254 188.099605 145.163958 183.960876 134.318933 175.226283 
L 100.934836 216.676565 
z
" style="fill:#ff7f0e;"/>
   </g>
   <g id="matplotlib.axis_1">
    <g id="text_3">
     <!-- Bactera vs Fungi -->
     <g transform="translate(97.106936 282.229656)scale(0.15 -0.15)">
      <defs>
       <path d="M 38.375 44.671875 
Q 42.828125 44.671875 45.109375 46.625 
Q 47.40625 48.578125 47.40625 52.390625 
Q 47.40625 56.15625 45.109375 58.125 
Q 42.828125 60.109375 38.375 60.109375 
L 27.984375 60.109375 
L 27.984375 44.671875 
z
M 39.015625 12.796875 
Q 44.671875 12.796875 47.53125 15.1875 
Q 50.390625 17.578125 50.390625 22.40625 
Q 50.390625 27.15625 47.5625 29.515625 
Q 44.734375 31.890625 39.015625 31.890625 
L 27.984375 31.890625 
L 27.984375 12.796875 
z
M 56.5 39.015625 
Q 62.546875 37.25 65.859375 32.515625 
Q 69.1875 27.78125 69.1875 20.90625 
Q 69.1875 10.359375 62.0625 5.171875 
Q 54.9375 0 40.375 0 
L 9.1875 0 
L 9.1875 72.90625 
L 37.40625 72.90625 
Q 52.59375 72.90625 59.40625 68.3125 
Q 66.21875 63.71875 66.21875 53.609375 
Q 66.21875 48.296875 63.71875 44.5625 
Q 61.234375 40.828125 56.5 39.015625 
z
" id="DejaVuSans-Bold-66"/>
       <path d="M 32.90625 24.609375 
Q 27.4375 24.609375 24.671875 22.75 
Q 21.921875 20.90625 21.921875 17.28125 
Q 21.921875 13.96875 24.140625 12.078125 
Q 26.375 10.203125 30.328125 10.203125 
Q 35.25 10.203125 38.625 13.734375 
Q 42 17.28125 42 22.609375 
L 42 24.609375 
z
M 59.625 31.203125 
L 59.625 0 
L 42 0 
L 42 8.109375 
Q 38.484375 3.125 34.078125 0.84375 
Q 29.6875 -1.421875 23.390625 -1.421875 
Q 14.890625 -1.421875 9.59375 3.53125 
Q 4.296875 8.5 4.296875 16.40625 
Q 4.296875 26.03125 10.90625 30.515625 
Q 17.53125 35.015625 31.6875 35.015625 
L 42 35.015625 
L 42 36.375 
Q 42 40.53125 38.71875 42.453125 
Q 35.453125 44.390625 28.515625 44.390625 
Q 22.90625 44.390625 18.0625 43.265625 
Q 13.234375 42.140625 9.078125 39.890625 
L 9.078125 53.21875 
Q 14.703125 54.59375 20.359375 55.296875 
Q 26.03125 56 31.6875 56 
Q 46.484375 56 53.046875 50.171875 
Q 59.625 44.34375 59.625 31.203125 
z
" id="DejaVuSans-Bold-97"/>
       <path d="M 52.59375 52.984375 
L 52.59375 38.71875 
Q 49.03125 41.15625 45.4375 42.328125 
Q 41.84375 43.5 37.984375 43.5 
Q 30.671875 43.5 26.59375 39.234375 
Q 22.515625 34.96875 22.515625 27.296875 
Q 22.515625 19.625 26.59375 15.34375 
Q 30.671875 11.078125 37.984375 11.078125 
Q 42.09375 11.078125 45.78125 12.296875 
Q 49.46875 13.53125 52.59375 15.921875 
L 52.59375 1.609375 
Q 48.484375 0.09375 44.265625 -0.65625 
Q 40.046875 -1.421875 35.796875 -1.421875 
Q 21 -1.421875 12.640625 6.171875 
Q 4.296875 13.765625 4.296875 27.296875 
Q 4.296875 40.828125 12.640625 48.40625 
Q 21 56 35.796875 56 
Q 40.09375 56 44.265625 55.25 
Q 48.4375 54.5 52.59375 52.984375 
z
" id="DejaVuSans-Bold-99"/>
       <path d="M 27.484375 70.21875 
L 27.484375 54.6875 
L 45.515625 54.6875 
L 45.515625 42.1875 
L 27.484375 42.1875 
L 27.484375 19 
Q 27.484375 15.1875 29 13.84375 
Q 30.515625 12.5 35.015625 12.5 
L 44 12.5 
L 44 0 
L 29 0 
Q 18.65625 0 14.328125 4.3125 
Q 10.015625 8.640625 10.015625 19 
L 10.015625 42.1875 
L 1.3125 42.1875 
L 1.3125 54.6875 
L 10.015625 54.6875 
L 10.015625 70.21875 
z
" id="DejaVuSans-Bold-116"/>
       <path d="M 62.984375 27.484375 
L 62.984375 22.515625 
L 22.125 22.515625 
Q 22.75 16.359375 26.5625 13.28125 
Q 30.375 10.203125 37.203125 10.203125 
Q 42.71875 10.203125 48.5 11.84375 
Q 54.296875 13.484375 60.40625 16.796875 
L 60.40625 3.328125 
Q 54.203125 0.984375 48 -0.21875 
Q 41.796875 -1.421875 35.59375 -1.421875 
Q 20.75 -1.421875 12.515625 6.125 
Q 4.296875 13.671875 4.296875 27.296875 
Q 4.296875 40.671875 12.375 48.328125 
Q 20.453125 56 34.625 56 
Q 47.515625 56 55.25 48.234375 
Q 62.984375 40.484375 62.984375 27.484375 
z
M 45.015625 33.296875 
Q 45.015625 38.28125 42.109375 41.328125 
Q 39.203125 44.390625 34.515625 44.390625 
Q 29.4375 44.390625 26.265625 41.53125 
Q 23.09375 38.671875 22.3125 33.296875 
z
" id="DejaVuSans-Bold-101"/>
       <path d="M 49.03125 39.796875 
Q 46.734375 40.875 44.453125 41.375 
Q 42.1875 41.890625 39.890625 41.890625 
Q 33.15625 41.890625 29.515625 37.5625 
Q 25.875 33.25 25.875 25.203125 
L 25.875 0 
L 8.40625 0 
L 8.40625 54.6875 
L 25.875 54.6875 
L 25.875 45.703125 
Q 29.25 51.078125 33.609375 53.53125 
Q 37.984375 56 44.09375 56 
Q 44.96875 56 45.984375 55.921875 
Q 47.015625 55.859375 48.96875 55.609375 
z
" id="DejaVuSans-Bold-114"/>
       <path id="DejaVuSans-Bold-32"/>
       <path d="M 1.515625 54.6875 
L 19 54.6875 
L 32.625 16.890625 
L 46.1875 54.6875 
L 63.71875 54.6875 
L 42.1875 0 
L 23 0 
z
" id="DejaVuSans-Bold-118"/>
       <path d="M 51.125 52.984375 
L 51.125 39.703125 
Q 45.515625 42.046875 40.28125 43.21875 
Q 35.0625 44.390625 30.421875 44.390625 
Q 25.4375 44.390625 23.015625 43.140625 
Q 20.609375 41.890625 20.609375 39.3125 
Q 20.609375 37.203125 22.4375 36.078125 
Q 24.265625 34.96875 29 34.421875 
L 32.078125 33.984375 
Q 45.515625 32.28125 50.140625 28.375 
Q 54.78125 24.46875 54.78125 16.109375 
Q 54.78125 7.375 48.328125 2.96875 
Q 41.890625 -1.421875 29.109375 -1.421875 
Q 23.6875 -1.421875 17.890625 -0.5625 
Q 12.109375 0.296875 6 2 
L 6 15.28125 
Q 11.234375 12.75 16.71875 11.46875 
Q 22.21875 10.203125 27.875 10.203125 
Q 33.015625 10.203125 35.59375 11.609375 
Q 38.1875 13.03125 38.1875 15.828125 
Q 38.1875 18.171875 36.40625 19.3125 
Q 34.625 20.453125 29.296875 21.09375 
L 26.21875 21.484375 
Q 14.546875 22.953125 9.859375 26.90625 
Q 5.171875 30.859375 5.171875 38.921875 
Q 5.171875 47.609375 11.125 51.796875 
Q 17.09375 56 29.390625 56 
Q 34.234375 56 39.546875 55.265625 
Q 44.875 54.546875 51.125 52.984375 
z
" id="DejaVuSans-Bold-115"/>
       <path d="M 9.1875 72.90625 
L 59.90625 72.90625 
L 59.90625 58.6875 
L 27.984375 58.6875 
L 27.984375 45.125 
L 58.015625 45.125 
L 58.015625 30.90625 
L 27.984375 30.90625 
L 27.984375 0 
L 9.1875 0 
z
" id="DejaVuSans-Bold-70"/>
       <path d="M 7.8125 21.296875 
L 7.8125 54.6875 
L 25.390625 54.6875 
L 25.390625 49.21875 
Q 25.390625 44.78125 25.34375 38.0625 
Q 25.296875 31.34375 25.296875 29.109375 
Q 25.296875 22.515625 25.640625 19.609375 
Q 25.984375 16.703125 26.8125 15.375 
Q 27.875 13.671875 29.609375 12.734375 
Q 31.34375 11.8125 33.59375 11.8125 
Q 39.0625 11.8125 42.1875 16.015625 
Q 45.3125 20.21875 45.3125 27.6875 
L 45.3125 54.6875 
L 62.796875 54.6875 
L 62.796875 0 
L 45.3125 0 
L 45.3125 7.90625 
Q 41.359375 3.125 36.9375 0.84375 
Q 32.515625 -1.421875 27.203125 -1.421875 
Q 17.71875 -1.421875 12.765625 4.390625 
Q 7.8125 10.203125 7.8125 21.296875 
z
" id="DejaVuSans-Bold-117"/>
       <path d="M 63.375 33.296875 
L 63.375 0 
L 45.796875 0 
L 45.796875 5.421875 
L 45.796875 25.484375 
Q 45.796875 32.5625 45.484375 35.25 
Q 45.171875 37.9375 44.390625 39.203125 
Q 43.359375 40.921875 41.59375 41.875 
Q 39.84375 42.828125 37.59375 42.828125 
Q 32.125 42.828125 29 38.59375 
Q 25.875 34.375 25.875 26.90625 
L 25.875 0 
L 8.40625 0 
L 8.40625 54.6875 
L 25.875 54.6875 
L 25.875 46.6875 
Q 29.828125 51.46875 34.265625 53.734375 
Q 38.71875 56 44.09375 56 
Q 53.5625 56 58.46875 50.1875 
Q 63.375 44.390625 63.375 33.296875 
z
" id="DejaVuSans-Bold-110"/>
       <path d="M 45.609375 9.28125 
Q 42 4.5 37.640625 2.25 
Q 33.296875 0 27.59375 0 
Q 17.578125 0 11.03125 7.875 
Q 4.5 15.765625 4.5 27.984375 
Q 4.5 40.234375 11.03125 48.0625 
Q 17.578125 55.90625 27.59375 55.90625 
Q 33.296875 55.90625 37.640625 53.65625 
Q 42 51.421875 45.609375 46.578125 
L 45.609375 54.6875 
L 63.1875 54.6875 
L 63.1875 5.515625 
Q 63.1875 -7.671875 54.859375 -14.625 
Q 46.53125 -21.578125 30.71875 -21.578125 
Q 25.59375 -21.578125 20.796875 -20.796875 
Q 16.015625 -20.015625 11.1875 -18.40625 
L 11.1875 -4.78125 
Q 15.765625 -7.421875 20.15625 -8.71875 
Q 24.5625 -10.015625 29 -10.015625 
Q 37.59375 -10.015625 41.59375 -6.25 
Q 45.609375 -2.484375 45.609375 5.515625 
z
M 34.078125 43.3125 
Q 28.65625 43.3125 25.625 39.296875 
Q 22.609375 35.296875 22.609375 27.984375 
Q 22.609375 20.453125 25.53125 16.578125 
Q 28.46875 12.703125 34.078125 12.703125 
Q 39.546875 12.703125 42.578125 16.703125 
Q 45.609375 20.703125 45.609375 27.984375 
Q 45.609375 35.296875 42.578125 39.296875 
Q 39.546875 43.3125 34.078125 43.3125 
z
" id="DejaVuSans-Bold-103"/>
       <path d="M 8.40625 54.6875 
L 25.875 54.6875 
L 25.875 0 
L 8.40625 0 
z
M 8.40625 75.984375 
L 25.875 75.984375 
L 25.875 61.71875 
L 8.40625 61.71875 
z
" id="DejaVuSans-Bold-105"/>
      </defs>
      <use xlink:href="#DejaVuSans-Bold-66"/>
      <use x="76.220703" xlink:href="#DejaVuSans-Bold-97"/>
      <use x="143.701172" xlink:href="#DejaVuSans-Bold-99"/>
      <use x="202.978516" xlink:href="#DejaVuSans-Bold-116"/>
      <use x="250.78125" xlink:href="#DejaVuSans-Bold-101"/>
      <use x="318.603516" xlink:href="#DejaVuSans-Bold-114"/>
      <use x="367.919922" xlink:href="#DejaVuSans-Bold-97"/>
      <use x="435.400391" xlink:href="#DejaVuSans-Bold-32"/>
      <use x="470.214844" xlink:href="#DejaVuSans-Bold-118"/>
      <use x="535.400391" xlink:href="#DejaVuSans-Bold-115"/>
      <use x="594.921875" xlink:href="#DejaVuSans-Bold-32"/>
      <use x="629.736328" xlink:href="#DejaVuSans-Bold-70"/>
      <use x="693.046875" xlink:href="#DejaVuSans-Bold-117"/>
      <use x="764.238281" xlink:href="#DejaVuSans-Bold-110"/>
      <use x="835.429688" xlink:href="#DejaVuSans-Bold-103"/>
      <use x="907.011719" xlink:href="#DejaVuSans-Bold-105"/>
     </g>
    </g>
   </g>
   <g id="matplotlib.axis_2"/>
  </g>
 </g>
</svg>
