<?xml version="1.0" encoding="utf-8" standalone="no"?>
<!DOCTYPE svg PUBLIC "-//W3C//DTD SVG 1.1//EN"
  "http://www.w3.org/Graphics/SVG/1.1/DTD/svg11.dtd">
<!-- Created with matplotlib (https://matplotlib.org/) -->
<svg height="288.137625pt" version="1.1" viewBox="0 0 271.163594 288.137625" width="271.163594pt" xmlns="http://www.w3.org/2000/svg" xmlns:xlink="http://www.w3.org/1999/xlink">
 <metadata>
  <rdf:RDF xmlns:cc="http://creativecommons.org/ns#" xmlns:dc="http://purl.org/dc/elements/1.1/" xmlns:rdf="http://www.w3.org/1999/02/22-rdf-syntax-ns#">
   <cc:Work>
    <dc:type rdf:resource="http://purl.org/dc/dcmitype/StillImage"/>
    <dc:date>2024-02-20T15:29:54.369466</dc:date>
    <dc:format>image/svg+xml</dc:format>
    <dc:creator>
     <cc:Agent>
      <dc:title>Matplotlib v3.3.4, https://matplotlib.org/</dc:title>
     </cc:Agent>
    </dc:creator>
   </cc:Work>
  </rdf:RDF>
 </metadata>
 <defs>
  <style type="text/css">*{stroke-linecap:butt;stroke-linejoin:round;}</style>
 </defs>
 <g id="figure_1">
  <g id="patch_1">
   <path d="M 0 288.137625 
L 271.163594 288.137625 
L 271.163594 -0 
L 0 -0 
z
" style="fill:#ffffff;"/>
  </g>
  <g id="axes_1">
   <g id="patch_2">
    <path d="M 217.123244 202.197399 
C 228.250548 188.936395 235.976753 173.158983 239.629689 156.237779 
C 243.282626 139.316575 242.753196 121.756942 238.08746 105.086549 
C 233.421723 88.416157 224.759025 73.132876 212.853011 60.566336 
C 200.946998 47.999797 186.153249 38.525306 169.758804 32.967133 
L 152.670301 83.371567 
C 160.867523 86.150653 168.264397 90.887898 174.217404 97.171168 
C 180.170411 103.454438 184.50176 111.096078 186.834628 119.431275 
C 189.167496 127.766471 189.432211 136.546287 187.605743 145.006889 
C 185.779275 153.467491 181.916172 161.356197 176.352521 167.986699 
L 217.123244 202.197399 
z
" style="fill:#1f77b4;"/>
   </g>
   <g id="patch_3">
    <path d="M 169.758804 32.967133 
C 145.720459 24.817466 119.542218 25.528661 95.981815 34.971461 
C 72.421412 44.414262 52.99821 61.979721 41.242258 84.475424 
L 88.412027 109.125712 
C 94.290004 97.87786 104.001604 89.095131 115.781806 84.373731 
C 127.562008 79.65233 140.651128 79.296733 152.670301 83.371567 
L 169.758804 32.967133 
z
" style="fill:#ff7f0e;"/>
   </g>
   <g id="patch_4">
    <path d="M 41.242258 84.475424 
C 38.003191 90.673569 35.382824 97.175867 33.41917 103.887992 
C 31.455516 110.600116 30.158116 117.489453 29.545793 124.45606 
L 82.563795 129.11603 
C 82.869957 125.632726 83.518656 122.188058 84.500483 118.831996 
C 85.48231 115.475933 86.792494 112.224784 88.412027 109.125712 
L 41.242258 84.475424 
z
" style="fill:#2ca02c;"/>
   </g>
   <g id="patch_5">
    <path d="M 29.545793 124.45606 
C 29.072783 129.837648 29.010152 135.247446 29.358443 140.638543 
C 29.706734 146.02964 30.464937 151.386408 31.626478 156.662396 
L 83.604137 145.219198 
C 83.023367 142.581204 82.644265 139.90282 82.47012 137.207271 
C 82.295974 134.511723 82.32729 131.806824 82.563795 129.11603 
L 29.545793 124.45606 
z
" style="fill:#d62728;"/>
   </g>
   <g id="patch_6">
    <path d="M 31.626478 156.662396 
C 32.713175 161.598425 34.150053 166.450793 35.926204 171.182661 
C 37.702355 175.914529 39.813272 180.51389 42.242929 184.945826 
L 88.912363 159.360913 
C 87.697534 157.144945 86.642076 154.845264 85.754 152.47933 
C 84.865925 150.113396 84.147486 147.687212 83.604137 145.219198 
L 31.626478 156.662396 
z
" style="fill:#9467bd;"/>
   </g>
   <g id="patch_7">
    <path d="M 42.242929 184.945826 
C 43.331584 186.931642 44.483335 188.88221 45.696424 190.794552 
C 46.909513 192.706893 48.183322 194.580035 49.515905 196.411116 
L 92.548851 165.093558 
C 91.882559 164.178017 91.245655 163.241447 90.639111 162.285276 
C 90.032566 161.329105 89.45669 160.353821 88.912363 159.360913 
L 42.242929 184.945826 
z
" style="fill:#8c564b;"/>
   </g>
   <g id="patch_8">
    <path d="M 49.515905 196.411116 
C 50.789104 198.160598 52.115351 199.870852 53.492795 201.539495 
C 54.87024 203.208138 56.298243 204.834394 57.774814 206.415995 
L 96.678306 170.095998 
C 95.94002 169.305197 95.226019 168.492069 94.537296 167.657748 
C 93.848574 166.823426 93.185451 165.968299 92.548851 165.093558 
L 49.515905 196.411116 
z
" style="fill:#e377c2;"/>
   </g>
   <g id="patch_9">
    <path d="M 57.774814 206.415995 
C 58.993825 207.721716 60.245511 208.996545 61.528682 210.23927 
C 62.811854 211.481995 64.126104 212.692223 65.470185 213.868804 
L 100.525991 173.822402 
C 99.85395 173.234112 99.196825 172.628998 98.55524 172.007635 
C 97.913654 171.386272 97.287811 170.748858 96.678306 170.095998 
L 57.774814 206.415995 
z
" style="fill:#7f7f7f;"/>
   </g>
   <g id="patch_10">
    <path d="M 65.470185 213.868804 
C 66.75794 214.996079 68.072695 216.092132 69.413303 217.156009 
C 70.753911 218.219885 72.119981 219.251274 73.510324 220.249277 
L 104.54606 177.012639 
C 103.850889 176.513637 103.167854 175.997942 102.49755 175.466004 
C 101.827246 174.934066 101.169868 174.386039 100.525991 173.822402 
L 65.470185 213.868804 
z
" style="fill:#bcbd22;"/>
   </g>
   <g id="patch_11">
    <path d="M 73.510324 220.249277 
C 74.745807 221.13612 76.000154 221.996384 77.272501 222.829475 
C 78.544849 223.662567 79.834904 224.468295 81.141779 225.246104 
L 108.361788 179.511052 
C 107.70835 179.122147 107.063323 178.719283 106.427149 178.302738 
C 105.790975 177.886192 105.163802 177.45606 104.54606 177.012639 
L 73.510324 220.249277 
z
" style="fill:#17becf;"/>
   </g>
   <g id="patch_12">
    <path d="M 81.141779 225.246104 
C 82.419803 226.006742 83.713628 226.740511 85.022401 227.446929 
C 86.331175 228.153347 87.65461 228.832258 88.991835 229.483215 
L 112.286816 181.629607 
C 111.618204 181.304129 110.956486 180.964673 110.302099 180.611465 
C 109.647712 180.258256 109.0008 179.891371 108.361788 179.511052 
L 81.141779 225.246104 
z
" style="fill:#1f77b4;"/>
   </g>
   <g id="patch_13">
    <path d="M 88.991835 229.483215 
C 90.160969 230.052345 91.340433 230.600005 92.529634 231.125919 
C 93.718834 231.651833 94.917572 232.155912 96.125243 232.637903 
L 115.85352 183.206951 
C 115.249684 182.965956 114.650316 182.713916 114.055715 182.450959 
C 113.461115 182.188003 112.871383 181.914173 112.286816 181.629607 
L 88.991835 229.483215 
z
" style="fill:#ff7f0e;"/>
   </g>
   <g id="patch_14">
    <path d="M 96.125243 232.637903 
C 97.273958 233.096364 98.430576 233.534769 99.594572 233.952919 
C 100.758567 234.371069 101.929761 234.768899 103.107622 235.146229 
L 119.344709 184.461115 
C 118.755779 184.27245 118.170182 184.073534 117.588184 183.864459 
C 117.006187 183.655385 116.427877 183.436182 115.85352 183.206951 
L 96.125243 232.637903 
z
" style="fill:#2ca02c;"/>
   </g>
   <g id="patch_15">
    <path d="M 103.107622 235.146229 
C 104.246346 235.511022 105.391137 235.856602 106.541506 236.182821 
C 107.691875 236.50904 108.84766 236.815852 110.008367 237.103127 
L 122.795082 185.439563 
C 122.214728 185.295926 121.636836 185.14252 121.061652 184.97941 
C 120.486467 184.816301 119.914072 184.643511 119.344709 184.461115 
L 103.107622 235.146229 
z
" style="fill:#d62728;"/>
   </g>
   <g id="patch_16">
    <path d="M 110.008367 237.103127 
C 111.045662 237.359857 112.086763 237.600952 113.131318 237.826331 
C 114.175873 238.05171 115.223763 238.261347 116.274631 238.455171 
L 125.928214 186.115585 
C 125.40278 186.018674 124.878835 185.913855 124.356558 185.801166 
C 123.83428 185.688476 123.313729 185.567928 122.795082 185.439563 
L 110.008367 237.103127 
z
" style="fill:#9467bd;"/>
   </g>
   <g id="patch_17">
    <path d="M 116.274631 238.455171 
C 117.23006 238.631391 118.187858 238.794523 119.147754 238.94452 
C 120.10765 239.094517 121.069555 239.231366 122.033197 239.355027 
L 128.807497 186.565513 
C 128.325676 186.503683 127.844723 186.435259 127.364775 186.36026 
C 126.884827 186.285262 126.405929 186.203696 125.928214 186.115585 
L 116.274631 238.455171 
z
" style="fill:#8c564b;"/>
   </g>
   <g id="patch_18">
    <path d="M 122.033197 239.355027 
C 122.89294 239.465355 123.753999 239.565177 124.61618 239.654471 
C 125.478361 239.743766 126.341601 239.822525 127.205706 239.890733 
L 131.393751 186.833366 
C 130.961699 186.799263 130.530079 186.759883 130.098988 186.715236 
C 129.667898 186.670588 129.237369 186.620677 128.807497 186.565513 
L 122.033197 239.355027 
z
" style="fill:#e377c2;"/>
   </g>
   <g id="patch_19">
    <path d="M 127.205706 239.890733 
C 128.043842 239.956891 128.882732 240.013116 129.722199 240.059397 
C 130.561667 240.105679 131.401654 240.142013 132.241983 240.168392 
L 133.91189 186.972196 
C 133.491725 186.959006 133.071732 186.940839 132.651998 186.917699 
C 132.232264 186.894558 131.812819 186.866445 131.393751 186.833366 
L 127.205706 239.890733 
z
" style="fill:#7f7f7f;"/>
   </g>
   <g id="patch_20">
    <path d="M 132.241983 240.168392 
C 133.063608 240.194184 133.885506 240.210458 134.707508 240.217209 
C 135.529511 240.223961 136.351565 240.221191 137.173503 240.208899 
L 136.37765 186.992449 
C 135.966681 186.998595 135.555654 186.999981 135.144653 186.996605 
C 134.733651 186.993229 134.322703 186.985092 133.91189 186.972196 
L 132.241983 240.168392 
z
" style="fill:#bcbd22;"/>
   </g>
   <g id="patch_21">
    <path d="M 137.173503 240.208899 
C 137.980584 240.196829 138.787501 240.175579 139.594098 240.145154 
C 140.400696 240.114729 141.206921 240.07513 142.012617 240.026365 
L 138.797207 186.901182 
C 138.394359 186.925565 137.991246 186.945364 137.587948 186.960577 
C 137.184649 186.97579 136.78119 186.986414 136.37765 186.992449 
L 137.173503 240.208899 
z
" style="fill:#17becf;"/>
   </g>
   <g id="patch_22">
    <path d="M 142.012617 240.026365 
C 142.747265 239.9819 143.481431 239.929817 144.214998 239.870125 
C 144.948566 239.810432 145.681494 239.743133 146.413665 239.668238 
L 140.997731 186.722119 
C 140.631645 186.759566 140.265181 186.793216 139.898398 186.823062 
C 139.531614 186.852909 139.164531 186.87895 138.797207 186.901182 
L 142.012617 240.026365 
z
" style="fill:#1f77b4;"/>
   </g>
   <g id="patch_23">
    <path d="M 146.413665 239.668238 
C 147.097657 239.598272 147.780954 239.52168 148.463462 239.438473 
C 149.145969 239.355266 149.827655 239.265448 150.508422 239.169033 
L 143.045109 186.472516 
C 142.704726 186.520724 142.363883 186.565633 142.022629 186.607236 
C 141.681376 186.64884 141.339727 186.687136 140.997731 186.722119 
L 146.413665 239.668238 
z
" style="fill:#ff7f0e;"/>
   </g>
   <g id="patch_24">
    <path d="M 150.508422 239.169033 
C 151.181742 239.073671 151.854133 238.97186 152.525501 238.863613 
C 153.19687 238.755365 153.867186 238.640686 154.536357 238.519592 
L 145.059077 186.147796 
C 144.724491 186.208343 144.389333 186.265683 144.053649 186.319806 
C 143.717965 186.37393 143.381769 186.424836 143.045109 186.472516 
L 150.508422 239.169033 
z
" style="fill:#2ca02c;"/>
   </g>
   <g id="patch_25">
    <path d="M 154.536357 238.519592 
C 155.201918 238.399151 155.866315 238.27237 156.529459 238.139264 
C 157.192603 238.006159 157.854463 237.866736 158.514949 237.721014 
L 147.048373 185.748507 
C 146.71813 185.821368 146.3872 185.891079 146.055628 185.957632 
C 145.724056 186.024185 145.391857 186.087576 145.059077 186.147796 
L 154.536357 238.519592 
z
" style="fill:#d62728;"/>
   </g>
   <g id="patch_26">
    <path d="M 158.514949 237.721014 
C 159.047708 237.603473 159.579555 237.481837 160.110443 237.356119 
C 160.641332 237.2304 161.171246 237.100601 161.700138 236.966735 
L 148.640968 185.371367 
C 148.376521 185.438301 148.111564 185.5032 147.84612 185.566059 
C 147.580676 185.628919 147.314752 185.689736 147.048373 185.748507 
L 158.514949 237.721014 
z
" style="fill:#9467bd;"/>
   </g>
   <g id="patch_27">
    <path d="M 161.700138 236.966735 
C 162.18546 236.843896 162.669909 236.717635 163.153449 236.587962 
C 163.63699 236.458288 164.119609 236.325205 164.601272 236.188722 
L 150.091534 184.982361 
C 149.850703 185.050602 149.609393 185.117144 149.367623 185.181981 
C 149.125853 185.246818 148.883628 185.309948 148.640968 185.371367 
L 161.700138 236.966735 
z
" style="fill:#8c564b;"/>
   </g>
   <g id="patch_28">
    <path d="M 164.601272 236.188722 
C 165.079404 236.053239 165.556582 235.914409 166.03277 235.772243 
C 166.508959 235.630077 166.984146 235.484578 167.458296 235.335757 
L 151.520046 184.555879 
C 151.282971 184.630289 151.045378 184.703039 150.807284 184.774122 
C 150.56919 184.845205 150.330601 184.914619 150.091534 184.982361 
L 164.601272 236.188722 
z
" style="fill:#e377c2;"/>
   </g>
   <g id="patch_29">
    <path d="M 167.458296 235.335757 
C 167.914593 235.192539 168.36992 235.046248 168.824246 234.896893 
C 169.278572 234.747538 169.731886 234.595123 170.184157 234.439658 
L 152.882977 184.107829 
C 152.656841 184.185562 152.430184 184.261769 152.203021 184.336447 
C 151.975859 184.411124 151.748195 184.48427 151.520046 184.555879 
L 167.458296 235.335757 
z
" style="fill:#7f7f7f;"/>
   </g>
   <g id="patch_30">
    <path d="M 170.184157 234.439658 
C 170.632959 234.285386 171.080724 234.128114 171.527422 233.967853 
C 171.97412 233.807593 172.419741 233.644346 172.864256 233.478125 
L 154.223026 183.627062 
C 154.000769 183.710173 153.777958 183.791796 153.554609 183.871927 
C 153.33126 183.952057 153.107378 184.030693 152.882977 184.107829 
L 170.184157 234.439658 
z
" style="fill:#bcbd22;"/>
   </g>
   <g id="patch_31">
    <path d="M 172.864256 233.478125 
C 173.284199 233.321092 173.703146 233.161407 174.121072 232.999081 
C 174.538998 232.836754 174.955894 232.671788 175.371735 232.504194 
L 155.476766 183.140097 
C 155.268845 183.223894 155.060397 183.306377 154.851434 183.38754 
C 154.642472 183.468704 154.432998 183.548546 154.223026 183.627062 
L 172.864256 233.478125 
z
" style="fill:#17becf;"/>
   </g>
   <g id="patch_32">
    <path d="M 175.371735 232.504194 
C 175.7806 232.339411 176.188438 232.17209 176.595224 232.00224 
C 177.00201 231.83239 177.407738 231.660015 177.812382 231.485125 
L 156.69709 182.630562 
C 156.494767 182.718008 156.291904 182.804195 156.08851 182.88912 
C 155.885117 182.974045 155.681198 183.057706 155.476766 183.140097 
L 175.371735 232.504194 
z
" style="fill:#1f77b4;"/>
   </g>
   <g id="patch_33">
    <path d="M 177.812382 231.485125 
C 178.182844 231.325009 178.552391 231.162787 178.921007 230.998468 
C 179.289623 230.834149 179.657302 230.667734 180.024025 230.499233 
L 157.802911 182.137617 
C 157.619549 182.221867 157.43571 182.305074 157.251402 182.387234 
C 157.067094 182.469394 156.88232 182.550504 156.69709 182.630562 
L 177.812382 231.485125 
z
" style="fill:#ff7f0e;"/>
   </g>
   <g id="patch_34">
    <path d="M 180.024025 230.499233 
C 180.387247 230.33234 180.749527 230.163403 181.110847 229.992428 
C 181.472166 229.821454 181.832519 229.648446 182.19189 229.473412 
L 158.886843 181.624706 
C 158.707158 181.712223 158.526981 181.798727 158.346322 181.884214 
C 158.165662 181.969701 157.984522 182.05417 157.802911 182.137617 
L 180.024025 230.499233 
z
" style="fill:#2ca02c;"/>
   </g>
   <g id="patch_35">
    <path d="M 182.19189 229.473412 
C 182.547962 229.299985 182.903063 229.124572 183.257177 228.947181 
C 183.61129 228.76979 183.964411 228.590424 184.316523 228.409091 
L 159.94916 181.092545 
C 159.773104 181.183212 159.596544 181.272895 159.419487 181.36159 
C 159.24243 181.450286 159.064879 181.537992 158.886843 181.624706 
L 182.19189 229.473412 
z
" style="fill:#d62728;"/>
   </g>
   <g id="patch_36">
    <path d="M 184.316523 228.409091 
C 184.66521 228.229522 185.012902 228.048027 185.359582 227.864615 
C 185.706263 227.681203 186.051927 227.495876 186.396559 227.308643 
L 160.989178 180.542322 
C 160.816862 180.635938 160.64403 180.728602 160.47069 180.820308 
C 160.297349 180.912014 160.123503 181.002761 159.94916 181.092545 
L 184.316523 228.409091 
z
" style="fill:#9467bd;"/>
   </g>
   <g id="patch_37">
    <path d="M 186.396559 227.308643 
C 186.737967 227.123162 187.078358 226.935812 187.417714 226.746604 
C 187.757071 226.557395 188.095389 226.366329 188.432653 226.173416 
L 162.007225 179.974708 
C 161.838593 180.071165 161.669434 180.166697 161.499756 180.261302 
C 161.330077 180.355906 161.159882 180.449581 160.989178 180.542322 
L 186.396559 227.308643 
z
" style="fill:#8c564b;"/>
   </g>
   <g id="patch_38">
    <path d="M 188.432653 226.173416 
C 188.763389 225.984236 189.093107 225.793283 189.421792 225.600563 
C 189.750477 225.407843 190.078125 225.21336 190.404722 225.017122 
L 162.993259 179.396561 
C 162.829961 179.49468 162.666137 179.591922 162.501794 179.688282 
C 162.337452 179.784641 162.172593 179.880118 162.007225 179.974708 
L 188.432653 226.173416 
z
" style="fill:#e377c2;"/>
   </g>
   <g id="patch_39">
    <path d="M 190.404722 225.017122 
C 190.721727 224.826647 191.037737 224.634522 191.352739 224.440753 
C 191.667741 224.246985 191.981732 224.051576 192.294697 223.854535 
L 163.938247 178.815267 
C 163.781764 178.913788 163.624769 179.011492 163.467268 179.108377 
C 163.309767 179.205261 163.151762 179.301324 162.993259 179.396561 
L 190.404722 225.017122 
z
" style="fill:#7f7f7f;"/>
   </g>
   <g id="patch_40">
    <path d="M 192.294697 223.854535 
C 192.591828 223.667463 192.888031 223.478922 193.183297 223.288919 
C 193.478562 223.098916 193.772885 222.907453 194.066256 222.714538 
L 164.824026 178.245269 
C 164.677341 178.341727 164.530179 178.437458 164.382547 178.53246 
C 164.234914 178.627461 164.086812 178.721731 163.938247 178.815267 
L 192.294697 223.854535 
z
" style="fill:#bcbd22;"/>
   </g>
   <g id="patch_41">
    <path d="M 194.066256 222.714538 
C 194.347211 222.529787 194.627289 222.343705 194.906481 222.1563 
C 195.185672 221.968894 195.463974 221.780167 195.741377 221.590124 
L 165.661587 177.683062 
C 165.522886 177.778083 165.383735 177.872447 165.244139 177.96615 
C 165.104543 178.059853 164.964504 178.152893 164.824026 178.245269 
L 194.066256 222.714538 
z
" style="fill:#17becf;"/>
   </g>
   <g id="patch_42">
    <path d="M 195.741377 221.590124 
C 196.015602 221.402258 196.288946 221.213109 196.561399 221.022682 
C 196.833852 220.832256 197.105411 220.640554 197.376068 220.447584 
L 166.478933 177.111792 
C 166.343604 177.208277 166.207824 177.304128 166.071598 177.399341 
C 165.935371 177.494554 165.7987 177.589129 165.661587 177.683062 
L 195.741377 221.590124 
z
" style="fill:#1f77b4;"/>
   </g>
   <g id="patch_43">
    <path d="M 197.376068 220.447584 
C 197.613267 220.278469 197.84977 220.10838 198.085572 219.937323 
C 198.321373 219.766266 198.556472 219.594242 198.790861 219.421254 
L 167.186329 176.598627 
C 167.069134 176.685121 166.951585 176.771133 166.833684 176.856662 
C 166.715783 176.94219 166.597532 177.027234 166.478933 177.111792 
L 197.376068 220.447584 
z
" style="fill:#ff7f0e;"/>
   </g>
   <g id="patch_44">
    <path d="M 198.790861 219.421254 
C 199.016247 219.254912 199.240976 219.087681 199.465041 218.919564 
C 199.689107 218.751448 199.912508 218.582448 200.135239 218.412567 
L 167.858518 176.094284 
C 167.747152 176.179224 167.635452 176.263724 167.523419 176.347782 
C 167.411386 176.43184 167.299022 176.515456 167.186329 176.598627 
L 198.790861 219.421254 
z
" style="fill:#2ca02c;"/>
   </g>
   <g id="patch_45">
    <path d="M 200.135239 218.412567 
C 200.35797 218.242687 200.58003 218.071928 200.801414 217.900295 
C 201.022797 217.728662 201.243502 217.556155 201.463523 217.38278 
L 168.52266 175.57939 
C 168.412649 175.666078 168.302297 175.752331 168.191605 175.838148 
C 168.080914 175.923964 167.969884 176.009344 167.858518 176.094284 
L 200.135239 218.412567 
z
" style="fill:#d62728;"/>
   </g>
   <g id="patch_46">
    <path d="M 201.463523 217.38278 
C 201.677781 217.213946 201.891389 217.044289 202.104342 216.873812 
C 202.317296 216.703336 202.529593 216.532042 202.74123 216.359933 
L 169.161513 175.067967 
C 169.055695 175.154021 168.949546 175.239668 168.84307 175.324906 
C 168.736593 175.410144 168.629789 175.494973 168.52266 175.57939 
L 201.463523 217.38278 
z
" style="fill:#9467bd;"/>
   </g>
   <g id="patch_47">
    <path d="M 202.74123 216.359933 
C 202.926679 216.209121 203.111619 216.057685 203.296048 215.905627 
C 203.480476 215.75357 203.664392 215.600891 203.847792 215.447594 
L 169.714795 174.611797 
C 169.623095 174.688446 169.531137 174.764785 169.438922 174.840814 
C 169.346708 174.916843 169.254238 174.992561 169.161513 175.067967 
L 202.74123 216.359933 
z
" style="fill:#8c564b;"/>
   </g>
   <g id="patch_48">
    <path d="M 203.847792 215.447594 
C 204.028377 215.296651 204.208461 215.145108 204.388041 214.99297 
C 204.567621 214.840832 204.746696 214.688098 204.925262 214.534772 
L 170.25353 174.155386 
C 170.164246 174.232049 170.074709 174.308416 169.984919 174.384485 
C 169.895129 174.460554 169.805087 174.536325 169.714795 174.611797 
L 203.847792 215.447594 
z
" style="fill:#e377c2;"/>
   </g>
   <g id="patch_49">
    <path d="M 204.925262 214.534772 
C 205.098123 214.386346 205.270506 214.237365 205.44241 214.087831 
C 205.614313 213.938298 205.785736 213.788213 205.956676 213.637579 
L 170.769237 173.706789 
C 170.683767 173.782106 170.598055 173.857149 170.512103 173.931916 
C 170.426151 174.006682 170.33996 174.081173 170.25353 174.155386 
L 204.925262 214.534772 
z
" style="fill:#7f7f7f;"/>
   </g>
   <g id="patch_50">
    <path d="M 205.956676 213.637579 
C 206.124864 213.48937 206.292582 213.340631 206.45983 213.191363 
C 206.627078 213.042095 206.793853 212.892299 206.960154 212.741977 
L 171.270976 173.258989 
C 171.187825 173.334149 171.104437 173.409047 171.020813 173.483681 
C 170.93719 173.558316 170.85333 173.632685 170.769237 173.706789 
L 205.956676 213.637579 
z
" style="fill:#bcbd22;"/>
   </g>
   <g id="patch_51">
    <path d="M 206.960154 212.741977 
C 207.123598 212.594239 207.286582 212.445993 207.449105 212.297243 
C 207.611627 212.148492 207.773688 211.999237 207.935284 211.849481 
L 171.75854 172.81274 
C 171.677742 172.887619 171.596712 172.962246 171.515451 173.036621 
C 171.434189 173.110997 171.352697 173.185119 171.270976 173.258989 
L 206.960154 212.741977 
z
" style="fill:#17becf;"/>
   </g>
   <g id="patch_52">
    <path d="M 207.935284 211.849481 
C 208.094189 211.702218 208.252644 211.55447 208.410647 211.406239 
C 208.56865 211.258009 208.726199 211.109297 208.883294 210.960104 
L 172.232546 172.368052 
C 172.153998 172.442648 172.075223 172.517005 171.996222 172.59112 
C 171.91722 172.665235 171.837993 172.739109 171.75854 172.81274 
L 207.935284 211.849481 
z
" style="fill:#1f77b4;"/>
   </g>
   <g id="patch_53">
    <path d="M 208.883294 210.960104 
C 209.037729 210.813438 209.191723 210.666309 209.345274 210.518719 
C 209.498825 210.371129 209.651933 210.223078 209.804596 210.074569 
L 172.693196 171.925284 
C 172.616865 171.999539 172.540311 172.073564 172.463535 172.147359 
C 172.38676 172.221155 172.309763 172.294719 172.232546 172.368052 
L 208.883294 210.960104 
z
" style="fill:#ff7f0e;"/>
   </g>
   <g id="patch_54">
    <path d="M 209.804596 210.074569 
C 209.957258 209.926059 210.109475 209.777092 210.261243 209.627669 
C 210.413012 209.478246 210.564331 209.328368 210.7152 209.178037 
L 173.148498 171.477019 
C 173.073064 171.552184 172.997404 171.627123 172.92152 171.701835 
C 172.845636 171.776546 172.769528 171.85103 172.693196 171.925284 
L 209.804596 210.074569 
z
" style="fill:#2ca02c;"/>
   </g>
   <g id="patch_55">
    <path d="M 210.7152 209.178037 
C 210.86334 209.030425 211.011044 208.882377 211.158312 208.733894 
C 211.305579 208.585411 211.452408 208.436495 211.598798 208.287147 
L 173.590297 171.031573 
C 173.517103 171.106247 173.443688 171.180706 173.370054 171.254947 
C 173.296421 171.329188 173.222568 171.403212 173.148498 171.477019 
L 210.7152 209.178037 
z
" style="fill:#d62728;"/>
   </g>
   <g id="patch_56">
    <path d="M 211.598798 208.287147 
C 211.745187 208.137799 211.891136 207.98802 212.036643 207.837811 
C 212.18215 207.687603 212.327214 207.536966 212.471833 207.385903 
L 174.026815 170.580952 
C 173.954505 170.656483 173.881973 170.731802 173.80922 170.806906 
C 173.736467 170.88201 173.663492 170.956899 173.590297 171.031573 
L 211.598798 208.287147 
z
" style="fill:#9467bd;"/>
   </g>
   <g id="patch_57">
    <path d="M 212.471833 207.385903 
C 212.613914 207.23749 212.755566 207.088666 212.896786 206.939433 
C 213.038006 206.790199 213.178794 206.640557 213.319147 206.490509 
L 174.450472 170.133254 
C 174.380295 170.208279 174.309902 170.2831 174.239292 170.357716 
C 174.168682 170.432333 174.097856 170.506745 174.026815 170.580952 
L 212.471833 207.385903 
z
" style="fill:#8c564b;"/>
   </g>
   <g id="patch_58">
    <path d="M 213.319147 206.490509 
C 213.456994 206.34314 213.594422 206.195379 213.731429 206.047228 
C 213.868436 205.899078 214.005021 205.750538 214.141183 205.60161 
L 174.86149 169.688805 
C 174.793409 169.763269 174.725116 169.837539 174.656613 169.911614 
C 174.58811 169.98569 174.519396 170.05957 174.450472 170.133254 
L 213.319147 206.490509 
z
" style="fill:#e377c2;"/>
   </g>
   <g id="patch_59">
    <path d="M 214.141183 205.60161 
C 214.26967 205.461077 214.397781 205.320199 214.525512 205.178978 
C 214.653243 205.037757 214.780596 204.896194 214.907567 204.75429 
L 175.244682 169.265145 
C 175.181196 169.336097 175.11752 169.406879 175.053654 169.477489 
C 174.989789 169.5481 174.925734 169.618538 174.86149 169.688805 
L 214.141183 205.60161 
z
" style="fill:#7f7f7f;"/>
   </g>
   <g id="patch_60">
    <path d="M 214.907567 204.75429 
C 215.034539 204.612385 215.16113 204.470141 215.287338 204.327557 
C 215.413546 204.184973 215.539372 204.042051 215.664813 203.898792 
L 175.623305 168.837396 
C 175.560584 168.909026 175.497672 168.980487 175.434567 169.051778 
C 175.371463 169.12307 175.308168 169.194193 175.244682 169.265145 
L 214.907567 204.75429 
z
" style="fill:#bcbd22;"/>
   </g>
   <g id="patch_61">
    <path d="M 215.664813 203.898792 
C 215.787837 203.758294 215.910492 203.617471 216.032775 203.476327 
C 216.155058 203.335183 216.276969 203.193717 216.398508 203.051931 
L 175.990152 168.413966 
C 175.929383 168.484859 175.868427 168.555591 175.807286 168.626164 
C 175.746144 168.696736 175.684817 168.767147 175.623305 168.837396 
L 215.664813 203.898792 
z
" style="fill:#17becf;"/>
   </g>
   <g id="patch_62">
    <path d="M 216.398508 203.051931 
C 216.520046 202.910145 216.641212 202.76804 216.762002 202.625616 
C 216.882793 202.483193 217.003209 202.340452 217.123248 202.197394 
L 176.352522 167.986697 
C 176.292503 168.058226 176.232295 168.129596 176.1719 168.200808 
C 176.111504 168.27202 176.050922 168.343073 175.990152 168.413966 
L 216.398508 203.051931 
z
" style="fill:#1f77b4;"/>
   </g>
   <g id="matplotlib.axis_1">
    <g id="text_1">
     <!-- Clinically Healthy Reference -->
     <g transform="translate(0.72 283.749344)scale(0.17 -0.17)">
      <defs>
       <path d="M 67 4 
Q 61.8125 1.3125 56.203125 -0.046875 
Q 50.59375 -1.421875 44.484375 -1.421875 
Q 26.265625 -1.421875 15.625 8.765625 
Q 4.984375 18.953125 4.984375 36.375 
Q 4.984375 53.859375 15.625 64.03125 
Q 26.265625 74.21875 44.484375 74.21875 
Q 50.59375 74.21875 56.203125 72.84375 
Q 61.8125 71.484375 67 68.796875 
L 67 53.71875 
Q 61.765625 57.28125 56.6875 58.9375 
Q 51.609375 60.59375 46 60.59375 
Q 35.9375 60.59375 30.171875 54.140625 
Q 24.421875 47.703125 24.421875 36.375 
Q 24.421875 25.09375 30.171875 18.640625 
Q 35.9375 12.203125 46 12.203125 
Q 51.609375 12.203125 56.6875 13.859375 
Q 61.765625 15.53125 67 19.09375 
z
" id="DejaVuSans-Bold-67"/>
       <path d="M 8.40625 75.984375 
L 25.875 75.984375 
L 25.875 0 
L 8.40625 0 
z
" id="DejaVuSans-Bold-108"/>
       <path d="M 8.40625 54.6875 
L 25.875 54.6875 
L 25.875 0 
L 8.40625 0 
z
M 8.40625 75.984375 
L 25.875 75.984375 
L 25.875 61.71875 
L 8.40625 61.71875 
z
" id="DejaVuSans-Bold-105"/>
       <path d="M 63.375 33.296875 
L 63.375 0 
L 45.796875 0 
L 45.796875 5.421875 
L 45.796875 25.484375 
Q 45.796875 32.5625 45.484375 35.25 
Q 45.171875 37.9375 44.390625 39.203125 
Q 43.359375 40.921875 41.59375 41.875 
Q 39.84375 42.828125 37.59375 42.828125 
Q 32.125 42.828125 29 38.59375 
Q 25.875 34.375 25.875 26.90625 
L 25.875 0 
L 8.40625 0 
L 8.40625 54.6875 
L 25.875 54.6875 
L 25.875 46.6875 
Q 29.828125 51.46875 34.265625 53.734375 
Q 38.71875 56 44.09375 56 
Q 53.5625 56 58.46875 50.1875 
Q 63.375 44.390625 63.375 33.296875 
z
" id="DejaVuSans-Bold-110"/>
       <path d="M 52.59375 52.984375 
L 52.59375 38.71875 
Q 49.03125 41.15625 45.4375 42.328125 
Q 41.84375 43.5 37.984375 43.5 
Q 30.671875 43.5 26.59375 39.234375 
Q 22.515625 34.96875 22.515625 27.296875 
Q 22.515625 19.625 26.59375 15.34375 
Q 30.671875 11.078125 37.984375 11.078125 
Q 42.09375 11.078125 45.78125 12.296875 
Q 49.46875 13.53125 52.59375 15.921875 
L 52.59375 1.609375 
Q 48.484375 0.09375 44.265625 -0.65625 
Q 40.046875 -1.421875 35.796875 -1.421875 
Q 21 -1.421875 12.640625 6.171875 
Q 4.296875 13.765625 4.296875 27.296875 
Q 4.296875 40.828125 12.640625 48.40625 
Q 21 56 35.796875 56 
Q 40.09375 56 44.265625 55.25 
Q 48.4375 54.5 52.59375 52.984375 
z
" id="DejaVuSans-Bold-99"/>
       <path d="M 32.90625 24.609375 
Q 27.4375 24.609375 24.671875 22.75 
Q 21.921875 20.90625 21.921875 17.28125 
Q 21.921875 13.96875 24.140625 12.078125 
Q 26.375 10.203125 30.328125 10.203125 
Q 35.25 10.203125 38.625 13.734375 
Q 42 17.28125 42 22.609375 
L 42 24.609375 
z
M 59.625 31.203125 
L 59.625 0 
L 42 0 
L 42 8.109375 
Q 38.484375 3.125 34.078125 0.84375 
Q 29.6875 -1.421875 23.390625 -1.421875 
Q 14.890625 -1.421875 9.59375 3.53125 
Q 4.296875 8.5 4.296875 16.40625 
Q 4.296875 26.03125 10.90625 30.515625 
Q 17.53125 35.015625 31.6875 35.015625 
L 42 35.015625 
L 42 36.375 
Q 42 40.53125 38.71875 42.453125 
Q 35.453125 44.390625 28.515625 44.390625 
Q 22.90625 44.390625 18.0625 43.265625 
Q 13.234375 42.140625 9.078125 39.890625 
L 9.078125 53.21875 
Q 14.703125 54.59375 20.359375 55.296875 
Q 26.03125 56 31.6875 56 
Q 46.484375 56 53.046875 50.171875 
Q 59.625 44.34375 59.625 31.203125 
z
" id="DejaVuSans-Bold-97"/>
       <path d="M 1.21875 54.6875 
L 18.703125 54.6875 
L 33.40625 17.578125 
L 45.90625 54.6875 
L 63.375 54.6875 
L 40.375 -5.171875 
Q 36.921875 -14.3125 32.296875 -17.9375 
Q 27.6875 -21.578125 20.125 -21.578125 
L 10.015625 -21.578125 
L 10.015625 -10.109375 
L 15.484375 -10.109375 
Q 19.921875 -10.109375 21.9375 -8.6875 
Q 23.96875 -7.28125 25.09375 -3.609375 
L 25.59375 -2.09375 
z
" id="DejaVuSans-Bold-121"/>
       <path id="DejaVuSans-Bold-32"/>
       <path d="M 9.1875 72.90625 
L 27.984375 72.90625 
L 27.984375 45.125 
L 55.71875 45.125 
L 55.71875 72.90625 
L 74.515625 72.90625 
L 74.515625 0 
L 55.71875 0 
L 55.71875 30.90625 
L 27.984375 30.90625 
L 27.984375 0 
L 9.1875 0 
z
" id="DejaVuSans-Bold-72"/>
       <path d="M 62.984375 27.484375 
L 62.984375 22.515625 
L 22.125 22.515625 
Q 22.75 16.359375 26.5625 13.28125 
Q 30.375 10.203125 37.203125 10.203125 
Q 42.71875 10.203125 48.5 11.84375 
Q 54.296875 13.484375 60.40625 16.796875 
L 60.40625 3.328125 
Q 54.203125 0.984375 48 -0.21875 
Q 41.796875 -1.421875 35.59375 -1.421875 
Q 20.75 -1.421875 12.515625 6.125 
Q 4.296875 13.671875 4.296875 27.296875 
Q 4.296875 40.671875 12.375 48.328125 
Q 20.453125 56 34.625 56 
Q 47.515625 56 55.25 48.234375 
Q 62.984375 40.484375 62.984375 27.484375 
z
M 45.015625 33.296875 
Q 45.015625 38.28125 42.109375 41.328125 
Q 39.203125 44.390625 34.515625 44.390625 
Q 29.4375 44.390625 26.265625 41.53125 
Q 23.09375 38.671875 22.3125 33.296875 
z
" id="DejaVuSans-Bold-101"/>
       <path d="M 27.484375 70.21875 
L 27.484375 54.6875 
L 45.515625 54.6875 
L 45.515625 42.1875 
L 27.484375 42.1875 
L 27.484375 19 
Q 27.484375 15.1875 29 13.84375 
Q 30.515625 12.5 35.015625 12.5 
L 44 12.5 
L 44 0 
L 29 0 
Q 18.65625 0 14.328125 4.3125 
Q 10.015625 8.640625 10.015625 19 
L 10.015625 42.1875 
L 1.3125 42.1875 
L 1.3125 54.6875 
L 10.015625 54.6875 
L 10.015625 70.21875 
z
" id="DejaVuSans-Bold-116"/>
       <path d="M 63.375 33.296875 
L 63.375 0 
L 45.796875 0 
L 45.796875 5.421875 
L 45.796875 25.390625 
Q 45.796875 32.5625 45.484375 35.25 
Q 45.171875 37.9375 44.390625 39.203125 
Q 43.359375 40.921875 41.59375 41.875 
Q 39.84375 42.828125 37.59375 42.828125 
Q 32.125 42.828125 29 38.59375 
Q 25.875 34.375 25.875 26.90625 
L 25.875 0 
L 8.40625 0 
L 8.40625 75.984375 
L 25.875 75.984375 
L 25.875 46.6875 
Q 29.828125 51.46875 34.265625 53.734375 
Q 38.71875 56 44.09375 56 
Q 53.5625 56 58.46875 50.1875 
Q 63.375 44.390625 63.375 33.296875 
z
" id="DejaVuSans-Bold-104"/>
       <path d="M 35.890625 40.578125 
Q 41.796875 40.578125 44.359375 42.765625 
Q 46.921875 44.96875 46.921875 50 
Q 46.921875 54.984375 44.359375 57.125 
Q 41.796875 59.28125 35.890625 59.28125 
L 27.984375 59.28125 
L 27.984375 40.578125 
z
M 27.984375 27.59375 
L 27.984375 0 
L 9.1875 0 
L 9.1875 72.90625 
L 37.890625 72.90625 
Q 52.296875 72.90625 59 68.0625 
Q 65.71875 63.234375 65.71875 52.78125 
Q 65.71875 45.5625 62.21875 40.921875 
Q 58.734375 36.28125 51.703125 34.078125 
Q 55.5625 33.203125 58.609375 30.09375 
Q 61.671875 27 64.796875 20.703125 
L 75 0 
L 54.984375 0 
L 46.09375 18.109375 
Q 43.40625 23.578125 40.640625 25.578125 
Q 37.890625 27.59375 33.296875 27.59375 
z
" id="DejaVuSans-Bold-82"/>
       <path d="M 44.390625 75.984375 
L 44.390625 64.5 
L 34.71875 64.5 
Q 31 64.5 29.53125 63.15625 
Q 28.078125 61.8125 28.078125 58.5 
L 28.078125 54.6875 
L 43.015625 54.6875 
L 43.015625 42.1875 
L 28.078125 42.1875 
L 28.078125 0 
L 10.59375 0 
L 10.59375 42.1875 
L 1.90625 42.1875 
L 1.90625 54.6875 
L 10.59375 54.6875 
L 10.59375 58.5 
Q 10.59375 67.4375 15.578125 71.703125 
Q 20.5625 75.984375 31 75.984375 
z
" id="DejaVuSans-Bold-102"/>
       <path d="M 49.03125 39.796875 
Q 46.734375 40.875 44.453125 41.375 
Q 42.1875 41.890625 39.890625 41.890625 
Q 33.15625 41.890625 29.515625 37.5625 
Q 25.875 33.25 25.875 25.203125 
L 25.875 0 
L 8.40625 0 
L 8.40625 54.6875 
L 25.875 54.6875 
L 25.875 45.703125 
Q 29.25 51.078125 33.609375 53.53125 
Q 37.984375 56 44.09375 56 
Q 44.96875 56 45.984375 55.921875 
Q 47.015625 55.859375 48.96875 55.609375 
z
" id="DejaVuSans-Bold-114"/>
      </defs>
      <use xlink:href="#DejaVuSans-Bold-67"/>
      <use x="73.388672" xlink:href="#DejaVuSans-Bold-108"/>
      <use x="107.666016" xlink:href="#DejaVuSans-Bold-105"/>
      <use x="141.943359" xlink:href="#DejaVuSans-Bold-110"/>
      <use x="213.134766" xlink:href="#DejaVuSans-Bold-105"/>
      <use x="247.412109" xlink:href="#DejaVuSans-Bold-99"/>
      <use x="306.689453" xlink:href="#DejaVuSans-Bold-97"/>
      <use x="374.169922" xlink:href="#DejaVuSans-Bold-108"/>
      <use x="408.447266" xlink:href="#DejaVuSans-Bold-108"/>
      <use x="442.724609" xlink:href="#DejaVuSans-Bold-121"/>
      <use x="507.910156" xlink:href="#DejaVuSans-Bold-32"/>
      <use x="542.724609" xlink:href="#DejaVuSans-Bold-72"/>
      <use x="626.416016" xlink:href="#DejaVuSans-Bold-101"/>
      <use x="694.238281" xlink:href="#DejaVuSans-Bold-97"/>
      <use x="761.71875" xlink:href="#DejaVuSans-Bold-108"/>
      <use x="795.996094" xlink:href="#DejaVuSans-Bold-116"/>
      <use x="843.798828" xlink:href="#DejaVuSans-Bold-104"/>
      <use x="914.990234" xlink:href="#DejaVuSans-Bold-121"/>
      <use x="980.175781" xlink:href="#DejaVuSans-Bold-32"/>
      <use x="1014.990234" xlink:href="#DejaVuSans-Bold-82"/>
      <use x="1091.992188" xlink:href="#DejaVuSans-Bold-101"/>
      <use x="1159.814453" xlink:href="#DejaVuSans-Bold-102"/>
      <use x="1203.320312" xlink:href="#DejaVuSans-Bold-101"/>
      <use x="1271.142578" xlink:href="#DejaVuSans-Bold-114"/>
      <use x="1320.458984" xlink:href="#DejaVuSans-Bold-101"/>
      <use x="1388.28125" xlink:href="#DejaVuSans-Bold-110"/>
      <use x="1459.472656" xlink:href="#DejaVuSans-Bold-99"/>
      <use x="1518.75" xlink:href="#DejaVuSans-Bold-101"/>
     </g>
    </g>
   </g>
   <g id="matplotlib.axis_2"/>
  </g>
 </g>
</svg>
