<?xml version="1.0" encoding="utf-8" standalone="no"?>
<!DOCTYPE svg PUBLIC "-//W3C//DTD SVG 1.1//EN"
  "http://www.w3.org/Graphics/SVG/1.1/DTD/svg11.dtd">
<!-- Created with matplotlib (https://matplotlib.org/) -->
<svg height="288.137625pt" version="1.1" viewBox="0 0 271.163594 288.137625" width="271.163594pt" xmlns="http://www.w3.org/2000/svg" xmlns:xlink="http://www.w3.org/1999/xlink">
 <metadata>
  <rdf:RDF xmlns:cc="http://creativecommons.org/ns#" xmlns:dc="http://purl.org/dc/elements/1.1/" xmlns:rdf="http://www.w3.org/1999/02/22-rdf-syntax-ns#">
   <cc:Work>
    <dc:type rdf:resource="http://purl.org/dc/dcmitype/StillImage"/>
    <dc:date>2024-02-21T09:32:21.933180</dc:date>
    <dc:format>image/svg+xml</dc:format>
    <dc:creator>
     <cc:Agent>
      <dc:title>Matplotlib v3.3.4, https://matplotlib.org/</dc:title>
     </cc:Agent>
    </dc:creator>
   </cc:Work>
  </rdf:RDF>
 </metadata>
 <defs>
  <style type="text/css">*{stroke-linecap:butt;stroke-linejoin:round;}</style>
 </defs>
 <g id="figure_1">
  <g id="patch_1">
   <path d="M 0 288.137625 
L 271.163594 288.137625 
L 271.163594 -0 
L 0 -0 
z
" style="fill:#ffffff;"/>
  </g>
  <g id="axes_1">
   <g id="patch_2">
    <path d="M 217.123244 202.197399 
C 226.338979 191.214514 233.241489 178.48208 237.415558 164.766007 
C 241.589628 151.049933 242.949849 136.630873 241.4144 122.376192 
C 239.87895 108.121511 235.479247 94.322884 228.479952 81.810355 
C 221.480656 69.297825 212.024984 58.327421 200.681735 49.559057 
L 168.131766 91.667528 
C 173.803391 96.051711 178.531226 101.536913 182.030874 107.793177 
C 185.530522 114.049442 187.730374 120.948756 188.498098 128.076096 
C 189.265823 135.203436 188.585712 142.412967 186.498678 149.271003 
C 184.411643 156.12904 180.960388 162.495257 176.352521 167.986699 
L 217.123244 202.197399 
z
" style="fill:#1f77b4;"/>
   </g>
   <g id="patch_3">
    <path d="M 200.681735 49.559057 
C 191.674959 42.596794 181.609332 37.124272 170.869083 33.350391 
C 160.128835 29.576511 148.852388 27.549911 137.470195 27.347952 
L 136.525996 80.561976 
C 142.217092 80.662956 147.855316 81.676256 153.22544 83.563196 
C 158.595564 85.450136 163.628378 88.186397 168.131766 91.667528 
L 200.681735 49.559057 
z
" style="fill:#ff7f0e;"/>
   </g>
   <g id="patch_4">
    <path d="M 137.470195 27.347952 
C 128.428779 27.187526 119.403662 28.1799 110.613123 30.301072 
C 101.822584 32.422244 93.338069 35.654974 85.364781 39.921076 
L 110.473289 86.848538 
C 114.459933 84.715487 118.702191 83.099122 123.09746 82.038536 
C 127.492729 80.97795 132.005288 80.481763 136.525996 80.561976 
L 137.470195 27.347952 
z
" style="fill:#2ca02c;"/>
   </g>
   <g id="patch_5">
    <path d="M 85.364781 39.921076 
C 78.835756 43.414427 72.689038 47.57955 67.024544 52.348741 
C 61.36005 57.117932 56.20864 62.465208 51.65405 68.303649 
L 93.617923 101.039824 
C 95.895218 98.120604 98.470923 95.446966 101.30317 93.062371 
C 104.135417 90.677775 107.208776 88.595213 110.473289 86.848538 
L 85.364781 39.921076 
z
" style="fill:#d62728;"/>
   </g>
   <g id="patch_6">
    <path d="M 51.65405 68.303649 
C 47.89226 73.125816 44.553053 78.263231 41.673513 83.658841 
C 38.793973 89.054451 36.384799 94.688209 34.472747 100.497547 
L 85.027272 117.136774 
C 85.983298 114.232104 87.187885 111.415226 88.627655 108.717421 
C 90.067425 106.019615 91.737028 103.450908 93.617923 101.039824 
L 51.65405 68.303649 
z
" style="fill:#9467bd;"/>
   </g>
   <g id="patch_7">
    <path d="M 34.472747 100.497547 
C 32.952166 105.117487 31.750018 109.836219 30.874755 114.620561 
C 29.999492 119.404903 29.453172 124.243614 29.239635 129.102669 
L 82.410716 131.439334 
C 82.517484 129.009807 82.790645 126.590451 83.228276 124.19828 
C 83.665907 121.80611 84.266982 119.446744 85.027272 117.136774 
L 34.472747 100.497547 
z
" style="fill:#8c564b;"/>
   </g>
   <g id="patch_8">
    <path d="M 29.239635 129.102669 
C 29.076645 132.811511 29.107795 136.526342 29.332955 140.23193 
C 29.558115 143.937518 29.976978 147.628791 30.587827 151.290614 
L 83.084812 142.533307 
C 82.779388 140.702396 82.569956 138.856759 82.457376 137.003965 
C 82.344796 135.151171 82.329221 133.293756 82.410716 131.439334 
L 29.239635 129.102669 
z
" style="fill:#e377c2;"/>
   </g>
   <g id="patch_9">
    <path d="M 30.587827 151.290614 
C 31.15868 154.71268 31.896496 158.104793 32.79863 161.454803 
C 33.700765 164.804813 34.766141 168.108716 35.990942 171.354679 
L 85.78637 152.56534 
C 85.173969 150.942358 84.641281 149.290407 84.190214 147.615402 
C 83.739146 145.940397 83.370239 144.24434 83.084812 142.533307 
L 30.587827 151.290614 
z
" style="fill:#7f7f7f;"/>
   </g>
   <g id="patch_10">
    <path d="M 35.990942 171.354679 
C 37.201863 174.563856 38.567193 177.712627 40.082153 180.78997 
C 41.597112 183.867313 43.259932 186.869632 45.064789 189.786417 
L 90.323293 161.781208 
C 89.420864 160.322816 88.589455 158.821657 87.831975 157.282985 
C 87.074495 155.744314 86.39183 154.169928 85.78637 152.56534 
L 35.990942 171.354679 
z
" style="fill:#bcbd22;"/>
   </g>
   <g id="patch_11">
    <path d="M 45.064789 189.786417 
C 46.719191 192.460053 48.491238 195.059076 50.375719 197.575841 
C 52.2602 200.092606 54.255263 202.524642 56.355041 204.864793 
L 95.968419 169.320397 
C 94.91853 168.150321 93.920998 166.934303 92.978758 165.675921 
C 92.036518 164.417538 91.150494 163.118026 90.323293 161.781208 
L 45.064789 189.786417 
z
" style="fill:#17becf;"/>
   </g>
   <g id="patch_12">
    <path d="M 56.355041 204.864793 
C 57.414345 206.045362 58.499904 207.202106 59.610906 208.334159 
C 60.721907 209.466212 61.858073 210.573291 63.018552 211.654566 
L 99.300175 172.715283 
C 98.719935 172.174645 98.151852 171.621106 97.596351 171.05508 
C 97.04085 170.489053 96.498071 169.910681 95.968419 169.320397 
L 56.355041 204.864793 
z
" style="fill:#1f77b4;"/>
   </g>
   <g id="patch_13">
    <path d="M 63.018552 211.654566 
C 64.050952 212.616502 65.102377 213.557815 66.172205 214.477945 
C 67.242032 215.398076 68.330051 216.296842 69.435615 217.17371 
L 102.508706 175.474855 
C 101.955924 175.036421 101.411915 174.587038 100.877001 174.126973 
C 100.342087 173.666908 99.816374 173.196251 99.300175 172.715283 
L 63.018552 211.654566 
z
" style="fill:#ff7f0e;"/>
   </g>
   <g id="patch_14">
    <path d="M 69.435615 217.17371 
C 70.418021 217.952897 71.414118 218.714664 72.42344 219.458655 
C 73.432762 220.202646 74.455151 220.928744 75.490129 221.63661 
L 105.535963 177.706305 
C 105.018474 177.352372 104.507279 176.989323 104.002618 176.617328 
C 103.497957 176.245332 102.999909 175.864449 102.508706 175.474855 
L 69.435615 217.17371 
z
" style="fill:#2ca02c;"/>
   </g>
   <g id="patch_15">
    <path d="M 75.490129 221.63661 
C 76.489721 222.320275 77.500908 222.986831 78.523247 223.635987 
C 79.545586 224.285144 80.578929 224.916806 81.622825 225.530699 
L 108.602311 179.653349 
C 108.080363 179.346403 107.563692 179.030572 107.052522 178.705994 
C 106.541352 178.381415 106.035759 178.048137 105.535963 177.706305 
L 75.490129 221.63661 
z
" style="fill:#d62728;"/>
   </g>
   <g id="patch_16">
    <path d="M 81.622825 225.530699 
C 82.623607 226.119238 83.633952 226.691364 84.653453 227.246847 
C 85.672954 227.80233 86.701475 228.341097 87.738603 228.86293 
L 111.6602 181.319465 
C 111.141636 181.058548 110.627375 180.789165 110.117625 180.511424 
C 109.607874 180.233682 109.102702 179.947619 108.602311 179.653349 
L 81.622825 225.530699 
z
" style="fill:#9467bd;"/>
   </g>
   <g id="patch_17">
    <path d="M 87.738603 228.86293 
C 88.686375 229.339803 89.641223 229.80248 90.602828 230.250804 
C 91.564434 230.699129 92.532688 231.133051 93.507267 231.552426 
L 114.544532 182.664213 
C 114.057243 182.454525 113.573115 182.237564 113.092313 182.013402 
C 112.61151 181.78924 112.134086 181.557902 111.6602 181.319465 
L 87.738603 228.86293 
z
" style="fill:#8c564b;"/>
   </g>
   <g id="patch_18">
    <path d="M 93.507267 231.552426 
C 94.363712 231.920965 95.224962 232.278237 96.090794 232.624147 
C 96.956626 232.970057 97.826966 233.304576 98.701587 233.627618 
L 117.141692 183.701809 
C 116.704381 183.540288 116.269211 183.373029 115.836295 183.200073 
C 115.403379 183.027118 114.972754 182.848483 114.544532 182.664213 
L 93.507267 231.552426 
z
" style="fill:#e377c2;"/>
   </g>
   <g id="patch_19">
    <path d="M 98.701587 233.627618 
C 99.556102 233.943233 100.414634 234.247866 101.276969 234.541442 
C 102.139304 234.835017 103.005373 235.117511 103.87496 235.388853 
L 119.728378 184.582427 
C 119.293585 184.446755 118.860551 184.305509 118.429383 184.158721 
C 117.998215 184.011933 117.56895 183.859617 117.141692 183.701809 
L 98.701587 233.627618 
z
" style="fill:#7f7f7f;"/>
   </g>
   <g id="patch_20">
    <path d="M 103.87496 235.388853 
C 104.741137 235.659131 105.610735 235.918323 106.483539 236.166365 
C 107.356344 236.414407 108.232285 236.651279 109.111146 236.876922 
L 122.346472 185.326461 
C 121.907041 185.213639 121.46907 185.095203 121.032668 184.971183 
C 120.596266 184.847162 120.161467 184.717566 119.728378 184.582427 
L 103.87496 235.388853 
z
" style="fill:#bcbd22;"/>
   </g>
   <g id="patch_21">
    <path d="M 109.111146 236.876922 
C 109.900044 237.079468 110.69124 237.272952 111.484579 237.457336 
C 112.277917 237.641721 113.073346 237.816994 113.870708 237.983121 
L 124.726252 185.879561 
C 124.327572 185.796497 123.929857 185.708861 123.533188 185.616668 
C 123.136519 185.524476 122.74092 185.427734 122.346472 185.326461 
L 109.111146 236.876922 
z
" style="fill:#17becf;"/>
   </g>
   <g id="patch_22">
    <path d="M 113.870708 237.983121 
C 114.657578 238.147062 115.44628 238.302085 116.236661 238.44816 
C 117.027043 238.594236 117.819053 238.731354 118.612541 238.85949 
L 127.097169 186.317745 
C 126.700425 186.253677 126.30442 186.185118 125.909229 186.11208 
C 125.514038 186.039042 125.119687 185.961531 124.726252 185.879561 
L 113.870708 237.983121 
z
" style="fill:#1f77b4;"/>
   </g>
   <g id="patch_23">
    <path d="M 118.612541 238.85949 
C 119.388395 238.984777 120.165613 239.101469 120.944051 239.209542 
C 121.72249 239.317616 122.502101 239.417065 123.282742 239.507872 
L 129.43227 186.641936 
C 129.041949 186.596533 128.652143 186.546808 128.262924 186.492771 
C 127.873705 186.438734 127.485096 186.380389 127.097169 186.317745 
L 118.612541 238.85949 
z
" style="fill:#ff7f0e;"/>
   </g>
   <g id="patch_24">
    <path d="M 123.282742 239.507872 
C 124.056287 239.597853 124.830795 239.679342 125.606128 239.752325 
C 126.38146 239.825308 127.157571 239.88978 127.934318 239.94573 
L 131.758058 186.860865 
C 131.369684 186.83289 130.981629 186.800654 130.593962 186.764163 
C 130.206296 186.727671 129.819042 186.686926 129.43227 186.641936 
L 123.282742 239.507872 
z
" style="fill:#2ca02c;"/>
   </g>
   <g id="patch_25">
    <path d="M 127.934318 239.94573 
C 128.69325 240.000396 129.452747 240.046923 130.212677 240.085303 
C 130.972606 240.123683 131.732926 240.153914 132.493504 240.17599 
L 134.03765 186.975995 
C 133.657361 186.964957 133.277202 186.949842 132.897237 186.930652 
C 132.517272 186.911462 132.137524 186.888198 131.758058 186.860865 
L 127.934318 239.94573 
z
" style="fill:#d62728;"/>
   </g>
   <g id="patch_26">
    <path d="M 132.493504 240.17599 
C 133.214802 240.196926 133.936295 240.210527 134.65787 240.21679 
C 135.379445 240.223054 136.101066 240.221979 136.822619 240.213568 
L 136.202208 186.994784 
C 135.841431 186.99899 135.480621 186.999527 135.119834 186.996395 
C 134.759046 186.993263 134.3983 186.986463 134.03765 186.975995 
L 132.493504 240.17599 
z
" style="fill:#9467bd;"/>
   </g>
   <g id="patch_27">
    <path d="M 136.822619 240.213568 
C 137.5406 240.205198 138.258479 240.189563 138.976144 240.166666 
C 139.693809 240.143769 140.411223 240.113612 141.128278 240.076198 
L 138.355037 186.926099 
C 137.99651 186.944806 137.637803 186.959885 137.27897 186.971333 
C 136.920138 186.982781 136.561199 186.990599 136.202208 186.994784 
L 136.822619 240.213568 
z
" style="fill:#8c564b;"/>
   </g>
   <g id="patch_28">
    <path d="M 141.128278 240.076198 
C 141.838198 240.039156 142.547729 239.995003 143.256764 239.943746 
C 143.965799 239.892489 144.674303 239.834131 145.382169 239.76868 
L 140.481983 186.77234 
C 140.12805 186.805065 139.773798 186.834245 139.41928 186.859873 
C 139.064763 186.885502 138.709997 186.907578 138.355037 186.926099 
L 141.128278 240.076198 
z
" style="fill:#e377c2;"/>
   </g>
   <g id="patch_29">
    <path d="M 145.382169 239.76868 
C 146.08292 239.703886 146.783012 239.632145 147.48234 239.553467 
C 148.181669 239.474789 148.8802 239.389177 149.577831 239.296645 
L 142.579814 186.536322 
C 142.230999 186.582589 141.881733 186.625394 141.532069 186.664733 
C 141.182404 186.704073 140.832358 186.739943 140.481983 186.77234 
L 145.382169 239.76868 
z
" style="fill:#7f7f7f;"/>
   </g>
   <g id="patch_30">
    <path d="M 149.577831 239.296645 
C 150.254214 239.206931 150.929718 239.110716 151.604251 239.008012 
C 152.278784 238.905309 152.952313 238.796123 153.624747 238.680468 
L 144.603272 186.228234 
C 144.267055 186.286061 143.93029 186.340655 143.593024 186.392006 
C 143.255758 186.443358 142.918005 186.491465 142.579814 186.536322 
L 149.577831 239.296645 
z
" style="fill:#bcbd22;"/>
   </g>
   <g id="patch_31">
    <path d="M 153.624747 238.680468 
C 154.254932 238.57208 154.884128 238.458015 155.512258 238.338288 
C 156.140388 238.218562 156.767426 238.093177 157.393297 237.96215 
L 146.487547 185.869075 
C 146.174612 185.934589 145.861092 185.997281 145.547027 186.057144 
C 145.232962 186.117008 144.918364 186.17404 144.603272 186.228234 
L 153.624747 238.680468 
z
" style="fill:#17becf;"/>
   </g>
   <g id="patch_32">
    <path d="M 157.393297 237.96215 
C 157.991195 237.83698 158.588004 237.706664 159.183659 237.571219 
C 159.779314 237.435774 160.373791 237.295204 160.967026 237.149525 
L 148.274411 185.462762 
C 147.977794 185.535602 147.680555 185.605887 147.382728 185.67361 
C 147.084901 185.741332 146.786496 185.80649 146.487547 185.869075 
L 157.393297 237.96215 
z
" style="fill:#1f77b4;"/>
   </g>
   <g id="patch_33">
    <path d="M 160.967026 237.149525 
C 161.542914 237.008105 162.117611 236.861875 162.691056 236.710851 
C 163.2645 236.559827 163.836673 236.404013 164.407513 236.243427 
L 149.994655 185.009713 
C 149.709235 185.090007 149.423148 185.167913 149.136426 185.243425 
C 148.849704 185.318938 148.562356 185.392052 148.274411 185.462762 
L 160.967026 237.149525 
z
" style="fill:#ff7f0e;"/>
   </g>
   <g id="patch_34">
    <path d="M 164.407513 236.243427 
C 164.974915 236.083808 165.540981 235.919478 166.105653 235.750456 
C 166.670325 235.581433 167.233583 235.407724 167.79537 235.229345 
L 151.688583 184.502672 
C 151.40769 184.591862 151.126061 184.678717 150.843725 184.763228 
C 150.561389 184.847739 150.278356 184.929904 149.994655 185.009713 
L 164.407513 236.243427 
z
" style="fill:#2ca02c;"/>
   </g>
   <g id="patch_35">
    <path d="M 167.79537 235.229345 
C 168.323108 235.061777 168.849531 234.890093 169.37459 234.714311 
C 169.899649 234.538528 170.423329 234.358651 170.945581 234.174696 
L 153.263689 183.975348 
C 153.002563 184.067325 152.740723 184.157264 152.478194 184.245155 
C 152.215664 184.333047 151.952452 184.418888 151.688583 184.502672 
L 167.79537 235.229345 
z
" style="fill:#d62728;"/>
   </g>
   <g id="patch_36">
    <path d="M 170.945581 234.174696 
C 171.403815 234.013291 171.860939 233.84875 172.31692 233.681086 
C 172.7729 233.513422 173.227728 233.342638 173.681371 233.168746 
L 154.631584 183.472373 
C 154.404762 183.559319 154.177349 183.644711 153.949358 183.728543 
C 153.721368 183.812375 153.492806 183.894645 153.263689 183.975348 
L 170.945581 234.174696 
z
" style="fill:#9467bd;"/>
   </g>
   <g id="patch_37">
    <path d="M 173.681371 233.168746 
C 174.131677 232.996133 174.580806 232.820461 175.028725 232.641744 
C 175.476644 232.463026 175.923344 232.281267 176.368793 232.096478 
L 155.975295 182.936239 
C 155.75257 183.028633 155.529221 183.119513 155.305261 183.208872 
C 155.081301 183.298231 154.856737 183.386066 154.631584 183.472373 
L 173.681371 233.168746 
z
" style="fill:#8c564b;"/>
   </g>
   <g id="patch_38">
    <path d="M 176.368793 232.096478 
C 176.781245 231.925377 177.192617 231.751683 177.602883 231.575406 
C 178.01315 231.399128 178.422303 231.220271 178.830319 231.038844 
L 157.206058 182.407422 
C 157.00205 182.498135 156.797473 182.587564 156.59234 182.675703 
C 156.387207 182.763842 156.181521 182.850689 155.975295 182.936239 
L 176.368793 232.096478 
z
" style="fill:#e377c2;"/>
   </g>
   <g id="patch_39">
    <path d="M 178.830319 231.038844 
C 179.202429 230.873383 179.573586 230.705788 179.943773 230.536067 
C 180.313959 230.366346 180.683169 230.194502 181.051383 230.020544 
L 158.31659 181.898272 
C 158.132483 181.985251 157.947878 182.071173 157.762785 182.156033 
C 157.577692 182.240894 157.392113 182.324691 157.206058 182.407422 
L 178.830319 231.038844 
z
" style="fill:#7f7f7f;"/>
   </g>
   <g id="patch_40">
    <path d="M 181.051383 230.020544 
C 181.393758 229.858793 181.735267 229.695216 182.075895 229.529821 
C 182.416524 229.364426 182.756268 229.197214 183.095112 229.028193 
L 159.338455 181.402097 
C 159.169032 181.486607 158.999161 181.570213 158.828846 181.652911 
C 158.658532 181.735608 158.487777 181.817396 158.31659 181.898272 
L 181.051383 230.020544 
z
" style="fill:#bcbd22;"/>
   </g>
   <g id="patch_41">
    <path d="M 183.095112 229.028193 
C 183.433957 228.859172 183.771897 228.688344 184.108918 228.515717 
C 184.44594 228.343089 184.782037 228.168665 185.117197 227.992451 
L 160.349497 180.884225 
C 160.181917 180.972332 160.013868 181.059545 159.845358 181.145858 
C 159.676847 181.232172 159.507877 181.317586 159.338455 181.402097 
L 183.095112 229.028193 
z
" style="fill:#17becf;"/>
   </g>
   <g id="patch_42">
    <path d="M 185.117197 227.992451 
C 185.449195 227.817899 185.780268 227.641593 186.110402 227.463542 
C 186.440537 227.28549 186.769728 227.105695 187.097961 226.924163 
L 161.339879 180.350082 
C 161.175762 180.440847 161.011167 180.530745 160.8461 180.619771 
C 160.681033 180.708797 160.515496 180.796949 160.349497 180.884225 
L 185.117197 227.992451 
z
" style="fill:#1f77b4;"/>
   </g>
   <g id="patch_43">
    <path d="M 187.097961 226.924163 
C 187.423069 226.74436 187.747233 226.562857 188.07044 226.37966 
C 188.393647 226.196463 188.715893 226.011575 189.037164 225.825004 
L 162.30948 179.800502 
C 162.148845 179.893788 161.987722 179.986232 161.826118 180.07783 
C 161.664515 180.169428 161.502433 180.26018 161.339879 180.350082 
L 187.097961 226.924163 
z
" style="fill:#ff7f0e;"/>
   </g>
   <g id="patch_44">
    <path d="M 189.037164 225.825004 
C 189.324454 225.658167 189.610962 225.489985 189.896678 225.320465 
C 190.182394 225.150945 190.467314 224.980089 190.75143 224.807901 
L 163.166614 179.29195 
C 163.024556 179.378044 162.882095 179.463473 162.739237 179.548233 
C 162.596379 179.632993 162.453126 179.717083 162.30948 179.800502 
L 189.037164 225.825004 
z
" style="fill:#2ca02c;"/>
   </g>
   <g id="patch_45">
    <path d="M 190.75143 224.807901 
C 191.029436 224.639416 191.306669 224.469659 191.58312 224.298634 
C 191.859571 224.127609 192.135236 223.955319 192.410109 223.781769 
L 163.995953 178.778884 
C 163.858517 178.86566 163.720684 178.951805 163.582458 179.037317 
C 163.444233 179.122829 163.305617 179.207708 163.166614 179.29195 
L 190.75143 224.807901 
z
" style="fill:#d62728;"/>
   </g>
   <g id="patch_46">
    <path d="M 192.410109 223.781769 
C 192.669878 223.617754 192.928936 223.452616 193.187276 223.286358 
C 193.445615 223.120101 193.703234 222.952726 193.960124 222.784238 
L 164.77096 178.280119 
C 164.642515 178.364363 164.513706 178.44805 164.384536 178.531179 
C 164.255366 178.614308 164.125837 178.696877 163.995953 178.778884 
L 192.410109 223.781769 
z
" style="fill:#9467bd;"/>
   </g>
   <g id="patch_47">
    <path d="M 193.960124 222.784238 
C 194.205066 222.623586 194.449344 222.461924 194.692951 222.299256 
C 194.936558 222.136588 195.179493 221.972915 195.421749 221.808242 
L 165.501773 177.792121 
C 165.380645 177.874458 165.259177 177.956294 165.137374 178.037628 
C 165.01557 178.118962 164.893431 178.199793 164.77096 178.280119 
L 193.960124 222.784238 
z
" style="fill:#8c564b;"/>
   </g>
   <g id="patch_48">
    <path d="M 195.421749 221.808242 
C 195.643325 221.657626 195.864331 221.506173 196.084763 221.353889 
C 196.305195 221.201604 196.525051 221.048487 196.744327 220.894542 
L 166.163062 177.335271 
C 166.053424 177.412244 165.943496 177.488802 165.83328 177.564944 
C 165.723064 177.641087 165.612561 177.716813 165.501773 177.792121 
L 195.421749 221.808242 
z
" style="fill:#e377c2;"/>
   </g>
   <g id="patch_49">
    <path d="M 196.744327 220.894542 
C 196.960679 220.74265 197.176465 220.589952 197.391679 220.436452 
C 197.606894 220.282952 197.821536 220.128651 198.035601 219.973551 
L 166.808699 176.874776 
C 166.701666 176.952325 166.594345 177.029476 166.486738 177.106226 
C 166.379131 177.182976 166.271238 177.259325 166.163062 177.335271 
L 196.744327 220.894542 
z
" style="fill:#7f7f7f;"/>
   </g>
   <g id="patch_50">
    <path d="M 198.035601 219.973551 
C 198.232309 219.831028 198.428529 219.687831 198.624257 219.543964 
C 198.819985 219.400098 199.015219 219.255561 199.209958 219.110358 
L 167.395877 176.443179 
C 167.298508 176.515781 167.200891 176.588049 167.103027 176.659982 
C 167.005163 176.731916 166.907053 176.803514 166.808699 176.874776 
L 198.035601 219.973551 
z
" style="fill:#bcbd22;"/>
   </g>
   <g id="patch_51">
    <path d="M 199.209958 219.110358 
C 199.38465 218.980101 199.558941 218.849309 199.73283 218.717983 
C 199.906718 218.586656 200.080203 218.454796 200.253282 218.322404 
L 167.917539 176.049202 
C 167.831 176.115398 167.744257 176.181328 167.657313 176.246991 
C 167.570369 176.312655 167.483223 176.378051 167.395877 176.443179 
L 199.209958 219.110358 
z
" style="fill:#17becf;"/>
   </g>
   <g id="patch_52">
    <path d="M 200.253282 218.322404 
C 200.42636 218.190013 200.599032 218.057089 200.771295 217.923637 
C 200.943557 217.790185 201.115409 217.656204 201.286849 217.521696 
L 168.434323 175.648848 
C 168.348603 175.716102 168.262677 175.783092 168.176546 175.849819 
C 168.090415 175.916545 168.004079 175.983006 167.917539 176.049202 
L 200.253282 218.322404 
z
" style="fill:#1f77b4;"/>
   </g>
   <g id="patch_53">
    <path d="M 201.286849 217.521696 
C 201.458288 217.387188 201.629314 217.252154 201.799925 217.116596 
C 201.970535 216.981038 202.140729 216.844957 202.310503 216.708353 
L 168.94615 175.242177 
C 168.861263 175.310478 168.776166 175.378519 168.690861 175.446298 
C 168.605556 175.514077 168.520043 175.581594 168.434323 175.648848 
L 201.286849 217.521696 
z
" style="fill:#ff7f0e;"/>
   </g>
   <g id="patch_54">
    <path d="M 202.310503 216.708353 
C 202.463579 216.585186 202.616313 216.461596 202.768704 216.337583 
C 202.921095 216.21357 203.073142 216.089136 203.224844 215.964282 
L 169.40332 174.870141 
C 169.327469 174.932568 169.251446 174.994785 169.17525 175.056792 
C 169.099055 175.118798 169.022688 175.180593 168.94615 175.242177 
L 202.310503 216.708353 
z
" style="fill:#2ca02c;"/>
   </g>
   <g id="patch_55">
    <path d="M 203.224844 215.964282 
C 203.335173 215.873478 203.445318 215.782453 203.55528 215.691206 
C 203.665243 215.599959 203.775021 215.508491 203.884615 215.416802 
L 169.733206 174.596401 
C 169.678409 174.642245 169.62352 174.68798 169.568539 174.733603 
C 169.513558 174.779226 169.458485 174.824739 169.40332 174.870141 
L 203.224844 215.964282 
z
" style="fill:#d62728;"/>
   </g>
   <g id="patch_56">
    <path d="M 203.884615 215.416802 
C 203.994208 215.325113 204.103617 215.233203 204.212841 215.141074 
C 204.322065 215.048944 204.431103 214.956595 204.539954 214.864026 
L 170.060876 174.320013 
C 170.00645 174.366297 169.951931 174.412472 169.897319 174.458537 
C 169.842707 174.504602 169.788003 174.550556 169.733206 174.596401 
L 203.884615 215.416802 
z
" style="fill:#9467bd;"/>
   </g>
   <g id="patch_57">
    <path d="M 204.539954 214.864026 
C 204.640642 214.7784 204.74117 214.692587 204.841539 214.606586 
C 204.941907 214.520585 205.042115 214.434398 205.142162 214.348024 
L 170.361979 174.062012 
C 170.311956 174.105199 170.261852 174.148293 170.211668 174.191293 
C 170.161484 174.234293 170.11122 174.2772 170.060876 174.320013 
L 204.539954 214.864026 
z
" style="fill:#8c564b;"/>
   </g>
   <g id="patch_58">
    <path d="M 205.142162 214.348024 
C 205.239505 214.263985 205.336696 214.179769 205.433733 214.095378 
C 205.530771 214.010986 205.627656 213.926418 205.724388 213.841676 
L 170.653092 173.808838 
C 170.604727 173.851209 170.556284 173.893493 170.507765 173.935689 
C 170.459246 173.977885 170.410651 174.019992 170.361979 174.062012 
L 205.142162 214.348024 
z
" style="fill:#e377c2;"/>
   </g>
   <g id="patch_59">
    <path d="M 205.724388 213.841676 
C 205.818432 213.759287 205.912331 213.676732 206.006085 213.594013 
C 206.099838 213.511293 206.193446 213.428408 206.286907 213.345359 
L 170.934352 173.560679 
C 170.887621 173.602204 170.840818 173.643646 170.793941 173.685006 
C 170.747064 173.726366 170.700114 173.767643 170.653092 173.808838 
L 205.724388 213.841676 
z
" style="fill:#7f7f7f;"/>
   </g>
   <g id="patch_60">
    <path d="M 206.286907 213.345359 
C 206.375028 213.267055 206.463019 213.188604 206.550879 213.110008 
C 206.638739 213.031412 206.726468 212.95267 206.814067 212.873782 
L 171.197932 173.324891 
C 171.154133 173.364335 171.110268 173.403706 171.066338 173.443004 
C 171.022408 173.482302 170.978412 173.521527 170.934352 173.560679 
L 206.286907 213.345359 
z
" style="fill:#bcbd22;"/>
   </g>
   <g id="patch_61">
    <path d="M 206.814067 212.873782 
C 206.899011 212.797285 206.983832 212.720651 207.068529 212.643881 
C 207.153226 212.56711 207.237799 212.490204 207.322249 212.413161 
L 171.452023 173.09458 
C 171.409798 173.133102 171.367511 173.171555 171.325163 173.20994 
C 171.282814 173.248326 171.240404 173.286643 171.197932 173.324891 
L 206.814067 212.873782 
z
" style="fill:#17becf;"/>
   </g>
   <g id="patch_62">
    <path d="M 207.322249 212.413161 
C 207.398781 212.343341 207.475211 212.273409 207.551539 212.203365 
C 207.627867 212.133322 207.704093 212.063168 207.780216 211.992902 
L 171.681006 172.884451 
C 171.642945 172.919584 171.604832 172.954661 171.566668 172.989683 
C 171.528504 173.024704 171.490289 173.05967 171.452023 173.09458 
L 207.322249 212.413161 
z
" style="fill:#1f77b4;"/>
   </g>
   <g id="patch_63">
    <path d="M 207.780216 211.992902 
C 207.856339 211.922636 207.93236 211.852259 208.008278 211.781771 
C 208.084195 211.711283 208.16001 211.640685 208.235722 211.569976 
L 171.908759 172.672988 
C 171.870903 172.708342 171.832996 172.743642 171.795037 172.778886 
C 171.757078 172.81413 171.719068 172.849318 171.681006 172.884451 
L 207.780216 211.992902 
z
" style="fill:#ff7f0e;"/>
   </g>
   <g id="patch_64">
    <path d="M 208.235722 211.569976 
C 208.311433 211.499267 208.387042 211.428447 208.462546 211.357517 
C 208.538051 211.286587 208.613452 211.215547 208.68875 211.144397 
L 172.135273 172.460199 
C 172.097625 172.495774 172.059924 172.531294 172.022172 172.566759 
C 171.984419 172.602224 171.946615 172.637633 171.908759 172.672988 
L 208.235722 211.569976 
z
" style="fill:#2ca02c;"/>
   </g>
   <g id="patch_65">
    <path d="M 208.68875 211.144397 
C 208.761451 211.075701 208.834055 211.006902 208.906562 210.938 
C 208.979069 210.869099 209.051479 210.800096 209.123791 210.73099 
L 172.352794 172.253495 
C 172.316638 172.288048 172.280433 172.322549 172.244179 172.357 
C 172.207926 172.391451 172.171624 172.42585 172.135273 172.460199 
L 208.68875 211.144397 
z
" style="fill:#d62728;"/>
   </g>
   <g id="patch_66">
    <path d="M 209.123791 210.73099 
C 209.196104 210.661885 209.268319 210.592678 209.340436 210.523369 
C 209.412554 210.45406 209.484573 210.384649 209.556495 210.315137 
L 172.569146 172.045569 
C 172.533185 172.080325 172.497175 172.11503 172.461117 172.149684 
C 172.425058 172.184339 172.38895 172.218942 172.352794 172.253495 
L 209.123791 210.73099 
z
" style="fill:#9467bd;"/>
   </g>
   <g id="patch_67">
    <path d="M 209.556495 210.315137 
C 209.625848 210.248108 209.69511 210.180984 209.764281 210.113766 
C 209.833451 210.046549 209.90253 209.979237 209.971518 209.911831 
L 172.776657 171.843916 
C 172.742164 171.877618 172.707624 171.911274 172.673039 171.944883 
C 172.638453 171.978492 172.603822 172.012054 172.569146 172.045569 
L 209.556495 210.315137 
z
" style="fill:#8c564b;"/>
   </g>
   <g id="patch_68">
    <path d="M 209.971518 209.911831 
C 210.040506 209.844426 210.109402 209.776927 210.178206 209.709334 
C 210.24701 209.641741 210.315722 209.574055 210.384342 209.506276 
L 172.98307 171.641138 
C 172.94876 171.675028 172.914403 171.708871 172.880001 171.742667 
C 172.845599 171.776463 172.811151 171.810213 172.776657 171.843916 
L 209.971518 209.911831 
z
" style="fill:#e377c2;"/>
   </g>
   <g id="patch_69">
    <path d="M 210.384342 209.506276 
C 210.450421 209.441006 210.516414 209.375651 210.582322 209.310209 
C 210.64823 209.244767 210.714051 209.179239 210.779787 209.113624 
L 173.180792 171.444812 
C 173.147924 171.477619 173.115013 171.510383 173.082059 171.543104 
C 173.049106 171.575825 173.016109 171.608503 172.98307 171.641138 
L 210.384342 209.506276 
z
" style="fill:#7f7f7f;"/>
   </g>
   <g id="patch_70">
    <path d="M 210.779787 209.113624 
C 210.845524 209.04801 210.911174 208.98231 210.976738 208.916524 
C 211.042302 208.850738 211.10778 208.784866 211.173172 208.718908 
L 173.377484 171.247454 
C 173.344788 171.280433 173.312049 171.313369 173.279267 171.346262 
C 173.246485 171.379155 173.21366 171.412005 173.180792 171.444812 
L 210.779787 209.113624 
z
" style="fill:#bcbd22;"/>
   </g>
   <g id="patch_71">
    <path d="M 211.173172 208.718908 
C 211.236048 208.655488 211.298845 208.591988 211.361562 208.528409 
C 211.424278 208.464831 211.486915 208.401173 211.549472 208.337437 
L 173.565634 171.056718 
C 173.534356 171.088587 173.503038 171.120415 173.471679 171.152205 
C 173.440321 171.183994 173.408922 171.215744 173.377484 171.247454 
L 211.173172 208.718908 
z
" style="fill:#17becf;"/>
   </g>
   <g id="patch_72">
    <path d="M 211.549472 208.337437 
C 211.609526 208.27625 211.669506 208.21499 211.729412 208.153659 
C 211.789319 208.092327 211.849151 208.030922 211.908909 207.969446 
L 173.745353 170.872723 
C 173.715474 170.903461 173.685558 170.934163 173.655605 170.964829 
C 173.625652 170.995495 173.595661 171.026125 173.565634 171.056718 
L 211.549472 208.337437 
z
" style="fill:#1f77b4;"/>
   </g>
   <g id="patch_73">
    <path d="M 211.908909 207.969446 
C 211.963687 207.913093 212.018402 207.856679 212.073056 207.800204 
C 212.127709 207.74373 212.182299 207.687194 212.236827 207.630599 
L 173.909312 170.703299 
C 173.882048 170.731597 173.854753 170.759865 173.827426 170.788102 
C 173.8001 170.816339 173.772742 170.844546 173.745353 170.872723 
L 211.908909 207.969446 
z
" style="fill:#ff7f0e;"/>
   </g>
   <g id="patch_74">
    <path d="M 212.236827 207.630599 
C 212.291355 207.574003 212.34582 207.517348 212.400223 207.460632 
C 212.454625 207.403915 212.508965 207.347139 212.563241 207.290303 
L 174.072519 170.533151 
C 174.045381 170.56157 174.018211 170.589958 173.99101 170.618316 
C 173.963809 170.646674 173.936576 170.675002 173.909312 170.703299 
L 212.236827 207.630599 
z
" style="fill:#2ca02c;"/>
   </g>
   <g id="patch_75">
    <path d="M 212.563241 207.290303 
C 212.612584 207.238633 212.661874 207.186914 212.711112 207.135145 
C 212.76035 207.083376 212.809537 207.031558 212.85867 206.97969 
L 174.220234 170.377845 
C 174.195667 170.403779 174.171074 170.429688 174.146455 170.455573 
C 174.121835 170.481457 174.09719 170.507317 174.072519 170.533151 
L 212.563241 207.290303 
z
" style="fill:#d62728;"/>
   </g>
   <g id="patch_76">
    <path d="M 212.85867 206.97969 
C 212.907804 206.927822 212.956886 206.875905 213.005915 206.823938 
C 213.054945 206.771972 213.103922 206.719956 213.152847 206.667891 
L 174.367322 170.221945 
C 174.342859 170.247978 174.318371 170.273986 174.293856 170.299969 
C 174.269341 170.325953 174.244801 170.351911 174.220234 170.377845 
L 212.85867 206.97969 
z
" style="fill:#9467bd;"/>
   </g>
   <g id="patch_77">
    <path d="M 213.152847 206.667891 
C 213.201771 206.615825 213.250643 206.563711 213.299463 206.511547 
C 213.348283 206.459383 213.39705 206.407171 213.445764 206.354909 
L 174.513781 170.065454 
C 174.489423 170.091585 174.46504 170.117692 174.44063 170.143774 
C 174.41622 170.169855 174.391784 170.195913 174.367322 170.221945 
L 213.152847 206.667891 
z
" style="fill:#8c564b;"/>
   </g>
   <g id="patch_78">
    <path d="M 213.445764 206.354909 
C 213.492043 206.30526 213.538275 206.255567 213.584458 206.20583 
C 213.630642 206.156093 213.676778 206.106311 213.722867 206.056486 
L 174.652332 169.916243 
C 174.629288 169.941156 174.60622 169.966046 174.583128 169.990915 
C 174.560036 170.015783 174.53692 170.04063 174.513781 170.065454 
L 213.445764 206.354909 
z
" style="fill:#e377c2;"/>
   </g>
   <g id="patch_79">
    <path d="M 213.722867 206.056486 
C 213.76653 206.009283 213.81015 205.96204 213.853727 205.914758 
C 213.897304 205.867476 213.940839 205.820154 213.98433 205.772793 
L 174.783064 169.774397 
C 174.761318 169.798077 174.739551 169.821738 174.717762 169.845379 
C 174.695973 169.86902 174.674163 169.892641 174.652332 169.916243 
L 213.722867 206.056486 
z
" style="fill:#7f7f7f;"/>
   </g>
   <g id="patch_80">
    <path d="M 213.98433 205.772793 
C 214.027822 205.725432 214.07127 205.678032 214.114676 205.630592 
C 214.158081 205.583152 214.201444 205.535673 214.244763 205.488155 
L 174.91328 169.632077 
C 174.89162 169.655837 174.869939 169.679576 174.848236 169.703296 
C 174.826534 169.727016 174.804809 169.750716 174.783064 169.774397 
L 213.98433 205.772793 
z
" style="fill:#bcbd22;"/>
   </g>
   <g id="patch_81">
    <path d="M 214.244763 205.488155 
C 214.288083 205.440636 214.331359 205.393079 214.374593 205.345482 
C 214.417826 205.297885 214.461016 205.250249 214.504163 205.202574 
L 175.04298 169.489287 
C 175.021407 169.513125 174.999811 169.536943 174.978195 169.560741 
C 174.956578 169.584539 174.93494 169.608318 174.91328 169.632077 
L 214.244763 205.488155 
z
" style="fill:#17becf;"/>
   </g>
   <g id="patch_82">
    <path d="M 214.504163 205.202574 
C 214.542516 205.160197 214.580835 205.117788 214.619119 205.075348 
C 214.657404 205.032909 214.695654 204.990439 214.733871 204.947937 
L 175.157834 169.361969 
C 175.138726 169.383219 175.1196 169.404454 175.100458 169.425674 
C 175.081316 169.446894 175.062157 169.468098 175.04298 169.489287 
L 214.504163 205.202574 
z
" style="fill:#1f77b4;"/>
   </g>
   <g id="patch_83">
    <path d="M 214.733871 204.947937 
C 214.772087 204.905436 214.810269 204.862904 214.848416 204.820342 
C 214.886564 204.777779 214.924677 204.735186 214.962756 204.692562 
L 175.272277 169.234281 
C 175.253237 169.255593 175.23418 169.27689 175.215107 169.298171 
C 175.196033 169.319452 175.176942 169.340718 175.157834 169.361969 
L 214.733871 204.947937 
z
" style="fill:#ff7f0e;"/>
   </g>
   <g id="patch_84">
    <path d="M 214.962756 204.692562 
C 215.000835 204.649938 215.03888 204.607283 215.07689 204.564598 
C 215.114901 204.521912 215.152877 204.479196 215.190818 204.43645 
L 175.386308 169.106225 
C 175.367337 169.127598 175.348349 169.148956 175.329344 169.170299 
C 175.310339 169.191641 175.291316 169.212969 175.272277 169.234281 
L 214.962756 204.692562 
z
" style="fill:#2ca02c;"/>
   </g>
   <g id="patch_85">
    <path d="M 215.190818 204.43645 
C 215.226388 204.396375 215.261928 204.356273 215.297438 204.316145 
C 215.332948 204.276016 215.368427 204.235861 215.403876 204.195679 
L 175.492836 168.985839 
C 175.475112 169.00593 175.457372 169.026008 175.439617 169.046072 
C 175.421863 169.066137 175.404093 169.086187 175.386308 169.106225 
L 215.190818 204.43645 
z
" style="fill:#d62728;"/>
   </g>
   <g id="patch_86">
    <path d="M 215.403876 204.195679 
C 215.436962 204.158175 215.470021 204.120649 215.503054 204.083099 
C 215.536086 204.045549 215.569093 204.007976 215.602073 203.970379 
L 175.591935 168.87319 
C 175.575445 168.891988 175.558942 168.910775 175.542425 168.929549 
C 175.525909 168.948324 175.509379 168.967088 175.492836 168.985839 
L 215.403876 204.195679 
z
" style="fill:#9467bd;"/>
   </g>
   <g id="patch_87">
    <path d="M 215.602073 203.970379 
C 215.635053 203.932783 215.668006 203.895163 215.700933 203.85752 
C 215.73386 203.819878 215.76676 203.782212 215.799634 203.744522 
L 175.690715 168.760261 
C 175.674278 168.779106 175.657828 168.797939 175.641365 168.81676 
C 175.624901 168.835582 175.608425 168.854392 175.591935 168.87319 
L 215.602073 203.970379 
z
" style="fill:#8c564b;"/>
   </g>
   <g id="patch_88">
    <path d="M 215.799634 203.744522 
C 215.830159 203.709525 215.860662 203.674508 215.891142 203.639471 
C 215.921622 203.604434 215.952078 203.569377 215.982512 203.5343 
L 175.782155 168.65515 
C 175.766938 168.672688 175.751709 168.690217 175.736469 168.707735 
C 175.721229 168.725254 175.705978 168.742763 175.690715 168.760261 
L 215.799634 203.744522 
z
" style="fill:#e377c2;"/>
   </g>
   <g id="patch_89">
    <path d="M 215.982512 203.5343 
C 216.012946 203.499223 216.043357 203.464126 216.073745 203.429009 
C 216.104133 203.393893 216.134498 203.358756 216.16484 203.3236 
L 175.873318 168.5498 
C 175.858147 168.567378 175.842965 168.584946 175.827771 168.602505 
C 175.812577 168.620063 175.797372 168.637612 175.782155 168.65515 
L 215.982512 203.5343 
z
" style="fill:#7f7f7f;"/>
   </g>
   <g id="patch_90">
    <path d="M 216.16484 203.3236 
C 216.192848 203.291147 216.220836 203.258678 216.248805 203.226192 
C 216.276774 203.193707 216.304723 203.161204 216.332652 203.128684 
L 175.957225 168.452342 
C 175.94326 168.468602 175.929285 168.484853 175.915301 168.501096 
C 175.901317 168.517339 175.887322 168.533574 175.873318 168.5498 
L 216.16484 203.3236 
z
" style="fill:#bcbd22;"/>
   </g>
   <g id="patch_91">
    <path d="M 216.332652 203.128684 
C 216.360582 203.096164 216.388492 203.063628 216.416382 203.031074 
C 216.444272 202.998521 216.472143 202.965951 216.499993 202.933363 
L 176.040895 168.354682 
C 176.02697 168.370975 176.013034 168.38726 175.999089 168.403537 
C 175.985144 168.419814 175.971189 168.436082 175.957225 168.452342 
L 216.332652 203.128684 
z
" style="fill:#17becf;"/>
   </g>
   <g id="patch_92">
    <path d="M 216.499993 202.933363 
C 216.527844 202.900776 216.555675 202.868172 216.583487 202.835552 
C 216.611298 202.802931 216.63909 202.770293 216.666862 202.737639 
L 176.124329 168.25682 
C 176.110443 168.273147 176.096548 168.289465 176.082642 168.305776 
C 176.068736 168.322086 176.054821 168.338388 176.040895 168.354682 
L 216.499993 202.933363 
z
" style="fill:#1f77b4;"/>
   </g>
   <g id="patch_93">
    <path d="M 216.666862 202.737639 
C 216.694634 202.704985 216.722386 202.672314 216.750119 202.639626 
C 216.777851 202.606938 216.805564 202.574234 216.833257 202.541512 
L 176.207527 168.158756 
C 176.19368 168.175117 176.179824 168.191469 176.165958 168.207813 
C 176.152092 168.224157 176.138215 168.240492 176.124329 168.25682 
L 216.666862 202.737639 
z
" style="fill:#ff7f0e;"/>
   </g>
   <g id="patch_94">
    <path d="M 216.833257 202.541512 
C 216.858642 202.511518 216.884011 202.481509 216.909363 202.451486 
C 216.934715 202.421464 216.96005 202.391427 216.985369 202.361376 
L 176.283583 168.068688 
C 176.270924 168.083714 176.258256 168.098732 176.24558 168.113743 
C 176.232904 168.128755 176.22022 168.143759 176.207527 168.158756 
L 216.833257 202.541512 
z
" style="fill:#2ca02c;"/>
   </g>
   <g id="patch_95">
    <path d="M 216.985369 202.361376 
C 217.008386 202.334058 217.03139 202.306727 217.054379 202.279385 
C 217.077369 202.252043 217.100344 202.22469 217.123306 202.197325 
L 176.352552 167.986662 
C 176.341071 168.000345 176.329583 168.014022 176.318088 168.027693 
C 176.306593 168.041364 176.295092 168.055029 176.283583 168.068688 
L 216.985369 202.361376 
z
" style="fill:#d62728;"/>
   </g>
   <g id="matplotlib.axis_1">
    <g id="text_1">
     <!-- Clinically Healthy Reference -->
     <g transform="translate(0.72 283.749344)scale(0.17 -0.17)">
      <defs>
       <path d="M 67 4 
Q 61.8125 1.3125 56.203125 -0.046875 
Q 50.59375 -1.421875 44.484375 -1.421875 
Q 26.265625 -1.421875 15.625 8.765625 
Q 4.984375 18.953125 4.984375 36.375 
Q 4.984375 53.859375 15.625 64.03125 
Q 26.265625 74.21875 44.484375 74.21875 
Q 50.59375 74.21875 56.203125 72.84375 
Q 61.8125 71.484375 67 68.796875 
L 67 53.71875 
Q 61.765625 57.28125 56.6875 58.9375 
Q 51.609375 60.59375 46 60.59375 
Q 35.9375 60.59375 30.171875 54.140625 
Q 24.421875 47.703125 24.421875 36.375 
Q 24.421875 25.09375 30.171875 18.640625 
Q 35.9375 12.203125 46 12.203125 
Q 51.609375 12.203125 56.6875 13.859375 
Q 61.765625 15.53125 67 19.09375 
z
" id="DejaVuSans-Bold-67"/>
       <path d="M 8.40625 75.984375 
L 25.875 75.984375 
L 25.875 0 
L 8.40625 0 
z
" id="DejaVuSans-Bold-108"/>
       <path d="M 8.40625 54.6875 
L 25.875 54.6875 
L 25.875 0 
L 8.40625 0 
z
M 8.40625 75.984375 
L 25.875 75.984375 
L 25.875 61.71875 
L 8.40625 61.71875 
z
" id="DejaVuSans-Bold-105"/>
       <path d="M 63.375 33.296875 
L 63.375 0 
L 45.796875 0 
L 45.796875 5.421875 
L 45.796875 25.484375 
Q 45.796875 32.5625 45.484375 35.25 
Q 45.171875 37.9375 44.390625 39.203125 
Q 43.359375 40.921875 41.59375 41.875 
Q 39.84375 42.828125 37.59375 42.828125 
Q 32.125 42.828125 29 38.59375 
Q 25.875 34.375 25.875 26.90625 
L 25.875 0 
L 8.40625 0 
L 8.40625 54.6875 
L 25.875 54.6875 
L 25.875 46.6875 
Q 29.828125 51.46875 34.265625 53.734375 
Q 38.71875 56 44.09375 56 
Q 53.5625 56 58.46875 50.1875 
Q 63.375 44.390625 63.375 33.296875 
z
" id="DejaVuSans-Bold-110"/>
       <path d="M 52.59375 52.984375 
L 52.59375 38.71875 
Q 49.03125 41.15625 45.4375 42.328125 
Q 41.84375 43.5 37.984375 43.5 
Q 30.671875 43.5 26.59375 39.234375 
Q 22.515625 34.96875 22.515625 27.296875 
Q 22.515625 19.625 26.59375 15.34375 
Q 30.671875 11.078125 37.984375 11.078125 
Q 42.09375 11.078125 45.78125 12.296875 
Q 49.46875 13.53125 52.59375 15.921875 
L 52.59375 1.609375 
Q 48.484375 0.09375 44.265625 -0.65625 
Q 40.046875 -1.421875 35.796875 -1.421875 
Q 21 -1.421875 12.640625 6.171875 
Q 4.296875 13.765625 4.296875 27.296875 
Q 4.296875 40.828125 12.640625 48.40625 
Q 21 56 35.796875 56 
Q 40.09375 56 44.265625 55.25 
Q 48.4375 54.5 52.59375 52.984375 
z
" id="DejaVuSans-Bold-99"/>
       <path d="M 32.90625 24.609375 
Q 27.4375 24.609375 24.671875 22.75 
Q 21.921875 20.90625 21.921875 17.28125 
Q 21.921875 13.96875 24.140625 12.078125 
Q 26.375 10.203125 30.328125 10.203125 
Q 35.25 10.203125 38.625 13.734375 
Q 42 17.28125 42 22.609375 
L 42 24.609375 
z
M 59.625 31.203125 
L 59.625 0 
L 42 0 
L 42 8.109375 
Q 38.484375 3.125 34.078125 0.84375 
Q 29.6875 -1.421875 23.390625 -1.421875 
Q 14.890625 -1.421875 9.59375 3.53125 
Q 4.296875 8.5 4.296875 16.40625 
Q 4.296875 26.03125 10.90625 30.515625 
Q 17.53125 35.015625 31.6875 35.015625 
L 42 35.015625 
L 42 36.375 
Q 42 40.53125 38.71875 42.453125 
Q 35.453125 44.390625 28.515625 44.390625 
Q 22.90625 44.390625 18.0625 43.265625 
Q 13.234375 42.140625 9.078125 39.890625 
L 9.078125 53.21875 
Q 14.703125 54.59375 20.359375 55.296875 
Q 26.03125 56 31.6875 56 
Q 46.484375 56 53.046875 50.171875 
Q 59.625 44.34375 59.625 31.203125 
z
" id="DejaVuSans-Bold-97"/>
       <path d="M 1.21875 54.6875 
L 18.703125 54.6875 
L 33.40625 17.578125 
L 45.90625 54.6875 
L 63.375 54.6875 
L 40.375 -5.171875 
Q 36.921875 -14.3125 32.296875 -17.9375 
Q 27.6875 -21.578125 20.125 -21.578125 
L 10.015625 -21.578125 
L 10.015625 -10.109375 
L 15.484375 -10.109375 
Q 19.921875 -10.109375 21.9375 -8.6875 
Q 23.96875 -7.28125 25.09375 -3.609375 
L 25.59375 -2.09375 
z
" id="DejaVuSans-Bold-121"/>
       <path id="DejaVuSans-Bold-32"/>
       <path d="M 9.1875 72.90625 
L 27.984375 72.90625 
L 27.984375 45.125 
L 55.71875 45.125 
L 55.71875 72.90625 
L 74.515625 72.90625 
L 74.515625 0 
L 55.71875 0 
L 55.71875 30.90625 
L 27.984375 30.90625 
L 27.984375 0 
L 9.1875 0 
z
" id="DejaVuSans-Bold-72"/>
       <path d="M 62.984375 27.484375 
L 62.984375 22.515625 
L 22.125 22.515625 
Q 22.75 16.359375 26.5625 13.28125 
Q 30.375 10.203125 37.203125 10.203125 
Q 42.71875 10.203125 48.5 11.84375 
Q 54.296875 13.484375 60.40625 16.796875 
L 60.40625 3.328125 
Q 54.203125 0.984375 48 -0.21875 
Q 41.796875 -1.421875 35.59375 -1.421875 
Q 20.75 -1.421875 12.515625 6.125 
Q 4.296875 13.671875 4.296875 27.296875 
Q 4.296875 40.671875 12.375 48.328125 
Q 20.453125 56 34.625 56 
Q 47.515625 56 55.25 48.234375 
Q 62.984375 40.484375 62.984375 27.484375 
z
M 45.015625 33.296875 
Q 45.015625 38.28125 42.109375 41.328125 
Q 39.203125 44.390625 34.515625 44.390625 
Q 29.4375 44.390625 26.265625 41.53125 
Q 23.09375 38.671875 22.3125 33.296875 
z
" id="DejaVuSans-Bold-101"/>
       <path d="M 27.484375 70.21875 
L 27.484375 54.6875 
L 45.515625 54.6875 
L 45.515625 42.1875 
L 27.484375 42.1875 
L 27.484375 19 
Q 27.484375 15.1875 29 13.84375 
Q 30.515625 12.5 35.015625 12.5 
L 44 12.5 
L 44 0 
L 29 0 
Q 18.65625 0 14.328125 4.3125 
Q 10.015625 8.640625 10.015625 19 
L 10.015625 42.1875 
L 1.3125 42.1875 
L 1.3125 54.6875 
L 10.015625 54.6875 
L 10.015625 70.21875 
z
" id="DejaVuSans-Bold-116"/>
       <path d="M 63.375 33.296875 
L 63.375 0 
L 45.796875 0 
L 45.796875 5.421875 
L 45.796875 25.390625 
Q 45.796875 32.5625 45.484375 35.25 
Q 45.171875 37.9375 44.390625 39.203125 
Q 43.359375 40.921875 41.59375 41.875 
Q 39.84375 42.828125 37.59375 42.828125 
Q 32.125 42.828125 29 38.59375 
Q 25.875 34.375 25.875 26.90625 
L 25.875 0 
L 8.40625 0 
L 8.40625 75.984375 
L 25.875 75.984375 
L 25.875 46.6875 
Q 29.828125 51.46875 34.265625 53.734375 
Q 38.71875 56 44.09375 56 
Q 53.5625 56 58.46875 50.1875 
Q 63.375 44.390625 63.375 33.296875 
z
" id="DejaVuSans-Bold-104"/>
       <path d="M 35.890625 40.578125 
Q 41.796875 40.578125 44.359375 42.765625 
Q 46.921875 44.96875 46.921875 50 
Q 46.921875 54.984375 44.359375 57.125 
Q 41.796875 59.28125 35.890625 59.28125 
L 27.984375 59.28125 
L 27.984375 40.578125 
z
M 27.984375 27.59375 
L 27.984375 0 
L 9.1875 0 
L 9.1875 72.90625 
L 37.890625 72.90625 
Q 52.296875 72.90625 59 68.0625 
Q 65.71875 63.234375 65.71875 52.78125 
Q 65.71875 45.5625 62.21875 40.921875 
Q 58.734375 36.28125 51.703125 34.078125 
Q 55.5625 33.203125 58.609375 30.09375 
Q 61.671875 27 64.796875 20.703125 
L 75 0 
L 54.984375 0 
L 46.09375 18.109375 
Q 43.40625 23.578125 40.640625 25.578125 
Q 37.890625 27.59375 33.296875 27.59375 
z
" id="DejaVuSans-Bold-82"/>
       <path d="M 44.390625 75.984375 
L 44.390625 64.5 
L 34.71875 64.5 
Q 31 64.5 29.53125 63.15625 
Q 28.078125 61.8125 28.078125 58.5 
L 28.078125 54.6875 
L 43.015625 54.6875 
L 43.015625 42.1875 
L 28.078125 42.1875 
L 28.078125 0 
L 10.59375 0 
L 10.59375 42.1875 
L 1.90625 42.1875 
L 1.90625 54.6875 
L 10.59375 54.6875 
L 10.59375 58.5 
Q 10.59375 67.4375 15.578125 71.703125 
Q 20.5625 75.984375 31 75.984375 
z
" id="DejaVuSans-Bold-102"/>
       <path d="M 49.03125 39.796875 
Q 46.734375 40.875 44.453125 41.375 
Q 42.1875 41.890625 39.890625 41.890625 
Q 33.15625 41.890625 29.515625 37.5625 
Q 25.875 33.25 25.875 25.203125 
L 25.875 0 
L 8.40625 0 
L 8.40625 54.6875 
L 25.875 54.6875 
L 25.875 45.703125 
Q 29.25 51.078125 33.609375 53.53125 
Q 37.984375 56 44.09375 56 
Q 44.96875 56 45.984375 55.921875 
Q 47.015625 55.859375 48.96875 55.609375 
z
" id="DejaVuSans-Bold-114"/>
      </defs>
      <use xlink:href="#DejaVuSans-Bold-67"/>
      <use x="73.388672" xlink:href="#DejaVuSans-Bold-108"/>
      <use x="107.666016" xlink:href="#DejaVuSans-Bold-105"/>
      <use x="141.943359" xlink:href="#DejaVuSans-Bold-110"/>
      <use x="213.134766" xlink:href="#DejaVuSans-Bold-105"/>
      <use x="247.412109" xlink:href="#DejaVuSans-Bold-99"/>
      <use x="306.689453" xlink:href="#DejaVuSans-Bold-97"/>
      <use x="374.169922" xlink:href="#DejaVuSans-Bold-108"/>
      <use x="408.447266" xlink:href="#DejaVuSans-Bold-108"/>
      <use x="442.724609" xlink:href="#DejaVuSans-Bold-121"/>
      <use x="507.910156" xlink:href="#DejaVuSans-Bold-32"/>
      <use x="542.724609" xlink:href="#DejaVuSans-Bold-72"/>
      <use x="626.416016" xlink:href="#DejaVuSans-Bold-101"/>
      <use x="694.238281" xlink:href="#DejaVuSans-Bold-97"/>
      <use x="761.71875" xlink:href="#DejaVuSans-Bold-108"/>
      <use x="795.996094" xlink:href="#DejaVuSans-Bold-116"/>
      <use x="843.798828" xlink:href="#DejaVuSans-Bold-104"/>
      <use x="914.990234" xlink:href="#DejaVuSans-Bold-121"/>
      <use x="980.175781" xlink:href="#DejaVuSans-Bold-32"/>
      <use x="1014.990234" xlink:href="#DejaVuSans-Bold-82"/>
      <use x="1091.992188" xlink:href="#DejaVuSans-Bold-101"/>
      <use x="1159.814453" xlink:href="#DejaVuSans-Bold-102"/>
      <use x="1203.320312" xlink:href="#DejaVuSans-Bold-101"/>
      <use x="1271.142578" xlink:href="#DejaVuSans-Bold-114"/>
      <use x="1320.458984" xlink:href="#DejaVuSans-Bold-101"/>
      <use x="1388.28125" xlink:href="#DejaVuSans-Bold-110"/>
      <use x="1459.472656" xlink:href="#DejaVuSans-Bold-99"/>
      <use x="1518.75" xlink:href="#DejaVuSans-Bold-101"/>
     </g>
    </g>
   </g>
   <g id="matplotlib.axis_2"/>
  </g>
 </g>
</svg>
