<?xml version="1.0" encoding="utf-8" standalone="no"?>
<!DOCTYPE svg PUBLIC "-//W3C//DTD SVG 1.1//EN"
  "http://www.w3.org/Graphics/SVG/1.1/DTD/svg11.dtd">
<!-- Created with matplotlib (https://matplotlib.org/) -->
<svg height="288.137625pt" version="1.1" viewBox="0 0 271.163594 288.137625" width="271.163594pt" xmlns="http://www.w3.org/2000/svg" xmlns:xlink="http://www.w3.org/1999/xlink">
 <metadata>
  <rdf:RDF xmlns:cc="http://creativecommons.org/ns#" xmlns:dc="http://purl.org/dc/elements/1.1/" xmlns:rdf="http://www.w3.org/1999/02/22-rdf-syntax-ns#">
   <cc:Work>
    <dc:type rdf:resource="http://purl.org/dc/dcmitype/StillImage"/>
    <dc:date>2024-02-21T09:32:12.529745</dc:date>
    <dc:format>image/svg+xml</dc:format>
    <dc:creator>
     <cc:Agent>
      <dc:title>Matplotlib v3.3.4, https://matplotlib.org/</dc:title>
     </cc:Agent>
    </dc:creator>
   </cc:Work>
  </rdf:RDF>
 </metadata>
 <defs>
  <style type="text/css">*{stroke-linecap:butt;stroke-linejoin:round;}</style>
 </defs>
 <g id="figure_1">
  <g id="patch_1">
   <path d="M 0 288.137625 
L 271.163594 288.137625 
L 271.163594 -0 
L 0 -0 
z
" style="fill:#ffffff;"/>
  </g>
  <g id="axes_1">
   <g id="patch_2">
    <path d="M 217.123244 202.197399 
C 232.674237 183.664447 241.451703 160.372279 241.999324 136.185428 
C 242.546945 111.998577 234.832661 88.333014 220.136393 69.115226 
L 177.859095 101.445613 
C 185.207229 111.054507 189.064371 122.887288 188.79056 134.980714 
C 188.51675 147.074139 184.128017 158.720224 176.352521 167.986699 
L 217.123244 202.197399 
z
" style="fill:#1f77b4;"/>
   </g>
   <g id="patch_3">
    <path d="M 220.136393 69.115226 
C 208.894365 54.414426 194.010449 42.896493 176.959237 35.702543 
C 159.908025 28.508594 141.271854 25.884316 122.897061 28.089705 
L 129.239429 80.932853 
C 138.426825 79.830158 147.744911 81.142297 156.270517 84.739272 
C 164.796123 88.336247 172.238081 94.095213 177.859095 101.445613 
L 220.136393 69.115226 
z
" style="fill:#ff7f0e;"/>
   </g>
   <g id="patch_4">
    <path d="M 122.897061 28.089705 
C 114.020485 29.155094 105.313389 31.334565 96.981645 34.576586 
C 88.649901 37.818607 80.759695 42.097424 73.497586 47.311868 
L 104.539691 90.543934 
C 108.170746 87.936712 112.115849 85.797304 116.281721 84.176293 
C 120.447593 82.555283 124.801141 81.465547 129.239429 80.932853 
L 122.897061 28.089705 
z
" style="fill:#2ca02c;"/>
   </g>
   <g id="patch_5">
    <path d="M 73.497586 47.311868 
C 67.163428 51.86001 61.348185 57.090451 56.156632 62.908951 
C 50.965079 68.727451 46.428585 75.098854 42.628885 81.908365 
L 89.105341 107.842182 
C 91.005191 104.437427 93.273438 101.251725 95.869214 98.342475 
C 98.464991 95.433226 101.372612 92.818005 104.539691 90.543934 
L 73.497586 47.311868 
z
" style="fill:#d62728;"/>
   </g>
   <g id="patch_6">
    <path d="M 42.628885 81.908365 
C 39.303822 87.867269 36.559459 94.132128 34.433706 100.616397 
C 32.307954 107.100667 30.810646 113.774351 29.962467 120.545257 
L 82.772132 127.160628 
C 83.196221 123.775175 83.944875 120.438333 85.007752 117.196199 
C 86.070628 113.954064 87.44281 110.821634 89.105341 107.842182 
L 42.628885 81.908365 
z
" style="fill:#9467bd;"/>
   </g>
   <g id="patch_7">
    <path d="M 29.962467 120.545257 
C 29.152874 127.008135 28.938185 133.531704 29.321103 140.033828 
C 29.704021 146.535951 30.682933 152.989227 32.245514 159.312405 
L 83.913655 146.544203 
C 83.132365 143.382614 82.642909 140.155976 82.45145 136.904914 
C 82.259991 133.653852 82.367335 130.392068 82.772132 127.160628 
L 29.962467 120.545257 
z
" style="fill:#8c564b;"/>
   </g>
   <g id="patch_8">
    <path d="M 32.245514 159.312405 
C 33.688676 165.152343 35.624301 170.859446 38.031589 176.37239 
C 40.438878 181.885333 43.309177 187.184301 46.611643 192.212352 
L 91.09672 162.994176 
C 89.445487 160.48015 88.010337 157.830667 86.806693 155.074195 
C 85.603049 152.317723 84.635236 149.464171 83.913655 146.544203 
L 32.245514 159.312405 
z
" style="fill:#e377c2;"/>
   </g>
   <g id="patch_9">
    <path d="M 46.611643 192.212352 
C 49.578993 196.730182 52.886154 201.015438 56.504419 205.030921 
C 60.122685 209.046404 64.041554 212.780463 68.227011 216.200682 
L 101.904404 174.988341 
C 99.811676 173.278231 97.852241 171.411202 96.043108 169.403461 
C 94.233975 167.395719 92.580395 165.253091 91.09672 162.994176 
L 46.611643 192.212352 
z
" style="fill:#7f7f7f;"/>
   </g>
   <g id="patch_10">
    <path d="M 68.227011 216.200682 
C 71.860416 219.169783 75.686172 221.895389 79.679236 224.359659 
C 83.672301 226.823928 87.823943 229.021473 92.106987 230.937908 
L 113.844392 182.356954 
C 111.70287 181.398736 109.627049 180.299964 107.630517 179.067829 
C 105.633984 177.835695 103.721106 176.472892 101.904404 174.988341 
L 68.227011 216.200682 
z
" style="fill:#bcbd22;"/>
   </g>
   <g id="patch_11">
    <path d="M 92.106987 230.937908 
C 96.066573 232.709613 100.130762 234.237619 104.276809 235.513374 
C 108.422857 236.789129 112.643016 237.810249 116.91367 238.571021 
L 126.247733 186.173511 
C 124.112406 185.793125 122.002327 185.282564 119.929303 184.644687 
C 117.856279 184.006809 115.824185 183.242807 113.844392 182.356954 
L 92.106987 230.937908 
z
" style="fill:#17becf;"/>
   </g>
   <g id="patch_12">
    <path d="M 116.91367 238.571021 
C 121.001983 239.299311 125.129413 239.787734 129.274791 240.033786 
C 133.42017 240.279838 137.576398 240.283097 141.722157 240.043546 
L 138.651977 186.909773 
C 136.579097 187.029549 134.500983 187.027919 132.428294 186.904893 
C 130.355605 186.781867 128.29189 186.537656 126.247733 186.173511 
L 116.91367 238.571021 
z
" style="fill:#1f77b4;"/>
   </g>
   <g id="patch_13">
    <path d="M 141.722157 240.043546 
C 144.786891 239.86646 147.842531 239.556876 150.880505 239.115665 
C 153.918479 238.674453 156.935945 238.102026 159.92444 237.399989 
L 147.753118 185.587995 
C 146.258871 185.939013 144.750138 186.225227 143.231151 186.445832 
C 141.712164 186.666438 140.184344 186.82123 138.651977 186.909773 
L 141.722157 240.043546 
z
" style="fill:#ff7f0e;"/>
   </g>
   <g id="patch_14">
    <path d="M 159.92444 237.399989 
C 162.903139 236.700254 165.850283 235.872408 168.757659 234.918759 
C 171.665035 233.965109 174.52994 232.886544 177.344392 231.686066 
L 156.463094 182.731033 
C 155.055869 183.331272 153.623416 183.870555 152.169728 184.347379 
C 150.71604 184.824204 149.242468 185.238127 147.753118 185.587995 
L 159.92444 237.399989 
z
" style="fill:#2ca02c;"/>
   </g>
   <g id="patch_15">
    <path d="M 177.344392 231.686066 
C 180.155141 230.487168 182.912962 229.167792 185.610188 227.731604 
C 188.307415 226.295416 190.941548 224.743748 193.505265 223.080912 
L 164.543531 178.428456 
C 163.261672 179.259874 161.944606 180.035708 160.595993 180.753802 
C 159.247379 181.471896 157.868469 182.131584 156.463094 182.731033 
L 177.344392 231.686066 
z
" style="fill:#d62728;"/>
   </g>
   <g id="patch_16">
    <path d="M 193.505265 223.080912 
C 196.006516 221.458592 198.438507 219.731905 200.794803 217.90542 
C 203.151099 216.078934 205.429622 214.154262 207.624342 212.136495 
L 171.603069 172.956247 
C 170.505709 173.965131 169.366448 174.927467 168.1883 175.84071 
C 167.010152 176.753953 165.794157 177.617296 164.543531 178.428456 
L 193.505265 223.080912 
z
" style="fill:#9467bd;"/>
   </g>
   <g id="patch_17">
    <path d="M 207.624342 212.136495 
C 209.312487 210.58446 210.950037 208.978277 212.534429 207.320462 
C 214.11882 205.662647 215.649226 203.954065 217.12325 202.197392 
L 176.352523 167.986696 
C 175.615512 168.865033 174.850309 169.719324 174.058113 170.548231 
C 173.265917 171.377138 172.447142 172.18023 171.603069 172.956247 
L 207.624342 212.136495 
z
" style="fill:#8c564b;"/>
   </g>
   <g id="matplotlib.axis_1">
    <g id="text_1">
     <!-- Clinically Healthy Reference -->
     <g transform="translate(0.72 283.749344)scale(0.17 -0.17)">
      <defs>
       <path d="M 67 4 
Q 61.8125 1.3125 56.203125 -0.046875 
Q 50.59375 -1.421875 44.484375 -1.421875 
Q 26.265625 -1.421875 15.625 8.765625 
Q 4.984375 18.953125 4.984375 36.375 
Q 4.984375 53.859375 15.625 64.03125 
Q 26.265625 74.21875 44.484375 74.21875 
Q 50.59375 74.21875 56.203125 72.84375 
Q 61.8125 71.484375 67 68.796875 
L 67 53.71875 
Q 61.765625 57.28125 56.6875 58.9375 
Q 51.609375 60.59375 46 60.59375 
Q 35.9375 60.59375 30.171875 54.140625 
Q 24.421875 47.703125 24.421875 36.375 
Q 24.421875 25.09375 30.171875 18.640625 
Q 35.9375 12.203125 46 12.203125 
Q 51.609375 12.203125 56.6875 13.859375 
Q 61.765625 15.53125 67 19.09375 
z
" id="DejaVuSans-Bold-67"/>
       <path d="M 8.40625 75.984375 
L 25.875 75.984375 
L 25.875 0 
L 8.40625 0 
z
" id="DejaVuSans-Bold-108"/>
       <path d="M 8.40625 54.6875 
L 25.875 54.6875 
L 25.875 0 
L 8.40625 0 
z
M 8.40625 75.984375 
L 25.875 75.984375 
L 25.875 61.71875 
L 8.40625 61.71875 
z
" id="DejaVuSans-Bold-105"/>
       <path d="M 63.375 33.296875 
L 63.375 0 
L 45.796875 0 
L 45.796875 5.421875 
L 45.796875 25.484375 
Q 45.796875 32.5625 45.484375 35.25 
Q 45.171875 37.9375 44.390625 39.203125 
Q 43.359375 40.921875 41.59375 41.875 
Q 39.84375 42.828125 37.59375 42.828125 
Q 32.125 42.828125 29 38.59375 
Q 25.875 34.375 25.875 26.90625 
L 25.875 0 
L 8.40625 0 
L 8.40625 54.6875 
L 25.875 54.6875 
L 25.875 46.6875 
Q 29.828125 51.46875 34.265625 53.734375 
Q 38.71875 56 44.09375 56 
Q 53.5625 56 58.46875 50.1875 
Q 63.375 44.390625 63.375 33.296875 
z
" id="DejaVuSans-Bold-110"/>
       <path d="M 52.59375 52.984375 
L 52.59375 38.71875 
Q 49.03125 41.15625 45.4375 42.328125 
Q 41.84375 43.5 37.984375 43.5 
Q 30.671875 43.5 26.59375 39.234375 
Q 22.515625 34.96875 22.515625 27.296875 
Q 22.515625 19.625 26.59375 15.34375 
Q 30.671875 11.078125 37.984375 11.078125 
Q 42.09375 11.078125 45.78125 12.296875 
Q 49.46875 13.53125 52.59375 15.921875 
L 52.59375 1.609375 
Q 48.484375 0.09375 44.265625 -0.65625 
Q 40.046875 -1.421875 35.796875 -1.421875 
Q 21 -1.421875 12.640625 6.171875 
Q 4.296875 13.765625 4.296875 27.296875 
Q 4.296875 40.828125 12.640625 48.40625 
Q 21 56 35.796875 56 
Q 40.09375 56 44.265625 55.25 
Q 48.4375 54.5 52.59375 52.984375 
z
" id="DejaVuSans-Bold-99"/>
       <path d="M 32.90625 24.609375 
Q 27.4375 24.609375 24.671875 22.75 
Q 21.921875 20.90625 21.921875 17.28125 
Q 21.921875 13.96875 24.140625 12.078125 
Q 26.375 10.203125 30.328125 10.203125 
Q 35.25 10.203125 38.625 13.734375 
Q 42 17.28125 42 22.609375 
L 42 24.609375 
z
M 59.625 31.203125 
L 59.625 0 
L 42 0 
L 42 8.109375 
Q 38.484375 3.125 34.078125 0.84375 
Q 29.6875 -1.421875 23.390625 -1.421875 
Q 14.890625 -1.421875 9.59375 3.53125 
Q 4.296875 8.5 4.296875 16.40625 
Q 4.296875 26.03125 10.90625 30.515625 
Q 17.53125 35.015625 31.6875 35.015625 
L 42 35.015625 
L 42 36.375 
Q 42 40.53125 38.71875 42.453125 
Q 35.453125 44.390625 28.515625 44.390625 
Q 22.90625 44.390625 18.0625 43.265625 
Q 13.234375 42.140625 9.078125 39.890625 
L 9.078125 53.21875 
Q 14.703125 54.59375 20.359375 55.296875 
Q 26.03125 56 31.6875 56 
Q 46.484375 56 53.046875 50.171875 
Q 59.625 44.34375 59.625 31.203125 
z
" id="DejaVuSans-Bold-97"/>
       <path d="M 1.21875 54.6875 
L 18.703125 54.6875 
L 33.40625 17.578125 
L 45.90625 54.6875 
L 63.375 54.6875 
L 40.375 -5.171875 
Q 36.921875 -14.3125 32.296875 -17.9375 
Q 27.6875 -21.578125 20.125 -21.578125 
L 10.015625 -21.578125 
L 10.015625 -10.109375 
L 15.484375 -10.109375 
Q 19.921875 -10.109375 21.9375 -8.6875 
Q 23.96875 -7.28125 25.09375 -3.609375 
L 25.59375 -2.09375 
z
" id="DejaVuSans-Bold-121"/>
       <path id="DejaVuSans-Bold-32"/>
       <path d="M 9.1875 72.90625 
L 27.984375 72.90625 
L 27.984375 45.125 
L 55.71875 45.125 
L 55.71875 72.90625 
L 74.515625 72.90625 
L 74.515625 0 
L 55.71875 0 
L 55.71875 30.90625 
L 27.984375 30.90625 
L 27.984375 0 
L 9.1875 0 
z
" id="DejaVuSans-Bold-72"/>
       <path d="M 62.984375 27.484375 
L 62.984375 22.515625 
L 22.125 22.515625 
Q 22.75 16.359375 26.5625 13.28125 
Q 30.375 10.203125 37.203125 10.203125 
Q 42.71875 10.203125 48.5 11.84375 
Q 54.296875 13.484375 60.40625 16.796875 
L 60.40625 3.328125 
Q 54.203125 0.984375 48 -0.21875 
Q 41.796875 -1.421875 35.59375 -1.421875 
Q 20.75 -1.421875 12.515625 6.125 
Q 4.296875 13.671875 4.296875 27.296875 
Q 4.296875 40.671875 12.375 48.328125 
Q 20.453125 56 34.625 56 
Q 47.515625 56 55.25 48.234375 
Q 62.984375 40.484375 62.984375 27.484375 
z
M 45.015625 33.296875 
Q 45.015625 38.28125 42.109375 41.328125 
Q 39.203125 44.390625 34.515625 44.390625 
Q 29.4375 44.390625 26.265625 41.53125 
Q 23.09375 38.671875 22.3125 33.296875 
z
" id="DejaVuSans-Bold-101"/>
       <path d="M 27.484375 70.21875 
L 27.484375 54.6875 
L 45.515625 54.6875 
L 45.515625 42.1875 
L 27.484375 42.1875 
L 27.484375 19 
Q 27.484375 15.1875 29 13.84375 
Q 30.515625 12.5 35.015625 12.5 
L 44 12.5 
L 44 0 
L 29 0 
Q 18.65625 0 14.328125 4.3125 
Q 10.015625 8.640625 10.015625 19 
L 10.015625 42.1875 
L 1.3125 42.1875 
L 1.3125 54.6875 
L 10.015625 54.6875 
L 10.015625 70.21875 
z
" id="DejaVuSans-Bold-116"/>
       <path d="M 63.375 33.296875 
L 63.375 0 
L 45.796875 0 
L 45.796875 5.421875 
L 45.796875 25.390625 
Q 45.796875 32.5625 45.484375 35.25 
Q 45.171875 37.9375 44.390625 39.203125 
Q 43.359375 40.921875 41.59375 41.875 
Q 39.84375 42.828125 37.59375 42.828125 
Q 32.125 42.828125 29 38.59375 
Q 25.875 34.375 25.875 26.90625 
L 25.875 0 
L 8.40625 0 
L 8.40625 75.984375 
L 25.875 75.984375 
L 25.875 46.6875 
Q 29.828125 51.46875 34.265625 53.734375 
Q 38.71875 56 44.09375 56 
Q 53.5625 56 58.46875 50.1875 
Q 63.375 44.390625 63.375 33.296875 
z
" id="DejaVuSans-Bold-104"/>
       <path d="M 35.890625 40.578125 
Q 41.796875 40.578125 44.359375 42.765625 
Q 46.921875 44.96875 46.921875 50 
Q 46.921875 54.984375 44.359375 57.125 
Q 41.796875 59.28125 35.890625 59.28125 
L 27.984375 59.28125 
L 27.984375 40.578125 
z
M 27.984375 27.59375 
L 27.984375 0 
L 9.1875 0 
L 9.1875 72.90625 
L 37.890625 72.90625 
Q 52.296875 72.90625 59 68.0625 
Q 65.71875 63.234375 65.71875 52.78125 
Q 65.71875 45.5625 62.21875 40.921875 
Q 58.734375 36.28125 51.703125 34.078125 
Q 55.5625 33.203125 58.609375 30.09375 
Q 61.671875 27 64.796875 20.703125 
L 75 0 
L 54.984375 0 
L 46.09375 18.109375 
Q 43.40625 23.578125 40.640625 25.578125 
Q 37.890625 27.59375 33.296875 27.59375 
z
" id="DejaVuSans-Bold-82"/>
       <path d="M 44.390625 75.984375 
L 44.390625 64.5 
L 34.71875 64.5 
Q 31 64.5 29.53125 63.15625 
Q 28.078125 61.8125 28.078125 58.5 
L 28.078125 54.6875 
L 43.015625 54.6875 
L 43.015625 42.1875 
L 28.078125 42.1875 
L 28.078125 0 
L 10.59375 0 
L 10.59375 42.1875 
L 1.90625 42.1875 
L 1.90625 54.6875 
L 10.59375 54.6875 
L 10.59375 58.5 
Q 10.59375 67.4375 15.578125 71.703125 
Q 20.5625 75.984375 31 75.984375 
z
" id="DejaVuSans-Bold-102"/>
       <path d="M 49.03125 39.796875 
Q 46.734375 40.875 44.453125 41.375 
Q 42.1875 41.890625 39.890625 41.890625 
Q 33.15625 41.890625 29.515625 37.5625 
Q 25.875 33.25 25.875 25.203125 
L 25.875 0 
L 8.40625 0 
L 8.40625 54.6875 
L 25.875 54.6875 
L 25.875 45.703125 
Q 29.25 51.078125 33.609375 53.53125 
Q 37.984375 56 44.09375 56 
Q 44.96875 56 45.984375 55.921875 
Q 47.015625 55.859375 48.96875 55.609375 
z
" id="DejaVuSans-Bold-114"/>
      </defs>
      <use xlink:href="#DejaVuSans-Bold-67"/>
      <use x="73.388672" xlink:href="#DejaVuSans-Bold-108"/>
      <use x="107.666016" xlink:href="#DejaVuSans-Bold-105"/>
      <use x="141.943359" xlink:href="#DejaVuSans-Bold-110"/>
      <use x="213.134766" xlink:href="#DejaVuSans-Bold-105"/>
      <use x="247.412109" xlink:href="#DejaVuSans-Bold-99"/>
      <use x="306.689453" xlink:href="#DejaVuSans-Bold-97"/>
      <use x="374.169922" xlink:href="#DejaVuSans-Bold-108"/>
      <use x="408.447266" xlink:href="#DejaVuSans-Bold-108"/>
      <use x="442.724609" xlink:href="#DejaVuSans-Bold-121"/>
      <use x="507.910156" xlink:href="#DejaVuSans-Bold-32"/>
      <use x="542.724609" xlink:href="#DejaVuSans-Bold-72"/>
      <use x="626.416016" xlink:href="#DejaVuSans-Bold-101"/>
      <use x="694.238281" xlink:href="#DejaVuSans-Bold-97"/>
      <use x="761.71875" xlink:href="#DejaVuSans-Bold-108"/>
      <use x="795.996094" xlink:href="#DejaVuSans-Bold-116"/>
      <use x="843.798828" xlink:href="#DejaVuSans-Bold-104"/>
      <use x="914.990234" xlink:href="#DejaVuSans-Bold-121"/>
      <use x="980.175781" xlink:href="#DejaVuSans-Bold-32"/>
      <use x="1014.990234" xlink:href="#DejaVuSans-Bold-82"/>
      <use x="1091.992188" xlink:href="#DejaVuSans-Bold-101"/>
      <use x="1159.814453" xlink:href="#DejaVuSans-Bold-102"/>
      <use x="1203.320312" xlink:href="#DejaVuSans-Bold-101"/>
      <use x="1271.142578" xlink:href="#DejaVuSans-Bold-114"/>
      <use x="1320.458984" xlink:href="#DejaVuSans-Bold-101"/>
      <use x="1388.28125" xlink:href="#DejaVuSans-Bold-110"/>
      <use x="1459.472656" xlink:href="#DejaVuSans-Bold-99"/>
      <use x="1518.75" xlink:href="#DejaVuSans-Bold-101"/>
     </g>
    </g>
   </g>
   <g id="matplotlib.axis_2"/>
  </g>
 </g>
</svg>
