<?xml version="1.0" encoding="utf-8" standalone="no"?>
<!DOCTYPE svg PUBLIC "-//W3C//DTD SVG 1.1//EN"
  "http://www.w3.org/Graphics/SVG/1.1/DTD/svg11.dtd">
<!-- Created with matplotlib (https://matplotlib.org/) -->
<svg height="288.137625pt" version="1.1" viewBox="0 0 271.163594 288.137625" width="271.163594pt" xmlns="http://www.w3.org/2000/svg" xmlns:xlink="http://www.w3.org/1999/xlink">
 <metadata>
  <rdf:RDF xmlns:cc="http://creativecommons.org/ns#" xmlns:dc="http://purl.org/dc/elements/1.1/" xmlns:rdf="http://www.w3.org/1999/02/22-rdf-syntax-ns#">
   <cc:Work>
    <dc:type rdf:resource="http://purl.org/dc/dcmitype/StillImage"/>
    <dc:date>2023-10-31T17:12:07.577800</dc:date>
    <dc:format>image/svg+xml</dc:format>
    <dc:creator>
     <cc:Agent>
      <dc:title>Matplotlib v3.3.4, https://matplotlib.org/</dc:title>
     </cc:Agent>
    </dc:creator>
   </cc:Work>
  </rdf:RDF>
 </metadata>
 <defs>
  <style type="text/css">*{stroke-linecap:butt;stroke-linejoin:round;}</style>
 </defs>
 <g id="figure_1">
  <g id="patch_1">
   <path d="M 0 288.137625 
L 271.163594 288.137625 
L 271.163594 -0 
L 0 -0 
z
" style="fill:#ffffff;"/>
  </g>
  <g id="axes_1">
   <g id="patch_2">
    <path d="M 217.123244 202.197399 
C 229.022496 188.016423 237.019092 170.97362 240.320346 152.758407 
C 243.6216 134.543193 242.114704 115.778015 235.949032 98.323022 
C 229.78336 80.86803 219.169604 65.319691 205.159883 53.219278 
C 191.150162 41.118866 174.223212 32.879871 156.056964 29.319009 
L 145.819381 81.547505 
C 154.902504 83.327936 163.365979 87.447433 170.37084 93.497639 
C 177.3757 99.547845 182.682578 107.322015 185.765414 116.049511 
C 188.84825 124.777007 189.601699 134.159597 187.951071 143.267203 
C 186.300444 152.37481 182.302147 160.896211 176.352521 167.986699 
L 217.123244 202.197399 
z
" style="fill:#1f77b4;"/>
   </g>
   <g id="patch_3">
    <path d="M 156.056964 29.319009 
C 143.300723 26.818591 130.19369 26.675871 117.386026 28.897931 
C 104.578363 31.11999 92.2854 35.66947 81.116919 42.320697 
L 108.349358 88.048348 
C 113.933599 84.722735 120.08008 82.447995 126.483912 81.336965 
C 132.887743 80.225936 139.44126 80.297295 145.819381 81.547505 
L 156.056964 29.319009 
z
" style="fill:#ff7f0e;"/>
   </g>
   <g id="patch_4">
    <path d="M 81.116919 42.320697 
C 71.389734 48.11358 62.648741 55.421419 55.223992 63.968274 
C 47.799243 72.515129 41.78538 82.192056 37.409482 92.633662 
L 86.495639 113.204831 
C 88.683588 107.984028 91.69052 103.145565 95.402894 98.872137 
C 99.115269 94.598709 103.485765 90.94479 108.349358 88.048348 
L 81.116919 42.320697 
z
" style="fill:#2ca02c;"/>
   </g>
   <g id="patch_5">
    <path d="M 37.409482 92.633662 
C 33.339825 102.344526 30.733445 112.605703 29.67559 123.081576 
C 28.617734 133.557449 29.120065 144.132544 31.16615 154.460976 
L 83.373974 144.118488 
C 82.350931 138.954272 82.099766 133.666724 82.628693 128.428788 
C 83.157621 123.190852 84.460811 118.060263 86.495639 113.204831 
L 37.409482 92.633662 
z
" style="fill:#d62728;"/>
   </g>
   <g id="patch_6">
    <path d="M 31.16615 154.460976 
C 32.830036 162.860103 35.501291 171.027869 39.12195 178.787036 
C 42.742608 186.546203 47.28629 193.840239 52.654399 200.510865 
L 94.118098 167.143432 
C 91.434044 163.808119 89.162203 160.161102 87.351873 156.281518 
C 85.541544 152.401934 84.205917 148.318051 83.373974 144.118488 
L 31.16615 154.460976 
z
" style="fill:#9467bd;"/>
   </g>
   <g id="patch_7">
    <path d="M 52.654399 200.510865 
C 57.512893 206.548222 63.016196 212.036997 69.066375 216.879514 
C 75.116554 221.722032 81.677506 225.889395 88.632474 229.307443 
L 112.107136 181.541721 
C 108.629651 179.832697 105.349175 177.749016 102.324086 175.327757 
C 99.298996 172.906499 96.547345 170.162111 94.118098 167.143432 
L 52.654399 200.510865 
z
" style="fill:#8c564b;"/>
   </g>
   <g id="patch_8">
    <path d="M 88.632474 229.307443 
C 94.069008 231.97925 99.723705 234.182111 105.534956 235.892026 
C 111.346207 237.601941 117.292829 238.812677 123.310032 239.511043 
L 129.445914 186.643521 
C 126.437313 186.294339 123.464002 185.688971 120.558376 184.834013 
C 117.652751 183.979056 114.825402 182.877625 112.107136 181.541721 
L 88.632474 229.307443 
z
" style="fill:#e377c2;"/>
   </g>
   <g id="patch_9">
    <path d="M 123.310032 239.511043 
C 127.514061 239.998968 131.743451 240.235732 135.975671 240.220071 
C 140.207891 240.204411 144.435413 239.936354 148.635716 239.41733 
L 142.108756 186.596665 
C 140.008605 186.856177 137.894844 186.990205 135.778734 186.998036 
C 133.662624 187.005866 131.547929 186.887484 129.445914 186.643521 
L 123.310032 239.511043 
z
" style="fill:#7f7f7f;"/>
   </g>
   <g id="patch_10">
    <path d="M 148.635716 239.41733 
C 151.941965 239.008783 155.227213 238.445247 158.48061 237.728584 
C 161.734006 237.011922 164.951966 236.142922 168.123862 235.124456 
L 151.852829 184.450228 
C 150.266882 184.959461 148.657902 185.393961 147.031203 185.752292 
C 145.404505 186.110623 143.761881 186.392391 142.108756 186.596665 
L 148.635716 239.41733 
z
" style="fill:#bcbd22;"/>
   </g>
   <g id="patch_11">
    <path d="M 168.123862 235.124456 
C 169.966766 234.532716 171.793188 233.890819 173.601089 233.199483 
C 175.40899 232.508146 177.197698 231.767626 178.965217 230.978748 
L 157.273507 182.377374 
C 156.389747 182.771813 155.495393 183.142073 154.591443 183.487741 
C 153.687492 183.83341 152.774282 184.154358 151.852829 184.450228 
L 168.123862 235.124456 
z
" style="fill:#17becf;"/>
   </g>
   <g id="patch_12">
    <path d="M 178.965217 230.978748 
C 180.362758 230.354999 181.746685 229.701183 183.116032 229.017755 
C 184.485379 228.334328 185.839827 227.621448 187.178432 226.879612 
L 161.380115 180.327806 
C 160.710812 180.698724 160.033588 181.055164 159.348914 181.396878 
C 158.664241 181.738591 157.972278 182.0655 157.273507 182.377374 
L 178.965217 230.978748 
z
" style="fill:#1f77b4;"/>
   </g>
   <g id="patch_13">
    <path d="M 187.178432 226.879612 
C 188.300486 226.257787 189.411207 225.615729 190.51005 224.953752 
C 191.608894 224.291775 192.695681 223.609988 193.769878 222.908725 
L 164.675838 178.342362 
C 164.138739 178.692994 163.595345 179.033887 163.045924 179.364876 
C 162.496502 179.695864 161.941141 180.016894 161.380115 180.327806 
L 187.178432 226.879612 
z
" style="fill:#ff7f0e;"/>
   </g>
   <g id="patch_14">
    <path d="M 193.769878 222.908725 
C 194.825229 222.219765 195.868261 221.512116 196.89848 220.786113 
C 197.928699 220.06011 198.945942 219.315868 199.949729 218.553737 
L 167.765763 176.164869 
C 167.26387 176.545934 166.755248 176.918055 166.240138 177.281057 
C 165.725029 177.644058 165.203513 177.997883 164.675838 178.342362 
L 193.769878 222.908725 
z
" style="fill:#2ca02c;"/>
   </g>
   <g id="patch_15">
    <path d="M 199.949729 218.553737 
C 200.720486 217.968536 201.483226 217.372851 202.237738 216.766849 
C 202.992249 216.160847 203.738461 215.544583 204.476165 214.91823 
L 170.028981 174.347115 
C 169.660129 174.660291 169.287023 174.968423 168.909767 175.271425 
C 168.532512 175.574426 168.151141 175.872268 167.765763 176.164869 
L 199.949729 218.553737 
z
" style="fill:#d62728;"/>
   </g>
   <g id="patch_16">
    <path d="M 204.476165 214.91823 
C 205.145244 214.350144 205.807271 213.773804 206.462094 213.189342 
C 207.116917 212.604881 207.764486 212.012342 208.404652 211.411863 
L 171.993225 172.593931 
C 171.673141 172.894171 171.349357 173.19044 171.021945 173.482671 
C 170.694534 173.774902 170.36352 174.063072 170.028981 174.347115 
L 204.476165 214.91823 
z
" style="fill:#9467bd;"/>
   </g>
   <g id="patch_17">
    <path d="M 208.404652 211.411863 
C 208.995574 210.857575 209.580148 210.296559 210.15826 209.728924 
C 210.736372 209.161288 211.307984 208.587071 211.872985 208.006385 
L 173.727391 170.891192 
C 173.444891 171.181536 173.159084 171.468644 172.870028 171.752462 
C 172.580972 172.036279 172.288685 172.316788 171.993225 172.593931 
L 208.404652 211.411863 
z
" style="fill:#8c564b;"/>
   </g>
   <g id="patch_18">
    <path d="M 211.872985 208.006385 
C 212.171178 207.699913 212.467521 207.391648 212.761999 207.081606 
C 213.056477 206.771563 213.349084 206.459749 213.639804 206.146181 
L 174.6108 169.96109 
C 174.46544 170.117875 174.319137 170.273782 174.171898 170.428803 
C 174.024659 170.583824 173.876488 170.737957 173.727391 170.891192 
L 211.872985 208.006385 
z
" style="fill:#e377c2;"/>
   </g>
   <g id="patch_19">
    <path d="M 213.639804 206.146181 
C 213.854018 205.91513 214.067205 205.68313 214.27936 205.450187 
C 214.491514 205.217243 214.702633 204.983359 214.91271 204.748541 
L 175.247254 169.262271 
C 175.142215 169.37968 175.036655 169.496622 174.930578 169.613093 
C 174.824501 169.729565 174.717907 169.845565 174.6108 169.96109 
L 213.639804 206.146181 
z
" style="fill:#7f7f7f;"/>
   </g>
   <g id="patch_20">
    <path d="M 214.91271 204.748541 
C 215.107782 204.530496 215.301954 204.311647 215.495222 204.092001 
C 215.688489 203.872355 215.88085 203.651912 216.0723 203.43068 
L 175.827048 168.60334 
C 175.731323 168.713956 175.635143 168.824177 175.538509 168.934 
C 175.441876 169.043824 175.34479 169.153248 175.247254 169.262271 
L 214.91271 204.748541 
z
" style="fill:#bcbd22;"/>
   </g>
   <g id="patch_21">
    <path d="M 216.0723 203.43068 
C 216.249022 203.226465 216.424967 203.021579 216.60013 202.816025 
C 216.775294 202.610471 216.949674 202.404252 217.123268 202.197371 
L 176.352532 167.986685 
C 176.265735 168.090126 176.178545 168.193236 176.090964 168.296013 
C 176.003382 168.398789 175.91541 168.501233 175.827048 168.60334 
L 216.0723 203.43068 
z
" style="fill:#17becf;"/>
   </g>
   <g id="matplotlib.axis_1">
    <g id="text_1">
     <!-- Clinically Healthy Reference -->
     <g transform="translate(0.72 283.749344)scale(0.17 -0.17)">
      <defs>
       <path d="M 67 4 
Q 61.8125 1.3125 56.203125 -0.046875 
Q 50.59375 -1.421875 44.484375 -1.421875 
Q 26.265625 -1.421875 15.625 8.765625 
Q 4.984375 18.953125 4.984375 36.375 
Q 4.984375 53.859375 15.625 64.03125 
Q 26.265625 74.21875 44.484375 74.21875 
Q 50.59375 74.21875 56.203125 72.84375 
Q 61.8125 71.484375 67 68.796875 
L 67 53.71875 
Q 61.765625 57.28125 56.6875 58.9375 
Q 51.609375 60.59375 46 60.59375 
Q 35.9375 60.59375 30.171875 54.140625 
Q 24.421875 47.703125 24.421875 36.375 
Q 24.421875 25.09375 30.171875 18.640625 
Q 35.9375 12.203125 46 12.203125 
Q 51.609375 12.203125 56.6875 13.859375 
Q 61.765625 15.53125 67 19.09375 
z
" id="DejaVuSans-Bold-67"/>
       <path d="M 8.40625 75.984375 
L 25.875 75.984375 
L 25.875 0 
L 8.40625 0 
z
" id="DejaVuSans-Bold-108"/>
       <path d="M 8.40625 54.6875 
L 25.875 54.6875 
L 25.875 0 
L 8.40625 0 
z
M 8.40625 75.984375 
L 25.875 75.984375 
L 25.875 61.71875 
L 8.40625 61.71875 
z
" id="DejaVuSans-Bold-105"/>
       <path d="M 63.375 33.296875 
L 63.375 0 
L 45.796875 0 
L 45.796875 5.421875 
L 45.796875 25.484375 
Q 45.796875 32.5625 45.484375 35.25 
Q 45.171875 37.9375 44.390625 39.203125 
Q 43.359375 40.921875 41.59375 41.875 
Q 39.84375 42.828125 37.59375 42.828125 
Q 32.125 42.828125 29 38.59375 
Q 25.875 34.375 25.875 26.90625 
L 25.875 0 
L 8.40625 0 
L 8.40625 54.6875 
L 25.875 54.6875 
L 25.875 46.6875 
Q 29.828125 51.46875 34.265625 53.734375 
Q 38.71875 56 44.09375 56 
Q 53.5625 56 58.46875 50.1875 
Q 63.375 44.390625 63.375 33.296875 
z
" id="DejaVuSans-Bold-110"/>
       <path d="M 52.59375 52.984375 
L 52.59375 38.71875 
Q 49.03125 41.15625 45.4375 42.328125 
Q 41.84375 43.5 37.984375 43.5 
Q 30.671875 43.5 26.59375 39.234375 
Q 22.515625 34.96875 22.515625 27.296875 
Q 22.515625 19.625 26.59375 15.34375 
Q 30.671875 11.078125 37.984375 11.078125 
Q 42.09375 11.078125 45.78125 12.296875 
Q 49.46875 13.53125 52.59375 15.921875 
L 52.59375 1.609375 
Q 48.484375 0.09375 44.265625 -0.65625 
Q 40.046875 -1.421875 35.796875 -1.421875 
Q 21 -1.421875 12.640625 6.171875 
Q 4.296875 13.765625 4.296875 27.296875 
Q 4.296875 40.828125 12.640625 48.40625 
Q 21 56 35.796875 56 
Q 40.09375 56 44.265625 55.25 
Q 48.4375 54.5 52.59375 52.984375 
z
" id="DejaVuSans-Bold-99"/>
       <path d="M 32.90625 24.609375 
Q 27.4375 24.609375 24.671875 22.75 
Q 21.921875 20.90625 21.921875 17.28125 
Q 21.921875 13.96875 24.140625 12.078125 
Q 26.375 10.203125 30.328125 10.203125 
Q 35.25 10.203125 38.625 13.734375 
Q 42 17.28125 42 22.609375 
L 42 24.609375 
z
M 59.625 31.203125 
L 59.625 0 
L 42 0 
L 42 8.109375 
Q 38.484375 3.125 34.078125 0.84375 
Q 29.6875 -1.421875 23.390625 -1.421875 
Q 14.890625 -1.421875 9.59375 3.53125 
Q 4.296875 8.5 4.296875 16.40625 
Q 4.296875 26.03125 10.90625 30.515625 
Q 17.53125 35.015625 31.6875 35.015625 
L 42 35.015625 
L 42 36.375 
Q 42 40.53125 38.71875 42.453125 
Q 35.453125 44.390625 28.515625 44.390625 
Q 22.90625 44.390625 18.0625 43.265625 
Q 13.234375 42.140625 9.078125 39.890625 
L 9.078125 53.21875 
Q 14.703125 54.59375 20.359375 55.296875 
Q 26.03125 56 31.6875 56 
Q 46.484375 56 53.046875 50.171875 
Q 59.625 44.34375 59.625 31.203125 
z
" id="DejaVuSans-Bold-97"/>
       <path d="M 1.21875 54.6875 
L 18.703125 54.6875 
L 33.40625 17.578125 
L 45.90625 54.6875 
L 63.375 54.6875 
L 40.375 -5.171875 
Q 36.921875 -14.3125 32.296875 -17.9375 
Q 27.6875 -21.578125 20.125 -21.578125 
L 10.015625 -21.578125 
L 10.015625 -10.109375 
L 15.484375 -10.109375 
Q 19.921875 -10.109375 21.9375 -8.6875 
Q 23.96875 -7.28125 25.09375 -3.609375 
L 25.59375 -2.09375 
z
" id="DejaVuSans-Bold-121"/>
       <path id="DejaVuSans-Bold-32"/>
       <path d="M 9.1875 72.90625 
L 27.984375 72.90625 
L 27.984375 45.125 
L 55.71875 45.125 
L 55.71875 72.90625 
L 74.515625 72.90625 
L 74.515625 0 
L 55.71875 0 
L 55.71875 30.90625 
L 27.984375 30.90625 
L 27.984375 0 
L 9.1875 0 
z
" id="DejaVuSans-Bold-72"/>
       <path d="M 62.984375 27.484375 
L 62.984375 22.515625 
L 22.125 22.515625 
Q 22.75 16.359375 26.5625 13.28125 
Q 30.375 10.203125 37.203125 10.203125 
Q 42.71875 10.203125 48.5 11.84375 
Q 54.296875 13.484375 60.40625 16.796875 
L 60.40625 3.328125 
Q 54.203125 0.984375 48 -0.21875 
Q 41.796875 -1.421875 35.59375 -1.421875 
Q 20.75 -1.421875 12.515625 6.125 
Q 4.296875 13.671875 4.296875 27.296875 
Q 4.296875 40.671875 12.375 48.328125 
Q 20.453125 56 34.625 56 
Q 47.515625 56 55.25 48.234375 
Q 62.984375 40.484375 62.984375 27.484375 
z
M 45.015625 33.296875 
Q 45.015625 38.28125 42.109375 41.328125 
Q 39.203125 44.390625 34.515625 44.390625 
Q 29.4375 44.390625 26.265625 41.53125 
Q 23.09375 38.671875 22.3125 33.296875 
z
" id="DejaVuSans-Bold-101"/>
       <path d="M 27.484375 70.21875 
L 27.484375 54.6875 
L 45.515625 54.6875 
L 45.515625 42.1875 
L 27.484375 42.1875 
L 27.484375 19 
Q 27.484375 15.1875 29 13.84375 
Q 30.515625 12.5 35.015625 12.5 
L 44 12.5 
L 44 0 
L 29 0 
Q 18.65625 0 14.328125 4.3125 
Q 10.015625 8.640625 10.015625 19 
L 10.015625 42.1875 
L 1.3125 42.1875 
L 1.3125 54.6875 
L 10.015625 54.6875 
L 10.015625 70.21875 
z
" id="DejaVuSans-Bold-116"/>
       <path d="M 63.375 33.296875 
L 63.375 0 
L 45.796875 0 
L 45.796875 5.421875 
L 45.796875 25.390625 
Q 45.796875 32.5625 45.484375 35.25 
Q 45.171875 37.9375 44.390625 39.203125 
Q 43.359375 40.921875 41.59375 41.875 
Q 39.84375 42.828125 37.59375 42.828125 
Q 32.125 42.828125 29 38.59375 
Q 25.875 34.375 25.875 26.90625 
L 25.875 0 
L 8.40625 0 
L 8.40625 75.984375 
L 25.875 75.984375 
L 25.875 46.6875 
Q 29.828125 51.46875 34.265625 53.734375 
Q 38.71875 56 44.09375 56 
Q 53.5625 56 58.46875 50.1875 
Q 63.375 44.390625 63.375 33.296875 
z
" id="DejaVuSans-Bold-104"/>
       <path d="M 35.890625 40.578125 
Q 41.796875 40.578125 44.359375 42.765625 
Q 46.921875 44.96875 46.921875 50 
Q 46.921875 54.984375 44.359375 57.125 
Q 41.796875 59.28125 35.890625 59.28125 
L 27.984375 59.28125 
L 27.984375 40.578125 
z
M 27.984375 27.59375 
L 27.984375 0 
L 9.1875 0 
L 9.1875 72.90625 
L 37.890625 72.90625 
Q 52.296875 72.90625 59 68.0625 
Q 65.71875 63.234375 65.71875 52.78125 
Q 65.71875 45.5625 62.21875 40.921875 
Q 58.734375 36.28125 51.703125 34.078125 
Q 55.5625 33.203125 58.609375 30.09375 
Q 61.671875 27 64.796875 20.703125 
L 75 0 
L 54.984375 0 
L 46.09375 18.109375 
Q 43.40625 23.578125 40.640625 25.578125 
Q 37.890625 27.59375 33.296875 27.59375 
z
" id="DejaVuSans-Bold-82"/>
       <path d="M 44.390625 75.984375 
L 44.390625 64.5 
L 34.71875 64.5 
Q 31 64.5 29.53125 63.15625 
Q 28.078125 61.8125 28.078125 58.5 
L 28.078125 54.6875 
L 43.015625 54.6875 
L 43.015625 42.1875 
L 28.078125 42.1875 
L 28.078125 0 
L 10.59375 0 
L 10.59375 42.1875 
L 1.90625 42.1875 
L 1.90625 54.6875 
L 10.59375 54.6875 
L 10.59375 58.5 
Q 10.59375 67.4375 15.578125 71.703125 
Q 20.5625 75.984375 31 75.984375 
z
" id="DejaVuSans-Bold-102"/>
       <path d="M 49.03125 39.796875 
Q 46.734375 40.875 44.453125 41.375 
Q 42.1875 41.890625 39.890625 41.890625 
Q 33.15625 41.890625 29.515625 37.5625 
Q 25.875 33.25 25.875 25.203125 
L 25.875 0 
L 8.40625 0 
L 8.40625 54.6875 
L 25.875 54.6875 
L 25.875 45.703125 
Q 29.25 51.078125 33.609375 53.53125 
Q 37.984375 56 44.09375 56 
Q 44.96875 56 45.984375 55.921875 
Q 47.015625 55.859375 48.96875 55.609375 
z
" id="DejaVuSans-Bold-114"/>
      </defs>
      <use xlink:href="#DejaVuSans-Bold-67"/>
      <use x="73.388672" xlink:href="#DejaVuSans-Bold-108"/>
      <use x="107.666016" xlink:href="#DejaVuSans-Bold-105"/>
      <use x="141.943359" xlink:href="#DejaVuSans-Bold-110"/>
      <use x="213.134766" xlink:href="#DejaVuSans-Bold-105"/>
      <use x="247.412109" xlink:href="#DejaVuSans-Bold-99"/>
      <use x="306.689453" xlink:href="#DejaVuSans-Bold-97"/>
      <use x="374.169922" xlink:href="#DejaVuSans-Bold-108"/>
      <use x="408.447266" xlink:href="#DejaVuSans-Bold-108"/>
      <use x="442.724609" xlink:href="#DejaVuSans-Bold-121"/>
      <use x="507.910156" xlink:href="#DejaVuSans-Bold-32"/>
      <use x="542.724609" xlink:href="#DejaVuSans-Bold-72"/>
      <use x="626.416016" xlink:href="#DejaVuSans-Bold-101"/>
      <use x="694.238281" xlink:href="#DejaVuSans-Bold-97"/>
      <use x="761.71875" xlink:href="#DejaVuSans-Bold-108"/>
      <use x="795.996094" xlink:href="#DejaVuSans-Bold-116"/>
      <use x="843.798828" xlink:href="#DejaVuSans-Bold-104"/>
      <use x="914.990234" xlink:href="#DejaVuSans-Bold-121"/>
      <use x="980.175781" xlink:href="#DejaVuSans-Bold-32"/>
      <use x="1014.990234" xlink:href="#DejaVuSans-Bold-82"/>
      <use x="1091.992188" xlink:href="#DejaVuSans-Bold-101"/>
      <use x="1159.814453" xlink:href="#DejaVuSans-Bold-102"/>
      <use x="1203.320312" xlink:href="#DejaVuSans-Bold-101"/>
      <use x="1271.142578" xlink:href="#DejaVuSans-Bold-114"/>
      <use x="1320.458984" xlink:href="#DejaVuSans-Bold-101"/>
      <use x="1388.28125" xlink:href="#DejaVuSans-Bold-110"/>
      <use x="1459.472656" xlink:href="#DejaVuSans-Bold-99"/>
      <use x="1518.75" xlink:href="#DejaVuSans-Bold-101"/>
     </g>
    </g>
   </g>
   <g id="matplotlib.axis_2"/>
  </g>
 </g>
</svg>
