<?xml version="1.0" encoding="utf-8" standalone="no"?>
<!DOCTYPE svg PUBLIC "-//W3C//DTD SVG 1.1//EN"
  "http://www.w3.org/Graphics/SVG/1.1/DTD/svg11.dtd">
<!-- Created with matplotlib (https://matplotlib.org/) -->
<svg height="288.137625pt" version="1.1" viewBox="0 0 271.163594 288.137625" width="271.163594pt" xmlns="http://www.w3.org/2000/svg" xmlns:xlink="http://www.w3.org/1999/xlink">
 <metadata>
  <rdf:RDF xmlns:cc="http://creativecommons.org/ns#" xmlns:dc="http://purl.org/dc/elements/1.1/" xmlns:rdf="http://www.w3.org/1999/02/22-rdf-syntax-ns#">
   <cc:Work>
    <dc:type rdf:resource="http://purl.org/dc/dcmitype/StillImage"/>
    <dc:date>2023-10-31T17:13:45.602890</dc:date>
    <dc:format>image/svg+xml</dc:format>
    <dc:creator>
     <cc:Agent>
      <dc:title>Matplotlib v3.3.4, https://matplotlib.org/</dc:title>
     </cc:Agent>
    </dc:creator>
   </cc:Work>
  </rdf:RDF>
 </metadata>
 <defs>
  <style type="text/css">*{stroke-linecap:butt;stroke-linejoin:round;}</style>
 </defs>
 <g id="figure_1">
  <g id="patch_1">
   <path d="M 0 288.137625 
L 271.163594 288.137625 
L 271.163594 -0 
L 0 -0 
z
" style="fill:#ffffff;"/>
  </g>
  <g id="axes_1">
   <g id="patch_2">
    <path d="M 217.123244 202.197399 
C 229.91489 186.952909 238.178774 168.422449 240.972473 148.719254 
C 243.766172 129.016059 240.979291 108.91872 232.929648 90.719163 
C 224.880006 72.519605 211.885692 56.937001 195.428593 45.748411 
C 178.971495 34.559821 159.70193 28.207372 139.817423 27.415505 
L 137.69961 80.595752 
C 147.641863 80.991686 157.276646 84.16791 165.505195 89.762205 
C 173.733744 95.356501 180.230901 103.147802 184.255723 112.247581 
C 188.280544 121.34736 189.673985 131.39603 188.277135 141.247627 
C 186.880285 151.099224 182.748343 160.364455 176.352521 167.986699 
L 217.123244 202.197399 
z
" style="fill:#1f77b4;"/>
   </g>
   <g id="patch_3">
    <path d="M 139.817423 27.415505 
C 116.349928 26.480952 93.220224 33.339008 74.054976 46.914352 
C 54.889728 60.489697 40.74586 80.033677 33.841087 102.481857 
L 84.711442 118.128929 
C 88.163829 106.904838 95.235763 97.132848 104.818387 90.345176 
C 114.401011 83.557504 125.965863 80.128476 137.69961 80.595752 
L 139.817423 27.415505 
z
" style="fill:#ff7f0e;"/>
   </g>
   <g id="patch_4">
    <path d="M 33.841087 102.481857 
C 29.230156 117.472503 27.988825 133.298599 30.206143 148.824824 
C 32.423462 164.351048 38.04511 179.197034 46.667805 192.29777 
L 91.124801 163.036885 
C 86.813454 156.486517 84.00263 149.063524 82.89397 141.300412 
C 81.785311 133.5373 82.405976 125.624251 84.711442 118.128929 
L 33.841087 102.481857 
z
" style="fill:#2ca02c;"/>
   </g>
   <g id="patch_5">
    <path d="M 46.667805 192.29777 
C 51.406497 199.497416 57.002164 206.094924 63.331773 211.945236 
C 69.661382 217.795548 76.678203 222.855471 84.227958 227.013753 
L 109.904877 180.394877 
C 106.13 178.315736 102.62159 175.785774 99.456785 172.860618 
C 96.29198 169.935462 93.494147 166.636708 91.124801 163.036885 
L 46.667805 192.29777 
z
" style="fill:#d62728;"/>
   </g>
   <g id="patch_6">
    <path d="M 84.227958 227.013753 
C 88.613151 229.429046 93.163281 231.531964 97.844453 233.306841 
C 102.525625 235.081718 107.326185 236.524136 112.210373 237.623349 
L 123.896085 185.699675 
C 121.453991 185.150068 119.053711 184.428859 116.713125 183.541421 
C 114.372539 182.653982 112.097474 181.602523 109.904877 180.394877 
L 84.227958 227.013753 
z
" style="fill:#9467bd;"/>
   </g>
   <g id="patch_7">
    <path d="M 112.210373 237.623349 
C 114.843351 238.215916 117.497914 238.708132 120.168304 239.098931 
C 122.838695 239.489729 125.522983 239.778827 128.215347 239.965599 
L 131.898572 186.870799 
C 130.55239 186.777414 129.210246 186.632865 127.875051 186.437465 
C 126.539855 186.242066 125.212574 185.995958 123.896085 185.699675 
L 112.210373 237.623349 
z
" style="fill:#8c564b;"/>
   </g>
   <g id="patch_8">
    <path d="M 128.215347 239.965599 
C 130.743353 240.140968 133.276815 240.226007 135.810891 240.220553 
C 138.344966 240.2151 140.878039 240.119156 143.405266 239.932906 
L 139.493532 186.854453 
C 138.229918 186.947578 136.963381 186.99555 135.696344 186.998277 
C 134.429306 187.001004 133.162575 186.958484 131.898572 186.870799 
L 128.215347 239.965599 
z
" style="fill:#e377c2;"/>
   </g>
   <g id="patch_9">
    <path d="M 143.405266 239.932906 
C 145.256369 239.796485 147.103587 239.61167 148.945026 239.378649 
C 150.786464 239.145629 152.621492 238.864484 154.448228 238.535502 
L 145.015013 186.155751 
C 144.101645 186.320242 143.18413 186.460815 142.263411 186.577325 
C 141.342692 186.693835 140.419083 186.786243 139.493532 186.854453 
L 143.405266 239.932906 
z
" style="fill:#7f7f7f;"/>
   </g>
   <g id="patch_10">
    <path d="M 154.448228 238.535502 
C 156.094143 238.239084 157.732844 237.903919 159.362966 237.530284 
C 160.993087 237.156649 162.614177 236.744649 164.224885 236.294627 
L 149.903341 185.035314 
C 149.097987 185.260325 148.287442 185.466325 147.472381 185.653142 
C 146.65732 185.839959 145.83797 186.007542 145.015013 186.155751 
L 154.448228 238.535502 
z
" style="fill:#bcbd22;"/>
   </g>
   <g id="patch_11">
    <path d="M 164.224885 236.294627 
C 165.805084 235.853129 167.374865 235.375155 168.932968 234.861087 
C 170.491071 234.34702 172.03708 233.796996 173.569756 233.211458 
L 154.575777 183.493729 
C 153.809438 183.786498 153.036434 184.06151 152.257382 184.318544 
C 151.478331 184.575577 150.693441 184.814565 149.903341 185.035314 
L 164.224885 236.294627 
z
" style="fill:#17becf;"/>
   </g>
   <g id="patch_12">
    <path d="M 173.569756 233.211458 
C 175.019578 232.657574 176.457113 232.072047 177.881329 231.455297 
C 179.305545 230.838547 180.716102 230.190723 182.111988 229.512288 
L 158.846892 181.644144 
C 158.148949 181.983361 157.443671 182.307274 156.731563 182.615648 
C 156.019455 182.924023 155.300687 183.216787 154.575777 183.493729 
L 173.569756 233.211458 
z
" style="fill:#1f77b4;"/>
   </g>
   <g id="patch_13">
    <path d="M 182.111988 229.512288 
C 183.428103 228.872623 184.730888 228.205887 186.019512 227.512505 
C 187.308135 226.819123 188.582324 226.099242 189.841264 225.35332 
L 162.711531 179.56466 
C 162.08206 179.937621 161.444966 180.297561 160.800654 180.644253 
C 160.156342 180.990944 159.50495 181.324312 158.846892 181.644144 
L 182.111988 229.512288 
z
" style="fill:#ff7f0e;"/>
   </g>
   <g id="patch_14">
    <path d="M 189.841264 225.35332 
C 190.626042 224.888341 191.404809 224.413293 192.177375 223.928293 
C 192.94994 223.443294 193.716239 222.948384 194.476082 222.443686 
L 165.02894 178.109843 
C 164.649018 178.362192 164.265869 178.609647 163.879586 178.852147 
C 163.493303 179.094646 163.103919 179.33217 162.711531 179.56466 
L 189.841264 225.35332 
z
" style="fill:#2ca02c;"/>
   </g>
   <g id="patch_15">
    <path d="M 194.476082 222.443686 
C 195.193711 221.967028 195.905526 221.481675 196.61137 220.987734 
C 197.317215 220.493794 198.017037 219.991303 198.710682 219.480371 
L 167.14624 176.628186 
C 166.799417 176.883651 166.449506 177.134897 166.096584 177.381867 
C 165.743661 177.628837 165.387754 177.871514 165.02894 178.109843 
L 194.476082 222.443686 
z
" style="fill:#d62728;"/>
   </g>
   <g id="patch_16">
    <path d="M 198.710682 219.480371 
C 199.383925 218.984468 200.051302 218.480649 200.712672 217.969019 
C 201.374043 217.457389 202.029362 216.937984 202.678494 216.410912 
L 169.130145 175.093456 
C 168.80558 175.356992 168.47792 175.616695 168.147235 175.87251 
C 167.816549 176.128325 167.482861 176.380234 167.14624 176.628186 
L 198.710682 219.480371 
z
" style="fill:#9467bd;"/>
   </g>
   <g id="patch_17">
    <path d="M 202.678494 216.410912 
C 203.263694 215.93575 203.84383 215.454384 204.418805 214.966897 
C 204.993779 214.47941 205.563558 213.985829 206.128047 213.486238 
L 170.854922 173.631119 
C 170.572678 173.880915 170.287788 174.127705 170.000301 174.371449 
C 169.712814 174.615192 169.422745 174.855875 169.130145 175.093456 
L 202.678494 216.410912 
z
" style="fill:#8c564b;"/>
   </g>
   <g id="patch_18">
    <path d="M 206.128047 213.486238 
C 206.630868 213.041225 207.129466 212.591464 207.623776 212.137015 
C 208.118086 211.682567 208.608084 211.223451 209.093706 210.75973 
L 172.337751 172.267865 
C 172.094941 172.499725 171.849941 172.729283 171.602786 172.956508 
C 171.355632 173.183732 171.106332 173.408612 170.854922 173.631119 
L 206.128047 213.486238 
z
" style="fill:#e377c2;"/>
   </g>
   <g id="patch_19">
    <path d="M 209.093706 210.75973 
C 209.469374 210.401003 209.842412 210.039532 210.212789 209.675344 
C 210.583166 209.311157 210.950872 208.944263 211.315878 208.574693 
L 173.448837 171.175346 
C 173.266334 171.360132 173.082481 171.543578 172.897293 171.725672 
C 172.712104 171.907766 172.525586 172.088502 172.337751 172.267865 
L 209.093706 210.75973 
z
" style="fill:#7f7f7f;"/>
   </g>
   <g id="patch_20">
    <path d="M 211.315878 208.574693 
C 211.680883 208.205123 212.043179 207.832885 212.402736 207.458011 
C 212.762292 207.083137 213.1191 206.705637 213.47313 206.325539 
L 174.527464 170.05077 
C 174.350448 170.240818 174.172045 170.429569 173.992266 170.617006 
C 173.812488 170.804443 173.63134 170.990561 173.448837 171.175346 
L 211.315878 208.574693 
z
" style="fill:#bcbd22;"/>
   </g>
   <g id="patch_21">
    <path d="M 213.47313 206.325539 
C 213.809891 205.963983 214.14413 205.600087 214.475823 205.233877 
C 214.807516 204.867667 215.136655 204.499151 215.463216 204.128358 
L 175.522507 168.952179 
C 175.359226 169.137576 175.194656 169.321833 175.02881 169.504938 
C 174.862963 169.688043 174.695844 169.869992 174.527464 170.05077 
L 213.47313 206.325539 
z
" style="fill:#17becf;"/>
   </g>
   <g id="patch_22">
    <path d="M 215.463216 204.128358 
C 215.668364 203.895424 215.872491 203.661594 216.075592 203.426875 
C 216.278694 203.192155 216.480768 202.956548 216.681808 202.720061 
L 176.131803 168.248031 
C 176.031282 168.366274 175.930245 168.484078 175.828695 168.601437 
C 175.727144 168.718797 175.62508 168.835712 175.522507 168.952179 
L 215.463216 204.128358 
z
" style="fill:#1f77b4;"/>
   </g>
   <g id="patch_23">
    <path d="M 216.681808 202.720061 
C 216.75566 202.633188 216.829372 202.546197 216.902944 202.459087 
C 216.976516 202.371978 217.049948 202.28475 217.123239 202.197405 
L 176.352518 167.986702 
C 176.315872 168.030375 176.279156 168.073989 176.24237 168.117544 
C 176.205584 168.161099 176.168728 168.204594 176.131803 168.248031 
L 216.681808 202.720061 
z
" style="fill:#ff7f0e;"/>
   </g>
   <g id="matplotlib.axis_1">
    <g id="text_1">
     <!-- Clinically Healthy Reference -->
     <g transform="translate(0.72 283.749344)scale(0.17 -0.17)">
      <defs>
       <path d="M 67 4 
Q 61.8125 1.3125 56.203125 -0.046875 
Q 50.59375 -1.421875 44.484375 -1.421875 
Q 26.265625 -1.421875 15.625 8.765625 
Q 4.984375 18.953125 4.984375 36.375 
Q 4.984375 53.859375 15.625 64.03125 
Q 26.265625 74.21875 44.484375 74.21875 
Q 50.59375 74.21875 56.203125 72.84375 
Q 61.8125 71.484375 67 68.796875 
L 67 53.71875 
Q 61.765625 57.28125 56.6875 58.9375 
Q 51.609375 60.59375 46 60.59375 
Q 35.9375 60.59375 30.171875 54.140625 
Q 24.421875 47.703125 24.421875 36.375 
Q 24.421875 25.09375 30.171875 18.640625 
Q 35.9375 12.203125 46 12.203125 
Q 51.609375 12.203125 56.6875 13.859375 
Q 61.765625 15.53125 67 19.09375 
z
" id="DejaVuSans-Bold-67"/>
       <path d="M 8.40625 75.984375 
L 25.875 75.984375 
L 25.875 0 
L 8.40625 0 
z
" id="DejaVuSans-Bold-108"/>
       <path d="M 8.40625 54.6875 
L 25.875 54.6875 
L 25.875 0 
L 8.40625 0 
z
M 8.40625 75.984375 
L 25.875 75.984375 
L 25.875 61.71875 
L 8.40625 61.71875 
z
" id="DejaVuSans-Bold-105"/>
       <path d="M 63.375 33.296875 
L 63.375 0 
L 45.796875 0 
L 45.796875 5.421875 
L 45.796875 25.484375 
Q 45.796875 32.5625 45.484375 35.25 
Q 45.171875 37.9375 44.390625 39.203125 
Q 43.359375 40.921875 41.59375 41.875 
Q 39.84375 42.828125 37.59375 42.828125 
Q 32.125 42.828125 29 38.59375 
Q 25.875 34.375 25.875 26.90625 
L 25.875 0 
L 8.40625 0 
L 8.40625 54.6875 
L 25.875 54.6875 
L 25.875 46.6875 
Q 29.828125 51.46875 34.265625 53.734375 
Q 38.71875 56 44.09375 56 
Q 53.5625 56 58.46875 50.1875 
Q 63.375 44.390625 63.375 33.296875 
z
" id="DejaVuSans-Bold-110"/>
       <path d="M 52.59375 52.984375 
L 52.59375 38.71875 
Q 49.03125 41.15625 45.4375 42.328125 
Q 41.84375 43.5 37.984375 43.5 
Q 30.671875 43.5 26.59375 39.234375 
Q 22.515625 34.96875 22.515625 27.296875 
Q 22.515625 19.625 26.59375 15.34375 
Q 30.671875 11.078125 37.984375 11.078125 
Q 42.09375 11.078125 45.78125 12.296875 
Q 49.46875 13.53125 52.59375 15.921875 
L 52.59375 1.609375 
Q 48.484375 0.09375 44.265625 -0.65625 
Q 40.046875 -1.421875 35.796875 -1.421875 
Q 21 -1.421875 12.640625 6.171875 
Q 4.296875 13.765625 4.296875 27.296875 
Q 4.296875 40.828125 12.640625 48.40625 
Q 21 56 35.796875 56 
Q 40.09375 56 44.265625 55.25 
Q 48.4375 54.5 52.59375 52.984375 
z
" id="DejaVuSans-Bold-99"/>
       <path d="M 32.90625 24.609375 
Q 27.4375 24.609375 24.671875 22.75 
Q 21.921875 20.90625 21.921875 17.28125 
Q 21.921875 13.96875 24.140625 12.078125 
Q 26.375 10.203125 30.328125 10.203125 
Q 35.25 10.203125 38.625 13.734375 
Q 42 17.28125 42 22.609375 
L 42 24.609375 
z
M 59.625 31.203125 
L 59.625 0 
L 42 0 
L 42 8.109375 
Q 38.484375 3.125 34.078125 0.84375 
Q 29.6875 -1.421875 23.390625 -1.421875 
Q 14.890625 -1.421875 9.59375 3.53125 
Q 4.296875 8.5 4.296875 16.40625 
Q 4.296875 26.03125 10.90625 30.515625 
Q 17.53125 35.015625 31.6875 35.015625 
L 42 35.015625 
L 42 36.375 
Q 42 40.53125 38.71875 42.453125 
Q 35.453125 44.390625 28.515625 44.390625 
Q 22.90625 44.390625 18.0625 43.265625 
Q 13.234375 42.140625 9.078125 39.890625 
L 9.078125 53.21875 
Q 14.703125 54.59375 20.359375 55.296875 
Q 26.03125 56 31.6875 56 
Q 46.484375 56 53.046875 50.171875 
Q 59.625 44.34375 59.625 31.203125 
z
" id="DejaVuSans-Bold-97"/>
       <path d="M 1.21875 54.6875 
L 18.703125 54.6875 
L 33.40625 17.578125 
L 45.90625 54.6875 
L 63.375 54.6875 
L 40.375 -5.171875 
Q 36.921875 -14.3125 32.296875 -17.9375 
Q 27.6875 -21.578125 20.125 -21.578125 
L 10.015625 -21.578125 
L 10.015625 -10.109375 
L 15.484375 -10.109375 
Q 19.921875 -10.109375 21.9375 -8.6875 
Q 23.96875 -7.28125 25.09375 -3.609375 
L 25.59375 -2.09375 
z
" id="DejaVuSans-Bold-121"/>
       <path id="DejaVuSans-Bold-32"/>
       <path d="M 9.1875 72.90625 
L 27.984375 72.90625 
L 27.984375 45.125 
L 55.71875 45.125 
L 55.71875 72.90625 
L 74.515625 72.90625 
L 74.515625 0 
L 55.71875 0 
L 55.71875 30.90625 
L 27.984375 30.90625 
L 27.984375 0 
L 9.1875 0 
z
" id="DejaVuSans-Bold-72"/>
       <path d="M 62.984375 27.484375 
L 62.984375 22.515625 
L 22.125 22.515625 
Q 22.75 16.359375 26.5625 13.28125 
Q 30.375 10.203125 37.203125 10.203125 
Q 42.71875 10.203125 48.5 11.84375 
Q 54.296875 13.484375 60.40625 16.796875 
L 60.40625 3.328125 
Q 54.203125 0.984375 48 -0.21875 
Q 41.796875 -1.421875 35.59375 -1.421875 
Q 20.75 -1.421875 12.515625 6.125 
Q 4.296875 13.671875 4.296875 27.296875 
Q 4.296875 40.671875 12.375 48.328125 
Q 20.453125 56 34.625 56 
Q 47.515625 56 55.25 48.234375 
Q 62.984375 40.484375 62.984375 27.484375 
z
M 45.015625 33.296875 
Q 45.015625 38.28125 42.109375 41.328125 
Q 39.203125 44.390625 34.515625 44.390625 
Q 29.4375 44.390625 26.265625 41.53125 
Q 23.09375 38.671875 22.3125 33.296875 
z
" id="DejaVuSans-Bold-101"/>
       <path d="M 27.484375 70.21875 
L 27.484375 54.6875 
L 45.515625 54.6875 
L 45.515625 42.1875 
L 27.484375 42.1875 
L 27.484375 19 
Q 27.484375 15.1875 29 13.84375 
Q 30.515625 12.5 35.015625 12.5 
L 44 12.5 
L 44 0 
L 29 0 
Q 18.65625 0 14.328125 4.3125 
Q 10.015625 8.640625 10.015625 19 
L 10.015625 42.1875 
L 1.3125 42.1875 
L 1.3125 54.6875 
L 10.015625 54.6875 
L 10.015625 70.21875 
z
" id="DejaVuSans-Bold-116"/>
       <path d="M 63.375 33.296875 
L 63.375 0 
L 45.796875 0 
L 45.796875 5.421875 
L 45.796875 25.390625 
Q 45.796875 32.5625 45.484375 35.25 
Q 45.171875 37.9375 44.390625 39.203125 
Q 43.359375 40.921875 41.59375 41.875 
Q 39.84375 42.828125 37.59375 42.828125 
Q 32.125 42.828125 29 38.59375 
Q 25.875 34.375 25.875 26.90625 
L 25.875 0 
L 8.40625 0 
L 8.40625 75.984375 
L 25.875 75.984375 
L 25.875 46.6875 
Q 29.828125 51.46875 34.265625 53.734375 
Q 38.71875 56 44.09375 56 
Q 53.5625 56 58.46875 50.1875 
Q 63.375 44.390625 63.375 33.296875 
z
" id="DejaVuSans-Bold-104"/>
       <path d="M 35.890625 40.578125 
Q 41.796875 40.578125 44.359375 42.765625 
Q 46.921875 44.96875 46.921875 50 
Q 46.921875 54.984375 44.359375 57.125 
Q 41.796875 59.28125 35.890625 59.28125 
L 27.984375 59.28125 
L 27.984375 40.578125 
z
M 27.984375 27.59375 
L 27.984375 0 
L 9.1875 0 
L 9.1875 72.90625 
L 37.890625 72.90625 
Q 52.296875 72.90625 59 68.0625 
Q 65.71875 63.234375 65.71875 52.78125 
Q 65.71875 45.5625 62.21875 40.921875 
Q 58.734375 36.28125 51.703125 34.078125 
Q 55.5625 33.203125 58.609375 30.09375 
Q 61.671875 27 64.796875 20.703125 
L 75 0 
L 54.984375 0 
L 46.09375 18.109375 
Q 43.40625 23.578125 40.640625 25.578125 
Q 37.890625 27.59375 33.296875 27.59375 
z
" id="DejaVuSans-Bold-82"/>
       <path d="M 44.390625 75.984375 
L 44.390625 64.5 
L 34.71875 64.5 
Q 31 64.5 29.53125 63.15625 
Q 28.078125 61.8125 28.078125 58.5 
L 28.078125 54.6875 
L 43.015625 54.6875 
L 43.015625 42.1875 
L 28.078125 42.1875 
L 28.078125 0 
L 10.59375 0 
L 10.59375 42.1875 
L 1.90625 42.1875 
L 1.90625 54.6875 
L 10.59375 54.6875 
L 10.59375 58.5 
Q 10.59375 67.4375 15.578125 71.703125 
Q 20.5625 75.984375 31 75.984375 
z
" id="DejaVuSans-Bold-102"/>
       <path d="M 49.03125 39.796875 
Q 46.734375 40.875 44.453125 41.375 
Q 42.1875 41.890625 39.890625 41.890625 
Q 33.15625 41.890625 29.515625 37.5625 
Q 25.875 33.25 25.875 25.203125 
L 25.875 0 
L 8.40625 0 
L 8.40625 54.6875 
L 25.875 54.6875 
L 25.875 45.703125 
Q 29.25 51.078125 33.609375 53.53125 
Q 37.984375 56 44.09375 56 
Q 44.96875 56 45.984375 55.921875 
Q 47.015625 55.859375 48.96875 55.609375 
z
" id="DejaVuSans-Bold-114"/>
      </defs>
      <use xlink:href="#DejaVuSans-Bold-67"/>
      <use x="73.388672" xlink:href="#DejaVuSans-Bold-108"/>
      <use x="107.666016" xlink:href="#DejaVuSans-Bold-105"/>
      <use x="141.943359" xlink:href="#DejaVuSans-Bold-110"/>
      <use x="213.134766" xlink:href="#DejaVuSans-Bold-105"/>
      <use x="247.412109" xlink:href="#DejaVuSans-Bold-99"/>
      <use x="306.689453" xlink:href="#DejaVuSans-Bold-97"/>
      <use x="374.169922" xlink:href="#DejaVuSans-Bold-108"/>
      <use x="408.447266" xlink:href="#DejaVuSans-Bold-108"/>
      <use x="442.724609" xlink:href="#DejaVuSans-Bold-121"/>
      <use x="507.910156" xlink:href="#DejaVuSans-Bold-32"/>
      <use x="542.724609" xlink:href="#DejaVuSans-Bold-72"/>
      <use x="626.416016" xlink:href="#DejaVuSans-Bold-101"/>
      <use x="694.238281" xlink:href="#DejaVuSans-Bold-97"/>
      <use x="761.71875" xlink:href="#DejaVuSans-Bold-108"/>
      <use x="795.996094" xlink:href="#DejaVuSans-Bold-116"/>
      <use x="843.798828" xlink:href="#DejaVuSans-Bold-104"/>
      <use x="914.990234" xlink:href="#DejaVuSans-Bold-121"/>
      <use x="980.175781" xlink:href="#DejaVuSans-Bold-32"/>
      <use x="1014.990234" xlink:href="#DejaVuSans-Bold-82"/>
      <use x="1091.992188" xlink:href="#DejaVuSans-Bold-101"/>
      <use x="1159.814453" xlink:href="#DejaVuSans-Bold-102"/>
      <use x="1203.320312" xlink:href="#DejaVuSans-Bold-101"/>
      <use x="1271.142578" xlink:href="#DejaVuSans-Bold-114"/>
      <use x="1320.458984" xlink:href="#DejaVuSans-Bold-101"/>
      <use x="1388.28125" xlink:href="#DejaVuSans-Bold-110"/>
      <use x="1459.472656" xlink:href="#DejaVuSans-Bold-99"/>
      <use x="1518.75" xlink:href="#DejaVuSans-Bold-101"/>
     </g>
    </g>
   </g>
   <g id="matplotlib.axis_2"/>
  </g>
 </g>
</svg>
