<?xml version="1.0" encoding="utf-8" standalone="no"?>
<!DOCTYPE svg PUBLIC "-//W3C//DTD SVG 1.1//EN"
  "http://www.w3.org/Graphics/SVG/1.1/DTD/svg11.dtd">
<!-- Created with matplotlib (https://matplotlib.org/) -->
<svg height="288.137625pt" version="1.1" viewBox="0 0 271.163594 288.137625" width="271.163594pt" xmlns="http://www.w3.org/2000/svg" xmlns:xlink="http://www.w3.org/1999/xlink">
 <metadata>
  <rdf:RDF xmlns:cc="http://creativecommons.org/ns#" xmlns:dc="http://purl.org/dc/elements/1.1/" xmlns:rdf="http://www.w3.org/1999/02/22-rdf-syntax-ns#">
   <cc:Work>
    <dc:type rdf:resource="http://purl.org/dc/dcmitype/StillImage"/>
    <dc:date>2024-02-22T10:57:55.326303</dc:date>
    <dc:format>image/svg+xml</dc:format>
    <dc:creator>
     <cc:Agent>
      <dc:title>Matplotlib v3.3.4, https://matplotlib.org/</dc:title>
     </cc:Agent>
    </dc:creator>
   </cc:Work>
  </rdf:RDF>
 </metadata>
 <defs>
  <style type="text/css">*{stroke-linecap:butt;stroke-linejoin:round;}</style>
 </defs>
 <g id="figure_1">
  <g id="patch_1">
   <path d="M 0 288.137625 
L 271.163594 288.137625 
L 271.163594 -0 
L 0 -0 
z
" style="fill:#ffffff;"/>
  </g>
  <g id="axes_1">
   <g id="patch_2">
    <path d="M 217.123244 202.197399 
C 227.53755 189.786113 234.982043 175.159381 238.887614 159.435378 
C 242.793184 143.711374 243.057706 127.301262 239.660956 111.459549 
C 236.264207 95.617836 229.295008 80.758764 219.286135 68.018268 
C 209.277262 55.277773 196.490434 44.989002 181.903171 37.938504 
C 167.315908 30.888006 151.309648 27.260142 135.108025 27.332254 
C 118.906403 27.404366 102.933071 31.174568 88.409146 38.354637 
C 73.885222 45.534706 61.190489 55.936894 51.295423 68.76598 
C 41.400358 81.595066 34.563705 96.515587 31.308108 112.386909 
L 83.444952 123.081454 
C 85.072751 115.145793 88.491078 107.685533 93.43861 101.27099 
C 98.386143 94.856447 104.73351 89.655353 111.995472 86.065319 
C 119.257434 82.475284 127.2441 80.590183 135.344911 80.554127 
C 143.445722 80.518071 151.448852 82.332003 158.742484 85.857252 
C 166.036116 89.382501 172.429529 94.526886 177.433966 100.897134 
C 182.438402 107.267382 185.923002 114.696918 187.621377 122.617774 
C 189.319751 130.538631 189.187491 138.743687 187.234705 146.605689 
C 185.28192 154.467691 181.559673 161.781056 176.352521 167.986699 
L 217.123244 202.197399 
z
" style="fill:#1f77b4;"/>
   </g>
   <g id="patch_3">
    <path d="M 31.308108 112.386909 
C 26.985297 133.460992 29.151103 155.358551 37.518492 175.177493 
C 45.885881 194.996436 60.068123 211.820758 78.185641 223.420725 
L 106.883719 178.598362 
C 97.82496 172.798379 90.733839 164.386218 86.550144 154.476747 
C 82.36645 144.567275 81.283547 133.618496 83.444952 123.081454 
L 31.308108 112.386909 
z
" style="fill:#ff7f0e;"/>
   </g>
   <g id="patch_4">
    <path d="M 78.185641 223.420725 
C 82.831616 226.395368 87.701817 229.004339 92.752211 231.224048 
C 97.802605 233.443757 103.017925 235.267494 108.351019 236.678771 
L 121.966408 185.227385 
C 119.299861 184.521747 116.692201 183.609878 114.167004 182.500024 
C 111.641807 181.390169 109.206706 180.085684 106.883719 178.598362 
L 78.185641 223.420725 
z
" style="fill:#2ca02c;"/>
   </g>
   <g id="patch_5">
    <path d="M 108.351019 236.678771 
C 111.904026 237.61899 115.503346 238.374562 119.134513 238.942451 
C 122.765681 239.510339 126.423825 239.889783 130.094243 240.079256 
L 132.83802 186.927628 
C 131.002811 186.832891 129.173739 186.64317 127.358155 186.359225 
C 125.542572 186.075281 123.742912 185.697495 121.966408 185.227385 
L 108.351019 236.678771 
z
" style="fill:#d62728;"/>
   </g>
   <g id="patch_6">
    <path d="M 130.094243 240.079256 
C 133.133998 240.236173 136.179085 240.262635 139.221108 240.158568 
C 142.26313 240.054502 145.29929 239.820003 148.321215 239.455717 
L 141.951506 186.615859 
C 140.440543 186.798001 138.922464 186.915251 137.401452 186.967284 
C 135.880441 187.019317 134.357897 187.006087 132.83802 186.927628 
L 130.094243 240.079256 
z
" style="fill:#9467bd;"/>
   </g>
   <g id="patch_7">
    <path d="M 148.321215 239.455717 
C 150.319204 239.214865 152.309962 238.9174 154.291086 238.56368 
C 156.272211 238.209961 158.242906 237.80013 160.200795 237.334681 
L 147.891296 185.55534 
C 146.912351 185.788065 145.927004 185.99298 144.936442 186.16984 
C 143.945879 186.3467 142.950501 186.495432 141.951506 186.615859 
L 148.321215 239.455717 
z
" style="fill:#8c564b;"/>
   </g>
   <g id="patch_8">
    <path d="M 160.200795 237.334681 
C 162.03459 236.898733 163.856483 236.414153 165.664545 235.881454 
C 167.472607 235.348755 169.266201 234.768125 171.043429 234.140177 
L 153.312613 183.958089 
C 152.423999 184.272062 151.527202 184.562377 150.623171 184.828727 
C 149.71914 185.095076 148.808194 185.337366 147.891296 185.55534 
L 160.200795 237.334681 
z
" style="fill:#e377c2;"/>
   </g>
   <g id="patch_9">
    <path d="M 171.043429 234.140177 
C 172.313132 233.691554 173.574208 233.218876 174.825975 232.722399 
C 176.077742 232.225923 177.319974 231.705737 178.552002 231.162123 
L 157.0669 182.469061 
C 156.450886 182.740869 155.829769 183.000961 155.203886 183.2492 
C 154.578002 183.497438 153.947465 183.733777 153.312613 183.958089 
L 171.043429 234.140177 
z
" style="fill:#7f7f7f;"/>
   </g>
   <g id="patch_10">
    <path d="M 178.552002 231.162123 
C 179.716787 230.648178 180.872258 230.113378 182.017857 229.55798 
C 183.163456 229.002583 184.298998 228.426677 185.423936 227.830541 
L 160.502866 180.80327 
C 159.940397 181.101338 159.372626 181.389291 158.799827 181.66699 
C 158.227028 181.944689 157.649292 182.212089 157.0669 182.469061 
L 178.552002 231.162123 
z
" style="fill:#bcbd22;"/>
   </g>
   <g id="patch_11">
    <path d="M 185.423936 227.830541 
C 186.503033 227.258697 187.57221 226.668324 188.63099 226.059685 
C 189.689771 225.451046 190.737998 224.824231 191.775207 224.179518 
L 163.678502 178.977759 
C 163.159897 179.300116 162.635784 179.613523 162.106393 179.917843 
C 161.577003 180.222162 161.042415 180.517348 160.502866 180.80327 
L 185.423936 227.830541 
z
" style="fill:#17becf;"/>
   </g>
   <g id="patch_12">
    <path d="M 191.775207 224.179518 
C 192.689416 223.61126 193.594952 223.029168 194.491504 222.433441 
C 195.388055 221.837715 196.275519 221.228423 197.153588 220.605776 
L 166.367692 177.190888 
C 165.928658 177.502211 165.484926 177.806857 165.03665 178.104721 
C 164.588375 178.402584 164.135606 178.69363 163.678502 178.977759 
L 191.775207 224.179518 
z
" style="fill:#1f77b4;"/>
   </g>
   <g id="patch_13">
    <path d="M 197.153588 220.605776 
C 197.791855 220.153175 198.425113 219.693549 199.053245 219.226984 
C 199.681377 218.760419 200.304346 218.286942 200.922038 217.806639 
L 168.251917 175.79132 
C 167.943072 176.031471 167.631587 176.268209 167.317521 176.501492 
C 167.003455 176.734775 166.686826 176.964587 166.367692 177.190888 
L 197.153588 220.605776 
z
" style="fill:#ff7f0e;"/>
   </g>
   <g id="patch_14">
    <path d="M 200.922038 217.806639 
C 201.49707 217.359508 202.067498 216.906485 202.63323 216.447644 
C 203.198963 215.988802 203.759971 215.524166 204.316165 215.053808 
L 169.948981 174.414904 
C 169.670884 174.650083 169.39038 174.882401 169.107514 175.111822 
C 168.824647 175.341243 168.539434 175.567754 168.251917 175.79132 
L 200.922038 217.806639 
z
" style="fill:#2ca02c;"/>
   </g>
   <g id="patch_15">
    <path d="M 204.316165 215.053808 
C 204.677608 214.748146 205.037007 214.440077 205.39434 214.12962 
C 205.751672 213.819164 206.10693 213.506327 206.460089 213.191132 
L 171.020943 173.483566 
C 170.844364 173.641164 170.666735 173.797582 170.488068 173.95281 
C 170.309402 174.108038 170.129702 174.262073 169.948981 174.414904 
L 204.316165 215.053808 
z
" style="fill:#d62728;"/>
   </g>
   <g id="patch_16">
    <path d="M 206.460089 213.191132 
C 206.682626 212.992517 206.904327 212.792967 207.125186 212.592488 
C 207.346046 212.39201 207.566062 212.190604 207.785228 211.988275 
L 171.683512 172.882138 
C 171.573929 172.983302 171.463921 173.084005 171.353492 173.184244 
C 171.243062 173.284484 171.132211 173.384258 171.020943 173.483566 
L 206.460089 213.191132 
z
" style="fill:#9467bd;"/>
   </g>
   <g id="patch_17">
    <path d="M 207.785228 211.988275 
C 207.986926 211.802073 208.187903 211.615091 208.388155 211.427334 
C 208.588407 211.239576 208.787932 211.051045 208.986725 210.861744 
L 172.284261 172.318872 
C 172.184864 172.413523 172.085102 172.507788 171.984976 172.601667 
C 171.88485 172.695546 171.784361 172.789036 171.683512 172.882138 
L 207.785228 211.988275 
z
" style="fill:#8c564b;"/>
   </g>
   <g id="patch_18">
    <path d="M 208.986725 210.861744 
C 209.166733 210.690332 209.34614 210.518289 209.524942 210.34562 
C 209.703745 210.172951 209.881942 209.999656 210.05953 209.825738 
L 172.820664 171.800869 
C 172.731869 171.887828 172.642771 171.974475 172.553369 172.06081 
C 172.463968 172.147145 172.374265 172.233166 172.284261 172.318872 
L 208.986725 210.861744 
z
" style="fill:#e377c2;"/>
   </g>
   <g id="patch_19">
    <path d="M 210.05953 209.825738 
C 210.203146 209.685092 210.346362 209.544038 210.489178 209.40258 
C 210.631994 209.261123 210.774409 209.11926 210.916422 208.976996 
L 173.249109 171.376498 
C 173.178103 171.44763 173.106896 171.518561 173.035488 171.58929 
C 172.964079 171.660019 172.892471 171.730546 172.820664 171.800869 
L 210.05953 209.825738 
z
" style="fill:#7f7f7f;"/>
   </g>
   <g id="patch_20">
    <path d="M 210.916422 208.976996 
C 211.050798 208.84238 211.184814 208.707405 211.318467 208.572071 
C 211.45212 208.436738 211.58541 208.301046 211.718335 208.164998 
L 173.650066 170.970499 
C 173.583603 171.038523 173.516958 171.106369 173.450132 171.174036 
C 173.383305 171.241702 173.316298 171.30919 173.249109 171.376498 
L 210.916422 208.976996 
z
" style="fill:#bcbd22;"/>
   </g>
   <g id="patch_21">
    <path d="M 211.718335 208.164998 
C 211.837665 208.042865 211.9567 207.920445 212.075441 207.79774 
C 212.194181 207.675034 212.312626 207.552043 212.430774 207.428767 
L 174.006286 170.602384 
C 173.947211 170.664021 173.887989 170.725517 173.828619 170.78687 
C 173.769249 170.848223 173.709731 170.909432 173.650066 170.970499 
L 211.718335 208.164998 
z
" style="fill:#17becf;"/>
   </g>
   <g id="patch_22">
    <path d="M 212.430774 207.428767 
C 212.542943 207.311731 212.654845 207.194438 212.766478 207.07689 
C 212.878111 206.959342 212.989476 206.841539 213.100571 206.723482 
L 174.341184 170.249741 
C 174.285636 170.30877 174.229954 170.367671 174.174137 170.426445 
C 174.118321 170.485219 174.06237 170.543865 174.006286 170.602384 
L 212.430774 207.428767 
z
" style="fill:#1f77b4;"/>
   </g>
   <g id="patch_23">
    <path d="M 213.100571 206.723482 
C 213.19537 206.622742 213.289973 206.521817 213.384379 206.420708 
C 213.478785 206.319599 213.572994 206.218306 213.667005 206.11683 
L 174.624401 169.946415 
C 174.577395 169.997153 174.530291 170.0478 174.483088 170.098354 
C 174.435885 170.148909 174.388583 170.199371 174.341184 170.249741 
L 213.100571 206.723482 
z
" style="fill:#ff7f0e;"/>
   </g>
   <g id="patch_24">
    <path d="M 213.667005 206.11683 
C 213.752202 206.024868 213.837236 205.932756 213.922107 205.840494 
C 214.006978 205.748232 214.091686 205.65582 214.176231 205.563258 
L 174.879014 169.669629 
C 174.836741 169.71591 174.794387 169.762116 174.751952 169.808247 
C 174.709516 169.854378 174.666999 169.900434 174.624401 169.946415 
L 213.667005 206.11683 
z
" style="fill:#2ca02c;"/>
   </g>
   <g id="patch_25">
    <path d="M 214.176231 205.563258 
C 214.254944 205.477081 214.333515 205.390774 214.411945 205.304339 
C 214.490374 205.217903 214.568661 205.131339 214.646806 205.044646 
L 175.114301 169.410323 
C 175.075229 169.453669 175.036085 169.496952 174.996871 169.540169 
C 174.957656 169.583387 174.91837 169.626541 174.879014 169.669629 
L 214.176231 205.563258 
z
" style="fill:#d62728;"/>
   </g>
   <g id="patch_26">
    <path d="M 214.646806 205.044646 
C 214.723503 204.959558 214.800063 204.874347 214.876485 204.789012 
C 214.952907 204.703677 215.029192 204.618219 215.105338 204.532638 
L 175.343567 169.154319 
C 175.305494 169.19711 175.267352 169.239839 175.229141 169.282506 
C 175.19093 169.325173 175.15265 169.367779 175.114301 169.410323 
L 214.646806 205.044646 
z
" style="fill:#9467bd;"/>
   </g>
   <g id="patch_27">
    <path d="M 215.105338 204.532638 
C 215.171429 204.458358 215.237416 204.383986 215.303299 204.309521 
C 215.369182 204.235056 215.43496 204.160498 215.500634 204.085849 
L 175.541216 168.930924 
C 175.508379 168.968249 175.475489 169.005528 175.442548 169.04276 
C 175.409607 169.079993 175.376613 169.117179 175.343567 169.154319 
L 215.105338 204.532638 
z
" style="fill:#8c564b;"/>
   </g>
   <g id="patch_28">
    <path d="M 215.500634 204.085849 
C 215.554886 204.024183 215.609065 203.962455 215.663174 203.900664 
C 215.717282 203.838873 215.771319 203.77702 215.825284 203.715104 
L 175.70354 168.745552 
C 175.676558 168.77651 175.649539 168.807437 175.622485 168.838332 
C 175.595431 168.869228 175.568341 168.900092 175.541216 168.930924 
L 215.500634 204.085849 
z
" style="fill:#e377c2;"/>
   </g>
   <g id="patch_29">
    <path d="M 215.825284 203.715104 
C 215.873568 203.659706 215.921794 203.604258 215.969963 203.548761 
C 216.018133 203.493263 216.066244 203.437716 216.114298 203.382118 
L 175.848047 168.579059 
C 175.82402 168.606858 175.799965 168.634631 175.77588 168.66238 
C 175.751796 168.690129 175.727682 168.717853 175.70354 168.745552 
L 215.825284 203.715104 
z
" style="fill:#7f7f7f;"/>
   </g>
   <g id="patch_30">
    <path d="M 216.114298 203.382118 
C 216.156698 203.333063 216.199053 203.283969 216.241363 203.234836 
C 216.283673 203.185703 216.325938 203.136531 216.368158 203.087321 
L 175.974978 168.431661 
C 175.953868 168.456266 175.932735 168.480851 175.91158 168.505418 
C 175.890425 168.529984 175.869247 168.554531 175.848047 168.579059 
L 216.114298 203.382118 
z
" style="fill:#bcbd22;"/>
   </g>
   <g id="patch_31">
    <path d="M 216.368158 203.087321 
C 216.406156 203.043033 216.444117 202.998713 216.482042 202.954362 
C 216.519966 202.910012 216.557855 202.86563 216.595706 202.821216 
L 176.088752 168.298608 
C 176.069826 168.320815 176.050882 168.343006 176.031919 168.365181 
C 176.012957 168.387357 175.993976 168.409516 175.974978 168.431661 
L 216.368158 203.087321 
z
" style="fill:#17becf;"/>
   </g>
   <g id="patch_32">
    <path d="M 216.595706 202.821216 
C 216.616735 202.796542 216.637753 202.771858 216.65876 202.747165 
C 216.679766 202.722471 216.700761 202.697768 216.721745 202.673055 
L 176.151771 168.224528 
C 176.141279 168.236884 176.130782 168.249235 176.120278 168.261582 
C 176.109775 168.273929 176.099266 168.286271 176.088752 168.298608 
L 216.595706 202.821216 
z
" style="fill:#1f77b4;"/>
   </g>
   <g id="patch_33">
    <path d="M 216.721745 202.673055 
C 216.742729 202.648342 216.763702 202.62362 216.784663 202.598888 
C 216.805625 202.574156 216.826575 202.549415 216.847514 202.524664 
L 176.214655 168.150332 
C 176.204186 168.162707 176.193711 168.175078 176.18323 168.187444 
C 176.172749 168.19981 176.162263 168.212171 176.151771 168.224528 
L 216.721745 202.673055 
z
" style="fill:#ff7f0e;"/>
   </g>
   <g id="patch_34">
    <path d="M 216.847514 202.524664 
C 216.864264 202.504863 216.881007 202.485057 216.897743 202.465245 
C 216.914479 202.445433 216.931207 202.425614 216.947929 202.40579 
L 176.264863 168.090895 
C 176.256502 168.100807 176.248138 168.110716 176.23977 168.120622 
C 176.231402 168.130529 176.22303 168.140432 176.214655 168.150332 
L 216.847514 202.524664 
z
" style="fill:#2ca02c;"/>
   </g>
   <g id="patch_35">
    <path d="M 216.947929 202.40579 
C 216.963256 202.387618 216.978578 202.36944 216.993893 202.351258 
C 217.009209 202.333075 217.024518 202.314888 217.039822 202.296695 
L 176.310809 168.036348 
C 176.303158 168.045444 176.295503 168.054538 176.287845 168.063629 
C 176.280187 168.07272 176.272527 168.081809 176.264863 168.090895 
L 216.947929 202.40579 
z
" style="fill:#d62728;"/>
   </g>
   <g id="patch_36">
    <path d="M 217.039822 202.296695 
C 217.053733 202.280157 217.06764 202.263614 217.081542 202.247067 
C 217.095444 202.23052 217.10934 202.213969 217.123232 202.197414 
L 176.352514 167.986707 
C 176.345569 167.994984 176.33862 168.00326 176.331669 168.011534 
C 176.324718 168.019807 176.317765 168.028078 176.310809 168.036348 
L 217.039822 202.296695 
z
" style="fill:#9467bd;"/>
   </g>
   <g id="matplotlib.axis_1">
    <g id="text_1">
     <!-- Clinically Healthy Reference -->
     <g transform="translate(0.72 283.749344)scale(0.17 -0.17)">
      <defs>
       <path d="M 67 4 
Q 61.8125 1.3125 56.203125 -0.046875 
Q 50.59375 -1.421875 44.484375 -1.421875 
Q 26.265625 -1.421875 15.625 8.765625 
Q 4.984375 18.953125 4.984375 36.375 
Q 4.984375 53.859375 15.625 64.03125 
Q 26.265625 74.21875 44.484375 74.21875 
Q 50.59375 74.21875 56.203125 72.84375 
Q 61.8125 71.484375 67 68.796875 
L 67 53.71875 
Q 61.765625 57.28125 56.6875 58.9375 
Q 51.609375 60.59375 46 60.59375 
Q 35.9375 60.59375 30.171875 54.140625 
Q 24.421875 47.703125 24.421875 36.375 
Q 24.421875 25.09375 30.171875 18.640625 
Q 35.9375 12.203125 46 12.203125 
Q 51.609375 12.203125 56.6875 13.859375 
Q 61.765625 15.53125 67 19.09375 
z
" id="DejaVuSans-Bold-67"/>
       <path d="M 8.40625 75.984375 
L 25.875 75.984375 
L 25.875 0 
L 8.40625 0 
z
" id="DejaVuSans-Bold-108"/>
       <path d="M 8.40625 54.6875 
L 25.875 54.6875 
L 25.875 0 
L 8.40625 0 
z
M 8.40625 75.984375 
L 25.875 75.984375 
L 25.875 61.71875 
L 8.40625 61.71875 
z
" id="DejaVuSans-Bold-105"/>
       <path d="M 63.375 33.296875 
L 63.375 0 
L 45.796875 0 
L 45.796875 5.421875 
L 45.796875 25.484375 
Q 45.796875 32.5625 45.484375 35.25 
Q 45.171875 37.9375 44.390625 39.203125 
Q 43.359375 40.921875 41.59375 41.875 
Q 39.84375 42.828125 37.59375 42.828125 
Q 32.125 42.828125 29 38.59375 
Q 25.875 34.375 25.875 26.90625 
L 25.875 0 
L 8.40625 0 
L 8.40625 54.6875 
L 25.875 54.6875 
L 25.875 46.6875 
Q 29.828125 51.46875 34.265625 53.734375 
Q 38.71875 56 44.09375 56 
Q 53.5625 56 58.46875 50.1875 
Q 63.375 44.390625 63.375 33.296875 
z
" id="DejaVuSans-Bold-110"/>
       <path d="M 52.59375 52.984375 
L 52.59375 38.71875 
Q 49.03125 41.15625 45.4375 42.328125 
Q 41.84375 43.5 37.984375 43.5 
Q 30.671875 43.5 26.59375 39.234375 
Q 22.515625 34.96875 22.515625 27.296875 
Q 22.515625 19.625 26.59375 15.34375 
Q 30.671875 11.078125 37.984375 11.078125 
Q 42.09375 11.078125 45.78125 12.296875 
Q 49.46875 13.53125 52.59375 15.921875 
L 52.59375 1.609375 
Q 48.484375 0.09375 44.265625 -0.65625 
Q 40.046875 -1.421875 35.796875 -1.421875 
Q 21 -1.421875 12.640625 6.171875 
Q 4.296875 13.765625 4.296875 27.296875 
Q 4.296875 40.828125 12.640625 48.40625 
Q 21 56 35.796875 56 
Q 40.09375 56 44.265625 55.25 
Q 48.4375 54.5 52.59375 52.984375 
z
" id="DejaVuSans-Bold-99"/>
       <path d="M 32.90625 24.609375 
Q 27.4375 24.609375 24.671875 22.75 
Q 21.921875 20.90625 21.921875 17.28125 
Q 21.921875 13.96875 24.140625 12.078125 
Q 26.375 10.203125 30.328125 10.203125 
Q 35.25 10.203125 38.625 13.734375 
Q 42 17.28125 42 22.609375 
L 42 24.609375 
z
M 59.625 31.203125 
L 59.625 0 
L 42 0 
L 42 8.109375 
Q 38.484375 3.125 34.078125 0.84375 
Q 29.6875 -1.421875 23.390625 -1.421875 
Q 14.890625 -1.421875 9.59375 3.53125 
Q 4.296875 8.5 4.296875 16.40625 
Q 4.296875 26.03125 10.90625 30.515625 
Q 17.53125 35.015625 31.6875 35.015625 
L 42 35.015625 
L 42 36.375 
Q 42 40.53125 38.71875 42.453125 
Q 35.453125 44.390625 28.515625 44.390625 
Q 22.90625 44.390625 18.0625 43.265625 
Q 13.234375 42.140625 9.078125 39.890625 
L 9.078125 53.21875 
Q 14.703125 54.59375 20.359375 55.296875 
Q 26.03125 56 31.6875 56 
Q 46.484375 56 53.046875 50.171875 
Q 59.625 44.34375 59.625 31.203125 
z
" id="DejaVuSans-Bold-97"/>
       <path d="M 1.21875 54.6875 
L 18.703125 54.6875 
L 33.40625 17.578125 
L 45.90625 54.6875 
L 63.375 54.6875 
L 40.375 -5.171875 
Q 36.921875 -14.3125 32.296875 -17.9375 
Q 27.6875 -21.578125 20.125 -21.578125 
L 10.015625 -21.578125 
L 10.015625 -10.109375 
L 15.484375 -10.109375 
Q 19.921875 -10.109375 21.9375 -8.6875 
Q 23.96875 -7.28125 25.09375 -3.609375 
L 25.59375 -2.09375 
z
" id="DejaVuSans-Bold-121"/>
       <path id="DejaVuSans-Bold-32"/>
       <path d="M 9.1875 72.90625 
L 27.984375 72.90625 
L 27.984375 45.125 
L 55.71875 45.125 
L 55.71875 72.90625 
L 74.515625 72.90625 
L 74.515625 0 
L 55.71875 0 
L 55.71875 30.90625 
L 27.984375 30.90625 
L 27.984375 0 
L 9.1875 0 
z
" id="DejaVuSans-Bold-72"/>
       <path d="M 62.984375 27.484375 
L 62.984375 22.515625 
L 22.125 22.515625 
Q 22.75 16.359375 26.5625 13.28125 
Q 30.375 10.203125 37.203125 10.203125 
Q 42.71875 10.203125 48.5 11.84375 
Q 54.296875 13.484375 60.40625 16.796875 
L 60.40625 3.328125 
Q 54.203125 0.984375 48 -0.21875 
Q 41.796875 -1.421875 35.59375 -1.421875 
Q 20.75 -1.421875 12.515625 6.125 
Q 4.296875 13.671875 4.296875 27.296875 
Q 4.296875 40.671875 12.375 48.328125 
Q 20.453125 56 34.625 56 
Q 47.515625 56 55.25 48.234375 
Q 62.984375 40.484375 62.984375 27.484375 
z
M 45.015625 33.296875 
Q 45.015625 38.28125 42.109375 41.328125 
Q 39.203125 44.390625 34.515625 44.390625 
Q 29.4375 44.390625 26.265625 41.53125 
Q 23.09375 38.671875 22.3125 33.296875 
z
" id="DejaVuSans-Bold-101"/>
       <path d="M 27.484375 70.21875 
L 27.484375 54.6875 
L 45.515625 54.6875 
L 45.515625 42.1875 
L 27.484375 42.1875 
L 27.484375 19 
Q 27.484375 15.1875 29 13.84375 
Q 30.515625 12.5 35.015625 12.5 
L 44 12.5 
L 44 0 
L 29 0 
Q 18.65625 0 14.328125 4.3125 
Q 10.015625 8.640625 10.015625 19 
L 10.015625 42.1875 
L 1.3125 42.1875 
L 1.3125 54.6875 
L 10.015625 54.6875 
L 10.015625 70.21875 
z
" id="DejaVuSans-Bold-116"/>
       <path d="M 63.375 33.296875 
L 63.375 0 
L 45.796875 0 
L 45.796875 5.421875 
L 45.796875 25.390625 
Q 45.796875 32.5625 45.484375 35.25 
Q 45.171875 37.9375 44.390625 39.203125 
Q 43.359375 40.921875 41.59375 41.875 
Q 39.84375 42.828125 37.59375 42.828125 
Q 32.125 42.828125 29 38.59375 
Q 25.875 34.375 25.875 26.90625 
L 25.875 0 
L 8.40625 0 
L 8.40625 75.984375 
L 25.875 75.984375 
L 25.875 46.6875 
Q 29.828125 51.46875 34.265625 53.734375 
Q 38.71875 56 44.09375 56 
Q 53.5625 56 58.46875 50.1875 
Q 63.375 44.390625 63.375 33.296875 
z
" id="DejaVuSans-Bold-104"/>
       <path d="M 35.890625 40.578125 
Q 41.796875 40.578125 44.359375 42.765625 
Q 46.921875 44.96875 46.921875 50 
Q 46.921875 54.984375 44.359375 57.125 
Q 41.796875 59.28125 35.890625 59.28125 
L 27.984375 59.28125 
L 27.984375 40.578125 
z
M 27.984375 27.59375 
L 27.984375 0 
L 9.1875 0 
L 9.1875 72.90625 
L 37.890625 72.90625 
Q 52.296875 72.90625 59 68.0625 
Q 65.71875 63.234375 65.71875 52.78125 
Q 65.71875 45.5625 62.21875 40.921875 
Q 58.734375 36.28125 51.703125 34.078125 
Q 55.5625 33.203125 58.609375 30.09375 
Q 61.671875 27 64.796875 20.703125 
L 75 0 
L 54.984375 0 
L 46.09375 18.109375 
Q 43.40625 23.578125 40.640625 25.578125 
Q 37.890625 27.59375 33.296875 27.59375 
z
" id="DejaVuSans-Bold-82"/>
       <path d="M 44.390625 75.984375 
L 44.390625 64.5 
L 34.71875 64.5 
Q 31 64.5 29.53125 63.15625 
Q 28.078125 61.8125 28.078125 58.5 
L 28.078125 54.6875 
L 43.015625 54.6875 
L 43.015625 42.1875 
L 28.078125 42.1875 
L 28.078125 0 
L 10.59375 0 
L 10.59375 42.1875 
L 1.90625 42.1875 
L 1.90625 54.6875 
L 10.59375 54.6875 
L 10.59375 58.5 
Q 10.59375 67.4375 15.578125 71.703125 
Q 20.5625 75.984375 31 75.984375 
z
" id="DejaVuSans-Bold-102"/>
       <path d="M 49.03125 39.796875 
Q 46.734375 40.875 44.453125 41.375 
Q 42.1875 41.890625 39.890625 41.890625 
Q 33.15625 41.890625 29.515625 37.5625 
Q 25.875 33.25 25.875 25.203125 
L 25.875 0 
L 8.40625 0 
L 8.40625 54.6875 
L 25.875 54.6875 
L 25.875 45.703125 
Q 29.25 51.078125 33.609375 53.53125 
Q 37.984375 56 44.09375 56 
Q 44.96875 56 45.984375 55.921875 
Q 47.015625 55.859375 48.96875 55.609375 
z
" id="DejaVuSans-Bold-114"/>
      </defs>
      <use xlink:href="#DejaVuSans-Bold-67"/>
      <use x="73.388672" xlink:href="#DejaVuSans-Bold-108"/>
      <use x="107.666016" xlink:href="#DejaVuSans-Bold-105"/>
      <use x="141.943359" xlink:href="#DejaVuSans-Bold-110"/>
      <use x="213.134766" xlink:href="#DejaVuSans-Bold-105"/>
      <use x="247.412109" xlink:href="#DejaVuSans-Bold-99"/>
      <use x="306.689453" xlink:href="#DejaVuSans-Bold-97"/>
      <use x="374.169922" xlink:href="#DejaVuSans-Bold-108"/>
      <use x="408.447266" xlink:href="#DejaVuSans-Bold-108"/>
      <use x="442.724609" xlink:href="#DejaVuSans-Bold-121"/>
      <use x="507.910156" xlink:href="#DejaVuSans-Bold-32"/>
      <use x="542.724609" xlink:href="#DejaVuSans-Bold-72"/>
      <use x="626.416016" xlink:href="#DejaVuSans-Bold-101"/>
      <use x="694.238281" xlink:href="#DejaVuSans-Bold-97"/>
      <use x="761.71875" xlink:href="#DejaVuSans-Bold-108"/>
      <use x="795.996094" xlink:href="#DejaVuSans-Bold-116"/>
      <use x="843.798828" xlink:href="#DejaVuSans-Bold-104"/>
      <use x="914.990234" xlink:href="#DejaVuSans-Bold-121"/>
      <use x="980.175781" xlink:href="#DejaVuSans-Bold-32"/>
      <use x="1014.990234" xlink:href="#DejaVuSans-Bold-82"/>
      <use x="1091.992188" xlink:href="#DejaVuSans-Bold-101"/>
      <use x="1159.814453" xlink:href="#DejaVuSans-Bold-102"/>
      <use x="1203.320312" xlink:href="#DejaVuSans-Bold-101"/>
      <use x="1271.142578" xlink:href="#DejaVuSans-Bold-114"/>
      <use x="1320.458984" xlink:href="#DejaVuSans-Bold-101"/>
      <use x="1388.28125" xlink:href="#DejaVuSans-Bold-110"/>
      <use x="1459.472656" xlink:href="#DejaVuSans-Bold-99"/>
      <use x="1518.75" xlink:href="#DejaVuSans-Bold-101"/>
     </g>
    </g>
   </g>
   <g id="matplotlib.axis_2"/>
  </g>
 </g>
</svg>
