<?xml version="1.0" encoding="utf-8" standalone="no"?>
<!DOCTYPE svg PUBLIC "-//W3C//DTD SVG 1.1//EN"
  "http://www.w3.org/Graphics/SVG/1.1/DTD/svg11.dtd">
<!-- Created with matplotlib (https://matplotlib.org/) -->
<svg height="288.137625pt" version="1.1" viewBox="0 0 271.163594 288.137625" width="271.163594pt" xmlns="http://www.w3.org/2000/svg" xmlns:xlink="http://www.w3.org/1999/xlink">
 <metadata>
  <rdf:RDF xmlns:cc="http://creativecommons.org/ns#" xmlns:dc="http://purl.org/dc/elements/1.1/" xmlns:rdf="http://www.w3.org/1999/02/22-rdf-syntax-ns#">
   <cc:Work>
    <dc:type rdf:resource="http://purl.org/dc/dcmitype/StillImage"/>
    <dc:date>2024-02-20T15:31:27.403251</dc:date>
    <dc:format>image/svg+xml</dc:format>
    <dc:creator>
     <cc:Agent>
      <dc:title>Matplotlib v3.3.4, https://matplotlib.org/</dc:title>
     </cc:Agent>
    </dc:creator>
   </cc:Work>
  </rdf:RDF>
 </metadata>
 <defs>
  <style type="text/css">*{stroke-linecap:butt;stroke-linejoin:round;}</style>
 </defs>
 <g id="figure_1">
  <g id="patch_1">
   <path d="M 0 288.137625 
L 271.163594 288.137625 
L 271.163594 -0 
L 0 -0 
z
" style="fill:#ffffff;"/>
  </g>
  <g id="axes_1">
   <g id="patch_2">
    <path d="M 217.123244 202.197399 
C 226.303955 191.256254 233.189347 178.578407 237.368323 164.920799 
C 241.547299 151.263191 242.935001 136.903153 241.448575 122.698061 
C 239.962149 108.492969 235.631778 94.731272 228.716011 82.234622 
C 221.800244 69.737972 212.439511 58.760126 201.192703 49.956525 
C 189.945895 41.152923 177.041389 34.702331 163.249657 30.989887 
C 149.457926 27.277443 135.059024 26.378531 120.912649 28.346822 
C 106.766274 30.315113 93.159681 35.110638 80.905263 42.447077 
C 68.650846 49.783516 57.99744 59.511896 49.581117 71.051376 
L 92.581457 102.413688 
C 96.789619 96.643948 102.116321 91.779758 108.24353 88.111539 
C 114.370739 84.443319 121.174035 82.045556 128.247223 81.061411 
C 135.32041 80.077266 142.519861 80.526722 149.415727 82.382944 
C 156.311593 84.239166 162.763846 87.464461 168.38725 91.866262 
C 174.010654 96.268063 178.69102 101.756986 182.148904 108.005311 
C 185.606788 114.253636 187.771973 121.134485 188.515186 128.237031 
C 189.258399 135.339577 188.564548 142.519596 186.47506 149.3484 
C 184.385572 156.177204 180.942876 162.516127 176.352521 167.986699 
L 217.123244 202.197399 
z
" style="fill:#1f77b4;"/>
   </g>
   <g id="patch_3">
    <path d="M 49.581117 71.051376 
C 39.406335 85.001849 32.777146 101.2208 30.267413 118.304217 
C 27.757681 135.387634 29.441976 152.827922 35.174495 169.115344 
L 85.378146 151.445672 
C 82.511886 143.301961 81.669739 134.581817 82.924605 126.040108 
C 84.179471 117.4984 87.494066 109.388925 92.581457 102.413688 
L 49.581117 71.051376 
z
" style="fill:#ff7f0e;"/>
   </g>
   <g id="patch_4">
    <path d="M 35.174495 169.115344 
C 38.400862 178.282204 42.867441 186.964198 48.449605 194.919083 
C 54.031769 202.873968 60.677114 210.027063 68.200219 216.178781 
L 101.891008 174.977391 
C 98.129455 171.901532 94.806783 168.324984 92.015701 164.347542 
C 89.224619 160.370099 86.99133 156.029102 85.378146 151.445672 
L 35.174495 169.115344 
z
" style="fill:#2ca02c;"/>
   </g>
   <g id="patch_5">
    <path d="M 68.200219 216.178781 
C 73.386494 220.41965 78.961575 224.161443 84.851218 227.35433 
C 90.740862 230.547217 96.918806 233.176961 103.302778 235.208541 
L 119.442287 184.492271 
C 116.250301 183.47648 113.161329 182.161608 110.216508 180.565165 
C 107.271686 178.968722 104.484145 177.097825 101.891008 174.977391 
L 68.200219 216.178781 
z
" style="fill:#d62728;"/>
   </g>
   <g id="patch_6">
    <path d="M 103.302778 235.208541 
C 105.798035 236.00261 108.321743 236.704333 110.868752 237.312278 
C 113.415761 237.920223 115.984336 238.433975 118.569234 238.852487 
L 127.075515 186.314244 
C 125.783066 186.104988 124.498779 185.848111 123.225274 185.544139 
C 121.95177 185.240167 120.689916 184.889305 119.442287 184.492271 
L 103.302778 235.208541 
z
" style="fill:#9467bd;"/>
   </g>
   <g id="patch_7">
    <path d="M 118.569234 238.852487 
C 120.757294 239.206748 122.955886 239.492578 125.161793 239.709559 
C 127.3677 239.92654 129.579847 240.074566 131.794997 240.153421 
L 133.688397 186.96471 
C 132.580822 186.925283 131.474749 186.85127 130.371795 186.74278 
C 129.268841 186.634289 128.169545 186.491374 127.075515 186.314244 
L 118.569234 238.852487 
z
" style="fill:#8c564b;"/>
   </g>
   <g id="patch_8">
    <path d="M 131.794997 240.153421 
C 133.755451 240.223208 135.717459 240.238788 137.678774 240.200143 
C 139.640088 240.161497 141.59996 240.06864 143.556143 239.921679 
L 139.56897 186.84884 
C 138.590878 186.92232 137.610943 186.968748 136.630285 186.988071 
C 135.649628 187.007394 134.668624 186.999604 133.688397 186.96471 
L 131.794997 240.153421 
z
" style="fill:#e377c2;"/>
   </g>
   <g id="patch_9">
    <path d="M 143.556143 239.921679 
C 145.464263 239.778329 147.368172 239.583553 149.265792 239.337564 
C 151.163412 239.091574 153.054054 238.794461 154.935657 238.446548 
L 145.258727 186.111274 
C 144.317926 186.28523 143.372604 186.433787 142.423794 186.556782 
C 141.474984 186.679777 140.52303 186.777165 139.56897 186.84884 
L 143.556143 239.921679 
z
" style="fill:#7f7f7f;"/>
   </g>
   <g id="patch_10">
    <path d="M 154.935657 238.446548 
C 156.422012 238.171717 157.902345 237.865257 159.375647 237.527377 
C 160.848949 237.189496 162.314888 236.820272 163.772464 236.419956 
L 149.677131 185.097978 
C 148.948342 185.298136 148.215373 185.482748 147.478722 185.651688 
C 146.742071 185.820628 146.001905 185.973858 145.258727 186.111274 
L 154.935657 238.446548 
z
" style="fill:#bcbd22;"/>
   </g>
   <g id="patch_11">
    <path d="M 163.772464 236.419956 
C 165.212728 236.024395 166.644506 235.598563 168.066847 235.142745 
C 169.489189 234.686926 170.901779 234.201222 172.30368 233.685953 
L 153.942738 183.730977 
C 153.241788 183.988611 152.535493 184.231463 151.824322 184.459372 
C 151.113151 184.687282 150.397262 184.900197 149.677131 185.097978 
L 163.772464 236.419956 
z
" style="fill:#17becf;"/>
   </g>
   <g id="patch_12">
    <path d="M 172.30368 233.685953 
C 173.671876 233.183073 175.029597 232.652141 176.375985 232.093494 
C 177.722374 231.534847 179.057144 230.948601 180.379453 230.335129 
L 157.980625 182.055565 
C 157.319471 182.362301 156.652085 182.655423 155.978891 182.934747 
C 155.305697 183.214071 154.626836 183.479537 153.942738 183.730977 
L 172.30368 233.685953 
z
" style="fill:#1f77b4;"/>
   </g>
   <g id="patch_13">
    <path d="M 180.379453 230.335129 
C 181.416028 229.85422 182.444792 229.356651 183.465345 228.842615 
C 184.485898 228.328578 185.498108 227.798142 186.50158 227.251511 
L 161.041689 180.513755 
C 160.539952 180.787071 160.033848 181.052289 159.523571 181.309307 
C 159.013295 181.566326 158.498913 181.81511 157.980625 182.055565 
L 180.379453 230.335129 
z
" style="fill:#ff7f0e;"/>
   </g>
   <g id="patch_14">
    <path d="M 186.50158 227.251511 
C 187.470754 226.723564 188.431658 226.180576 189.383944 225.622744 
C 190.33623 225.064912 191.279783 224.492304 192.214261 223.905127 
L 163.898029 178.840563 
C 163.43079 179.134152 162.959014 179.420456 162.482871 179.699372 
C 162.006727 179.978288 161.526275 180.249782 161.041689 180.513755 
L 186.50158 227.251511 
z
" style="fill:#2ca02c;"/>
   </g>
   <g id="patch_15">
    <path d="M 192.214261 223.905127 
C 192.975919 223.42654 193.73148 222.938318 194.480762 222.440578 
C 195.230043 221.942838 195.972985 221.43562 196.709409 220.919046 
L 166.145603 177.347523 
C 165.777391 177.60581 165.40592 177.859419 165.031279 178.108289 
C 164.656638 178.357159 164.278858 178.60127 163.898029 178.840563 
L 192.214261 223.905127 
z
" style="fill:#d62728;"/>
   </g>
   <g id="patch_16">
    <path d="M 196.709409 220.919046 
C 197.198034 220.576294 197.683767 220.229438 198.166557 219.878516 
C 198.649347 219.527593 199.129177 219.172616 199.605997 218.813623 
L 167.593897 176.294811 
C 167.355487 176.474308 167.115572 176.651797 166.874177 176.827258 
C 166.632782 177.002719 166.389915 177.176147 166.145603 177.347523 
L 196.709409 220.919046 
z
" style="fill:#9467bd;"/>
   </g>
   <g id="patch_17">
    <path d="M 199.605997 218.813623 
C 200.042053 218.485319 200.475578 218.153666 200.906532 217.818694 
C 201.337487 217.483721 201.765859 217.145439 202.19161 216.803877 
L 168.886703 175.289938 
C 168.673828 175.460719 168.459642 175.629861 168.244165 175.797347 
C 168.028687 175.964833 167.811925 176.13066 167.593897 176.294811 
L 199.605997 218.813623 
z
" style="fill:#8c564b;"/>
   </g>
   <g id="patch_18">
    <path d="M 202.19161 216.803877 
C 202.610236 216.46803 203.026316 216.129022 203.439815 215.786883 
C 203.853313 215.444743 204.264218 215.09948 204.672495 214.751125 
L 170.127146 174.263563 
C 169.923008 174.43774 169.717555 174.610371 169.510806 174.781441 
C 169.304057 174.952511 169.096016 175.122015 168.886703 175.289938 
L 202.19161 216.803877 
z
" style="fill:#e377c2;"/>
   </g>
   <g id="patch_19">
    <path d="M 204.672495 214.751125 
C 205.078615 214.40461 205.482122 214.055045 205.882982 213.702459 
C 206.283843 213.349872 206.682045 212.994276 207.077555 212.635698 
L 171.329676 173.205849 
C 171.131921 173.385138 170.93282 173.562936 170.73239 173.739229 
C 170.531959 173.915522 170.330206 174.090305 170.127146 174.263563 
L 204.672495 214.751125 
z
" style="fill:#7f7f7f;"/>
   </g>
   <g id="patch_20">
    <path d="M 207.077555 212.635698 
C 207.410763 212.333605 207.742053 212.029403 208.071406 211.723111 
C 208.400758 211.416818 208.728166 211.108441 209.053609 210.797999 
L 172.317703 172.286999 
C 172.154981 172.442221 171.991277 172.596409 171.826601 172.749555 
C 171.661925 172.902702 171.49628 173.054803 171.329676 173.205849 
L 207.077555 212.635698 
z
" style="fill:#bcbd22;"/>
   </g>
   <g id="patch_21">
    <path d="M 209.053609 210.797999 
C 209.376773 210.48973 209.697994 210.179431 210.017253 209.867119 
C 210.336511 209.554807 210.653801 209.240489 210.969103 208.924184 
L 173.27545 171.350092 
C 173.117799 171.508245 172.959154 171.665404 172.799525 171.821559 
C 172.639895 171.977715 172.479285 172.132865 172.317703 172.286999 
L 209.053609 210.797999 
z
" style="fill:#17becf;"/>
   </g>
   <g id="patch_22">
    <path d="M 210.969103 208.924184 
C 211.265505 208.626839 211.560145 208.327743 211.853008 208.026911 
C 212.14587 207.72608 212.436951 207.423519 212.726233 207.119244 
L 174.154015 170.447622 
C 174.009374 170.599759 173.863834 170.75104 173.717402 170.901456 
C 173.570971 171.051871 173.423651 171.201419 173.27545 171.350092 
L 210.969103 208.924184 
z
" style="fill:#1f77b4;"/>
   </g>
   <g id="patch_23">
    <path d="M 212.726233 207.119244 
C 213.000976 206.830262 213.274092 206.539739 213.54557 206.247688 
C 213.817048 205.955637 214.086882 205.662063 214.355061 205.36698 
L 174.968429 169.57149 
C 174.83434 169.719031 174.699422 169.865818 174.563683 170.011844 
C 174.427945 170.157869 174.291386 170.303131 174.154015 170.447622 
L 212.726233 207.119244 
z
" style="fill:#ff7f0e;"/>
   </g>
   <g id="patch_24">
    <path d="M 214.355061 205.36698 
C 214.613071 205.083084 214.869545 204.797796 215.124471 204.511128 
C 215.379398 204.22446 215.632772 203.936416 215.884584 203.647008 
L 175.73319 168.711504 
C 175.607284 168.856208 175.480597 169.00023 175.353134 169.143564 
C 175.225671 169.286898 175.097434 169.429542 174.968429 169.57149 
L 214.355061 205.36698 
z
" style="fill:#2ca02c;"/>
   </g>
   <g id="patch_25">
    <path d="M 215.884584 203.647008 
C 216.093187 203.407261 216.300715 203.166581 216.507162 202.924975 
C 216.713609 202.68337 216.918972 202.44084 217.123247 202.197395 
L 176.352522 167.986698 
C 176.250385 168.10842 176.147703 168.229685 176.044479 168.350488 
C 175.941256 168.471291 175.837492 168.591631 175.73319 168.711504 
L 215.884584 203.647008 
z
" style="fill:#d62728;"/>
   </g>
   <g id="matplotlib.axis_1">
    <g id="text_1">
     <!-- Clinically Healthy Reference -->
     <g transform="translate(0.72 283.749344)scale(0.17 -0.17)">
      <defs>
       <path d="M 67 4 
Q 61.8125 1.3125 56.203125 -0.046875 
Q 50.59375 -1.421875 44.484375 -1.421875 
Q 26.265625 -1.421875 15.625 8.765625 
Q 4.984375 18.953125 4.984375 36.375 
Q 4.984375 53.859375 15.625 64.03125 
Q 26.265625 74.21875 44.484375 74.21875 
Q 50.59375 74.21875 56.203125 72.84375 
Q 61.8125 71.484375 67 68.796875 
L 67 53.71875 
Q 61.765625 57.28125 56.6875 58.9375 
Q 51.609375 60.59375 46 60.59375 
Q 35.9375 60.59375 30.171875 54.140625 
Q 24.421875 47.703125 24.421875 36.375 
Q 24.421875 25.09375 30.171875 18.640625 
Q 35.9375 12.203125 46 12.203125 
Q 51.609375 12.203125 56.6875 13.859375 
Q 61.765625 15.53125 67 19.09375 
z
" id="DejaVuSans-Bold-67"/>
       <path d="M 8.40625 75.984375 
L 25.875 75.984375 
L 25.875 0 
L 8.40625 0 
z
" id="DejaVuSans-Bold-108"/>
       <path d="M 8.40625 54.6875 
L 25.875 54.6875 
L 25.875 0 
L 8.40625 0 
z
M 8.40625 75.984375 
L 25.875 75.984375 
L 25.875 61.71875 
L 8.40625 61.71875 
z
" id="DejaVuSans-Bold-105"/>
       <path d="M 63.375 33.296875 
L 63.375 0 
L 45.796875 0 
L 45.796875 5.421875 
L 45.796875 25.484375 
Q 45.796875 32.5625 45.484375 35.25 
Q 45.171875 37.9375 44.390625 39.203125 
Q 43.359375 40.921875 41.59375 41.875 
Q 39.84375 42.828125 37.59375 42.828125 
Q 32.125 42.828125 29 38.59375 
Q 25.875 34.375 25.875 26.90625 
L 25.875 0 
L 8.40625 0 
L 8.40625 54.6875 
L 25.875 54.6875 
L 25.875 46.6875 
Q 29.828125 51.46875 34.265625 53.734375 
Q 38.71875 56 44.09375 56 
Q 53.5625 56 58.46875 50.1875 
Q 63.375 44.390625 63.375 33.296875 
z
" id="DejaVuSans-Bold-110"/>
       <path d="M 52.59375 52.984375 
L 52.59375 38.71875 
Q 49.03125 41.15625 45.4375 42.328125 
Q 41.84375 43.5 37.984375 43.5 
Q 30.671875 43.5 26.59375 39.234375 
Q 22.515625 34.96875 22.515625 27.296875 
Q 22.515625 19.625 26.59375 15.34375 
Q 30.671875 11.078125 37.984375 11.078125 
Q 42.09375 11.078125 45.78125 12.296875 
Q 49.46875 13.53125 52.59375 15.921875 
L 52.59375 1.609375 
Q 48.484375 0.09375 44.265625 -0.65625 
Q 40.046875 -1.421875 35.796875 -1.421875 
Q 21 -1.421875 12.640625 6.171875 
Q 4.296875 13.765625 4.296875 27.296875 
Q 4.296875 40.828125 12.640625 48.40625 
Q 21 56 35.796875 56 
Q 40.09375 56 44.265625 55.25 
Q 48.4375 54.5 52.59375 52.984375 
z
" id="DejaVuSans-Bold-99"/>
       <path d="M 32.90625 24.609375 
Q 27.4375 24.609375 24.671875 22.75 
Q 21.921875 20.90625 21.921875 17.28125 
Q 21.921875 13.96875 24.140625 12.078125 
Q 26.375 10.203125 30.328125 10.203125 
Q 35.25 10.203125 38.625 13.734375 
Q 42 17.28125 42 22.609375 
L 42 24.609375 
z
M 59.625 31.203125 
L 59.625 0 
L 42 0 
L 42 8.109375 
Q 38.484375 3.125 34.078125 0.84375 
Q 29.6875 -1.421875 23.390625 -1.421875 
Q 14.890625 -1.421875 9.59375 3.53125 
Q 4.296875 8.5 4.296875 16.40625 
Q 4.296875 26.03125 10.90625 30.515625 
Q 17.53125 35.015625 31.6875 35.015625 
L 42 35.015625 
L 42 36.375 
Q 42 40.53125 38.71875 42.453125 
Q 35.453125 44.390625 28.515625 44.390625 
Q 22.90625 44.390625 18.0625 43.265625 
Q 13.234375 42.140625 9.078125 39.890625 
L 9.078125 53.21875 
Q 14.703125 54.59375 20.359375 55.296875 
Q 26.03125 56 31.6875 56 
Q 46.484375 56 53.046875 50.171875 
Q 59.625 44.34375 59.625 31.203125 
z
" id="DejaVuSans-Bold-97"/>
       <path d="M 1.21875 54.6875 
L 18.703125 54.6875 
L 33.40625 17.578125 
L 45.90625 54.6875 
L 63.375 54.6875 
L 40.375 -5.171875 
Q 36.921875 -14.3125 32.296875 -17.9375 
Q 27.6875 -21.578125 20.125 -21.578125 
L 10.015625 -21.578125 
L 10.015625 -10.109375 
L 15.484375 -10.109375 
Q 19.921875 -10.109375 21.9375 -8.6875 
Q 23.96875 -7.28125 25.09375 -3.609375 
L 25.59375 -2.09375 
z
" id="DejaVuSans-Bold-121"/>
       <path id="DejaVuSans-Bold-32"/>
       <path d="M 9.1875 72.90625 
L 27.984375 72.90625 
L 27.984375 45.125 
L 55.71875 45.125 
L 55.71875 72.90625 
L 74.515625 72.90625 
L 74.515625 0 
L 55.71875 0 
L 55.71875 30.90625 
L 27.984375 30.90625 
L 27.984375 0 
L 9.1875 0 
z
" id="DejaVuSans-Bold-72"/>
       <path d="M 62.984375 27.484375 
L 62.984375 22.515625 
L 22.125 22.515625 
Q 22.75 16.359375 26.5625 13.28125 
Q 30.375 10.203125 37.203125 10.203125 
Q 42.71875 10.203125 48.5 11.84375 
Q 54.296875 13.484375 60.40625 16.796875 
L 60.40625 3.328125 
Q 54.203125 0.984375 48 -0.21875 
Q 41.796875 -1.421875 35.59375 -1.421875 
Q 20.75 -1.421875 12.515625 6.125 
Q 4.296875 13.671875 4.296875 27.296875 
Q 4.296875 40.671875 12.375 48.328125 
Q 20.453125 56 34.625 56 
Q 47.515625 56 55.25 48.234375 
Q 62.984375 40.484375 62.984375 27.484375 
z
M 45.015625 33.296875 
Q 45.015625 38.28125 42.109375 41.328125 
Q 39.203125 44.390625 34.515625 44.390625 
Q 29.4375 44.390625 26.265625 41.53125 
Q 23.09375 38.671875 22.3125 33.296875 
z
" id="DejaVuSans-Bold-101"/>
       <path d="M 27.484375 70.21875 
L 27.484375 54.6875 
L 45.515625 54.6875 
L 45.515625 42.1875 
L 27.484375 42.1875 
L 27.484375 19 
Q 27.484375 15.1875 29 13.84375 
Q 30.515625 12.5 35.015625 12.5 
L 44 12.5 
L 44 0 
L 29 0 
Q 18.65625 0 14.328125 4.3125 
Q 10.015625 8.640625 10.015625 19 
L 10.015625 42.1875 
L 1.3125 42.1875 
L 1.3125 54.6875 
L 10.015625 54.6875 
L 10.015625 70.21875 
z
" id="DejaVuSans-Bold-116"/>
       <path d="M 63.375 33.296875 
L 63.375 0 
L 45.796875 0 
L 45.796875 5.421875 
L 45.796875 25.390625 
Q 45.796875 32.5625 45.484375 35.25 
Q 45.171875 37.9375 44.390625 39.203125 
Q 43.359375 40.921875 41.59375 41.875 
Q 39.84375 42.828125 37.59375 42.828125 
Q 32.125 42.828125 29 38.59375 
Q 25.875 34.375 25.875 26.90625 
L 25.875 0 
L 8.40625 0 
L 8.40625 75.984375 
L 25.875 75.984375 
L 25.875 46.6875 
Q 29.828125 51.46875 34.265625 53.734375 
Q 38.71875 56 44.09375 56 
Q 53.5625 56 58.46875 50.1875 
Q 63.375 44.390625 63.375 33.296875 
z
" id="DejaVuSans-Bold-104"/>
       <path d="M 35.890625 40.578125 
Q 41.796875 40.578125 44.359375 42.765625 
Q 46.921875 44.96875 46.921875 50 
Q 46.921875 54.984375 44.359375 57.125 
Q 41.796875 59.28125 35.890625 59.28125 
L 27.984375 59.28125 
L 27.984375 40.578125 
z
M 27.984375 27.59375 
L 27.984375 0 
L 9.1875 0 
L 9.1875 72.90625 
L 37.890625 72.90625 
Q 52.296875 72.90625 59 68.0625 
Q 65.71875 63.234375 65.71875 52.78125 
Q 65.71875 45.5625 62.21875 40.921875 
Q 58.734375 36.28125 51.703125 34.078125 
Q 55.5625 33.203125 58.609375 30.09375 
Q 61.671875 27 64.796875 20.703125 
L 75 0 
L 54.984375 0 
L 46.09375 18.109375 
Q 43.40625 23.578125 40.640625 25.578125 
Q 37.890625 27.59375 33.296875 27.59375 
z
" id="DejaVuSans-Bold-82"/>
       <path d="M 44.390625 75.984375 
L 44.390625 64.5 
L 34.71875 64.5 
Q 31 64.5 29.53125 63.15625 
Q 28.078125 61.8125 28.078125 58.5 
L 28.078125 54.6875 
L 43.015625 54.6875 
L 43.015625 42.1875 
L 28.078125 42.1875 
L 28.078125 0 
L 10.59375 0 
L 10.59375 42.1875 
L 1.90625 42.1875 
L 1.90625 54.6875 
L 10.59375 54.6875 
L 10.59375 58.5 
Q 10.59375 67.4375 15.578125 71.703125 
Q 20.5625 75.984375 31 75.984375 
z
" id="DejaVuSans-Bold-102"/>
       <path d="M 49.03125 39.796875 
Q 46.734375 40.875 44.453125 41.375 
Q 42.1875 41.890625 39.890625 41.890625 
Q 33.15625 41.890625 29.515625 37.5625 
Q 25.875 33.25 25.875 25.203125 
L 25.875 0 
L 8.40625 0 
L 8.40625 54.6875 
L 25.875 54.6875 
L 25.875 45.703125 
Q 29.25 51.078125 33.609375 53.53125 
Q 37.984375 56 44.09375 56 
Q 44.96875 56 45.984375 55.921875 
Q 47.015625 55.859375 48.96875 55.609375 
z
" id="DejaVuSans-Bold-114"/>
      </defs>
      <use xlink:href="#DejaVuSans-Bold-67"/>
      <use x="73.388672" xlink:href="#DejaVuSans-Bold-108"/>
      <use x="107.666016" xlink:href="#DejaVuSans-Bold-105"/>
      <use x="141.943359" xlink:href="#DejaVuSans-Bold-110"/>
      <use x="213.134766" xlink:href="#DejaVuSans-Bold-105"/>
      <use x="247.412109" xlink:href="#DejaVuSans-Bold-99"/>
      <use x="306.689453" xlink:href="#DejaVuSans-Bold-97"/>
      <use x="374.169922" xlink:href="#DejaVuSans-Bold-108"/>
      <use x="408.447266" xlink:href="#DejaVuSans-Bold-108"/>
      <use x="442.724609" xlink:href="#DejaVuSans-Bold-121"/>
      <use x="507.910156" xlink:href="#DejaVuSans-Bold-32"/>
      <use x="542.724609" xlink:href="#DejaVuSans-Bold-72"/>
      <use x="626.416016" xlink:href="#DejaVuSans-Bold-101"/>
      <use x="694.238281" xlink:href="#DejaVuSans-Bold-97"/>
      <use x="761.71875" xlink:href="#DejaVuSans-Bold-108"/>
      <use x="795.996094" xlink:href="#DejaVuSans-Bold-116"/>
      <use x="843.798828" xlink:href="#DejaVuSans-Bold-104"/>
      <use x="914.990234" xlink:href="#DejaVuSans-Bold-121"/>
      <use x="980.175781" xlink:href="#DejaVuSans-Bold-32"/>
      <use x="1014.990234" xlink:href="#DejaVuSans-Bold-82"/>
      <use x="1091.992188" xlink:href="#DejaVuSans-Bold-101"/>
      <use x="1159.814453" xlink:href="#DejaVuSans-Bold-102"/>
      <use x="1203.320312" xlink:href="#DejaVuSans-Bold-101"/>
      <use x="1271.142578" xlink:href="#DejaVuSans-Bold-114"/>
      <use x="1320.458984" xlink:href="#DejaVuSans-Bold-101"/>
      <use x="1388.28125" xlink:href="#DejaVuSans-Bold-110"/>
      <use x="1459.472656" xlink:href="#DejaVuSans-Bold-99"/>
      <use x="1518.75" xlink:href="#DejaVuSans-Bold-101"/>
     </g>
    </g>
   </g>
   <g id="matplotlib.axis_2"/>
  </g>
 </g>
</svg>
