<?xml version="1.0" encoding="utf-8" standalone="no"?>
<!DOCTYPE svg PUBLIC "-//W3C//DTD SVG 1.1//EN"
  "http://www.w3.org/Graphics/SVG/1.1/DTD/svg11.dtd">
<!-- Created with matplotlib (https://matplotlib.org/) -->
<svg height="288.137625pt" version="1.1" viewBox="0 0 271.163594 288.137625" width="271.163594pt" xmlns="http://www.w3.org/2000/svg" xmlns:xlink="http://www.w3.org/1999/xlink">
 <metadata>
  <rdf:RDF xmlns:cc="http://creativecommons.org/ns#" xmlns:dc="http://purl.org/dc/elements/1.1/" xmlns:rdf="http://www.w3.org/1999/02/22-rdf-syntax-ns#">
   <cc:Work>
    <dc:type rdf:resource="http://purl.org/dc/dcmitype/StillImage"/>
    <dc:date>2024-02-21T09:26:42.756212</dc:date>
    <dc:format>image/svg+xml</dc:format>
    <dc:creator>
     <cc:Agent>
      <dc:title>Matplotlib v3.3.4, https://matplotlib.org/</dc:title>
     </cc:Agent>
    </dc:creator>
   </cc:Work>
  </rdf:RDF>
 </metadata>
 <defs>
  <style type="text/css">*{stroke-linecap:butt;stroke-linejoin:round;}</style>
 </defs>
 <g id="figure_1">
  <g id="patch_1">
   <path d="M 0 288.137625 
L 271.163594 288.137625 
L 271.163594 -0 
L 0 -0 
z
" style="fill:#ffffff;"/>
  </g>
  <g id="axes_1">
   <g id="patch_2">
    <path d="M 217.123244 202.197399 
C 234.788748 181.144471 243.632146 154.046995 241.786217 126.626412 
C 239.940288 99.20583 227.544785 73.538138 207.216933 55.042889 
C 186.889081 36.547641 160.16789 26.6251 132.69535 27.370343 
C 105.222811 28.115585 79.078855 39.472189 59.783594 59.042287 
L 97.682696 96.409143 
C 107.330326 86.624094 120.402304 80.945793 134.138573 80.573171 
C 147.874843 80.20055 161.235439 85.16182 171.399365 94.409445 
C 181.563291 103.657069 187.761042 116.490915 188.684007 130.201206 
C 189.606972 143.911498 185.185273 157.460235 176.352521 167.986699 
L 217.123244 202.197399 
z
" style="fill:#1f77b4;"/>
   </g>
   <g id="patch_3">
    <path d="M 59.783594 59.042287 
C 49.920798 69.045567 42.135101 80.903031 36.876448 93.929425 
C 31.617795 106.955819 28.989476 120.895277 29.143386 134.942223 
C 29.297295 148.989169 32.230409 162.867691 37.77322 175.775736 
C 43.316032 188.683781 51.359667 200.367807 61.439278 210.152582 
L 98.510537 171.964291 
C 93.470732 167.071903 89.448914 161.22989 86.677509 154.775868 
C 83.906103 148.321846 82.439546 141.382584 82.362591 134.359112 
C 82.285637 127.335639 83.599796 120.36591 86.229122 113.852713 
C 88.858449 107.339516 92.751297 101.410783 97.682696 96.409143 
L 59.783594 59.042287 
z
" style="fill:#ff7f0e;"/>
   </g>
   <g id="patch_4">
    <path d="M 61.439278 210.152582 
C 72.594599 220.981603 85.988135 229.236322 100.67541 234.334638 
C 115.362685 239.432954 130.990153 241.252142 146.455806 239.663919 
L 141.018802 186.719959 
C 133.285975 187.514071 125.472241 186.604477 118.128604 184.055319 
C 110.784966 181.506161 104.088198 177.378801 98.510537 171.964291 
L 61.439278 210.152582 
z
" style="fill:#2ca02c;"/>
   </g>
   <g id="patch_5">
    <path d="M 146.455806 239.663919 
C 148.381985 239.466113 150.302407 239.215786 152.214929 238.913217 
C 154.127451 238.610648 156.031362 238.25595 157.924535 237.84952 
L 146.753166 185.81276 
C 145.806579 186.015975 144.854624 186.193324 143.898363 186.344608 
C 142.942102 186.495893 141.981891 186.621056 141.018802 186.719959 
L 146.455806 239.663919 
z
" style="fill:#d62728;"/>
   </g>
   <g id="patch_6">
    <path d="M 157.924535 237.84952 
C 158.991012 237.620566 160.053907 237.375233 161.112843 237.113608 
C 162.171779 236.851982 163.226631 236.574095 164.277026 236.280045 
L 149.929411 185.028023 
C 149.404214 185.175048 148.876788 185.313991 148.34732 185.444804 
C 147.817852 185.575616 147.286404 185.698283 146.753166 185.81276 
L 157.924535 237.84952 
z
" style="fill:#9467bd;"/>
   </g>
   <g id="patch_7">
    <path d="M 164.277026 236.280045 
C 165.11661 236.04501 165.953275 235.799668 166.786831 235.544076 
C 167.620387 235.288484 168.450771 235.02266 169.277796 234.746665 
L 152.429796 184.261332 
C 152.016284 184.39933 151.601092 184.532242 151.184314 184.660038 
C 150.767536 184.787834 150.349203 184.910505 149.929411 185.028023 
L 164.277026 236.280045 
z
" style="fill:#8c564b;"/>
   </g>
   <g id="patch_8">
    <path d="M 169.277796 234.746665 
C 169.950869 234.522046 170.62168 234.290703 171.290127 234.05267 
C 171.958574 233.814638 172.624624 233.569927 173.288178 233.318575 
L 154.434987 183.547288 
C 154.103211 183.672964 153.770185 183.795319 153.435962 183.914335 
C 153.101738 184.033352 152.766333 184.149023 152.429796 184.261332 
L 169.277796 234.746665 
z
" style="fill:#e377c2;"/>
   </g>
   <g id="patch_9">
    <path d="M 173.288178 233.318575 
C 173.941139 233.071236 174.591652 232.817477 175.23962 232.557337 
C 175.887588 232.297197 176.532981 232.030687 177.175704 231.757847 
L 156.378751 182.766923 
C 156.057389 182.903344 155.734692 183.036598 155.410708 183.166669 
C 155.086724 183.296739 154.761468 183.423618 154.434987 183.547288 
L 173.288178 233.318575 
z
" style="fill:#7f7f7f;"/>
   </g>
   <g id="patch_10">
    <path d="M 177.175704 231.757847 
C 177.714205 231.52925 178.250813 231.296217 178.785471 231.058773 
C 179.32013 230.821329 179.852822 230.579481 180.383494 230.333254 
L 157.982645 182.054627 
C 157.71731 182.177741 157.450964 182.298665 157.183634 182.417387 
C 156.916305 182.536109 156.648001 182.652625 156.378751 182.766923 
L 177.175704 231.757847 
z
" style="fill:#bcbd22;"/>
   </g>
   <g id="patch_11">
    <path d="M 180.383494 230.333254 
C 180.900466 230.093384 181.415504 229.849365 181.928557 229.601222 
C 182.44161 229.35308 182.952662 229.10082 183.461664 228.844469 
L 159.52173 181.310235 
C 159.267229 181.43841 159.011704 181.56454 158.755177 181.688611 
C 158.49865 181.812683 158.241132 181.934692 157.982645 182.054627 
L 180.383494 230.333254 
z
" style="fill:#17becf;"/>
   </g>
   <g id="patch_12">
    <path d="M 183.461664 228.844469 
C 183.859426 228.644142 184.255927 228.44132 184.651144 228.236016 
C 185.046361 228.030712 185.440285 227.82293 185.832894 227.612681 
L 160.707345 180.694341 
C 160.511041 180.799465 160.314079 180.903356 160.11647 181.006008 
C 159.918862 181.10866 159.720611 181.210071 159.52173 181.310235 
L 183.461664 228.844469 
z
" style="fill:#1f77b4;"/>
   </g>
   <g id="patch_13">
    <path d="M 185.832894 227.612681 
C 186.175596 227.429158 186.517291 227.243759 186.857962 227.056493 
C 187.198633 226.869226 187.538276 226.680095 187.876875 226.489107 
L 161.729336 180.132554 
C 161.560036 180.228048 161.390215 180.322613 161.219879 180.416246 
C 161.049544 180.50988 160.878696 180.602579 160.707345 180.694341 
L 185.832894 227.612681 
z
" style="fill:#ff7f0e;"/>
   </g>
   <g id="patch_14">
    <path d="M 187.876875 226.489107 
C 188.185887 226.314808 188.494026 226.138965 188.80128 225.961585 
C 189.108533 225.784205 189.414899 225.60529 189.720364 225.424846 
L 162.65108 179.600423 
C 162.498348 179.690645 162.345165 179.780103 162.191538 179.868793 
C 162.037911 179.957483 161.883842 180.045404 161.729336 180.132554 
L 187.876875 226.489107 
z
" style="fill:#2ca02c;"/>
   </g>
   <g id="patch_15">
    <path d="M 189.720364 225.424846 
C 190.019327 225.248243 190.317425 225.070178 190.614646 224.890658 
C 190.911867 224.711138 191.208208 224.530164 191.503659 224.347744 
L 163.542728 179.061872 
C 163.395003 179.153082 163.246832 179.243569 163.098222 179.333329 
C 162.949611 179.423089 162.800562 179.512122 162.65108 179.600423 
L 189.720364 225.424846 
z
" style="fill:#d62728;"/>
   </g>
   <g id="patch_16">
    <path d="M 191.503659 224.347744 
C 191.76378 224.187137 192.023209 224.025409 192.281938 223.862567 
C 192.540666 223.699724 192.798692 223.535767 193.056008 223.370702 
L 164.318902 178.573351 
C 164.190244 178.655884 164.061231 178.737862 163.931867 178.819283 
C 163.802503 178.900705 163.672789 178.981568 163.542728 179.061872 
L 191.503659 224.347744 
z
" style="fill:#9467bd;"/>
   </g>
   <g id="patch_17">
    <path d="M 193.056008 223.370702 
C 193.275207 223.230087 193.493889 223.088669 193.71205 222.94645 
C 193.930211 222.80423 194.14785 222.661211 194.364961 222.517394 
L 164.973379 178.146697 
C 164.864823 178.218605 164.756004 178.290115 164.646924 178.361225 
C 164.537843 178.432335 164.428502 178.503044 164.318902 178.573351 
L 193.056008 223.370702 
z
" style="fill:#8c564b;"/>
   </g>
   <g id="patch_18">
    <path d="M 194.364961 222.517394 
C 194.56004 222.388172 194.754693 222.258307 194.948915 222.127801 
C 195.143138 221.997295 195.336929 221.866149 195.530287 221.734365 
L 165.556042 177.755183 
C 165.459363 177.821074 165.362467 177.886647 165.265356 177.9519 
C 165.168245 178.017153 165.070919 178.082086 164.973379 178.146697 
L 194.364961 222.517394 
z
" style="fill:#e377c2;"/>
   </g>
   <g id="patch_19">
    <path d="M 195.530287 221.734365 
C 195.717413 221.606828 195.904132 221.478694 196.090441 221.349966 
C 196.276749 221.221237 196.462646 221.091914 196.648129 220.961999 
L 166.114963 177.369 
C 166.022222 177.433957 165.929273 177.498619 165.836119 177.562983 
C 165.742964 177.627347 165.649605 177.691414 165.556042 177.755183 
L 195.530287 221.734365 
z
" style="fill:#7f7f7f;"/>
   </g>
   <g id="patch_20">
    <path d="M 196.648129 220.961999 
C 196.818151 220.842914 196.987824 220.723331 197.157146 220.603253 
C 197.326468 220.483175 197.495438 220.362602 197.664054 220.241535 
L 166.622926 177.008768 
C 166.538617 177.069301 166.454132 177.129587 166.369471 177.189627 
C 166.28481 177.249666 166.199974 177.309457 166.114963 177.369 
L 196.648129 220.961999 
z
" style="fill:#bcbd22;"/>
   </g>
   <g id="patch_21">
    <path d="M 197.664054 220.241535 
C 197.817345 220.131472 197.970343 220.021002 198.123046 219.910126 
C 198.275749 219.799249 198.428157 219.687967 198.580268 219.57628 
L 167.081032 176.67614 
C 167.004977 176.731984 166.928773 176.787625 166.852421 176.843063 
C 166.77607 176.898501 166.699571 176.953736 166.622926 177.008768 
L 197.664054 220.241535 
z
" style="fill:#17becf;"/>
   </g>
   <g id="patch_22">
    <path d="M 198.580268 219.57628 
C 198.729336 219.466828 198.878119 219.356987 199.026614 219.246759 
C 199.17511 219.136531 199.323318 219.025916 199.471237 218.914915 
L 167.526517 176.345458 
C 167.452557 176.400958 167.378453 176.456265 167.304206 176.511379 
C 167.229958 176.566493 167.155567 176.621414 167.081032 176.67614 
L 198.580268 219.57628 
z
" style="fill:#1f77b4;"/>
   </g>
   <g id="patch_23">
    <path d="M 199.471237 218.914915 
C 199.619156 218.803915 199.766785 218.692529 199.914124 218.580759 
C 200.061462 218.468989 200.208509 218.356835 200.355263 218.244299 
L 167.96853 176.010149 
C 167.895153 176.066418 167.82163 176.122495 167.74796 176.17838 
C 167.674291 176.234265 167.600476 176.289957 167.526517 176.345458 
L 199.471237 218.914915 
z
" style="fill:#ff7f0e;"/>
   </g>
   <g id="patch_24">
    <path d="M 200.355263 218.244299 
C 200.499021 218.13406 200.642497 218.023454 200.785691 217.912483 
C 200.928884 217.801511 201.071793 217.690174 201.214418 217.578473 
L 168.398108 175.677236 
C 168.326795 175.733087 168.25534 175.788756 168.183744 175.844241 
C 168.112147 175.899727 168.040409 175.95503 167.96853 176.010149 
L 200.355263 218.244299 
z
" style="fill:#2ca02c;"/>
   </g>
   <g id="patch_25">
    <path d="M 201.214418 217.578473 
C 201.345154 217.476083 201.47565 217.373388 201.605904 217.270387 
C 201.736159 217.167387 201.866173 217.064081 201.995944 216.960472 
L 168.788871 175.368236 
C 168.723985 175.420041 168.658978 175.471693 168.593851 175.523194 
C 168.528723 175.574694 168.463475 175.626042 168.398108 175.677236 
L 201.214418 217.578473 
z
" style="fill:#d62728;"/>
   </g>
   <g id="patch_26">
    <path d="M 201.995944 216.960472 
C 202.125716 216.856863 202.255245 216.752951 202.38453 216.648736 
C 202.513815 216.544521 202.642856 216.440003 202.771652 216.335184 
L 169.176724 175.055592 
C 169.112326 175.108001 169.047806 175.16026 168.983163 175.212368 
C 168.918521 175.264475 168.853756 175.316432 168.788871 175.368236 
L 201.995944 216.960472 
z
" style="fill:#9467bd;"/>
   </g>
   <g id="patch_27">
    <path d="M 202.771652 216.335184 
C 202.897527 216.232742 203.023168 216.130012 203.148573 216.026995 
C 203.273979 215.923978 203.399148 215.820674 203.524081 215.717085 
L 169.552939 174.746543 
C 169.490473 174.798337 169.427888 174.849989 169.365185 174.901497 
C 169.302482 174.953006 169.239662 175.004371 169.176724 175.055592 
L 202.771652 216.335184 
z
" style="fill:#8c564b;"/>
   </g>
   <g id="patch_28">
    <path d="M 203.524081 215.717085 
C 203.649014 215.613496 203.77371 215.509621 203.898168 215.405461 
C 204.022626 215.301301 204.146845 215.196857 204.270825 215.092129 
L 169.926311 174.434065 
C 169.864321 174.486428 169.802211 174.538651 169.739982 174.59073 
C 169.677754 174.64281 169.615406 174.694748 169.552939 174.746543 
L 203.524081 215.717085 
z
" style="fill:#e377c2;"/>
   </g>
   <g id="patch_29">
    <path d="M 204.270825 215.092129 
C 204.391921 214.989837 204.512788 214.887275 204.633426 214.784444 
C 204.754064 214.681612 204.874472 214.578511 204.994649 214.475141 
L 170.288223 174.125571 
C 170.228134 174.177256 170.16793 174.228806 170.107611 174.280222 
C 170.047293 174.331638 169.986859 174.382919 169.926311 174.434065 
L 204.270825 215.092129 
z
" style="fill:#7f7f7f;"/>
   </g>
   <g id="patch_30">
    <path d="M 204.994649 214.475141 
C 205.089073 214.393923 205.183355 214.312539 205.277494 214.230989 
C 205.371632 214.14944 205.465628 214.067725 205.559479 213.985846 
L 170.570638 173.880923 
C 170.523712 173.921863 170.476715 173.96272 170.429645 174.003495 
C 170.382576 174.044269 170.335435 174.084961 170.288223 174.125571 
L 204.994649 214.475141 
z
" style="fill:#bcbd22;"/>
   </g>
   <g id="patch_31">
    <path d="M 205.559479 213.985846 
C 205.650486 213.906449 205.741358 213.826896 205.832094 213.74719 
C 205.92283 213.667483 206.013431 213.587622 206.103895 213.507607 
L 170.842846 173.641803 
C 170.797614 173.681811 170.752314 173.721741 170.706946 173.761595 
C 170.661577 173.801448 170.616142 173.841224 170.570638 173.880923 
L 205.559479 213.985846 
z
" style="fill:#17becf;"/>
   </g>
   <g id="patch_32">
    <path d="M 206.103895 213.507607 
C 206.194359 213.427592 206.284688 213.347423 206.374879 213.2671 
C 206.46507 213.186777 206.555125 213.106301 206.645043 213.025672 
L 171.11342 173.400836 
C 171.068461 173.441151 171.023434 173.481389 170.978338 173.52155 
C 170.933242 173.561711 170.888078 173.601796 170.842846 173.641803 
L 206.103895 213.507607 
z
" style="fill:#1f77b4;"/>
   </g>
   <g id="patch_33">
    <path d="M 206.645043 213.025672 
C 206.729338 212.950084 206.813514 212.874362 206.897568 212.798505 
C 206.981622 212.722648 207.065555 212.646657 207.149367 212.570533 
L 171.365582 173.173266 
C 171.323676 173.211329 171.281709 173.249324 171.239682 173.287252 
C 171.197655 173.325181 171.155568 173.363042 171.11342 173.400836 
L 206.645043 213.025672 
z
" style="fill:#ff7f0e;"/>
   </g>
   <g id="patch_34">
    <path d="M 207.149367 212.570533 
C 207.233179 212.494408 207.316869 212.41815 207.400437 212.341758 
C 207.484005 212.265367 207.567452 212.188842 207.650776 212.112184 
L 171.616287 172.944092 
C 171.574624 172.982421 171.532901 173.020683 171.491117 173.058879 
C 171.449333 173.097075 171.407488 173.135204 171.365582 173.173266 
L 207.149367 212.570533 
z
" style="fill:#2ca02c;"/>
   </g>
   <g id="patch_35">
    <path d="M 207.650776 212.112184 
C 207.7341 212.035526 207.817302 211.958735 207.900381 211.881812 
C 207.98346 211.804888 208.066417 211.727832 208.14925 211.650644 
L 171.865523 172.713322 
C 171.824107 172.751916 171.782629 172.790444 171.741089 172.828906 
C 171.69955 172.867367 171.657949 172.905763 171.616287 172.944092 
L 207.650776 212.112184 
z
" style="fill:#d62728;"/>
   </g>
   <g id="patch_36">
    <path d="M 208.14925 211.650644 
C 208.226559 211.578604 208.303761 211.506448 208.380855 211.434178 
C 208.457949 211.361907 208.534936 211.289522 208.611815 211.217022 
L 172.096806 172.496511 
C 172.058366 172.532761 172.019873 172.568954 171.981326 172.605089 
C 171.942779 172.641224 171.904178 172.677302 171.865523 172.713322 
L 208.14925 211.650644 
z
" style="fill:#9467bd;"/>
   </g>
   <g id="patch_37">
    <path d="M 208.611815 211.217022 
C 208.68046 211.152287 208.74902 211.08746 208.817493 211.022542 
C 208.885967 210.957624 208.954354 210.892615 209.022654 210.827515 
L 172.302225 172.301757 
C 172.268075 172.334307 172.233882 172.366812 172.199645 172.399271 
C 172.165408 172.43173 172.131129 172.464143 172.096806 172.496511 
L 208.611815 211.217022 
z
" style="fill:#8c564b;"/>
   </g>
   <g id="patch_38">
    <path d="M 209.022654 210.827515 
C 209.082756 210.770229 209.142791 210.712874 209.202758 210.655448 
C 209.262726 210.598022 209.322626 210.540526 209.382459 210.48296 
L 172.482128 172.12948 
C 172.452212 172.158263 172.422261 172.187011 172.392278 172.215724 
C 172.362294 172.244437 172.332276 172.273115 172.302225 172.301757 
L 209.022654 210.827515 
z
" style="fill:#e377c2;"/>
   </g>
   <g id="patch_39">
    <path d="M 209.382459 210.48296 
C 209.442293 210.425393 209.502058 210.367757 209.561756 210.310051 
C 209.621455 210.252345 209.681085 210.19457 209.740648 210.136724 
L 172.661223 171.956362 
C 172.631441 171.985285 172.601626 172.014173 172.571777 172.043026 
C 172.541928 172.071879 172.512045 172.100697 172.482128 172.12948 
L 209.382459 210.48296 
z
" style="fill:#7f7f7f;"/>
   </g>
   <g id="patch_40">
    <path d="M 209.740648 210.136724 
C 209.797503 210.081509 209.854296 210.02623 209.911027 209.970888 
C 209.967758 209.915546 210.024428 209.860141 210.081035 209.804672 
L 172.831416 171.790336 
C 172.803112 171.81807 172.774778 171.845773 172.746412 171.873444 
C 172.718046 171.901115 172.68965 171.928754 172.661223 171.956362 
L 209.740648 210.136724 
z
" style="fill:#bcbd22;"/>
   </g>
   <g id="patch_41">
    <path d="M 210.081035 209.804672 
C 210.137643 209.749203 210.194188 209.693671 210.250671 209.638076 
C 210.307155 209.582481 210.363576 209.526823 210.419935 209.471102 
L 173.000866 171.623551 
C 172.972686 171.651412 172.944476 171.679241 172.916234 171.707038 
C 172.887992 171.734836 172.85972 171.762602 172.831416 171.790336 
L 210.081035 209.804672 
z
" style="fill:#17becf;"/>
   </g>
   <g id="patch_42">
    <path d="M 210.419935 209.471102 
C 210.473609 209.418036 210.527227 209.364912 210.580788 209.311731 
C 210.63435 209.258551 210.687854 209.205313 210.741303 209.152018 
L 173.16155 171.464009 
C 173.134826 171.490656 173.108073 171.517275 173.081293 171.543866 
C 173.054512 171.570456 173.027703 171.597018 173.000866 171.623551 
L 210.419935 209.471102 
z
" style="fill:#1f77b4;"/>
   </g>
   <g id="patch_43">
    <path d="M 210.741303 209.152018 
C 210.794751 209.098724 210.848142 209.045373 210.901476 208.991965 
C 210.954811 208.938556 211.008089 208.885092 211.06131 208.83157 
L 173.321553 171.303785 
C 173.294943 171.330546 173.268304 171.357278 173.241637 171.383982 
C 173.214969 171.410686 173.188274 171.437362 173.16155 171.464009 
L 210.741303 209.152018 
z
" style="fill:#ff7f0e;"/>
   </g>
   <g id="patch_44">
    <path d="M 211.06131 208.83157 
C 211.111868 208.780726 211.162376 208.72983 211.212832 208.678884 
C 211.263287 208.627938 211.313692 208.57694 211.364045 208.525892 
L 173.472921 171.150946 
C 173.447744 171.17647 173.422542 171.201969 173.397314 171.227442 
C 173.372086 171.252915 173.346833 171.278363 173.321553 171.303785 
L 211.06131 208.83157 
z
" style="fill:#2ca02c;"/>
   </g>
   <g id="patch_45">
    <path d="M 211.364045 208.525892 
C 211.414397 208.474844 211.464699 208.423745 211.514948 208.372595 
C 211.565198 208.321445 211.615396 208.270244 211.665542 208.218993 
L 173.623669 170.997497 
C 173.598596 171.023122 173.573497 171.048723 173.548373 171.074297 
C 173.523248 171.099872 173.498097 171.125422 173.472921 171.150946 
L 211.364045 208.525892 
z
" style="fill:#d62728;"/>
   </g>
   <g id="patch_46">
    <path d="M 211.665542 208.218993 
C 211.715688 208.167742 211.765782 208.11644 211.815825 208.065087 
C 211.865867 208.013735 211.915858 207.962331 211.965796 207.910878 
L 173.773796 170.843439 
C 173.748827 170.869166 173.723832 170.894867 173.698811 170.920544 
C 173.67379 170.94622 173.648742 170.971871 173.623669 170.997497 
L 211.665542 208.218993 
z
" style="fill:#9467bd;"/>
   </g>
   <g id="patch_47">
    <path d="M 211.965796 207.910878 
C 212.015735 207.859424 212.065621 207.80792 212.115456 207.756366 
C 212.16529 207.704811 212.215072 207.653207 212.264803 207.601552 
L 173.9233 170.688776 
C 173.898435 170.714603 173.873543 170.740406 173.848626 170.766183 
C 173.823709 170.79196 173.798766 170.817712 173.773796 170.843439 
L 211.965796 207.910878 
z
" style="fill:#8c564b;"/>
   </g>
   <g id="patch_48">
    <path d="M 212.264803 207.601552 
C 212.311914 207.552616 212.358979 207.503636 212.405997 207.454611 
C 212.453015 207.405586 212.499986 207.356515 212.54691 207.3074 
L 174.064354 170.5417 
C 174.040892 170.566258 174.017406 170.590793 173.993897 170.615305 
C 173.970388 170.639818 173.946856 170.664308 173.9233 170.688776 
L 212.264803 207.601552 
z
" style="fill:#e377c2;"/>
   </g>
   <g id="patch_49">
    <path d="M 212.54691 207.3074 
C 212.591233 207.261007 212.635514 207.214575 212.679753 207.168102 
C 212.723991 207.12163 212.768188 207.075117 212.812343 207.028565 
L 174.19707 170.402282 
C 174.174992 170.425559 174.152894 170.448815 174.130775 170.472051 
C 174.108655 170.495287 174.086515 170.518504 174.064354 170.5417 
L 212.54691 207.3074 
z
" style="fill:#7f7f7f;"/>
   </g>
   <g id="patch_50">
    <path d="M 212.812343 207.028565 
C 212.851301 206.987491 212.890227 206.946385 212.92912 206.905249 
C 212.968013 206.864113 213.006873 206.822946 213.0457 206.781748 
L 174.313748 170.278874 
C 174.294335 170.299473 174.274905 170.320057 174.255458 170.340625 
C 174.236012 170.361193 174.216549 170.381745 174.19707 170.402282 
L 212.812343 207.028565 
z
" style="fill:#bcbd22;"/>
   </g>
   <g id="patch_51">
    <path d="M 213.0457 206.781748 
C 213.084527 206.74055 213.123321 206.69932 213.162083 206.65806 
C 213.200844 206.6168 213.239572 206.575509 213.278268 206.534187 
L 174.430032 170.155094 
C 174.410685 170.175755 174.39132 170.1964 174.37194 170.21703 
C 174.352559 170.23766 174.333162 170.258275 174.313748 170.278874 
L 213.0457 206.781748 
z
" style="fill:#17becf;"/>
   </g>
   <g id="patch_52">
    <path d="M 213.278268 206.534187 
C 213.316963 206.492866 213.355626 206.451513 213.394255 206.410129 
C 213.432885 206.368746 213.471481 206.327331 213.510045 206.285886 
L 174.545921 170.030943 
C 174.526639 170.051666 174.507341 170.072373 174.488026 170.093065 
C 174.468711 170.113756 174.44938 170.134433 174.430032 170.155094 
L 213.278268 206.534187 
z
" style="fill:#1f77b4;"/>
   </g>
   <g id="patch_53">
    <path d="M 213.510045 206.285886 
C 213.548608 206.244441 213.587139 206.202965 213.625636 206.161459 
C 213.664133 206.119952 213.702597 206.078415 213.741028 206.036847 
L 174.661413 169.906423 
C 174.642197 169.927207 174.622965 169.947976 174.603716 169.968729 
C 174.584468 169.989483 174.565203 170.010221 174.545921 170.030943 
L 213.510045 206.285886 
z
" style="fill:#ff7f0e;"/>
   </g>
   <g id="patch_54">
    <path d="M 213.741028 206.036847 
C 213.779459 205.995279 213.817857 205.95368 213.856222 205.912051 
C 213.894586 205.870422 213.932918 205.828762 213.971216 205.787071 
L 174.776506 169.781536 
C 174.757357 169.802381 174.738192 169.823211 174.719009 169.844025 
C 174.699827 169.86484 174.680628 169.885639 174.661413 169.906423 
L 213.741028 206.036847 
z
" style="fill:#2ca02c;"/>
   </g>
   <g id="patch_55">
    <path d="M 213.971216 205.787071 
C 214.009514 205.745381 214.047779 205.70366 214.086011 205.661909 
C 214.124242 205.620157 214.162441 205.578375 214.200605 205.536563 
L 174.891201 169.656281 
C 174.872119 169.677188 174.85302 169.698079 174.833904 169.718954 
C 174.814788 169.73983 174.795656 169.760691 174.776506 169.781536 
L 213.971216 205.787071 
z
" style="fill:#d62728;"/>
   </g>
   <g id="patch_56">
    <path d="M 214.200605 205.536563 
C 214.23877 205.49475 214.276902 205.452908 214.315 205.411034 
C 214.353098 205.369161 214.391163 205.327258 214.429194 205.285324 
L 175.005496 169.530662 
C 174.98648 169.551629 174.967448 169.572581 174.948399 169.593517 
C 174.929349 169.614454 174.910284 169.635375 174.891201 169.656281 
L 214.200605 205.536563 
z
" style="fill:#9467bd;"/>
   </g>
   <g id="patch_57">
    <path d="M 214.429194 205.285324 
C 214.462153 205.248983 214.495087 205.212619 214.527995 205.176233 
C 214.560904 205.139846 214.593787 205.103437 214.626645 205.067005 
L 175.104221 169.421503 
C 175.087792 169.439719 175.07135 169.457923 175.054896 169.476116 
C 175.038442 169.49431 175.021975 169.512491 175.005496 169.530662 
L 214.429194 205.285324 
z
" style="fill:#8c564b;"/>
   </g>
   <g id="patch_58">
    <path d="M 214.626645 205.067005 
C 214.659503 205.030574 214.692336 204.994119 214.725144 204.957642 
C 214.757951 204.921164 214.790734 204.884665 214.823491 204.848142 
L 175.202644 169.312071 
C 175.186265 169.330332 175.169874 169.348582 175.15347 169.366821 
C 175.137066 169.385059 175.12065 169.403287 175.104221 169.421503 
L 214.626645 205.067005 
z
" style="fill:#e377c2;"/>
   </g>
   <g id="patch_59">
    <path d="M 214.823491 204.848142 
C 214.856248 204.811619 214.88898 204.775074 214.921687 204.738506 
C 214.954394 204.701939 214.987075 204.665348 215.019731 204.628735 
L 175.300764 169.202368 
C 175.284436 169.220674 175.268095 169.238969 175.251742 169.257253 
C 175.235389 169.275537 175.219023 169.29381 175.202644 169.312071 
L 214.823491 204.848142 
z
" style="fill:#7f7f7f;"/>
   </g>
   <g id="patch_60">
    <path d="M 215.019731 204.628735 
C 215.052387 204.592122 215.085018 204.555486 215.117623 204.518828 
C 215.150229 204.48217 215.182809 204.44549 215.215364 204.408786 
L 175.39858 169.092393 
C 175.382303 169.110745 175.366013 169.129085 175.34971 169.147414 
C 175.333407 169.165743 175.317092 169.184061 175.300764 169.202368 
L 215.019731 204.628735 
z
" style="fill:#bcbd22;"/>
   </g>
   <g id="patch_61">
    <path d="M 215.215364 204.408786 
C 215.245413 204.374908 215.275441 204.34101 215.305447 204.307093 
C 215.335453 204.273176 215.365438 204.239239 215.395401 204.205284 
L 175.488599 168.990642 
C 175.473617 169.00762 175.458625 169.024588 175.443622 169.041546 
C 175.428619 169.058505 175.413605 169.075454 175.39858 169.092393 
L 215.215364 204.408786 
z
" style="fill:#17becf;"/>
   </g>
   <g id="patch_62">
    <path d="M 215.395401 204.205284 
C 215.425364 204.171329 215.455305 204.137354 215.485225 204.103361 
C 215.515144 204.069367 215.545042 204.035355 215.574918 204.001323 
L 175.578358 168.888661 
C 175.56342 168.905677 175.548471 168.922684 175.533511 168.93968 
C 175.518551 168.956677 175.50358 168.973664 175.488599 168.990642 
L 215.395401 204.205284 
z
" style="fill:#1f77b4;"/>
   </g>
   <g id="patch_63">
    <path d="M 215.574918 204.001323 
C 215.602304 203.970128 215.629671 203.938918 215.65702 203.907691 
C 215.684369 203.876465 215.711699 203.845222 215.739012 203.813964 
L 175.660404 168.794982 
C 175.646748 168.810611 175.633083 168.826232 175.619408 168.841846 
C 175.605734 168.857459 175.59205 168.873064 175.578358 168.888661 
L 215.574918 204.001323 
z
" style="fill:#ff7f0e;"/>
   </g>
   <g id="patch_64">
    <path d="M 215.739012 203.813964 
C 215.766324 203.782705 215.793618 203.751431 215.820894 203.72014 
C 215.84817 203.68885 215.875427 203.657544 215.902666 203.626221 
L 175.742231 168.701111 
C 175.728612 168.716772 175.714983 168.732425 175.701345 168.74807 
C 175.687707 168.763715 175.67406 168.779353 175.660404 168.794982 
L 215.739012 203.813964 
z
" style="fill:#2ca02c;"/>
   </g>
   <g id="patch_65">
    <path d="M 215.902666 203.626221 
C 215.929905 203.594899 215.957126 203.563561 215.984328 203.532207 
C 216.011531 203.500852 216.038715 203.469482 216.065881 203.438096 
L 175.823839 168.607048 
C 175.810256 168.622741 175.796664 168.638426 175.783063 168.654103 
C 175.769461 168.66978 175.755851 168.685449 175.742231 168.701111 
L 215.902666 203.626221 
z
" style="fill:#d62728;"/>
   </g>
   <g id="patch_66">
    <path d="M 216.065881 203.438096 
C 216.093047 203.40671 216.120194 203.375309 216.147323 203.343891 
C 216.174452 203.312473 216.201563 203.28104 216.228655 203.24959 
L 175.905226 168.512795 
C 175.89168 168.52852 175.878124 168.544237 175.86456 168.559945 
C 175.850995 168.575654 175.837422 168.591355 175.823839 168.607048 
L 216.065881 203.438096 
z
" style="fill:#9467bd;"/>
   </g>
   <g id="patch_67">
    <path d="M 216.228655 203.24959 
C 216.255747 203.218141 216.282821 203.186675 216.309877 203.155194 
C 216.336932 203.123713 216.363969 203.092216 216.390988 203.060704 
L 175.986392 168.418352 
C 175.972883 168.434108 175.959364 168.449857 175.945837 168.465597 
C 175.932309 168.481338 175.918772 168.49707 175.905226 168.512795 
L 216.228655 203.24959 
z
" style="fill:#8c564b;"/>
   </g>
   <g id="patch_68">
    <path d="M 216.390988 203.060704 
C 216.415549 203.032057 216.440095 203.003397 216.464626 202.974725 
C 216.489156 202.946052 216.513672 202.917366 216.538172 202.888667 
L 176.059984 168.332334 
C 176.047734 168.346683 176.035477 168.361026 176.023211 168.375362 
C 176.010946 168.389699 175.998673 168.404028 175.986392 168.418352 
L 216.390988 203.060704 
z
" style="fill:#e377c2;"/>
   </g>
   <g id="patch_69">
    <path d="M 216.538172 202.888667 
C 216.562672 202.859969 216.587157 202.831257 216.611627 202.802532 
C 216.636096 202.773807 216.660551 202.745069 216.68499 202.716319 
L 176.133393 168.246159 
C 176.121174 168.260535 176.108947 168.274904 176.096712 168.289266 
C 176.084477 168.303628 176.072235 168.317984 176.059984 168.332334 
L 216.538172 202.888667 
z
" style="fill:#7f7f7f;"/>
   </g>
   <g id="patch_70">
    <path d="M 216.68499 202.716319 
C 216.709429 202.687568 216.733853 202.658804 216.758261 202.630027 
C 216.78267 202.60125 216.807063 202.572461 216.831441 202.543658 
L 176.206619 168.159829 
C 176.19443 168.17423 176.182233 168.188625 176.170029 168.203014 
C 176.157825 168.217402 176.145613 168.231784 176.133393 168.246159 
L 216.68499 202.716319 
z
" style="fill:#bcbd22;"/>
   </g>
   <g id="patch_71">
    <path d="M 216.831441 202.543658 
C 216.855819 202.514855 216.880182 202.486039 216.904529 202.457211 
C 216.928876 202.428382 216.953208 202.39954 216.977525 202.370686 
L 176.279661 168.073343 
C 176.267502 168.08777 176.255337 168.102191 176.243163 168.116605 
C 176.230989 168.13102 176.218808 168.145428 176.206619 168.159829 
L 216.831441 202.543658 
z
" style="fill:#17becf;"/>
   </g>
   <g id="patch_72">
    <path d="M 216.977525 202.370686 
C 217.001841 202.341831 217.026143 202.312964 217.050428 202.284084 
C 217.074714 202.255203 217.098985 202.22631 217.12324 202.197404 
L 176.352518 167.986702 
C 176.340391 168.001155 176.328256 168.015602 176.316113 168.030042 
C 176.30397 168.044482 176.291819 168.058916 176.279661 168.073343 
L 216.977525 202.370686 
z
" style="fill:#1f77b4;"/>
   </g>
   <g id="matplotlib.axis_1">
    <g id="text_1">
     <!-- Clinically Healthy Reference -->
     <g transform="translate(0.72 283.749344)scale(0.17 -0.17)">
      <defs>
       <path d="M 67 4 
Q 61.8125 1.3125 56.203125 -0.046875 
Q 50.59375 -1.421875 44.484375 -1.421875 
Q 26.265625 -1.421875 15.625 8.765625 
Q 4.984375 18.953125 4.984375 36.375 
Q 4.984375 53.859375 15.625 64.03125 
Q 26.265625 74.21875 44.484375 74.21875 
Q 50.59375 74.21875 56.203125 72.84375 
Q 61.8125 71.484375 67 68.796875 
L 67 53.71875 
Q 61.765625 57.28125 56.6875 58.9375 
Q 51.609375 60.59375 46 60.59375 
Q 35.9375 60.59375 30.171875 54.140625 
Q 24.421875 47.703125 24.421875 36.375 
Q 24.421875 25.09375 30.171875 18.640625 
Q 35.9375 12.203125 46 12.203125 
Q 51.609375 12.203125 56.6875 13.859375 
Q 61.765625 15.53125 67 19.09375 
z
" id="DejaVuSans-Bold-67"/>
       <path d="M 8.40625 75.984375 
L 25.875 75.984375 
L 25.875 0 
L 8.40625 0 
z
" id="DejaVuSans-Bold-108"/>
       <path d="M 8.40625 54.6875 
L 25.875 54.6875 
L 25.875 0 
L 8.40625 0 
z
M 8.40625 75.984375 
L 25.875 75.984375 
L 25.875 61.71875 
L 8.40625 61.71875 
z
" id="DejaVuSans-Bold-105"/>
       <path d="M 63.375 33.296875 
L 63.375 0 
L 45.796875 0 
L 45.796875 5.421875 
L 45.796875 25.484375 
Q 45.796875 32.5625 45.484375 35.25 
Q 45.171875 37.9375 44.390625 39.203125 
Q 43.359375 40.921875 41.59375 41.875 
Q 39.84375 42.828125 37.59375 42.828125 
Q 32.125 42.828125 29 38.59375 
Q 25.875 34.375 25.875 26.90625 
L 25.875 0 
L 8.40625 0 
L 8.40625 54.6875 
L 25.875 54.6875 
L 25.875 46.6875 
Q 29.828125 51.46875 34.265625 53.734375 
Q 38.71875 56 44.09375 56 
Q 53.5625 56 58.46875 50.1875 
Q 63.375 44.390625 63.375 33.296875 
z
" id="DejaVuSans-Bold-110"/>
       <path d="M 52.59375 52.984375 
L 52.59375 38.71875 
Q 49.03125 41.15625 45.4375 42.328125 
Q 41.84375 43.5 37.984375 43.5 
Q 30.671875 43.5 26.59375 39.234375 
Q 22.515625 34.96875 22.515625 27.296875 
Q 22.515625 19.625 26.59375 15.34375 
Q 30.671875 11.078125 37.984375 11.078125 
Q 42.09375 11.078125 45.78125 12.296875 
Q 49.46875 13.53125 52.59375 15.921875 
L 52.59375 1.609375 
Q 48.484375 0.09375 44.265625 -0.65625 
Q 40.046875 -1.421875 35.796875 -1.421875 
Q 21 -1.421875 12.640625 6.171875 
Q 4.296875 13.765625 4.296875 27.296875 
Q 4.296875 40.828125 12.640625 48.40625 
Q 21 56 35.796875 56 
Q 40.09375 56 44.265625 55.25 
Q 48.4375 54.5 52.59375 52.984375 
z
" id="DejaVuSans-Bold-99"/>
       <path d="M 32.90625 24.609375 
Q 27.4375 24.609375 24.671875 22.75 
Q 21.921875 20.90625 21.921875 17.28125 
Q 21.921875 13.96875 24.140625 12.078125 
Q 26.375 10.203125 30.328125 10.203125 
Q 35.25 10.203125 38.625 13.734375 
Q 42 17.28125 42 22.609375 
L 42 24.609375 
z
M 59.625 31.203125 
L 59.625 0 
L 42 0 
L 42 8.109375 
Q 38.484375 3.125 34.078125 0.84375 
Q 29.6875 -1.421875 23.390625 -1.421875 
Q 14.890625 -1.421875 9.59375 3.53125 
Q 4.296875 8.5 4.296875 16.40625 
Q 4.296875 26.03125 10.90625 30.515625 
Q 17.53125 35.015625 31.6875 35.015625 
L 42 35.015625 
L 42 36.375 
Q 42 40.53125 38.71875 42.453125 
Q 35.453125 44.390625 28.515625 44.390625 
Q 22.90625 44.390625 18.0625 43.265625 
Q 13.234375 42.140625 9.078125 39.890625 
L 9.078125 53.21875 
Q 14.703125 54.59375 20.359375 55.296875 
Q 26.03125 56 31.6875 56 
Q 46.484375 56 53.046875 50.171875 
Q 59.625 44.34375 59.625 31.203125 
z
" id="DejaVuSans-Bold-97"/>
       <path d="M 1.21875 54.6875 
L 18.703125 54.6875 
L 33.40625 17.578125 
L 45.90625 54.6875 
L 63.375 54.6875 
L 40.375 -5.171875 
Q 36.921875 -14.3125 32.296875 -17.9375 
Q 27.6875 -21.578125 20.125 -21.578125 
L 10.015625 -21.578125 
L 10.015625 -10.109375 
L 15.484375 -10.109375 
Q 19.921875 -10.109375 21.9375 -8.6875 
Q 23.96875 -7.28125 25.09375 -3.609375 
L 25.59375 -2.09375 
z
" id="DejaVuSans-Bold-121"/>
       <path id="DejaVuSans-Bold-32"/>
       <path d="M 9.1875 72.90625 
L 27.984375 72.90625 
L 27.984375 45.125 
L 55.71875 45.125 
L 55.71875 72.90625 
L 74.515625 72.90625 
L 74.515625 0 
L 55.71875 0 
L 55.71875 30.90625 
L 27.984375 30.90625 
L 27.984375 0 
L 9.1875 0 
z
" id="DejaVuSans-Bold-72"/>
       <path d="M 62.984375 27.484375 
L 62.984375 22.515625 
L 22.125 22.515625 
Q 22.75 16.359375 26.5625 13.28125 
Q 30.375 10.203125 37.203125 10.203125 
Q 42.71875 10.203125 48.5 11.84375 
Q 54.296875 13.484375 60.40625 16.796875 
L 60.40625 3.328125 
Q 54.203125 0.984375 48 -0.21875 
Q 41.796875 -1.421875 35.59375 -1.421875 
Q 20.75 -1.421875 12.515625 6.125 
Q 4.296875 13.671875 4.296875 27.296875 
Q 4.296875 40.671875 12.375 48.328125 
Q 20.453125 56 34.625 56 
Q 47.515625 56 55.25 48.234375 
Q 62.984375 40.484375 62.984375 27.484375 
z
M 45.015625 33.296875 
Q 45.015625 38.28125 42.109375 41.328125 
Q 39.203125 44.390625 34.515625 44.390625 
Q 29.4375 44.390625 26.265625 41.53125 
Q 23.09375 38.671875 22.3125 33.296875 
z
" id="DejaVuSans-Bold-101"/>
       <path d="M 27.484375 70.21875 
L 27.484375 54.6875 
L 45.515625 54.6875 
L 45.515625 42.1875 
L 27.484375 42.1875 
L 27.484375 19 
Q 27.484375 15.1875 29 13.84375 
Q 30.515625 12.5 35.015625 12.5 
L 44 12.5 
L 44 0 
L 29 0 
Q 18.65625 0 14.328125 4.3125 
Q 10.015625 8.640625 10.015625 19 
L 10.015625 42.1875 
L 1.3125 42.1875 
L 1.3125 54.6875 
L 10.015625 54.6875 
L 10.015625 70.21875 
z
" id="DejaVuSans-Bold-116"/>
       <path d="M 63.375 33.296875 
L 63.375 0 
L 45.796875 0 
L 45.796875 5.421875 
L 45.796875 25.390625 
Q 45.796875 32.5625 45.484375 35.25 
Q 45.171875 37.9375 44.390625 39.203125 
Q 43.359375 40.921875 41.59375 41.875 
Q 39.84375 42.828125 37.59375 42.828125 
Q 32.125 42.828125 29 38.59375 
Q 25.875 34.375 25.875 26.90625 
L 25.875 0 
L 8.40625 0 
L 8.40625 75.984375 
L 25.875 75.984375 
L 25.875 46.6875 
Q 29.828125 51.46875 34.265625 53.734375 
Q 38.71875 56 44.09375 56 
Q 53.5625 56 58.46875 50.1875 
Q 63.375 44.390625 63.375 33.296875 
z
" id="DejaVuSans-Bold-104"/>
       <path d="M 35.890625 40.578125 
Q 41.796875 40.578125 44.359375 42.765625 
Q 46.921875 44.96875 46.921875 50 
Q 46.921875 54.984375 44.359375 57.125 
Q 41.796875 59.28125 35.890625 59.28125 
L 27.984375 59.28125 
L 27.984375 40.578125 
z
M 27.984375 27.59375 
L 27.984375 0 
L 9.1875 0 
L 9.1875 72.90625 
L 37.890625 72.90625 
Q 52.296875 72.90625 59 68.0625 
Q 65.71875 63.234375 65.71875 52.78125 
Q 65.71875 45.5625 62.21875 40.921875 
Q 58.734375 36.28125 51.703125 34.078125 
Q 55.5625 33.203125 58.609375 30.09375 
Q 61.671875 27 64.796875 20.703125 
L 75 0 
L 54.984375 0 
L 46.09375 18.109375 
Q 43.40625 23.578125 40.640625 25.578125 
Q 37.890625 27.59375 33.296875 27.59375 
z
" id="DejaVuSans-Bold-82"/>
       <path d="M 44.390625 75.984375 
L 44.390625 64.5 
L 34.71875 64.5 
Q 31 64.5 29.53125 63.15625 
Q 28.078125 61.8125 28.078125 58.5 
L 28.078125 54.6875 
L 43.015625 54.6875 
L 43.015625 42.1875 
L 28.078125 42.1875 
L 28.078125 0 
L 10.59375 0 
L 10.59375 42.1875 
L 1.90625 42.1875 
L 1.90625 54.6875 
L 10.59375 54.6875 
L 10.59375 58.5 
Q 10.59375 67.4375 15.578125 71.703125 
Q 20.5625 75.984375 31 75.984375 
z
" id="DejaVuSans-Bold-102"/>
       <path d="M 49.03125 39.796875 
Q 46.734375 40.875 44.453125 41.375 
Q 42.1875 41.890625 39.890625 41.890625 
Q 33.15625 41.890625 29.515625 37.5625 
Q 25.875 33.25 25.875 25.203125 
L 25.875 0 
L 8.40625 0 
L 8.40625 54.6875 
L 25.875 54.6875 
L 25.875 45.703125 
Q 29.25 51.078125 33.609375 53.53125 
Q 37.984375 56 44.09375 56 
Q 44.96875 56 45.984375 55.921875 
Q 47.015625 55.859375 48.96875 55.609375 
z
" id="DejaVuSans-Bold-114"/>
      </defs>
      <use xlink:href="#DejaVuSans-Bold-67"/>
      <use x="73.388672" xlink:href="#DejaVuSans-Bold-108"/>
      <use x="107.666016" xlink:href="#DejaVuSans-Bold-105"/>
      <use x="141.943359" xlink:href="#DejaVuSans-Bold-110"/>
      <use x="213.134766" xlink:href="#DejaVuSans-Bold-105"/>
      <use x="247.412109" xlink:href="#DejaVuSans-Bold-99"/>
      <use x="306.689453" xlink:href="#DejaVuSans-Bold-97"/>
      <use x="374.169922" xlink:href="#DejaVuSans-Bold-108"/>
      <use x="408.447266" xlink:href="#DejaVuSans-Bold-108"/>
      <use x="442.724609" xlink:href="#DejaVuSans-Bold-121"/>
      <use x="507.910156" xlink:href="#DejaVuSans-Bold-32"/>
      <use x="542.724609" xlink:href="#DejaVuSans-Bold-72"/>
      <use x="626.416016" xlink:href="#DejaVuSans-Bold-101"/>
      <use x="694.238281" xlink:href="#DejaVuSans-Bold-97"/>
      <use x="761.71875" xlink:href="#DejaVuSans-Bold-108"/>
      <use x="795.996094" xlink:href="#DejaVuSans-Bold-116"/>
      <use x="843.798828" xlink:href="#DejaVuSans-Bold-104"/>
      <use x="914.990234" xlink:href="#DejaVuSans-Bold-121"/>
      <use x="980.175781" xlink:href="#DejaVuSans-Bold-32"/>
      <use x="1014.990234" xlink:href="#DejaVuSans-Bold-82"/>
      <use x="1091.992188" xlink:href="#DejaVuSans-Bold-101"/>
      <use x="1159.814453" xlink:href="#DejaVuSans-Bold-102"/>
      <use x="1203.320312" xlink:href="#DejaVuSans-Bold-101"/>
      <use x="1271.142578" xlink:href="#DejaVuSans-Bold-114"/>
      <use x="1320.458984" xlink:href="#DejaVuSans-Bold-101"/>
      <use x="1388.28125" xlink:href="#DejaVuSans-Bold-110"/>
      <use x="1459.472656" xlink:href="#DejaVuSans-Bold-99"/>
      <use x="1518.75" xlink:href="#DejaVuSans-Bold-101"/>
     </g>
    </g>
   </g>
   <g id="matplotlib.axis_2"/>
  </g>
 </g>
</svg>
