<?xml version="1.0" encoding="utf-8" standalone="no"?>
<!DOCTYPE svg PUBLIC "-//W3C//DTD SVG 1.1//EN"
  "http://www.w3.org/Graphics/SVG/1.1/DTD/svg11.dtd">
<!-- Created with matplotlib (https://matplotlib.org/) -->
<svg height="288.137625pt" version="1.1" viewBox="0 0 271.163594 288.137625" width="271.163594pt" xmlns="http://www.w3.org/2000/svg" xmlns:xlink="http://www.w3.org/1999/xlink">
 <metadata>
  <rdf:RDF xmlns:cc="http://creativecommons.org/ns#" xmlns:dc="http://purl.org/dc/elements/1.1/" xmlns:rdf="http://www.w3.org/1999/02/22-rdf-syntax-ns#">
   <cc:Work>
    <dc:type rdf:resource="http://purl.org/dc/dcmitype/StillImage"/>
    <dc:date>2024-02-20T15:41:06.203391</dc:date>
    <dc:format>image/svg+xml</dc:format>
    <dc:creator>
     <cc:Agent>
      <dc:title>Matplotlib v3.3.4, https://matplotlib.org/</dc:title>
     </cc:Agent>
    </dc:creator>
   </cc:Work>
  </rdf:RDF>
 </metadata>
 <defs>
  <style type="text/css">*{stroke-linecap:butt;stroke-linejoin:round;}</style>
 </defs>
 <g id="figure_1">
  <g id="patch_1">
   <path d="M 0 288.137625 
L 271.163594 288.137625 
L 271.163594 -0 
L 0 -0 
z
" style="fill:#ffffff;"/>
  </g>
  <g id="axes_1">
   <g id="patch_2">
    <path d="M 217.123244 202.197399 
C 235.089612 180.785916 243.9188 153.136559 241.686607 125.275129 
C 239.454414 97.4137 226.335702 71.522758 205.189515 53.244882 
L 170.385656 93.510441 
C 180.958749 102.649379 187.518105 115.59485 188.634202 129.525565 
C 189.750298 143.456279 185.335704 157.280958 176.352521 167.986699 
L 217.123244 202.197399 
z
" style="fill:#1f77b4;"/>
   </g>
   <g id="patch_3">
    <path d="M 205.189515 53.244882 
C 191.081043 41.05011 174.012553 32.774347 155.700302 29.24973 
C 137.388052 25.725112 118.467099 27.073872 100.839968 33.160391 
L 118.210883 83.468195 
C 127.024448 80.424936 136.484924 79.750556 145.64105 81.512865 
C 154.797175 83.275174 163.33142 87.413055 170.385656 93.510441 
L 205.189515 53.244882 
z
" style="fill:#ff7f0e;"/>
   </g>
   <g id="patch_4">
    <path d="M 100.839968 33.160391 
C 86.404291 38.144924 73.208972 46.17828 62.152533 56.713437 
C 51.096094 67.248593 42.435323 80.040869 36.759967 94.219187 
L 86.170882 113.997593 
C 89.00856 106.908435 93.338945 100.512297 98.867165 95.244718 
C 104.395384 89.97714 110.993044 85.960462 118.210883 83.468195 
L 100.839968 33.160391 
z
" style="fill:#2ca02c;"/>
   </g>
   <g id="patch_5">
    <path d="M 36.759967 94.219187 
C 33.084595 103.401094 30.706781 113.050598 29.695221 122.888918 
C 28.683662 132.727237 29.048193 142.658705 30.778283 152.396393 
L 83.18004 143.086196 
C 82.314995 138.217352 82.132729 133.251618 82.638509 128.332459 
C 83.144289 123.413299 84.333196 118.588547 86.170882 113.997593 
L 36.759967 94.219187 
z
" style="fill:#d62728;"/>
   </g>
   <g id="patch_6">
    <path d="M 30.778283 152.396393 
C 31.842032 158.383621 33.416885 164.268698 35.485552 169.987009 
C 37.554219 175.705319 40.109101 181.235859 43.122147 186.517906 
L 89.351972 160.146953 
C 87.845449 157.50593 86.568008 154.74066 85.533674 151.881504 
C 84.499341 149.022349 83.711914 146.07981 83.18004 143.086196 
L 30.778283 152.396393 
z
" style="fill:#9467bd;"/>
   </g>
   <g id="patch_7">
    <path d="M 43.122147 186.517906 
C 45.362006 190.44451 47.849727 194.224445 50.570193 197.834744 
C 53.290659 201.445042 56.238349 204.878377 59.395353 208.113886 
L 97.488575 170.944943 
C 95.910073 169.327188 94.436228 167.610521 93.075995 165.805372 
C 91.715762 164.000223 90.471902 162.110255 89.351972 160.146953 
L 43.122147 186.517906 
z
" style="fill:#8c564b;"/>
   </g>
   <g id="patch_8">
    <path d="M 59.395353 208.113886 
C 62.53057 211.327066 65.865924 214.338688 69.381427 217.130703 
C 72.89693 219.922718 76.585546 222.489538 80.425169 224.815781 
L 108.003483 179.295891 
C 106.083671 178.132769 104.239363 176.849359 102.481612 175.453351 
C 100.72386 174.057344 99.056183 172.551533 97.488575 170.944943 
L 59.395353 208.113886 
z
" style="fill:#e377c2;"/>
   </g>
   <g id="patch_9">
    <path d="M 80.425169 224.815781 
C 83.375587 226.603298 86.411158 228.246333 89.521131 229.739068 
C 92.631104 231.231803 95.811804 232.572474 99.051969 233.756334 
L 117.316883 183.766167 
C 115.6968 183.174237 114.10645 182.503902 112.551464 181.757534 
C 110.996477 181.011167 109.478692 180.189649 108.003483 179.295891 
L 80.425169 224.815781 
z
" style="fill:#7f7f7f;"/>
   </g>
   <g id="patch_10">
    <path d="M 99.051969 233.756334 
C 101.794244 234.758279 104.576581 235.646977 107.391921 236.420173 
C 110.20726 237.19337 113.05322 237.850409 115.922578 238.389625 
L 125.752187 186.082813 
C 124.317508 185.813205 122.894529 185.484685 121.486859 185.098087 
C 120.079189 184.711489 118.68802 184.26714 117.316883 183.766167 
L 99.051969 233.756334 
z
" style="fill:#bcbd22;"/>
   </g>
   <g id="patch_11">
    <path d="M 115.922578 238.389625 
C 118.602979 238.893332 121.30175 239.293837 124.012914 239.590254 
C 126.724078 239.886671 129.445633 240.078781 132.171553 240.166158 
L 133.876675 186.971079 
C 132.513715 186.92739 131.152938 186.831336 129.797356 186.683127 
C 128.441773 186.534919 127.092388 186.334666 125.752187 186.082813 
L 115.922578 238.389625 
z
" style="fill:#17becf;"/>
   </g>
   <g id="patch_12">
    <path d="M 132.171553 240.166158 
C 134.57549 240.243214 136.981347 240.238771 139.384983 240.152836 
C 141.788618 240.066901 144.18865 239.899524 146.580946 239.650993 
L 141.081372 186.713497 
C 139.885224 186.837762 138.685207 186.921451 137.48339 186.964418 
C 136.281572 187.007385 135.078643 187.009607 133.876675 186.971079 
L 132.171553 240.166158 
z
" style="fill:#1f77b4;"/>
   </g>
   <g id="patch_13">
    <path d="M 146.580946 239.650993 
C 148.947402 239.405147 151.304951 239.080029 153.649618 238.676187 
C 155.994286 238.272346 158.324755 237.790008 160.637098 237.229986 
L 148.109448 185.502993 
C 146.953276 185.783004 145.788042 186.024173 144.615708 186.226094 
C 143.443374 186.428014 142.2646 186.590573 141.081372 186.713497 
L 146.580946 239.650993 
z
" style="fill:#ff7f0e;"/>
   </g>
   <g id="patch_14">
    <path d="M 160.637098 237.229986 
C 162.550531 236.766576 164.45074 236.25017 166.33553 235.681365 
C 168.220321 235.112559 170.088968 234.491573 171.939315 233.819122 
L 153.760556 183.797561 
C 152.835382 184.133786 151.901059 184.44428 150.958663 184.728682 
C 150.016268 185.013085 149.066164 185.271288 148.109448 185.502993 
L 160.637098 237.229986 
z
" style="fill:#2ca02c;"/>
   </g>
   <g id="patch_15">
    <path d="M 171.939315 233.819122 
C 172.974292 233.442992 174.00337 233.050825 175.026178 232.64276 
C 176.048985 232.234696 177.065398 231.810784 178.075051 231.371178 
L 156.828424 182.573589 
C 156.323598 182.793392 155.815391 183.005348 155.303987 183.20938 
C 154.792584 183.413412 154.278045 183.609496 153.760556 183.797561 
L 171.939315 233.819122 
z
" style="fill:#d62728;"/>
   </g>
   <g id="patch_16">
    <path d="M 178.075051 231.371178 
C 179.070415 230.937794 180.059091 230.489207 181.040732 230.025575 
C 182.022372 229.561944 182.996863 229.083322 183.963861 228.589877 
L 159.772829 181.182939 
C 159.28933 181.429661 158.802085 181.668972 158.311264 181.900788 
C 157.820444 182.132603 157.326106 182.356897 156.828424 182.573589 
L 178.075051 231.371178 
z
" style="fill:#9467bd;"/>
   </g>
   <g id="patch_17">
    <path d="M 183.963861 228.589877 
C 184.83832 228.143654 185.706564 227.685355 186.568344 227.215111 
C 187.430124 226.744867 188.285357 226.262723 189.133798 225.768818 
L 162.357797 179.772409 
C 161.933577 180.019362 161.50596 180.260433 161.07507 180.495555 
C 160.64418 180.730677 160.210058 180.959827 159.772829 181.182939 
L 183.963861 228.589877 
z
" style="fill:#8c564b;"/>
   </g>
   <g id="patch_18">
    <path d="M 189.133798 225.768818 
C 189.937346 225.301047 190.734731 224.822767 191.525748 224.334102 
C 192.316764 223.845437 193.101344 223.346428 193.879285 222.837205 
L 164.730541 178.306603 
C 164.34157 178.561214 163.949281 178.810718 163.553772 179.055051 
C 163.158264 179.299383 162.759572 179.538523 162.357797 179.772409 
L 189.133798 225.768818 
z
" style="fill:#e377c2;"/>
   </g>
   <g id="patch_19">
    <path d="M 193.879285 222.837205 
C 194.648534 222.333672 195.411227 221.820194 196.167171 221.296899 
C 196.923116 220.773605 197.672249 220.240539 198.414382 219.697834 
L 166.99809 176.736917 
C 166.627023 177.008269 166.252457 177.274803 165.874484 177.53645 
C 165.496512 177.798097 165.115165 178.054836 164.730541 178.306603 
L 193.879285 222.837205 
z
" style="fill:#7f7f7f;"/>
   </g>
   <g id="patch_20">
    <path d="M 198.414382 219.697834 
C 199.143937 219.164329 199.866667 218.621553 200.582396 218.069639 
C 201.298125 217.517725 202.006796 216.956717 202.708237 216.386753 
L 169.145017 175.081377 
C 168.794297 175.366359 168.439961 175.646862 168.082096 175.922819 
C 167.724232 176.198776 167.362867 176.470164 166.99809 176.736917 
L 198.414382 219.697834 
z
" style="fill:#bcbd22;"/>
   </g>
   <g id="patch_21">
    <path d="M 202.708237 216.386753 
C 203.349206 215.865925 203.984093 215.337654 204.612767 214.802049 
C 205.241441 214.266443 205.863861 213.723539 206.479899 213.173447 
L 171.030848 173.474724 
C 170.722829 173.74977 170.411619 174.021222 170.097282 174.289024 
C 169.782945 174.556827 169.465502 174.820962 169.145017 175.081377 
L 202.708237 216.386753 
z
" style="fill:#17becf;"/>
   </g>
   <g id="patch_22">
    <path d="M 206.479899 213.173447 
C 206.743359 212.93819 207.005647 212.701622 207.266752 212.463754 
C 207.527857 212.225886 207.787777 211.986719 208.046502 211.746263 
L 171.814149 172.761132 
C 171.684787 172.88136 171.554827 173.000943 171.424274 173.119877 
C 171.293722 173.238811 171.162578 173.357095 171.030848 173.474724 
L 206.479899 213.173447 
z
" style="fill:#1f77b4;"/>
   </g>
   <g id="patch_23">
    <path d="M 208.046502 211.746263 
C 208.278593 211.53056 208.50972 211.313822 208.739875 211.096056 
C 208.970031 210.878289 209.199213 210.659495 209.427415 210.439682 
L 172.504606 172.107841 
C 172.390505 172.217748 172.275914 172.327144 172.160836 172.436028 
C 172.045758 172.544911 171.930195 172.65328 171.814149 172.761132 
L 208.046502 211.746263 
z
" style="fill:#ff7f0e;"/>
   </g>
   <g id="patch_24">
    <path d="M 209.427415 210.439682 
C 209.633171 210.24149 209.838128 210.04247 210.042281 209.842627 
C 210.246434 209.642785 210.449782 209.442121 210.65232 209.240641 
L 173.117058 171.508321 
C 173.015789 171.609061 172.914115 171.709392 172.812039 171.809314 
C 172.709962 171.909235 172.607484 172.008745 172.504606 172.107841 
L 209.427415 210.439682 
z
" style="fill:#2ca02c;"/>
   </g>
   <g id="patch_25">
    <path d="M 210.65232 209.240641 
C 210.784889 209.108764 210.917112 208.976537 211.048985 208.843963 
C 211.180858 208.711388 211.312381 208.578467 211.443554 208.445199 
L 173.512675 171.1106 
C 173.447089 171.177233 173.381327 171.243694 173.315391 171.309981 
C 173.249454 171.376269 173.183343 171.442382 173.117058 171.508321 
L 210.65232 209.240641 
z
" style="fill:#d62728;"/>
   </g>
   <g id="patch_26">
    <path d="M 211.443554 208.445199 
C 211.567439 208.319335 211.691011 208.193163 211.814268 208.066685 
C 211.937525 207.940206 212.060467 207.81342 212.183093 207.68633 
L 173.882445 170.731165 
C 173.821132 170.79471 173.759661 170.858103 173.698032 170.921342 
C 173.636404 170.984582 173.574618 171.047668 173.512675 171.1106 
L 211.443554 208.445199 
z
" style="fill:#9467bd;"/>
   </g>
   <g id="patch_27">
    <path d="M 212.183093 207.68633 
C 212.298506 207.566715 212.413639 207.44683 212.52849 207.326675 
C 212.643341 207.206521 212.757911 207.086098 212.872198 206.965407 
L 174.226997 170.370704 
C 174.169854 170.431049 174.112569 170.491261 174.055143 170.551338 
C 173.997718 170.611415 173.940152 170.671357 173.882445 170.731165 
L 212.183093 207.68633 
z
" style="fill:#8c564b;"/>
   </g>
   <g id="patch_28">
    <path d="M 212.872198 206.965407 
C 212.968628 206.863574 213.064856 206.761551 213.160882 206.659338 
C 213.256909 206.557125 213.352733 206.454722 213.448355 206.35213 
L 174.515076 170.064065 
C 174.467265 170.115361 174.419353 170.166562 174.37134 170.217669 
C 174.323326 170.268776 174.275212 170.319787 174.226997 170.370704 
L 212.872198 206.965407 
z
" style="fill:#e377c2;"/>
   </g>
   <g id="patch_29">
    <path d="M 213.448355 206.35213 
C 213.543977 206.249538 213.639395 206.146757 213.734611 206.043788 
C 213.829826 205.940818 213.924838 205.837661 214.019646 205.734316 
L 174.800721 169.755158 
C 174.753318 169.806831 174.705812 169.858409 174.658204 169.909894 
C 174.610596 169.961378 174.562887 170.012769 174.515076 170.064065 
L 213.448355 206.35213 
z
" style="fill:#7f7f7f;"/>
   </g>
   <g id="patch_30">
    <path d="M 214.019646 205.734316 
C 214.103919 205.642454 214.188031 205.550444 214.271982 205.458287 
C 214.355932 205.366129 214.43972 205.273824 214.523346 205.181373 
L 175.052572 169.478686 
C 175.010759 169.524912 174.968864 169.571065 174.926889 169.617143 
C 174.884914 169.663222 174.842858 169.709227 174.800721 169.755158 
L 214.019646 205.734316 
z
" style="fill:#bcbd22;"/>
   </g>
   <g id="patch_31">
    <path d="M 214.523346 205.181373 
C 214.600003 205.096625 214.676524 205.011754 214.752908 204.92676 
C 214.829292 204.841766 214.905538 204.756649 214.981648 204.671409 
L 175.281722 169.223705 
C 175.243668 169.266325 175.205544 169.308883 175.167352 169.35138 
C 175.12916 169.393877 175.0909 169.436313 175.052572 169.478686 
L 214.523346 205.181373 
z
" style="fill:#17becf;"/>
   </g>
   <g id="patch_32">
    <path d="M 214.981648 204.671409 
C 215.050839 204.593919 215.119916 204.516327 215.188879 204.438634 
C 215.257842 204.360942 215.326692 204.283148 215.395428 204.205254 
L 175.488612 168.990627 
C 175.454244 169.029574 175.41982 169.068471 175.385338 169.107317 
C 175.350856 169.146164 175.316318 169.184959 175.281722 169.223705 
L 214.981648 204.671409 
z
" style="fill:#1f77b4;"/>
   </g>
   <g id="patch_33">
    <path d="M 215.395428 204.205254 
C 215.460726 204.131254 215.525922 204.057164 215.591015 203.982983 
C 215.656108 203.908802 215.721097 203.834531 215.785984 203.760169 
L 175.68389 168.768084 
C 175.651447 168.805265 175.618952 168.842401 175.586406 168.879491 
C 175.55386 168.916582 175.521262 168.953627 175.488612 168.990627 
L 215.395428 204.205254 
z
" style="fill:#ff7f0e;"/>
   </g>
   <g id="patch_34">
    <path d="M 215.785984 203.760169 
C 215.840625 203.697548 215.895192 203.634864 215.949686 203.572116 
C 216.004181 203.509368 216.058601 203.446556 216.112948 203.38368 
L 175.847373 168.57984 
C 175.820199 168.611278 175.792989 168.642684 175.765742 168.674058 
C 175.738495 168.705432 175.711211 168.736774 175.68389 168.768084 
L 215.785984 203.760169 
z
" style="fill:#2ca02c;"/>
   </g>
   <g id="patch_35">
    <path d="M 216.112948 203.38368 
C 216.160502 203.328664 216.207999 203.273599 216.25544 203.218485 
C 216.302881 203.163372 216.350265 203.10821 216.397593 203.052999 
L 175.989695 168.4145 
C 175.966031 168.442105 175.942339 168.469686 175.918618 168.497243 
C 175.894898 168.524799 175.871149 168.552332 175.847373 168.57984 
L 216.112948 203.38368 
z
" style="fill:#d62728;"/>
   </g>
   <g id="patch_36">
    <path d="M 216.397593 203.052999 
C 216.44492 202.997788 216.492191 202.942529 216.539406 202.887222 
C 216.58662 202.831914 216.633778 202.776558 216.680879 202.721154 
L 176.131338 168.248577 
C 176.107787 168.276279 176.084209 168.303957 176.060601 168.331611 
C 176.036994 168.359265 176.013359 168.386894 175.989695 168.4145 
L 216.397593 203.052999 
z
" style="fill:#9467bd;"/>
   </g>
   <g id="patch_37">
    <path d="M 216.680879 202.721154 
C 216.721251 202.673665 216.761582 202.62614 216.801871 202.57858 
C 216.84216 202.53102 216.882407 202.483425 216.922612 202.435794 
L 176.252204 168.105897 
C 176.232102 168.129712 176.211978 168.15351 176.191834 168.17729 
C 176.171689 168.20107 176.151524 168.224833 176.131338 168.248577 
L 216.680879 202.721154 
z
" style="fill:#8c564b;"/>
   </g>
   <g id="patch_38">
    <path d="M 216.922612 202.435794 
C 216.956116 202.396101 216.989591 202.356384 217.023038 202.316643 
C 217.056484 202.276902 217.089901 202.237136 217.123289 202.197345 
L 176.352543 167.986673 
C 176.335849 168.006568 176.31914 168.026451 176.302417 168.046322 
C 176.285694 168.066192 176.268957 168.086051 176.252204 168.105897 
L 216.922612 202.435794 
z
" style="fill:#e377c2;"/>
   </g>
   <g id="matplotlib.axis_1">
    <g id="text_1">
     <!-- Clinically Healthy Reference -->
     <g transform="translate(0.72 283.749344)scale(0.17 -0.17)">
      <defs>
       <path d="M 67 4 
Q 61.8125 1.3125 56.203125 -0.046875 
Q 50.59375 -1.421875 44.484375 -1.421875 
Q 26.265625 -1.421875 15.625 8.765625 
Q 4.984375 18.953125 4.984375 36.375 
Q 4.984375 53.859375 15.625 64.03125 
Q 26.265625 74.21875 44.484375 74.21875 
Q 50.59375 74.21875 56.203125 72.84375 
Q 61.8125 71.484375 67 68.796875 
L 67 53.71875 
Q 61.765625 57.28125 56.6875 58.9375 
Q 51.609375 60.59375 46 60.59375 
Q 35.9375 60.59375 30.171875 54.140625 
Q 24.421875 47.703125 24.421875 36.375 
Q 24.421875 25.09375 30.171875 18.640625 
Q 35.9375 12.203125 46 12.203125 
Q 51.609375 12.203125 56.6875 13.859375 
Q 61.765625 15.53125 67 19.09375 
z
" id="DejaVuSans-Bold-67"/>
       <path d="M 8.40625 75.984375 
L 25.875 75.984375 
L 25.875 0 
L 8.40625 0 
z
" id="DejaVuSans-Bold-108"/>
       <path d="M 8.40625 54.6875 
L 25.875 54.6875 
L 25.875 0 
L 8.40625 0 
z
M 8.40625 75.984375 
L 25.875 75.984375 
L 25.875 61.71875 
L 8.40625 61.71875 
z
" id="DejaVuSans-Bold-105"/>
       <path d="M 63.375 33.296875 
L 63.375 0 
L 45.796875 0 
L 45.796875 5.421875 
L 45.796875 25.484375 
Q 45.796875 32.5625 45.484375 35.25 
Q 45.171875 37.9375 44.390625 39.203125 
Q 43.359375 40.921875 41.59375 41.875 
Q 39.84375 42.828125 37.59375 42.828125 
Q 32.125 42.828125 29 38.59375 
Q 25.875 34.375 25.875 26.90625 
L 25.875 0 
L 8.40625 0 
L 8.40625 54.6875 
L 25.875 54.6875 
L 25.875 46.6875 
Q 29.828125 51.46875 34.265625 53.734375 
Q 38.71875 56 44.09375 56 
Q 53.5625 56 58.46875 50.1875 
Q 63.375 44.390625 63.375 33.296875 
z
" id="DejaVuSans-Bold-110"/>
       <path d="M 52.59375 52.984375 
L 52.59375 38.71875 
Q 49.03125 41.15625 45.4375 42.328125 
Q 41.84375 43.5 37.984375 43.5 
Q 30.671875 43.5 26.59375 39.234375 
Q 22.515625 34.96875 22.515625 27.296875 
Q 22.515625 19.625 26.59375 15.34375 
Q 30.671875 11.078125 37.984375 11.078125 
Q 42.09375 11.078125 45.78125 12.296875 
Q 49.46875 13.53125 52.59375 15.921875 
L 52.59375 1.609375 
Q 48.484375 0.09375 44.265625 -0.65625 
Q 40.046875 -1.421875 35.796875 -1.421875 
Q 21 -1.421875 12.640625 6.171875 
Q 4.296875 13.765625 4.296875 27.296875 
Q 4.296875 40.828125 12.640625 48.40625 
Q 21 56 35.796875 56 
Q 40.09375 56 44.265625 55.25 
Q 48.4375 54.5 52.59375 52.984375 
z
" id="DejaVuSans-Bold-99"/>
       <path d="M 32.90625 24.609375 
Q 27.4375 24.609375 24.671875 22.75 
Q 21.921875 20.90625 21.921875 17.28125 
Q 21.921875 13.96875 24.140625 12.078125 
Q 26.375 10.203125 30.328125 10.203125 
Q 35.25 10.203125 38.625 13.734375 
Q 42 17.28125 42 22.609375 
L 42 24.609375 
z
M 59.625 31.203125 
L 59.625 0 
L 42 0 
L 42 8.109375 
Q 38.484375 3.125 34.078125 0.84375 
Q 29.6875 -1.421875 23.390625 -1.421875 
Q 14.890625 -1.421875 9.59375 3.53125 
Q 4.296875 8.5 4.296875 16.40625 
Q 4.296875 26.03125 10.90625 30.515625 
Q 17.53125 35.015625 31.6875 35.015625 
L 42 35.015625 
L 42 36.375 
Q 42 40.53125 38.71875 42.453125 
Q 35.453125 44.390625 28.515625 44.390625 
Q 22.90625 44.390625 18.0625 43.265625 
Q 13.234375 42.140625 9.078125 39.890625 
L 9.078125 53.21875 
Q 14.703125 54.59375 20.359375 55.296875 
Q 26.03125 56 31.6875 56 
Q 46.484375 56 53.046875 50.171875 
Q 59.625 44.34375 59.625 31.203125 
z
" id="DejaVuSans-Bold-97"/>
       <path d="M 1.21875 54.6875 
L 18.703125 54.6875 
L 33.40625 17.578125 
L 45.90625 54.6875 
L 63.375 54.6875 
L 40.375 -5.171875 
Q 36.921875 -14.3125 32.296875 -17.9375 
Q 27.6875 -21.578125 20.125 -21.578125 
L 10.015625 -21.578125 
L 10.015625 -10.109375 
L 15.484375 -10.109375 
Q 19.921875 -10.109375 21.9375 -8.6875 
Q 23.96875 -7.28125 25.09375 -3.609375 
L 25.59375 -2.09375 
z
" id="DejaVuSans-Bold-121"/>
       <path id="DejaVuSans-Bold-32"/>
       <path d="M 9.1875 72.90625 
L 27.984375 72.90625 
L 27.984375 45.125 
L 55.71875 45.125 
L 55.71875 72.90625 
L 74.515625 72.90625 
L 74.515625 0 
L 55.71875 0 
L 55.71875 30.90625 
L 27.984375 30.90625 
L 27.984375 0 
L 9.1875 0 
z
" id="DejaVuSans-Bold-72"/>
       <path d="M 62.984375 27.484375 
L 62.984375 22.515625 
L 22.125 22.515625 
Q 22.75 16.359375 26.5625 13.28125 
Q 30.375 10.203125 37.203125 10.203125 
Q 42.71875 10.203125 48.5 11.84375 
Q 54.296875 13.484375 60.40625 16.796875 
L 60.40625 3.328125 
Q 54.203125 0.984375 48 -0.21875 
Q 41.796875 -1.421875 35.59375 -1.421875 
Q 20.75 -1.421875 12.515625 6.125 
Q 4.296875 13.671875 4.296875 27.296875 
Q 4.296875 40.671875 12.375 48.328125 
Q 20.453125 56 34.625 56 
Q 47.515625 56 55.25 48.234375 
Q 62.984375 40.484375 62.984375 27.484375 
z
M 45.015625 33.296875 
Q 45.015625 38.28125 42.109375 41.328125 
Q 39.203125 44.390625 34.515625 44.390625 
Q 29.4375 44.390625 26.265625 41.53125 
Q 23.09375 38.671875 22.3125 33.296875 
z
" id="DejaVuSans-Bold-101"/>
       <path d="M 27.484375 70.21875 
L 27.484375 54.6875 
L 45.515625 54.6875 
L 45.515625 42.1875 
L 27.484375 42.1875 
L 27.484375 19 
Q 27.484375 15.1875 29 13.84375 
Q 30.515625 12.5 35.015625 12.5 
L 44 12.5 
L 44 0 
L 29 0 
Q 18.65625 0 14.328125 4.3125 
Q 10.015625 8.640625 10.015625 19 
L 10.015625 42.1875 
L 1.3125 42.1875 
L 1.3125 54.6875 
L 10.015625 54.6875 
L 10.015625 70.21875 
z
" id="DejaVuSans-Bold-116"/>
       <path d="M 63.375 33.296875 
L 63.375 0 
L 45.796875 0 
L 45.796875 5.421875 
L 45.796875 25.390625 
Q 45.796875 32.5625 45.484375 35.25 
Q 45.171875 37.9375 44.390625 39.203125 
Q 43.359375 40.921875 41.59375 41.875 
Q 39.84375 42.828125 37.59375 42.828125 
Q 32.125 42.828125 29 38.59375 
Q 25.875 34.375 25.875 26.90625 
L 25.875 0 
L 8.40625 0 
L 8.40625 75.984375 
L 25.875 75.984375 
L 25.875 46.6875 
Q 29.828125 51.46875 34.265625 53.734375 
Q 38.71875 56 44.09375 56 
Q 53.5625 56 58.46875 50.1875 
Q 63.375 44.390625 63.375 33.296875 
z
" id="DejaVuSans-Bold-104"/>
       <path d="M 35.890625 40.578125 
Q 41.796875 40.578125 44.359375 42.765625 
Q 46.921875 44.96875 46.921875 50 
Q 46.921875 54.984375 44.359375 57.125 
Q 41.796875 59.28125 35.890625 59.28125 
L 27.984375 59.28125 
L 27.984375 40.578125 
z
M 27.984375 27.59375 
L 27.984375 0 
L 9.1875 0 
L 9.1875 72.90625 
L 37.890625 72.90625 
Q 52.296875 72.90625 59 68.0625 
Q 65.71875 63.234375 65.71875 52.78125 
Q 65.71875 45.5625 62.21875 40.921875 
Q 58.734375 36.28125 51.703125 34.078125 
Q 55.5625 33.203125 58.609375 30.09375 
Q 61.671875 27 64.796875 20.703125 
L 75 0 
L 54.984375 0 
L 46.09375 18.109375 
Q 43.40625 23.578125 40.640625 25.578125 
Q 37.890625 27.59375 33.296875 27.59375 
z
" id="DejaVuSans-Bold-82"/>
       <path d="M 44.390625 75.984375 
L 44.390625 64.5 
L 34.71875 64.5 
Q 31 64.5 29.53125 63.15625 
Q 28.078125 61.8125 28.078125 58.5 
L 28.078125 54.6875 
L 43.015625 54.6875 
L 43.015625 42.1875 
L 28.078125 42.1875 
L 28.078125 0 
L 10.59375 0 
L 10.59375 42.1875 
L 1.90625 42.1875 
L 1.90625 54.6875 
L 10.59375 54.6875 
L 10.59375 58.5 
Q 10.59375 67.4375 15.578125 71.703125 
Q 20.5625 75.984375 31 75.984375 
z
" id="DejaVuSans-Bold-102"/>
       <path d="M 49.03125 39.796875 
Q 46.734375 40.875 44.453125 41.375 
Q 42.1875 41.890625 39.890625 41.890625 
Q 33.15625 41.890625 29.515625 37.5625 
Q 25.875 33.25 25.875 25.203125 
L 25.875 0 
L 8.40625 0 
L 8.40625 54.6875 
L 25.875 54.6875 
L 25.875 45.703125 
Q 29.25 51.078125 33.609375 53.53125 
Q 37.984375 56 44.09375 56 
Q 44.96875 56 45.984375 55.921875 
Q 47.015625 55.859375 48.96875 55.609375 
z
" id="DejaVuSans-Bold-114"/>
      </defs>
      <use xlink:href="#DejaVuSans-Bold-67"/>
      <use x="73.388672" xlink:href="#DejaVuSans-Bold-108"/>
      <use x="107.666016" xlink:href="#DejaVuSans-Bold-105"/>
      <use x="141.943359" xlink:href="#DejaVuSans-Bold-110"/>
      <use x="213.134766" xlink:href="#DejaVuSans-Bold-105"/>
      <use x="247.412109" xlink:href="#DejaVuSans-Bold-99"/>
      <use x="306.689453" xlink:href="#DejaVuSans-Bold-97"/>
      <use x="374.169922" xlink:href="#DejaVuSans-Bold-108"/>
      <use x="408.447266" xlink:href="#DejaVuSans-Bold-108"/>
      <use x="442.724609" xlink:href="#DejaVuSans-Bold-121"/>
      <use x="507.910156" xlink:href="#DejaVuSans-Bold-32"/>
      <use x="542.724609" xlink:href="#DejaVuSans-Bold-72"/>
      <use x="626.416016" xlink:href="#DejaVuSans-Bold-101"/>
      <use x="694.238281" xlink:href="#DejaVuSans-Bold-97"/>
      <use x="761.71875" xlink:href="#DejaVuSans-Bold-108"/>
      <use x="795.996094" xlink:href="#DejaVuSans-Bold-116"/>
      <use x="843.798828" xlink:href="#DejaVuSans-Bold-104"/>
      <use x="914.990234" xlink:href="#DejaVuSans-Bold-121"/>
      <use x="980.175781" xlink:href="#DejaVuSans-Bold-32"/>
      <use x="1014.990234" xlink:href="#DejaVuSans-Bold-82"/>
      <use x="1091.992188" xlink:href="#DejaVuSans-Bold-101"/>
      <use x="1159.814453" xlink:href="#DejaVuSans-Bold-102"/>
      <use x="1203.320312" xlink:href="#DejaVuSans-Bold-101"/>
      <use x="1271.142578" xlink:href="#DejaVuSans-Bold-114"/>
      <use x="1320.458984" xlink:href="#DejaVuSans-Bold-101"/>
      <use x="1388.28125" xlink:href="#DejaVuSans-Bold-110"/>
      <use x="1459.472656" xlink:href="#DejaVuSans-Bold-99"/>
      <use x="1518.75" xlink:href="#DejaVuSans-Bold-101"/>
     </g>
    </g>
   </g>
   <g id="matplotlib.axis_2"/>
  </g>
 </g>
</svg>
