<?xml version="1.0" encoding="utf-8" standalone="no"?>
<!DOCTYPE svg PUBLIC "-//W3C//DTD SVG 1.1//EN"
  "http://www.w3.org/Graphics/SVG/1.1/DTD/svg11.dtd">
<!-- Created with matplotlib (https://matplotlib.org/) -->
<svg height="288.137625pt" version="1.1" viewBox="0 0 271.163594 288.137625" width="271.163594pt" xmlns="http://www.w3.org/2000/svg" xmlns:xlink="http://www.w3.org/1999/xlink">
 <metadata>
  <rdf:RDF xmlns:cc="http://creativecommons.org/ns#" xmlns:dc="http://purl.org/dc/elements/1.1/" xmlns:rdf="http://www.w3.org/1999/02/22-rdf-syntax-ns#">
   <cc:Work>
    <dc:type rdf:resource="http://purl.org/dc/dcmitype/StillImage"/>
    <dc:date>2024-02-20T15:40:59.547973</dc:date>
    <dc:format>image/svg+xml</dc:format>
    <dc:creator>
     <cc:Agent>
      <dc:title>Matplotlib v3.3.4, https://matplotlib.org/</dc:title>
     </cc:Agent>
    </dc:creator>
   </cc:Work>
  </rdf:RDF>
 </metadata>
 <defs>
  <style type="text/css">*{stroke-linecap:butt;stroke-linejoin:round;}</style>
 </defs>
 <g id="figure_1">
  <g id="patch_1">
   <path d="M 0 288.137625 
L 271.163594 288.137625 
L 271.163594 -0 
L 0 -0 
z
" style="fill:#ffffff;"/>
  </g>
  <g id="axes_1">
   <g id="patch_2">
    <path d="M 217.123244 202.197399 
C 227.853205 189.40993 235.426186 174.275937 239.228467 158.021889 
C 243.030749 141.767841 242.956767 124.845008 239.012517 108.624826 
C 235.068267 92.404644 227.363255 77.337442 216.5219 64.644277 
C 205.680545 51.951112 192.003842 41.98439 176.600158 35.55182 
L 156.090978 84.66391 
C 163.792819 87.880195 170.631171 92.863556 176.051849 99.210138 
C 181.472526 105.556721 185.325032 113.090322 187.297157 121.200413 
C 189.269282 129.310504 189.306273 137.771921 187.405132 145.898945 
C 185.503991 154.025969 181.717501 161.592965 176.352521 167.986699 
L 217.123244 202.197399 
z
" style="fill:#1f77b4;"/>
   </g>
   <g id="patch_3">
    <path d="M 176.600158 35.55182 
C 157.765689 27.686557 137.060545 25.402072 116.964387 28.971957 
C 96.86823 32.541842 78.21666 41.817661 63.243403 55.688535 
L 99.4126 94.732268 
C 106.899229 87.79683 116.225014 83.158921 126.273092 81.373978 
C 136.321171 79.589036 146.673743 80.731278 156.090978 84.66391 
L 176.600158 35.55182 
z
" style="fill:#ff7f0e;"/>
   </g>
   <g id="patch_4">
    <path d="M 63.243403 55.688535 
C 52.720332 65.436861 44.275559 77.212485 38.417585 90.306339 
C 32.559611 103.400194 29.408424 117.54408 29.153772 131.886326 
L 82.367784 132.831163 
C 82.49511 125.66004 84.070704 118.588097 86.999691 112.04117 
C 89.928678 105.494243 94.151064 99.606431 99.4126 94.732268 
L 63.243403 55.688535 
z
" style="fill:#2ca02c;"/>
   </g>
   <g id="patch_5">
    <path d="M 29.153772 131.886326 
C 29.038474 138.380007 29.517733 144.870635 30.585549 151.276956 
C 31.653366 157.683277 33.305266 163.978446 35.520569 170.083658 
L 85.551183 151.929829 
C 84.443531 148.877223 83.617581 145.729638 83.083673 142.526478 
C 82.549765 139.323317 82.310135 136.078004 82.367784 132.831163 
L 29.153772 131.886326 
z
" style="fill:#d62728;"/>
   </g>
   <g id="patch_6">
    <path d="M 35.520569 170.083658 
C 37.697393 176.082826 40.409334 181.874091 43.623606 187.387442 
C 46.837879 192.900792 50.541478 198.113922 54.689631 202.963809 
L 95.135714 168.369905 
C 93.061637 165.944961 91.209838 163.338396 89.602702 160.581721 
C 87.995565 157.825045 86.639595 154.929413 85.551183 151.929829 
L 35.520569 170.083658 
z
" style="fill:#9467bd;"/>
   </g>
   <g id="patch_7">
    <path d="M 54.689631 202.963809 
C 57.567809 206.328883 60.653163 209.511084 63.927703 212.491858 
C 67.202243 215.472632 70.659593 218.246176 74.279595 220.796316 
L 104.930696 177.286158 
C 103.120695 176.011088 101.39202 174.624316 99.75475 173.133929 
C 98.11748 171.643542 96.574803 170.052441 95.135714 168.369905 
L 54.689631 202.963809 
z
" style="fill:#8c564b;"/>
   </g>
   <g id="patch_8">
    <path d="M 74.279595 220.796316 
C 77.781538 223.26329 81.429208 225.516624 85.202698 227.544021 
C 88.976188 229.571419 92.868622 231.369185 96.858759 232.927509 
L 116.220278 183.351755 
C 114.22521 182.572592 112.278993 181.673709 110.392247 180.660011 
C 108.505502 179.646312 106.681668 178.519645 104.930696 177.286158 
L 74.279595 220.796316 
z
" style="fill:#e377c2;"/>
   </g>
   <g id="patch_9">
    <path d="M 96.858759 232.927509 
C 100.724578 234.437282 104.675388 235.719677 108.690949 236.768125 
C 112.706509 237.816572 116.779953 238.629279 120.890411 239.202081 
L 128.236104 186.489041 
C 126.180875 186.202639 124.144153 185.796286 122.136373 185.272062 
C 120.128592 184.747839 118.153188 184.106641 116.220278 183.351755 
L 96.858759 232.927509 
z
" style="fill:#7f7f7f;"/>
   </g>
   <g id="patch_10">
    <path d="M 120.890411 239.202081 
C 124.929362 239.764919 128.997322 240.095189 133.07417 240.191259 
C 137.151017 240.287328 141.230019 240.149037 145.290998 239.77707 
L 140.436398 186.776535 
C 138.405908 186.962518 136.366407 187.031664 134.327983 186.983629 
C 132.28956 186.935595 130.255579 186.77046 128.236104 186.489041 
L 120.890411 239.202081 
z
" style="fill:#bcbd22;"/>
   </g>
   <g id="patch_11">
    <path d="M 145.290998 239.77707 
C 148.972918 239.439823 152.634768 238.91097 156.261654 238.19266 
C 159.88854 237.474351 163.475539 236.56756 167.008061 235.475977 
L 151.294929 184.625989 
C 149.528668 185.17178 147.735168 185.625175 145.921725 185.98433 
C 144.108282 186.343485 142.277358 186.607912 140.436398 186.776535 
L 145.290998 239.77707 
z
" style="fill:#17becf;"/>
   </g>
   <g id="patch_12">
    <path d="M 167.008061 235.475977 
C 169.627418 234.666571 172.214528 233.756271 174.763601 232.747115 
C 177.312674 231.737959 179.821809 230.6307 182.285391 229.427815 
L 158.933594 181.601908 
C 157.701803 182.20335 156.447235 182.75698 155.172699 183.261558 
C 153.898162 183.766136 152.604608 184.221285 151.294929 184.625989 
L 167.008061 235.475977 
z
" style="fill:#1f77b4;"/>
   </g>
   <g id="patch_13">
    <path d="M 182.285391 229.427815 
C 184.675284 228.26091 187.020604 227.004846 189.316414 225.662269 
C 191.612224 224.319691 193.85691 222.891543 196.045746 221.38083 
L 165.813772 177.578415 
C 164.719353 178.333771 163.59701 179.047846 162.449105 179.719134 
C 161.301201 180.390423 160.12854 181.018455 158.933594 181.601908 
L 182.285391 229.427815 
z
" style="fill:#ff7f0e;"/>
   </g>
   <g id="patch_14">
    <path d="M 196.045746 221.38083 
C 197.83777 220.143994 199.591421 218.852463 201.304224 217.50806 
C 203.017028 216.163658 204.688177 214.767017 206.315312 213.320109 
L 170.948555 173.548054 
C 170.134987 174.271508 169.299412 174.969829 168.443011 175.64203 
C 167.586609 176.314231 166.709783 176.959997 165.813772 177.578415 
L 196.045746 221.38083 
z
" style="fill:#2ca02c;"/>
   </g>
   <g id="patch_15">
    <path d="M 206.315312 213.320109 
C 207.373883 212.378789 208.413557 211.416433 209.433714 210.433614 
C 210.453871 209.450795 211.454308 208.44771 212.434426 207.424957 
L 174.008111 170.600479 
C 173.518052 171.111855 173.017834 171.613397 172.507756 172.104807 
C 171.997677 172.596216 171.47784 173.077395 170.948555 173.548054 
L 206.315312 213.320109 
z
" style="fill:#d62728;"/>
   </g>
   <g id="patch_16">
    <path d="M 212.434426 207.424957 
C 213.244376 206.579775 214.040328 205.721289 214.821959 204.84985 
C 215.603589 203.978411 216.370791 203.094138 217.123251 202.19739 
L 176.352524 167.986695 
C 175.976294 168.435069 175.592693 168.877206 175.201878 169.312925 
C 174.811063 169.748645 174.413086 170.177888 174.008111 170.600479 
L 212.434426 207.424957 
z
" style="fill:#9467bd;"/>
   </g>
   <g id="matplotlib.axis_1">
    <g id="text_1">
     <!-- Clinically Healthy Reference -->
     <g transform="translate(0.72 283.749344)scale(0.17 -0.17)">
      <defs>
       <path d="M 67 4 
Q 61.8125 1.3125 56.203125 -0.046875 
Q 50.59375 -1.421875 44.484375 -1.421875 
Q 26.265625 -1.421875 15.625 8.765625 
Q 4.984375 18.953125 4.984375 36.375 
Q 4.984375 53.859375 15.625 64.03125 
Q 26.265625 74.21875 44.484375 74.21875 
Q 50.59375 74.21875 56.203125 72.84375 
Q 61.8125 71.484375 67 68.796875 
L 67 53.71875 
Q 61.765625 57.28125 56.6875 58.9375 
Q 51.609375 60.59375 46 60.59375 
Q 35.9375 60.59375 30.171875 54.140625 
Q 24.421875 47.703125 24.421875 36.375 
Q 24.421875 25.09375 30.171875 18.640625 
Q 35.9375 12.203125 46 12.203125 
Q 51.609375 12.203125 56.6875 13.859375 
Q 61.765625 15.53125 67 19.09375 
z
" id="DejaVuSans-Bold-67"/>
       <path d="M 8.40625 75.984375 
L 25.875 75.984375 
L 25.875 0 
L 8.40625 0 
z
" id="DejaVuSans-Bold-108"/>
       <path d="M 8.40625 54.6875 
L 25.875 54.6875 
L 25.875 0 
L 8.40625 0 
z
M 8.40625 75.984375 
L 25.875 75.984375 
L 25.875 61.71875 
L 8.40625 61.71875 
z
" id="DejaVuSans-Bold-105"/>
       <path d="M 63.375 33.296875 
L 63.375 0 
L 45.796875 0 
L 45.796875 5.421875 
L 45.796875 25.484375 
Q 45.796875 32.5625 45.484375 35.25 
Q 45.171875 37.9375 44.390625 39.203125 
Q 43.359375 40.921875 41.59375 41.875 
Q 39.84375 42.828125 37.59375 42.828125 
Q 32.125 42.828125 29 38.59375 
Q 25.875 34.375 25.875 26.90625 
L 25.875 0 
L 8.40625 0 
L 8.40625 54.6875 
L 25.875 54.6875 
L 25.875 46.6875 
Q 29.828125 51.46875 34.265625 53.734375 
Q 38.71875 56 44.09375 56 
Q 53.5625 56 58.46875 50.1875 
Q 63.375 44.390625 63.375 33.296875 
z
" id="DejaVuSans-Bold-110"/>
       <path d="M 52.59375 52.984375 
L 52.59375 38.71875 
Q 49.03125 41.15625 45.4375 42.328125 
Q 41.84375 43.5 37.984375 43.5 
Q 30.671875 43.5 26.59375 39.234375 
Q 22.515625 34.96875 22.515625 27.296875 
Q 22.515625 19.625 26.59375 15.34375 
Q 30.671875 11.078125 37.984375 11.078125 
Q 42.09375 11.078125 45.78125 12.296875 
Q 49.46875 13.53125 52.59375 15.921875 
L 52.59375 1.609375 
Q 48.484375 0.09375 44.265625 -0.65625 
Q 40.046875 -1.421875 35.796875 -1.421875 
Q 21 -1.421875 12.640625 6.171875 
Q 4.296875 13.765625 4.296875 27.296875 
Q 4.296875 40.828125 12.640625 48.40625 
Q 21 56 35.796875 56 
Q 40.09375 56 44.265625 55.25 
Q 48.4375 54.5 52.59375 52.984375 
z
" id="DejaVuSans-Bold-99"/>
       <path d="M 32.90625 24.609375 
Q 27.4375 24.609375 24.671875 22.75 
Q 21.921875 20.90625 21.921875 17.28125 
Q 21.921875 13.96875 24.140625 12.078125 
Q 26.375 10.203125 30.328125 10.203125 
Q 35.25 10.203125 38.625 13.734375 
Q 42 17.28125 42 22.609375 
L 42 24.609375 
z
M 59.625 31.203125 
L 59.625 0 
L 42 0 
L 42 8.109375 
Q 38.484375 3.125 34.078125 0.84375 
Q 29.6875 -1.421875 23.390625 -1.421875 
Q 14.890625 -1.421875 9.59375 3.53125 
Q 4.296875 8.5 4.296875 16.40625 
Q 4.296875 26.03125 10.90625 30.515625 
Q 17.53125 35.015625 31.6875 35.015625 
L 42 35.015625 
L 42 36.375 
Q 42 40.53125 38.71875 42.453125 
Q 35.453125 44.390625 28.515625 44.390625 
Q 22.90625 44.390625 18.0625 43.265625 
Q 13.234375 42.140625 9.078125 39.890625 
L 9.078125 53.21875 
Q 14.703125 54.59375 20.359375 55.296875 
Q 26.03125 56 31.6875 56 
Q 46.484375 56 53.046875 50.171875 
Q 59.625 44.34375 59.625 31.203125 
z
" id="DejaVuSans-Bold-97"/>
       <path d="M 1.21875 54.6875 
L 18.703125 54.6875 
L 33.40625 17.578125 
L 45.90625 54.6875 
L 63.375 54.6875 
L 40.375 -5.171875 
Q 36.921875 -14.3125 32.296875 -17.9375 
Q 27.6875 -21.578125 20.125 -21.578125 
L 10.015625 -21.578125 
L 10.015625 -10.109375 
L 15.484375 -10.109375 
Q 19.921875 -10.109375 21.9375 -8.6875 
Q 23.96875 -7.28125 25.09375 -3.609375 
L 25.59375 -2.09375 
z
" id="DejaVuSans-Bold-121"/>
       <path id="DejaVuSans-Bold-32"/>
       <path d="M 9.1875 72.90625 
L 27.984375 72.90625 
L 27.984375 45.125 
L 55.71875 45.125 
L 55.71875 72.90625 
L 74.515625 72.90625 
L 74.515625 0 
L 55.71875 0 
L 55.71875 30.90625 
L 27.984375 30.90625 
L 27.984375 0 
L 9.1875 0 
z
" id="DejaVuSans-Bold-72"/>
       <path d="M 62.984375 27.484375 
L 62.984375 22.515625 
L 22.125 22.515625 
Q 22.75 16.359375 26.5625 13.28125 
Q 30.375 10.203125 37.203125 10.203125 
Q 42.71875 10.203125 48.5 11.84375 
Q 54.296875 13.484375 60.40625 16.796875 
L 60.40625 3.328125 
Q 54.203125 0.984375 48 -0.21875 
Q 41.796875 -1.421875 35.59375 -1.421875 
Q 20.75 -1.421875 12.515625 6.125 
Q 4.296875 13.671875 4.296875 27.296875 
Q 4.296875 40.671875 12.375 48.328125 
Q 20.453125 56 34.625 56 
Q 47.515625 56 55.25 48.234375 
Q 62.984375 40.484375 62.984375 27.484375 
z
M 45.015625 33.296875 
Q 45.015625 38.28125 42.109375 41.328125 
Q 39.203125 44.390625 34.515625 44.390625 
Q 29.4375 44.390625 26.265625 41.53125 
Q 23.09375 38.671875 22.3125 33.296875 
z
" id="DejaVuSans-Bold-101"/>
       <path d="M 27.484375 70.21875 
L 27.484375 54.6875 
L 45.515625 54.6875 
L 45.515625 42.1875 
L 27.484375 42.1875 
L 27.484375 19 
Q 27.484375 15.1875 29 13.84375 
Q 30.515625 12.5 35.015625 12.5 
L 44 12.5 
L 44 0 
L 29 0 
Q 18.65625 0 14.328125 4.3125 
Q 10.015625 8.640625 10.015625 19 
L 10.015625 42.1875 
L 1.3125 42.1875 
L 1.3125 54.6875 
L 10.015625 54.6875 
L 10.015625 70.21875 
z
" id="DejaVuSans-Bold-116"/>
       <path d="M 63.375 33.296875 
L 63.375 0 
L 45.796875 0 
L 45.796875 5.421875 
L 45.796875 25.390625 
Q 45.796875 32.5625 45.484375 35.25 
Q 45.171875 37.9375 44.390625 39.203125 
Q 43.359375 40.921875 41.59375 41.875 
Q 39.84375 42.828125 37.59375 42.828125 
Q 32.125 42.828125 29 38.59375 
Q 25.875 34.375 25.875 26.90625 
L 25.875 0 
L 8.40625 0 
L 8.40625 75.984375 
L 25.875 75.984375 
L 25.875 46.6875 
Q 29.828125 51.46875 34.265625 53.734375 
Q 38.71875 56 44.09375 56 
Q 53.5625 56 58.46875 50.1875 
Q 63.375 44.390625 63.375 33.296875 
z
" id="DejaVuSans-Bold-104"/>
       <path d="M 35.890625 40.578125 
Q 41.796875 40.578125 44.359375 42.765625 
Q 46.921875 44.96875 46.921875 50 
Q 46.921875 54.984375 44.359375 57.125 
Q 41.796875 59.28125 35.890625 59.28125 
L 27.984375 59.28125 
L 27.984375 40.578125 
z
M 27.984375 27.59375 
L 27.984375 0 
L 9.1875 0 
L 9.1875 72.90625 
L 37.890625 72.90625 
Q 52.296875 72.90625 59 68.0625 
Q 65.71875 63.234375 65.71875 52.78125 
Q 65.71875 45.5625 62.21875 40.921875 
Q 58.734375 36.28125 51.703125 34.078125 
Q 55.5625 33.203125 58.609375 30.09375 
Q 61.671875 27 64.796875 20.703125 
L 75 0 
L 54.984375 0 
L 46.09375 18.109375 
Q 43.40625 23.578125 40.640625 25.578125 
Q 37.890625 27.59375 33.296875 27.59375 
z
" id="DejaVuSans-Bold-82"/>
       <path d="M 44.390625 75.984375 
L 44.390625 64.5 
L 34.71875 64.5 
Q 31 64.5 29.53125 63.15625 
Q 28.078125 61.8125 28.078125 58.5 
L 28.078125 54.6875 
L 43.015625 54.6875 
L 43.015625 42.1875 
L 28.078125 42.1875 
L 28.078125 0 
L 10.59375 0 
L 10.59375 42.1875 
L 1.90625 42.1875 
L 1.90625 54.6875 
L 10.59375 54.6875 
L 10.59375 58.5 
Q 10.59375 67.4375 15.578125 71.703125 
Q 20.5625 75.984375 31 75.984375 
z
" id="DejaVuSans-Bold-102"/>
       <path d="M 49.03125 39.796875 
Q 46.734375 40.875 44.453125 41.375 
Q 42.1875 41.890625 39.890625 41.890625 
Q 33.15625 41.890625 29.515625 37.5625 
Q 25.875 33.25 25.875 25.203125 
L 25.875 0 
L 8.40625 0 
L 8.40625 54.6875 
L 25.875 54.6875 
L 25.875 45.703125 
Q 29.25 51.078125 33.609375 53.53125 
Q 37.984375 56 44.09375 56 
Q 44.96875 56 45.984375 55.921875 
Q 47.015625 55.859375 48.96875 55.609375 
z
" id="DejaVuSans-Bold-114"/>
      </defs>
      <use xlink:href="#DejaVuSans-Bold-67"/>
      <use x="73.388672" xlink:href="#DejaVuSans-Bold-108"/>
      <use x="107.666016" xlink:href="#DejaVuSans-Bold-105"/>
      <use x="141.943359" xlink:href="#DejaVuSans-Bold-110"/>
      <use x="213.134766" xlink:href="#DejaVuSans-Bold-105"/>
      <use x="247.412109" xlink:href="#DejaVuSans-Bold-99"/>
      <use x="306.689453" xlink:href="#DejaVuSans-Bold-97"/>
      <use x="374.169922" xlink:href="#DejaVuSans-Bold-108"/>
      <use x="408.447266" xlink:href="#DejaVuSans-Bold-108"/>
      <use x="442.724609" xlink:href="#DejaVuSans-Bold-121"/>
      <use x="507.910156" xlink:href="#DejaVuSans-Bold-32"/>
      <use x="542.724609" xlink:href="#DejaVuSans-Bold-72"/>
      <use x="626.416016" xlink:href="#DejaVuSans-Bold-101"/>
      <use x="694.238281" xlink:href="#DejaVuSans-Bold-97"/>
      <use x="761.71875" xlink:href="#DejaVuSans-Bold-108"/>
      <use x="795.996094" xlink:href="#DejaVuSans-Bold-116"/>
      <use x="843.798828" xlink:href="#DejaVuSans-Bold-104"/>
      <use x="914.990234" xlink:href="#DejaVuSans-Bold-121"/>
      <use x="980.175781" xlink:href="#DejaVuSans-Bold-32"/>
      <use x="1014.990234" xlink:href="#DejaVuSans-Bold-82"/>
      <use x="1091.992188" xlink:href="#DejaVuSans-Bold-101"/>
      <use x="1159.814453" xlink:href="#DejaVuSans-Bold-102"/>
      <use x="1203.320312" xlink:href="#DejaVuSans-Bold-101"/>
      <use x="1271.142578" xlink:href="#DejaVuSans-Bold-114"/>
      <use x="1320.458984" xlink:href="#DejaVuSans-Bold-101"/>
      <use x="1388.28125" xlink:href="#DejaVuSans-Bold-110"/>
      <use x="1459.472656" xlink:href="#DejaVuSans-Bold-99"/>
      <use x="1518.75" xlink:href="#DejaVuSans-Bold-101"/>
     </g>
    </g>
   </g>
   <g id="matplotlib.axis_2"/>
  </g>
 </g>
</svg>
