<?xml version="1.0" encoding="utf-8" standalone="no"?>
<!DOCTYPE svg PUBLIC "-//W3C//DTD SVG 1.1//EN"
  "http://www.w3.org/Graphics/SVG/1.1/DTD/svg11.dtd">
<!-- Created with matplotlib (https://matplotlib.org/) -->
<svg height="288.137625pt" version="1.1" viewBox="0 0 271.163594 288.137625" width="271.163594pt" xmlns="http://www.w3.org/2000/svg" xmlns:xlink="http://www.w3.org/1999/xlink">
 <metadata>
  <rdf:RDF xmlns:cc="http://creativecommons.org/ns#" xmlns:dc="http://purl.org/dc/elements/1.1/" xmlns:rdf="http://www.w3.org/1999/02/22-rdf-syntax-ns#">
   <cc:Work>
    <dc:type rdf:resource="http://purl.org/dc/dcmitype/StillImage"/>
    <dc:date>2024-02-20T15:36:47.796398</dc:date>
    <dc:format>image/svg+xml</dc:format>
    <dc:creator>
     <cc:Agent>
      <dc:title>Matplotlib v3.3.4, https://matplotlib.org/</dc:title>
     </cc:Agent>
    </dc:creator>
   </cc:Work>
  </rdf:RDF>
 </metadata>
 <defs>
  <style type="text/css">*{stroke-linecap:butt;stroke-linejoin:round;}</style>
 </defs>
 <g id="figure_1">
  <g id="patch_1">
   <path d="M 0 288.137625 
L 271.163594 288.137625 
L 271.163594 -0 
L 0 -0 
z
" style="fill:#ffffff;"/>
  </g>
  <g id="axes_1">
   <g id="patch_2">
    <path d="M 217.123244 202.197399 
C 228.331491 188.83993 236.087743 172.930782 239.707615 155.873723 
C 243.327488 138.816663 242.701286 121.128579 237.884264 104.370207 
L 186.73303 119.073103 
C 189.141541 127.45229 189.454642 136.296331 187.644706 144.824861 
C 185.83477 153.353391 181.956644 161.307965 176.352521 167.986699 
L 217.123244 202.197399 
z
" style="fill:#1f77b4;"/>
   </g>
   <g id="patch_3">
    <path d="M 237.884264 104.370207 
C 233.786901 90.115522 226.755067 76.873323 217.240895 65.495058 
C 207.726723 54.116792 195.938594 44.851668 182.634461 38.295414 
L 159.108129 86.035707 
C 165.760195 89.313834 171.65426 93.946396 176.411346 99.635529 
C 181.168432 105.324662 184.684349 111.945761 186.73303 119.073103 
L 237.884264 104.370207 
z
" style="fill:#ff7f0e;"/>
   </g>
   <g id="patch_4">
    <path d="M 182.634461 38.295414 
C 169.858186 31.999289 155.947187 28.331129 141.727549 27.508765 
C 127.50791 26.686401 113.266789 28.726439 99.849874 33.507734 
L 117.715835 83.641867 
C 124.424293 81.25122 131.544854 80.231201 138.654673 80.642383 
C 145.764492 81.053565 152.719992 82.887644 159.108129 86.035707 
L 182.634461 38.295414 
z
" style="fill:#2ca02c;"/>
   </g>
   <g id="patch_5">
    <path d="M 99.849874 33.507734 
C 87.793752 37.804093 76.610756 44.239859 66.838889 52.505414 
C 57.067023 60.770969 48.865545 70.731604 42.629021 81.908121 
L 89.105409 107.842061 
C 92.223671 102.253802 96.32441 97.273485 101.210343 93.140707 
C 106.096276 89.00793 111.687774 85.790046 117.715835 83.641867 
L 99.849874 33.507734 
z
" style="fill:#d62728;"/>
   </g>
   <g id="patch_6">
    <path d="M 42.629021 81.908121 
C 37.368784 91.335026 33.573084 101.507523 31.372359 112.076034 
C 29.171634 122.644546 28.591385 133.486609 29.651551 144.229638 
L 82.616674 139.002819 
C 82.086591 133.631305 82.376715 128.210273 83.477078 122.926017 
C 84.577441 117.641761 86.475291 112.555513 89.105409 107.842061 
L 42.629021 81.908121 
z
" style="fill:#9467bd;"/>
   </g>
   <g id="patch_7">
    <path d="M 29.651551 144.229638 
C 30.051443 148.281871 30.683525 152.307822 31.54468 156.287636 
C 32.405835 160.26745 33.494646 164.194574 34.805743 168.04964 
L 85.19377 150.91282 
C 84.538222 148.985287 83.993816 147.021725 83.563238 145.031818 
C 83.132661 143.041911 82.81662 141.028936 82.616674 139.002819 
L 29.651551 144.229638 
z
" style="fill:#8c564b;"/>
   </g>
   <g id="patch_8">
    <path d="M 34.805743 168.04964 
C 35.950672 171.416118 37.263572 174.723113 38.739502 177.958183 
C 40.215431 181.193252 41.852539 184.352335 43.644664 187.423545 
L 89.61323 160.599772 
C 88.717168 159.064167 87.898614 157.484626 87.160649 155.867091 
C 86.422684 154.249557 85.766235 152.596059 85.19377 150.91282 
L 34.805743 168.04964 
z
" style="fill:#e377c2;"/>
   </g>
   <g id="patch_9">
    <path d="M 43.644664 187.423545 
C 44.785232 189.378165 45.987845 191.295915 47.250668 193.173871 
C 48.51349 195.051826 49.835881 196.889032 51.215824 198.682687 
L 93.39881 166.229343 
C 92.708839 165.332516 92.047644 164.413913 91.416232 163.474935 
C 90.784821 162.535958 90.183515 161.577083 89.61323 160.599772 
L 43.644664 187.423545 
z
" style="fill:#7f7f7f;"/>
   </g>
   <g id="patch_10">
    <path d="M 51.215824 198.682687 
C 52.495883 200.346513 53.824882 201.972109 55.201077 203.55734 
C 56.577272 205.142571 58.000061 206.686744 59.467577 208.187833 
L 97.524687 170.981917 
C 96.790929 170.231372 96.079535 169.459285 95.391437 168.66667 
C 94.70334 167.874054 94.03884 167.061257 93.39881 166.229343 
L 51.215824 198.682687 
z
" style="fill:#bcbd22;"/>
   </g>
   <g id="patch_11">
    <path d="M 59.467577 208.187833 
C 60.867217 209.619495 62.306972 211.011381 63.785123 212.361832 
C 65.263274 213.712283 66.779232 215.020761 68.331189 216.285703 
L 101.956493 175.030852 
C 101.180515 174.39838 100.422535 173.744142 99.68346 173.068916 
C 98.944384 172.393691 98.224507 171.697747 97.524687 170.981917 
L 59.467577 208.187833 
z
" style="fill:#17becf;"/>
   </g>
   <g id="patch_12">
    <path d="M 68.331189 216.285703 
C 69.75142 217.443282 71.201303 218.563998 72.679388 219.646731 
C 74.157473 220.729464 75.663267 221.773854 77.195265 222.778856 
L 106.388531 178.277428 
C 105.622532 177.774927 104.869635 177.252732 104.130593 176.711366 
C 103.39155 176.169999 102.666609 175.609641 101.956493 175.030852 
L 68.331189 216.285703 
z
" style="fill:#1f77b4;"/>
   </g>
   <g id="patch_13">
    <path d="M 77.195265 222.778856 
C 78.590311 223.694016 80.00668 224.576251 81.443199 225.424828 
C 82.879718 226.273405 84.335989 227.088091 85.810806 227.86821 
L 110.696302 180.822105 
C 109.958893 180.432046 109.230757 180.024703 108.512498 179.600414 
C 107.794238 179.176125 107.086054 178.735008 106.388531 178.277428 
L 77.195265 222.778856 
z
" style="fill:#ff7f0e;"/>
   </g>
   <g id="patch_14">
    <path d="M 85.810806 227.86821 
C 87.113985 228.557539 88.431344 229.21972 89.76203 229.854324 
C 91.092716 230.488929 92.436443 231.09582 93.79234 231.674604 
L 114.687068 182.725302 
C 114.00912 182.43591 113.337257 182.132464 112.671913 181.815162 
C 112.00657 181.49786 111.347891 181.166769 110.696302 180.822105 
L 85.810806 227.86821 
z
" style="fill:#2ca02c;"/>
   </g>
   <g id="patch_15">
    <path d="M 93.79234 231.674604 
C 94.897121 232.146196 96.009806 232.599054 97.129916 233.032981 
C 98.250027 233.466909 99.377402 233.881845 100.511558 234.277611 
L 118.046677 184.026805 
C 117.479599 183.828922 116.915912 183.621454 116.355857 183.404491 
C 115.795801 183.187527 115.239459 182.961098 114.687068 182.725302 
L 93.79234 231.674604 
z
" style="fill:#d62728;"/>
   </g>
   <g id="patch_16">
    <path d="M 100.511558 234.277611 
C 101.582691 234.651385 102.659732 235.008011 103.742266 235.347353 
C 104.824801 235.686695 105.912691 236.008708 107.00552 236.313271 
L 121.293659 185.044635 
C 120.747244 184.892354 120.203299 184.731347 119.662031 184.561676 
C 119.120764 184.392006 118.582244 184.213692 118.046677 184.026805 
L 100.511558 234.277611 
z
" style="fill:#9467bd;"/>
   </g>
   <g id="patch_17">
    <path d="M 107.00552 236.313271 
C 108.016561 236.595039 109.031714 236.861839 110.050646 237.113582 
C 111.069578 237.365325 112.092178 237.601984 113.11811 237.823481 
L 124.349953 185.79974 
C 123.836988 185.688992 123.325688 185.570662 122.816222 185.444791 
C 122.306756 185.318919 121.799179 185.18552 121.293659 185.044635 
L 107.00552 236.313271 
z
" style="fill:#8c564b;"/>
   </g>
   <g id="patch_18">
    <path d="M 113.11811 237.823481 
C 114.114343 238.038566 115.113614 238.239332 116.115613 238.425716 
C 117.117613 238.612101 118.122237 238.784085 119.129176 238.941616 
L 127.355487 186.358808 
C 126.852017 186.280043 126.349705 186.194051 125.848705 186.100858 
C 125.347705 186.007666 124.84807 185.907283 124.349953 185.79974 
L 113.11811 237.823481 
z
" style="fill:#e377c2;"/>
   </g>
   <g id="patch_19">
    <path d="M 119.129176 238.941616 
C 120.118177 239.09634 121.109311 239.237105 122.102283 239.363869 
C 123.095255 239.490634 124.089965 239.603385 125.086118 239.702088 
L 130.333957 186.739044 
C 129.835881 186.689692 129.338526 186.633317 128.84204 186.569935 
C 128.345554 186.506553 127.849987 186.43617 127.355487 186.358808 
L 119.129176 238.941616 
z
" style="fill:#7f7f7f;"/>
   </g>
   <g id="patch_20">
    <path d="M 125.086118 239.702088 
C 126.003785 239.793015 126.922595 239.872013 127.842316 239.939063 
C 128.762036 240.006112 129.682589 240.061207 130.603741 240.104333 
L 133.092769 186.940167 
C 132.632193 186.918603 132.171917 186.891056 131.712056 186.857531 
C 131.252196 186.824007 130.792791 186.784508 130.333957 186.739044 
L 125.086118 239.702088 
z
" style="fill:#bcbd22;"/>
   </g>
   <g id="patch_21">
    <path d="M 130.603741 240.104333 
C 131.500624 240.146323 132.398002 240.176964 133.295661 240.196247 
C 134.193319 240.215531 135.091185 240.223456 135.989044 240.220021 
L 135.785421 186.99801 
C 135.336491 186.999728 134.887558 186.995765 134.438729 186.986124 
C 133.9899 186.976482 133.54121 186.961162 133.092769 186.940167 
L 130.603741 240.104333 
z
" style="fill:#17becf;"/>
   </g>
   <g id="patch_22">
    <path d="M 135.989044 240.220021 
C 136.880816 240.216609 137.77251 240.201991 138.663914 240.176169 
C 139.555319 240.150348 140.446363 240.113325 141.336837 240.06511 
L 138.459317 186.920555 
C 138.01408 186.944663 137.568558 186.963174 137.122856 186.976085 
C 136.677153 186.988995 136.231306 186.996305 135.785421 186.99801 
L 135.989044 240.220021 
z
" style="fill:#1f77b4;"/>
   </g>
   <g id="patch_23">
    <path d="M 141.336837 240.06511 
C 142.154636 240.02083 142.971897 239.967114 143.788456 239.903971 
C 144.605015 239.840828 145.420818 239.768263 146.235702 239.686291 
L 140.908749 186.731146 
C 140.501307 186.772132 140.093406 186.808414 139.685126 186.839985 
C 139.276847 186.871557 138.868217 186.898415 138.459317 186.920555 
L 141.336837 240.06511 
z
" style="fill:#ff7f0e;"/>
   </g>
   <g id="patch_24">
    <path d="M 146.235702 239.686291 
C 146.960053 239.613426 147.683638 239.533132 148.406342 239.445421 
C 149.129046 239.35771 149.850831 239.262587 150.571583 239.160068 
L 143.07669 186.468034 
C 142.716314 186.519294 142.355421 186.566855 141.994069 186.61071 
C 141.632717 186.654566 141.270925 186.694713 140.908749 186.731146 
L 146.235702 239.686291 
z
" style="fill:#2ca02c;"/>
   </g>
   <g id="patch_25">
    <path d="M 150.571583 239.160068 
C 151.136172 239.079761 151.700107 238.994918 152.263333 238.905548 
C 152.826558 238.816177 153.389057 238.722282 153.950773 238.623872 
L 144.766285 186.199936 
C 144.485427 186.249141 144.204178 186.296089 143.922565 186.340774 
C 143.640952 186.385459 143.358985 186.42788 143.07669 186.468034 
L 150.571583 239.160068 
z
" style="fill:#d62728;"/>
   </g>
   <g id="patch_26">
    <path d="M 153.950773 238.623872 
C 154.47662 238.531745 155.001766 238.435664 155.526167 238.335636 
C 156.050567 238.235609 156.574208 238.131638 157.097045 238.023732 
L 146.339421 185.899866 
C 146.078003 185.953819 145.816182 186.005804 145.553982 186.055818 
C 145.291781 186.105832 145.029208 186.153873 144.766285 186.199936 
L 153.950773 238.623872 
z
" style="fill:#9467bd;"/>
   </g>
   <g id="patch_27">
    <path d="M 157.097045 238.023732 
C 157.596088 237.920736 158.094385 237.814159 158.591898 237.704007 
C 159.08941 237.593856 159.586126 237.480133 160.082005 237.362849 
L 147.831901 185.569424 
C 147.583961 185.628067 147.335604 185.684928 147.086847 185.740004 
C 146.838091 185.795079 146.588943 185.848368 146.339421 185.899866 
L 157.097045 238.023732 
z
" style="fill:#8c564b;"/>
   </g>
   <g id="patch_28">
    <path d="M 160.082005 237.362849 
C 160.572012 237.246953 161.061191 237.127582 161.549504 237.004744 
C 162.037817 236.881907 162.525252 236.755606 163.011773 236.625851 
L 149.296785 185.200926 
C 149.053524 185.265803 148.809807 185.328953 148.56565 185.390372 
C 148.321494 185.451791 148.076904 185.511477 147.831901 185.569424 
L 160.082005 237.362849 
z
" style="fill:#e377c2;"/>
   </g>
   <g id="patch_29">
    <path d="M 163.011773 236.625851 
C 163.492412 236.497665 163.972147 236.366111 164.450942 236.231199 
C 164.929738 236.096288 165.407581 235.958021 165.884438 235.816411 
L 150.733117 184.796205 
C 150.494689 184.867011 150.255767 184.936144 150.01637 185.0036 
C 149.776972 185.071056 149.537105 185.136832 149.296785 185.200926 
L 163.011773 236.625851 
z
" style="fill:#7f7f7f;"/>
   </g>
   <g id="patch_30">
    <path d="M 165.884438 235.816411 
C 166.33222 235.683434 166.779122 235.547511 167.225115 235.408651 
C 167.671108 235.269792 168.116182 235.127997 168.560309 234.983278 
L 152.071053 184.379639 
C 151.84899 184.451999 151.626453 184.522896 151.403456 184.592326 
C 151.18046 184.661756 150.957009 184.729717 150.733117 184.796205 
L 165.884438 235.816411 
z
" style="fill:#bcbd22;"/>
   </g>
   <g id="patch_31">
    <path d="M 168.560309 234.983278 
C 168.998698 234.840429 169.436154 234.694732 169.872649 234.546198 
C 170.309145 234.397664 170.744671 234.246296 171.1792 234.092102 
L 153.380498 183.934051 
C 153.163234 184.011148 152.945471 184.086832 152.727223 184.161099 
C 152.508975 184.235366 152.290247 184.308214 152.071053 184.379639 
L 168.560309 234.983278 
z
" style="fill:#17becf;"/>
   </g>
   <g id="patch_32">
    <path d="M 171.1792 234.092102 
C 171.579409 233.950087 171.978765 233.805678 172.377245 233.658883 
C 172.775726 233.512089 173.173325 233.362911 173.570021 233.211357 
L 154.575909 183.493679 
C 154.377561 183.569455 154.178762 183.644044 153.979521 183.717442 
C 153.780281 183.790839 153.580603 183.863044 153.380498 183.934051 
L 171.1792 234.092102 
z
" style="fill:#1f77b4;"/>
   </g>
   <g id="patch_33">
    <path d="M 173.570021 233.211357 
C 173.938384 233.070628 174.305963 232.927853 174.67274 232.783038 
C 175.039516 232.638224 175.405485 232.491373 175.77063 232.342491 
L 155.676214 183.059245 
C 155.493641 183.133686 155.310657 183.207112 155.127268 183.279519 
C 154.94388 183.351926 154.760091 183.423314 154.575909 183.493679 
L 173.570021 233.211357 
z
" style="fill:#ff7f0e;"/>
   </g>
   <g id="patch_34">
    <path d="M 175.77063 232.342491 
C 176.10769 232.20506 176.444044 232.065902 176.779676 231.92502 
C 177.115309 231.784139 177.450217 231.641537 177.784386 231.49722 
L 156.683092 182.63661 
C 156.516007 182.708769 156.348553 182.78007 156.180737 182.85051 
C 156.01292 182.920951 155.844744 182.99053 155.676214 183.059245 
L 175.77063 232.342491 
z
" style="fill:#2ca02c;"/>
   </g>
   <g id="patch_35">
    <path d="M 177.784386 231.49722 
C 178.112968 231.355317 178.440832 231.211757 178.767966 231.066546 
C 179.095099 230.921335 179.421499 230.774475 179.747151 230.625971 
L 157.664474 182.200986 
C 157.501648 182.275237 157.338448 182.348667 157.174881 182.421273 
C 157.011314 182.493878 156.847383 182.565658 156.683092 182.63661 
L 177.784386 231.49722 
z
" style="fill:#d62728;"/>
   </g>
   <g id="patch_36">
    <path d="M 179.747151 230.625971 
C 180.045208 230.490052 180.342636 230.352757 180.639425 230.214092 
C 180.936214 230.075427 181.232362 229.935392 181.527859 229.793992 
L 158.554828 181.784996 
C 158.407079 181.855696 158.259006 181.925713 158.110611 181.995046 
C 157.962216 182.064379 157.813502 182.133026 157.664474 182.200986 
L 179.747151 230.625971 
z
" style="fill:#9467bd;"/>
   </g>
   <g id="patch_37">
    <path d="M 181.527859 229.793992 
C 181.812421 229.657825 182.096377 229.520393 182.379718 229.381701 
C 182.663059 229.243009 182.945782 229.103058 183.227878 228.961852 
L 159.404837 181.368926 
C 159.263789 181.439529 159.122428 181.509504 158.980757 181.57885 
C 158.839087 181.648196 158.697109 181.716912 158.554828 181.784996 
L 181.527859 229.793992 
z
" style="fill:#8c564b;"/>
   </g>
   <g id="patch_38">
    <path d="M 183.227878 228.961852 
C 183.493692 228.828796 183.758948 228.694628 184.023639 228.55935 
C 184.288329 228.424072 184.552452 228.287686 184.816 228.150195 
L 160.198898 180.963098 
C 160.067124 181.031843 159.935063 181.100036 159.802718 181.167675 
C 159.670373 181.235314 159.537745 181.302398 159.404837 181.368926 
L 183.227878 228.961852 
z
" style="fill:#e377c2;"/>
   </g>
   <g id="patch_39">
    <path d="M 184.816 228.150195 
C 185.063404 228.021126 185.3103 227.891085 185.556682 227.760075 
C 185.803064 227.629064 186.04893 227.497085 186.294274 227.364141 
L 160.938035 180.57007 
C 160.815363 180.636543 160.69243 180.702532 160.56924 180.768037 
C 160.446049 180.833543 160.322601 180.898563 160.198898 180.963098 
L 184.816 228.150195 
z
" style="fill:#7f7f7f;"/>
   </g>
   <g id="patch_40">
    <path d="M 186.294274 227.364141 
C 186.528961 227.236972 186.763168 227.10892 186.996892 226.979988 
C 187.230615 226.851057 187.463853 226.721247 187.6966 226.590561 
L 161.639198 180.183281 
C 161.522825 180.248624 161.406206 180.313529 161.289344 180.377994 
C 161.172483 180.44246 161.055379 180.506486 160.938035 180.57007 
L 186.294274 227.364141 
z
" style="fill:#bcbd22;"/>
   </g>
   <g id="patch_41">
    <path d="M 187.6966 226.590561 
C 187.929347 226.459875 188.161601 226.328314 188.393359 226.195881 
C 188.625116 226.063448 188.856374 225.930143 189.087128 225.79597 
L 162.334463 179.785985 
C 162.219085 179.853072 162.103456 179.919724 161.987578 179.98594 
C 161.871699 180.052157 161.755572 180.117938 161.639198 180.183281 
L 187.6966 226.590561 
z
" style="fill:#17becf;"/>
   </g>
   <g id="patch_42">
    <path d="M 189.087128 225.79597 
C 189.307359 225.667917 189.527129 225.539073 189.746434 225.409441 
C 189.96574 225.279809 190.184579 225.149391 190.402948 225.018188 
L 162.992372 179.397094 
C 162.883188 179.462695 162.773768 179.527905 162.664116 179.59272 
C 162.554463 179.657536 162.444578 179.721958 162.334463 179.785985 
L 189.087128 225.79597 
z
" style="fill:#1f77b4;"/>
   </g>
   <g id="patch_43">
    <path d="M 190.402948 225.018188 
C 190.616145 224.890093 190.828891 224.761251 191.041185 224.631664 
C 191.253478 224.502078 191.465317 224.371748 191.676697 224.240676 
L 163.629247 179.008338 
C 163.523557 179.073874 163.417638 179.139039 163.311491 179.203832 
C 163.205344 179.268625 163.098971 179.333046 162.992372 179.397094 
L 190.402948 225.018188 
z
" style="fill:#ff7f0e;"/>
   </g>
   <g id="patch_44">
    <path d="M 191.676697 224.240676 
C 191.872602 224.1192 192.068112 223.997088 192.263224 223.874342 
C 192.458336 223.751596 192.653049 223.628216 192.847359 223.504205 
L 164.214578 178.640103 
C 164.117423 178.702108 164.020066 178.763798 163.92251 178.825171 
C 163.824954 178.886544 163.727199 178.9476 163.629247 179.008338 
L 191.676697 224.240676 
z
" style="fill:#2ca02c;"/>
   </g>
   <g id="patch_45">
    <path d="M 192.847359 223.504205 
C 193.036539 223.383469 193.225336 223.262134 193.413748 223.140203 
C 193.60216 223.018273 193.790186 222.895746 193.977823 222.772626 
L 164.77981 178.274313 
C 164.685992 178.335873 164.591979 178.397136 164.497773 178.458102 
C 164.403566 178.519067 164.309168 178.579734 164.214578 178.640103 
L 192.847359 223.504205 
z
" style="fill:#d62728;"/>
   </g>
   <g id="patch_46">
    <path d="M 193.977823 222.772626 
C 194.160415 222.652817 194.342638 222.532446 194.524489 222.411515 
C 194.70634 222.290584 194.887819 222.169093 195.068922 222.047045 
L 165.325359 177.911522 
C 165.234808 177.972547 165.144069 178.033292 165.053143 178.093757 
C 164.962218 178.154223 164.871106 178.214408 164.77981 178.274313 
L 193.977823 222.772626 
z
" style="fill:#9467bd;"/>
   </g>
   <g id="patch_47">
    <path d="M 195.068922 222.047045 
C 195.234926 221.935172 195.400614 221.822832 195.565985 221.710025 
C 195.731355 221.597217 195.896407 221.483944 196.061138 221.370205 
L 165.821467 177.573103 
C 165.739102 177.629972 165.656576 177.686609 165.573891 177.743012 
C 165.491206 177.799416 165.408361 177.855586 165.325359 177.911522 
L 195.068922 222.047045 
z
" style="fill:#8c564b;"/>
   </g>
   <g id="patch_48">
    <path d="M 196.061138 221.370205 
C 196.22086 221.259925 196.38028 221.149208 196.539397 221.038056 
C 196.698514 220.926904 196.857326 220.815317 197.015832 220.703296 
L 166.298815 177.239648 
C 166.219561 177.295658 166.140155 177.351452 166.060597 177.407028 
C 165.981039 177.462604 165.901328 177.517963 165.821467 177.573103 
L 196.061138 221.370205 
z
" style="fill:#e377c2;"/>
   </g>
   <g id="patch_49">
    <path d="M 197.015832 220.703296 
C 197.174339 220.591275 197.332538 220.47882 197.490429 220.365934 
C 197.64832 220.253048 197.805902 220.13973 197.963173 220.025981 
L 166.772485 176.900991 
C 166.69385 176.957865 166.615059 177.014524 166.536113 177.070967 
C 166.457167 177.12741 166.378068 177.183637 166.298815 177.239648 
L 197.015832 220.703296 
z
" style="fill:#7f7f7f;"/>
   </g>
   <g id="patch_50">
    <path d="M 197.963173 220.025981 
C 198.110623 219.919337 198.257799 219.812314 198.4047 219.704914 
C 198.551601 219.597514 198.698226 219.489738 198.844574 219.381587 
L 167.213186 176.578793 
C 167.140011 176.632869 167.066699 176.686757 166.993248 176.740457 
C 166.919798 176.794157 166.84621 176.847668 166.772485 176.900991 
L 197.963173 220.025981 
z
" style="fill:#bcbd22;"/>
   </g>
   <g id="patch_51">
    <path d="M 198.844574 219.381587 
C 198.976279 219.284256 199.107759 219.186622 199.239013 219.088685 
C 199.370267 218.990748 199.501295 218.892508 199.632096 218.793966 
L 167.606947 176.284983 
C 167.541546 176.334254 167.476032 176.383374 167.410405 176.432343 
C 167.344778 176.481311 167.279038 176.530128 167.213186 176.578793 
L 198.844574 219.381587 
z
" style="fill:#17becf;"/>
   </g>
   <g id="patch_52">
    <path d="M 199.632096 218.793966 
C 199.758077 218.699056 199.883847 218.603865 200.009405 218.508395 
C 200.134963 218.412925 200.260309 218.317176 200.385441 218.221149 
L 167.983619 175.998574 
C 167.921053 176.046588 167.85838 176.094462 167.795601 176.142197 
C 167.732822 176.189932 167.669937 176.237528 167.606947 176.284983 
L 199.632096 218.793966 
z
" style="fill:#1f77b4;"/>
   </g>
   <g id="patch_53">
    <path d="M 200.385441 218.221149 
C 200.510573 218.125122 200.635492 218.028816 200.760196 217.932234 
C 200.884901 217.835651 201.00939 217.738792 201.133664 217.641656 
L 168.35773 175.708828 
C 168.295593 175.757396 168.233349 175.805826 168.170997 175.854117 
C 168.108645 175.902408 168.046185 175.950561 167.983619 175.998574 
L 200.385441 218.221149 
z
" style="fill:#ff7f0e;"/>
   </g>
   <g id="patch_54">
    <path d="M 201.133664 217.641656 
C 201.253141 217.548268 201.37242 217.454626 201.491497 217.360728 
C 201.610575 217.266831 201.729452 217.172679 201.848127 217.078274 
L 168.714962 175.427137 
C 168.655624 175.47434 168.596186 175.521416 168.536647 175.568364 
C 168.477108 175.615313 168.417469 175.662134 168.35773 175.708828 
L 201.133664 217.641656 
z
" style="fill:#2ca02c;"/>
   </g>
   <g id="patch_55">
    <path d="M 201.848127 217.078274 
C 201.957317 216.991415 202.066336 216.904341 202.175183 216.817053 
C 202.28403 216.729764 202.392705 216.642262 202.501208 216.554547 
L 169.041503 175.165273 
C 168.987251 175.209131 168.932913 175.252882 168.87849 175.296526 
C 168.824066 175.34017 168.769557 175.383707 168.714962 175.427137 
L 201.848127 217.078274 
z
" style="fill:#d62728;"/>
   </g>
   <g id="patch_56">
    <path d="M 202.501208 216.554547 
C 202.609711 216.466831 202.718042 216.378903 202.826199 216.290761 
C 202.934356 216.20262 203.04234 216.114266 203.15015 216.0257 
L 169.365973 174.90085 
C 169.312069 174.945133 169.258077 174.98931 169.203998 175.033381 
C 169.149919 175.077451 169.095754 175.121416 169.041503 175.165273 
L 202.501208 216.554547 
z
" style="fill:#9467bd;"/>
   </g>
   <g id="patch_57">
    <path d="M 203.15015 216.0257 
C 203.253257 215.940997 203.356204 215.856101 203.458991 215.771012 
C 203.561778 215.685922 203.664406 215.60064 203.766872 215.515164 
L 169.674335 174.645582 
C 169.623101 174.68832 169.571788 174.730961 169.520394 174.773506 
C 169.469 174.816051 169.417527 174.858499 169.365973 174.90085 
L 203.15015 216.0257 
z
" style="fill:#8c564b;"/>
   </g>
   <g id="patch_58">
    <path d="M 203.766872 215.515164 
C 203.869339 215.429689 203.971645 215.344021 204.073789 215.25816 
C 204.175933 215.1723 204.277916 215.086248 204.379737 215.000004 
L 169.980767 174.388002 
C 169.929857 174.431124 169.878865 174.47415 169.827793 174.51708 
C 169.776721 174.56001 169.725568 174.602844 169.674335 174.645582 
L 203.766872 215.515164 
z
" style="fill:#e377c2;"/>
   </g>
   <g id="patch_59">
    <path d="M 204.379737 215.000004 
C 204.481558 214.91376 204.583216 214.827325 204.684712 214.740699 
C 204.786208 214.654073 204.887541 214.567256 204.98871 214.480249 
L 170.285253 174.128125 
C 170.234669 174.171628 170.184002 174.215037 170.133255 174.25835 
C 170.082507 174.301663 170.031677 174.34488 169.980767 174.388002 
L 204.379737 215.000004 
z
" style="fill:#7f7f7f;"/>
   </g>
   <g id="patch_60">
    <path d="M 204.98871 214.480249 
C 205.085264 214.397211 205.18167 214.314 205.277925 214.230615 
C 205.374181 214.147231 205.470287 214.063674 205.566243 213.979945 
L 170.57402 173.877972 
C 170.526042 173.919837 170.477989 173.961616 170.429861 174.003308 
C 170.381733 174.045 170.333531 174.086606 170.285253 174.128125 
L 204.98871 214.480249 
z
" style="fill:#bcbd22;"/>
   </g>
   <g id="patch_61">
    <path d="M 205.566243 213.979945 
C 205.657652 213.900183 205.748924 213.820265 205.84006 213.740191 
C 205.931196 213.660117 206.022195 213.579888 206.113056 213.499503 
L 170.847427 173.637751 
C 170.801996 173.677944 170.756496 173.718059 170.710929 173.758096 
C 170.665361 173.798133 170.619724 173.838092 170.57402 173.877972 
L 205.566243 213.979945 
z
" style="fill:#17becf;"/>
   </g>
   <g id="patch_62">
    <path d="M 206.113056 213.499503 
C 206.203918 213.419118 206.294642 213.338577 206.385228 213.257882 
C 206.475814 213.177187 206.566262 213.096337 206.656572 213.015332 
L 171.119184 173.395666 
C 171.07403 173.436168 171.028806 173.476593 170.983512 173.516941 
C 170.938219 173.557289 170.892857 173.597559 170.847427 173.637751 
L 206.113056 213.499503 
z
" style="fill:#1f77b4;"/>
   </g>
   <g id="patch_63">
    <path d="M 206.656572 213.015332 
C 206.746882 212.934328 206.837053 212.853169 206.927085 212.771856 
C 207.017117 212.690543 207.10701 212.609077 207.196764 212.527457 
L 171.38928 173.151728 
C 171.344404 173.192538 171.299457 173.233272 171.254441 173.273928 
C 171.209425 173.314585 171.164339 173.355164 171.119184 173.395666 
L 206.656572 213.015332 
z
" style="fill:#ff7f0e;"/>
   </g>
   <g id="patch_64">
    <path d="M 207.196764 212.527457 
C 207.282014 212.449932 207.367139 212.372268 207.452137 212.294467 
C 207.537135 212.216665 207.622007 212.138726 207.706752 212.060649 
L 171.644275 172.918324 
C 171.601902 172.957363 171.559466 172.996333 171.516967 173.035233 
C 171.474468 173.074134 171.431906 173.112966 171.38928 173.151728 
L 207.196764 212.527457 
z
" style="fill:#2ca02c;"/>
   </g>
   <g id="patch_65">
    <path d="M 207.706752 212.060649 
C 207.778106 211.994909 207.849371 211.929072 207.920545 211.863137 
C 207.991719 211.797203 208.062803 211.731171 208.133796 211.665042 
L 171.857797 172.720521 
C 171.8223 172.753585 171.786758 172.786601 171.751171 172.819569 
C 171.715584 172.852536 171.679952 172.885455 171.644275 172.918324 
L 207.706752 212.060649 
z
" style="fill:#d62728;"/>
   </g>
   <g id="patch_66">
    <path d="M 208.133796 211.665042 
C 208.20479 211.598913 208.275693 211.532687 208.346506 211.466364 
C 208.417318 211.400041 208.48804 211.333621 208.558671 211.267105 
L 172.070234 172.521552 
C 172.034918 172.554811 171.999557 172.58802 171.964151 172.621182 
C 171.928745 172.654343 171.893293 172.687456 171.857797 172.720521 
L 208.133796 211.665042 
z
" style="fill:#9467bd;"/>
   </g>
   <g id="patch_67">
    <path d="M 208.558671 211.267105 
C 208.629302 211.200589 208.699841 211.133976 208.77029 211.067267 
C 208.840739 211.000558 208.911096 210.933752 208.981362 210.866851 
L 172.28158 172.321425 
C 172.246447 172.354876 172.211268 172.388279 172.176043 172.421633 
C 172.140819 172.454988 172.105549 172.488294 172.070234 172.521552 
L 208.558671 211.267105 
z
" style="fill:#8c564b;"/>
   </g>
   <g id="patch_68">
    <path d="M 208.981362 210.866851 
C 209.051628 210.799949 209.121803 210.732951 209.191886 210.665858 
C 209.261969 210.598765 209.33196 210.531575 209.401859 210.464291 
L 172.491828 172.120145 
C 172.456878 172.153788 172.421883 172.187382 172.386841 172.220929 
C 172.3518 172.254476 172.316713 172.287975 172.28158 172.321425 
L 208.981362 210.866851 
z
" style="fill:#e377c2;"/>
   </g>
   <g id="patch_69">
    <path d="M 209.401859 210.464291 
C 209.471758 210.397006 209.541565 210.329625 209.61128 210.26215 
C 209.680995 210.194674 209.750617 210.127103 209.820147 210.059437 
L 172.700972 171.917719 
C 172.666207 171.951552 172.631396 171.985337 172.596538 172.019075 
C 172.561681 172.052813 172.526777 172.086503 172.491828 172.120145 
L 209.401859 210.464291 
z
" style="fill:#7f7f7f;"/>
   </g>
   <g id="patch_70">
    <path d="M 209.820147 210.059437 
C 209.885353 209.99598 209.950477 209.932438 210.01552 209.868814 
C 210.080563 209.805189 210.145524 209.741482 210.210403 209.67769 
L 172.8961 171.726845 
C 172.86366 171.758741 172.83118 171.790595 172.798658 171.822407 
C 172.766137 171.854219 172.733575 171.88599 172.700972 171.917719 
L 209.820147 210.059437 
z
" style="fill:#bcbd22;"/>
   </g>
   <g id="patch_71">
    <path d="M 210.210403 209.67769 
C 210.275282 209.613899 210.34008 209.550025 210.404795 209.486068 
C 210.469511 209.422111 210.534144 209.35807 210.598696 209.293947 
L 173.090246 171.534974 
C 173.057971 171.567035 173.025654 171.599055 172.993296 171.631034 
C 172.960938 171.663013 172.92854 171.69495 172.8961 171.726845 
L 210.210403 209.67769 
z
" style="fill:#17becf;"/>
   </g>
   <g id="patch_72">
    <path d="M 210.598696 209.293947 
C 210.658929 209.234114 210.71909 209.174209 210.77918 209.114231 
C 210.839269 209.054254 210.899287 208.994205 210.959233 208.934084 
L 173.270515 171.355042 
C 173.240542 171.385102 173.210533 171.415127 173.180488 171.445116 
C 173.150443 171.475104 173.120363 171.505057 173.090246 171.534974 
L 210.598696 209.293947 
z
" style="fill:#1f77b4;"/>
   </g>
   <g id="patch_73">
    <path d="M 210.959233 208.934084 
C 211.014918 208.878236 211.070541 208.822326 211.126102 208.766355 
C 211.181663 208.710384 211.237162 208.65435 211.292599 208.598256 
L 173.437198 171.187128 
C 173.40948 171.215175 173.38173 171.243192 173.35395 171.271178 
C 173.326169 171.299163 173.298358 171.327118 173.270515 171.355042 
L 210.959233 208.934084 
z
" style="fill:#ff7f0e;"/>
   </g>
   <g id="patch_74">
    <path d="M 211.292599 208.598256 
C 211.343757 208.54649 211.394861 208.494672 211.445913 208.442802 
C 211.496965 208.390932 211.547963 208.339009 211.598908 208.287034 
L 173.590353 171.031517 
C 173.56488 171.057505 173.539381 171.083466 173.513855 171.109401 
C 173.488329 171.135336 173.462777 171.161245 173.437198 171.187128 
L 211.292599 208.598256 
z
" style="fill:#2ca02c;"/>
   </g>
   <g id="patch_75">
    <path d="M 211.598908 208.287034 
C 211.649853 208.235059 211.700745 208.183032 211.751584 208.130953 
C 211.802422 208.078874 211.853207 208.026742 211.903938 207.974559 
L 173.742868 170.875279 
C 173.717502 170.901371 173.692109 170.927437 173.66669 170.953477 
C 173.641271 170.979516 173.615825 171.00553 173.590353 171.031517 
L 211.598908 208.287034 
z
" style="fill:#d62728;"/>
   </g>
   <g id="patch_76">
    <path d="M 211.903938 207.974559 
C 211.95467 207.922375 212.005348 207.87014 212.055972 207.817853 
C 212.106597 207.765565 212.157167 207.713226 212.207684 207.660835 
L 173.894741 170.718417 
C 173.869482 170.744613 173.844197 170.770783 173.818885 170.796926 
C 173.793572 170.82307 173.768233 170.849188 173.742868 170.875279 
L 211.903938 207.974559 
z
" style="fill:#9467bd;"/>
   </g>
   <g id="patch_77">
    <path d="M 212.207684 207.660835 
C 212.258201 207.608444 212.308665 207.556001 212.359074 207.503506 
C 212.409483 207.451012 212.459839 207.398465 212.510141 207.345867 
L 174.045969 170.560934 
C 174.020818 170.587233 173.99564 170.613506 173.970435 170.639753 
C 173.945231 170.666 173.919999 170.692222 173.894741 170.718417 
L 212.207684 207.660835 
z
" style="fill:#8c564b;"/>
   </g>
   <g id="patch_78">
    <path d="M 212.510141 207.345867 
C 212.560442 207.293269 212.61069 207.24062 212.660884 207.187919 
C 212.711077 207.135218 212.761217 207.082466 212.811302 207.029662 
L 174.19655 170.402831 
C 174.171507 170.429233 174.146437 170.455609 174.12134 170.481959 
C 174.096243 170.50831 174.07112 170.534635 174.045969 170.560934 
L 212.510141 207.345867 
z
" style="fill:#e377c2;"/>
   </g>
   <g id="patch_79">
    <path d="M 212.811302 207.029662 
C 212.861388 206.976858 212.911419 206.924003 212.961396 206.871096 
C 213.011373 206.81819 213.061296 206.765232 213.111164 206.712223 
L 174.34648 170.244112 
C 174.321546 170.270616 174.296585 170.297095 174.271596 170.323548 
C 174.246608 170.350001 174.221592 170.376429 174.19655 170.402831 
L 212.811302 207.029662 
z
" style="fill:#7f7f7f;"/>
   </g>
   <g id="patch_80">
    <path d="M 213.111164 206.712223 
C 213.161032 206.659214 213.210846 206.606155 213.260606 206.553043 
C 213.310366 206.499932 213.360071 206.44677 213.409721 206.393557 
L 174.495759 170.084779 
C 174.470934 170.111385 174.446081 170.137966 174.421201 170.164522 
C 174.396322 170.191077 174.371415 170.217607 174.34648 170.244112 
L 213.111164 206.712223 
z
" style="fill:#bcbd22;"/>
   </g>
   <g id="patch_81">
    <path d="M 213.409721 206.393557 
C 213.459372 206.340344 213.508968 206.287081 213.558509 206.233766 
C 213.60805 206.180451 213.657537 206.127086 213.706968 206.073669 
L 174.644383 169.924835 
C 174.619667 169.951543 174.594924 169.978226 174.570153 170.004883 
C 174.545382 170.03154 174.520584 170.058172 174.495759 170.084779 
L 213.409721 206.393557 
z
" style="fill:#17becf;"/>
   </g>
   <g id="patch_82">
    <path d="M 213.706968 206.073669 
C 213.7564 206.020253 213.805777 205.966786 213.855099 205.913269 
C 213.904422 205.859751 213.953689 205.806183 214.002901 205.752565 
L 174.792349 169.764282 
C 174.767743 169.791092 174.743109 169.817876 174.718448 169.844634 
C 174.693787 169.871393 174.669099 169.898127 174.644383 169.924835 
L 213.706968 206.073669 
z
" style="fill:#1f77b4;"/>
   </g>
   <g id="patch_83">
    <path d="M 214.002901 205.752565 
C 214.052113 205.698946 214.101271 205.645277 214.150373 205.591558 
C 214.199475 205.537838 214.248522 205.484069 214.297514 205.430249 
L 174.939655 169.603124 
C 174.915159 169.630034 174.890636 169.656919 174.866085 169.683779 
C 174.841534 169.710639 174.816955 169.737473 174.792349 169.764282 
L 214.002901 205.752565 
z
" style="fill:#ff7f0e;"/>
   </g>
   <g id="patch_84">
    <path d="M 214.297514 205.430249 
C 214.346506 205.376429 214.395442 205.322558 214.444324 205.268638 
C 214.493205 205.214718 214.542031 205.160747 214.590802 205.106727 
L 175.086299 169.441363 
C 175.061914 169.468374 175.037501 169.495359 175.01306 169.522319 
C 174.98862 169.549279 174.964151 169.576214 174.939655 169.603124 
L 214.297514 205.430249 
z
" style="fill:#2ca02c;"/>
   </g>
   <g id="patch_85">
    <path d="M 214.590802 205.106727 
C 214.639573 205.052706 214.688288 204.998636 214.736948 204.944515 
C 214.785607 204.890395 214.834212 204.836225 214.88276 204.782004 
L 175.232279 169.279002 
C 175.208004 169.306112 175.183702 169.333197 175.159372 169.360258 
C 175.135042 169.387318 175.110685 169.414353 175.086299 169.441363 
L 214.590802 205.106727 
z
" style="fill:#d62728;"/>
   </g>
   <g id="patch_86">
    <path d="M 214.88276 204.782004 
C 214.931309 204.727784 214.979802 204.673514 215.028239 204.619195 
C 215.076677 204.564875 215.125058 204.510506 215.173384 204.456087 
L 175.37759 169.116044 
C 175.353428 169.143253 175.329237 169.170438 175.305018 169.197597 
C 175.280799 169.224757 175.256553 169.251892 175.232279 169.279002 
L 214.88276 204.782004 
z
" style="fill:#9467bd;"/>
   </g>
   <g id="patch_87">
    <path d="M 215.173384 204.456087 
C 215.217668 204.406219 215.261905 204.35631 215.306096 204.30636 
C 215.350286 204.256409 215.394429 204.206417 215.438526 204.156383 
L 175.510161 168.966191 
C 175.488113 168.991208 175.466041 169.016204 175.443946 169.04118 
C 175.421851 169.066155 175.399733 169.09111 175.37759 169.116044 
L 215.173384 204.456087 
z
" style="fill:#8c564b;"/>
   </g>
   <g id="patch_88">
    <path d="M 215.438526 204.156383 
C 215.482622 204.106349 215.526672 204.056274 215.570674 204.006157 
C 215.614676 203.956041 215.658631 203.905883 215.702539 203.855684 
L 175.642168 168.815842 
C 175.620214 168.840942 175.598236 168.86602 175.576235 168.891079 
C 175.554234 168.916137 175.53221 168.941175 175.510161 168.966191 
L 215.438526 204.156383 
z
" style="fill:#e377c2;"/>
   </g>
   <g id="patch_89">
    <path d="M 215.702539 203.855684 
C 215.742474 203.810027 215.78237 203.764336 215.822228 203.71861 
C 215.862085 203.672885 215.901903 203.627126 215.941681 203.581332 
L 175.761739 168.678666 
C 175.74185 168.701563 175.721941 168.724442 175.702012 168.747305 
C 175.682084 168.770168 175.662136 168.793013 175.642168 168.815842 
L 215.702539 203.855684 
z
" style="fill:#7f7f7f;"/>
   </g>
   <g id="patch_90">
    <path d="M 215.941681 203.581332 
C 215.98146 203.535539 216.0212 203.489711 216.0609 203.44385 
C 216.100601 203.397989 216.140262 203.352094 216.179884 203.306164 
L 175.880841 168.541082 
C 175.86103 168.564047 175.841199 168.586994 175.821349 168.609925 
C 175.801498 168.632856 175.781629 168.655769 175.761739 168.678666 
L 215.941681 203.581332 
z
" style="fill:#bcbd22;"/>
   </g>
   <g id="patch_91">
    <path d="M 216.179884 203.306164 
C 216.219506 203.260235 216.259089 203.214272 216.298632 203.168276 
C 216.338176 203.122279 216.37768 203.076248 216.417145 203.030184 
L 175.999471 168.403092 
C 175.979738 168.426124 175.959986 168.449139 175.940215 168.472138 
C 175.920443 168.495136 175.900652 168.518118 175.880841 168.541082 
L 216.179884 203.306164 
z
" style="fill:#17becf;"/>
   </g>
   <g id="patch_92">
    <path d="M 216.417145 203.030184 
C 216.45661 202.984119 216.496035 202.938021 216.535421 202.89189 
C 216.574807 202.845758 216.614153 202.799593 216.65346 202.753394 
L 176.117629 168.264697 
C 176.097975 168.287796 176.078302 168.310879 176.058609 168.333945 
C 176.038916 168.357011 176.019203 168.38006 175.999471 168.403092 
L 216.417145 203.030184 
z
" style="fill:#1f77b4;"/>
   </g>
   <g id="patch_93">
    <path d="M 216.65346 202.753394 
C 216.692767 202.707195 216.732035 202.660962 216.771263 202.614696 
C 216.810491 202.56843 216.849679 202.52213 216.888828 202.475797 
L 176.235313 168.125898 
C 176.215738 168.149065 176.196144 168.172215 176.17653 168.195348 
C 176.156916 168.218481 176.137282 168.241597 176.117629 168.264697 
L 216.65346 202.753394 
z
" style="fill:#ff7f0e;"/>
   </g>
   <g id="patch_94">
    <path d="M 216.888828 202.475797 
C 216.927977 202.429464 216.967086 202.383097 217.006156 202.336697 
C 217.045225 202.290297 217.084255 202.243864 217.123246 202.197397 
L 176.352521 167.986699 
C 176.333026 168.009932 176.313511 168.033149 176.293976 168.056349 
C 176.274442 168.079549 176.254887 168.102732 176.235313 168.125898 
L 216.888828 202.475797 
z
" style="fill:#2ca02c;"/>
   </g>
   <g id="matplotlib.axis_1">
    <g id="text_1">
     <!-- Clinically Healthy Reference -->
     <g transform="translate(0.72 283.749344)scale(0.17 -0.17)">
      <defs>
       <path d="M 67 4 
Q 61.8125 1.3125 56.203125 -0.046875 
Q 50.59375 -1.421875 44.484375 -1.421875 
Q 26.265625 -1.421875 15.625 8.765625 
Q 4.984375 18.953125 4.984375 36.375 
Q 4.984375 53.859375 15.625 64.03125 
Q 26.265625 74.21875 44.484375 74.21875 
Q 50.59375 74.21875 56.203125 72.84375 
Q 61.8125 71.484375 67 68.796875 
L 67 53.71875 
Q 61.765625 57.28125 56.6875 58.9375 
Q 51.609375 60.59375 46 60.59375 
Q 35.9375 60.59375 30.171875 54.140625 
Q 24.421875 47.703125 24.421875 36.375 
Q 24.421875 25.09375 30.171875 18.640625 
Q 35.9375 12.203125 46 12.203125 
Q 51.609375 12.203125 56.6875 13.859375 
Q 61.765625 15.53125 67 19.09375 
z
" id="DejaVuSans-Bold-67"/>
       <path d="M 8.40625 75.984375 
L 25.875 75.984375 
L 25.875 0 
L 8.40625 0 
z
" id="DejaVuSans-Bold-108"/>
       <path d="M 8.40625 54.6875 
L 25.875 54.6875 
L 25.875 0 
L 8.40625 0 
z
M 8.40625 75.984375 
L 25.875 75.984375 
L 25.875 61.71875 
L 8.40625 61.71875 
z
" id="DejaVuSans-Bold-105"/>
       <path d="M 63.375 33.296875 
L 63.375 0 
L 45.796875 0 
L 45.796875 5.421875 
L 45.796875 25.484375 
Q 45.796875 32.5625 45.484375 35.25 
Q 45.171875 37.9375 44.390625 39.203125 
Q 43.359375 40.921875 41.59375 41.875 
Q 39.84375 42.828125 37.59375 42.828125 
Q 32.125 42.828125 29 38.59375 
Q 25.875 34.375 25.875 26.90625 
L 25.875 0 
L 8.40625 0 
L 8.40625 54.6875 
L 25.875 54.6875 
L 25.875 46.6875 
Q 29.828125 51.46875 34.265625 53.734375 
Q 38.71875 56 44.09375 56 
Q 53.5625 56 58.46875 50.1875 
Q 63.375 44.390625 63.375 33.296875 
z
" id="DejaVuSans-Bold-110"/>
       <path d="M 52.59375 52.984375 
L 52.59375 38.71875 
Q 49.03125 41.15625 45.4375 42.328125 
Q 41.84375 43.5 37.984375 43.5 
Q 30.671875 43.5 26.59375 39.234375 
Q 22.515625 34.96875 22.515625 27.296875 
Q 22.515625 19.625 26.59375 15.34375 
Q 30.671875 11.078125 37.984375 11.078125 
Q 42.09375 11.078125 45.78125 12.296875 
Q 49.46875 13.53125 52.59375 15.921875 
L 52.59375 1.609375 
Q 48.484375 0.09375 44.265625 -0.65625 
Q 40.046875 -1.421875 35.796875 -1.421875 
Q 21 -1.421875 12.640625 6.171875 
Q 4.296875 13.765625 4.296875 27.296875 
Q 4.296875 40.828125 12.640625 48.40625 
Q 21 56 35.796875 56 
Q 40.09375 56 44.265625 55.25 
Q 48.4375 54.5 52.59375 52.984375 
z
" id="DejaVuSans-Bold-99"/>
       <path d="M 32.90625 24.609375 
Q 27.4375 24.609375 24.671875 22.75 
Q 21.921875 20.90625 21.921875 17.28125 
Q 21.921875 13.96875 24.140625 12.078125 
Q 26.375 10.203125 30.328125 10.203125 
Q 35.25 10.203125 38.625 13.734375 
Q 42 17.28125 42 22.609375 
L 42 24.609375 
z
M 59.625 31.203125 
L 59.625 0 
L 42 0 
L 42 8.109375 
Q 38.484375 3.125 34.078125 0.84375 
Q 29.6875 -1.421875 23.390625 -1.421875 
Q 14.890625 -1.421875 9.59375 3.53125 
Q 4.296875 8.5 4.296875 16.40625 
Q 4.296875 26.03125 10.90625 30.515625 
Q 17.53125 35.015625 31.6875 35.015625 
L 42 35.015625 
L 42 36.375 
Q 42 40.53125 38.71875 42.453125 
Q 35.453125 44.390625 28.515625 44.390625 
Q 22.90625 44.390625 18.0625 43.265625 
Q 13.234375 42.140625 9.078125 39.890625 
L 9.078125 53.21875 
Q 14.703125 54.59375 20.359375 55.296875 
Q 26.03125 56 31.6875 56 
Q 46.484375 56 53.046875 50.171875 
Q 59.625 44.34375 59.625 31.203125 
z
" id="DejaVuSans-Bold-97"/>
       <path d="M 1.21875 54.6875 
L 18.703125 54.6875 
L 33.40625 17.578125 
L 45.90625 54.6875 
L 63.375 54.6875 
L 40.375 -5.171875 
Q 36.921875 -14.3125 32.296875 -17.9375 
Q 27.6875 -21.578125 20.125 -21.578125 
L 10.015625 -21.578125 
L 10.015625 -10.109375 
L 15.484375 -10.109375 
Q 19.921875 -10.109375 21.9375 -8.6875 
Q 23.96875 -7.28125 25.09375 -3.609375 
L 25.59375 -2.09375 
z
" id="DejaVuSans-Bold-121"/>
       <path id="DejaVuSans-Bold-32"/>
       <path d="M 9.1875 72.90625 
L 27.984375 72.90625 
L 27.984375 45.125 
L 55.71875 45.125 
L 55.71875 72.90625 
L 74.515625 72.90625 
L 74.515625 0 
L 55.71875 0 
L 55.71875 30.90625 
L 27.984375 30.90625 
L 27.984375 0 
L 9.1875 0 
z
" id="DejaVuSans-Bold-72"/>
       <path d="M 62.984375 27.484375 
L 62.984375 22.515625 
L 22.125 22.515625 
Q 22.75 16.359375 26.5625 13.28125 
Q 30.375 10.203125 37.203125 10.203125 
Q 42.71875 10.203125 48.5 11.84375 
Q 54.296875 13.484375 60.40625 16.796875 
L 60.40625 3.328125 
Q 54.203125 0.984375 48 -0.21875 
Q 41.796875 -1.421875 35.59375 -1.421875 
Q 20.75 -1.421875 12.515625 6.125 
Q 4.296875 13.671875 4.296875 27.296875 
Q 4.296875 40.671875 12.375 48.328125 
Q 20.453125 56 34.625 56 
Q 47.515625 56 55.25 48.234375 
Q 62.984375 40.484375 62.984375 27.484375 
z
M 45.015625 33.296875 
Q 45.015625 38.28125 42.109375 41.328125 
Q 39.203125 44.390625 34.515625 44.390625 
Q 29.4375 44.390625 26.265625 41.53125 
Q 23.09375 38.671875 22.3125 33.296875 
z
" id="DejaVuSans-Bold-101"/>
       <path d="M 27.484375 70.21875 
L 27.484375 54.6875 
L 45.515625 54.6875 
L 45.515625 42.1875 
L 27.484375 42.1875 
L 27.484375 19 
Q 27.484375 15.1875 29 13.84375 
Q 30.515625 12.5 35.015625 12.5 
L 44 12.5 
L 44 0 
L 29 0 
Q 18.65625 0 14.328125 4.3125 
Q 10.015625 8.640625 10.015625 19 
L 10.015625 42.1875 
L 1.3125 42.1875 
L 1.3125 54.6875 
L 10.015625 54.6875 
L 10.015625 70.21875 
z
" id="DejaVuSans-Bold-116"/>
       <path d="M 63.375 33.296875 
L 63.375 0 
L 45.796875 0 
L 45.796875 5.421875 
L 45.796875 25.390625 
Q 45.796875 32.5625 45.484375 35.25 
Q 45.171875 37.9375 44.390625 39.203125 
Q 43.359375 40.921875 41.59375 41.875 
Q 39.84375 42.828125 37.59375 42.828125 
Q 32.125 42.828125 29 38.59375 
Q 25.875 34.375 25.875 26.90625 
L 25.875 0 
L 8.40625 0 
L 8.40625 75.984375 
L 25.875 75.984375 
L 25.875 46.6875 
Q 29.828125 51.46875 34.265625 53.734375 
Q 38.71875 56 44.09375 56 
Q 53.5625 56 58.46875 50.1875 
Q 63.375 44.390625 63.375 33.296875 
z
" id="DejaVuSans-Bold-104"/>
       <path d="M 35.890625 40.578125 
Q 41.796875 40.578125 44.359375 42.765625 
Q 46.921875 44.96875 46.921875 50 
Q 46.921875 54.984375 44.359375 57.125 
Q 41.796875 59.28125 35.890625 59.28125 
L 27.984375 59.28125 
L 27.984375 40.578125 
z
M 27.984375 27.59375 
L 27.984375 0 
L 9.1875 0 
L 9.1875 72.90625 
L 37.890625 72.90625 
Q 52.296875 72.90625 59 68.0625 
Q 65.71875 63.234375 65.71875 52.78125 
Q 65.71875 45.5625 62.21875 40.921875 
Q 58.734375 36.28125 51.703125 34.078125 
Q 55.5625 33.203125 58.609375 30.09375 
Q 61.671875 27 64.796875 20.703125 
L 75 0 
L 54.984375 0 
L 46.09375 18.109375 
Q 43.40625 23.578125 40.640625 25.578125 
Q 37.890625 27.59375 33.296875 27.59375 
z
" id="DejaVuSans-Bold-82"/>
       <path d="M 44.390625 75.984375 
L 44.390625 64.5 
L 34.71875 64.5 
Q 31 64.5 29.53125 63.15625 
Q 28.078125 61.8125 28.078125 58.5 
L 28.078125 54.6875 
L 43.015625 54.6875 
L 43.015625 42.1875 
L 28.078125 42.1875 
L 28.078125 0 
L 10.59375 0 
L 10.59375 42.1875 
L 1.90625 42.1875 
L 1.90625 54.6875 
L 10.59375 54.6875 
L 10.59375 58.5 
Q 10.59375 67.4375 15.578125 71.703125 
Q 20.5625 75.984375 31 75.984375 
z
" id="DejaVuSans-Bold-102"/>
       <path d="M 49.03125 39.796875 
Q 46.734375 40.875 44.453125 41.375 
Q 42.1875 41.890625 39.890625 41.890625 
Q 33.15625 41.890625 29.515625 37.5625 
Q 25.875 33.25 25.875 25.203125 
L 25.875 0 
L 8.40625 0 
L 8.40625 54.6875 
L 25.875 54.6875 
L 25.875 45.703125 
Q 29.25 51.078125 33.609375 53.53125 
Q 37.984375 56 44.09375 56 
Q 44.96875 56 45.984375 55.921875 
Q 47.015625 55.859375 48.96875 55.609375 
z
" id="DejaVuSans-Bold-114"/>
      </defs>
      <use xlink:href="#DejaVuSans-Bold-67"/>
      <use x="73.388672" xlink:href="#DejaVuSans-Bold-108"/>
      <use x="107.666016" xlink:href="#DejaVuSans-Bold-105"/>
      <use x="141.943359" xlink:href="#DejaVuSans-Bold-110"/>
      <use x="213.134766" xlink:href="#DejaVuSans-Bold-105"/>
      <use x="247.412109" xlink:href="#DejaVuSans-Bold-99"/>
      <use x="306.689453" xlink:href="#DejaVuSans-Bold-97"/>
      <use x="374.169922" xlink:href="#DejaVuSans-Bold-108"/>
      <use x="408.447266" xlink:href="#DejaVuSans-Bold-108"/>
      <use x="442.724609" xlink:href="#DejaVuSans-Bold-121"/>
      <use x="507.910156" xlink:href="#DejaVuSans-Bold-32"/>
      <use x="542.724609" xlink:href="#DejaVuSans-Bold-72"/>
      <use x="626.416016" xlink:href="#DejaVuSans-Bold-101"/>
      <use x="694.238281" xlink:href="#DejaVuSans-Bold-97"/>
      <use x="761.71875" xlink:href="#DejaVuSans-Bold-108"/>
      <use x="795.996094" xlink:href="#DejaVuSans-Bold-116"/>
      <use x="843.798828" xlink:href="#DejaVuSans-Bold-104"/>
      <use x="914.990234" xlink:href="#DejaVuSans-Bold-121"/>
      <use x="980.175781" xlink:href="#DejaVuSans-Bold-32"/>
      <use x="1014.990234" xlink:href="#DejaVuSans-Bold-82"/>
      <use x="1091.992188" xlink:href="#DejaVuSans-Bold-101"/>
      <use x="1159.814453" xlink:href="#DejaVuSans-Bold-102"/>
      <use x="1203.320312" xlink:href="#DejaVuSans-Bold-101"/>
      <use x="1271.142578" xlink:href="#DejaVuSans-Bold-114"/>
      <use x="1320.458984" xlink:href="#DejaVuSans-Bold-101"/>
      <use x="1388.28125" xlink:href="#DejaVuSans-Bold-110"/>
      <use x="1459.472656" xlink:href="#DejaVuSans-Bold-99"/>
      <use x="1518.75" xlink:href="#DejaVuSans-Bold-101"/>
     </g>
    </g>
   </g>
   <g id="matplotlib.axis_2"/>
  </g>
 </g>
</svg>
