<?xml version="1.0" encoding="utf-8" standalone="no"?>
<!DOCTYPE svg PUBLIC "-//W3C//DTD SVG 1.1//EN"
  "http://www.w3.org/Graphics/SVG/1.1/DTD/svg11.dtd">
<!-- Created with matplotlib (https://matplotlib.org/) -->
<svg height="288.137625pt" version="1.1" viewBox="0 0 271.163594 288.137625" width="271.163594pt" xmlns="http://www.w3.org/2000/svg" xmlns:xlink="http://www.w3.org/1999/xlink">
 <metadata>
  <rdf:RDF xmlns:cc="http://creativecommons.org/ns#" xmlns:dc="http://purl.org/dc/elements/1.1/" xmlns:rdf="http://www.w3.org/1999/02/22-rdf-syntax-ns#">
   <cc:Work>
    <dc:type rdf:resource="http://purl.org/dc/dcmitype/StillImage"/>
    <dc:date>2024-02-20T15:31:35.601430</dc:date>
    <dc:format>image/svg+xml</dc:format>
    <dc:creator>
     <cc:Agent>
      <dc:title>Matplotlib v3.3.4, https://matplotlib.org/</dc:title>
     </cc:Agent>
    </dc:creator>
   </cc:Work>
  </rdf:RDF>
 </metadata>
 <defs>
  <style type="text/css">*{stroke-linecap:butt;stroke-linejoin:round;}</style>
 </defs>
 <g id="figure_1">
  <g id="patch_1">
   <path d="M 0 288.137625 
L 271.163594 288.137625 
L 271.163594 -0 
L 0 -0 
z
" style="fill:#ffffff;"/>
  </g>
  <g id="axes_1">
   <g id="patch_2">
    <path d="M 217.123244 202.197399 
C 227.405871 189.943042 234.795001 175.526896 238.739641 160.023945 
C 242.684281 144.520995 243.083885 128.326403 239.908655 112.647768 
C 236.733424 96.969134 230.064295 82.206098 220.39857 69.459513 
C 210.732845 56.712928 198.316901 46.307698 184.076569 39.01972 
L 159.829183 86.39786 
C 166.949349 90.041849 173.157321 95.244464 177.990183 101.617757 
C 182.823046 107.991049 186.157611 115.372567 187.745226 123.211884 
C 189.332841 131.051201 189.133039 139.148497 187.160719 146.899973 
C 185.188399 154.651448 181.493834 161.859521 176.352521 167.986699 
L 217.123244 202.197399 
z
" style="fill:#1f77b4;"/>
   </g>
   <g id="patch_3">
    <path d="M 184.076569 39.01972 
C 166.553616 30.051749 146.881751 26.117815 127.257564 27.657186 
C 107.633377 29.196558 88.815525 36.149725 72.905236 47.740286 
L 104.243516 90.758143 
C 112.198661 84.962862 121.607587 81.486279 131.41968 80.716593 
C 141.231774 79.946907 151.067706 81.913874 159.829183 86.39786 
L 184.076569 39.01972 
z
" style="fill:#ff7f0e;"/>
   </g>
   <g id="patch_4">
    <path d="M 72.905236 47.740286 
C 64.222821 54.065379 56.547674 61.668483 50.140983 70.290862 
C 43.734291 78.913242 38.669563 88.455967 35.119152 98.594295 
L 85.350474 116.185148 
C 87.12568 111.115983 89.658044 106.344621 92.86139 102.033431 
C 96.064736 97.722241 99.902309 93.920689 104.243516 90.758143 
L 72.905236 47.740286 
z
" style="fill:#2ca02c;"/>
   </g>
   <g id="patch_5">
    <path d="M 35.119152 98.594295 
C 32.943906 104.805788 31.349415 111.205657 30.356174 117.711639 
C 29.362932 124.217621 28.975214 130.801723 29.198003 137.379314 
L 82.3899 135.577657 
C 82.278506 132.288861 82.472365 128.996811 82.968985 125.743819 
C 83.465606 122.490828 84.262852 119.290894 85.350474 116.185148 
L 35.119152 98.594295 
z
" style="fill:#d62728;"/>
   </g>
   <g id="patch_6">
    <path d="M 29.198003 137.379314 
C 29.399516 143.328749 30.099751 149.25081 31.291339 155.083177 
C 32.482927 160.915545 34.161674 166.637689 36.309915 172.189396 
L 85.945856 152.982698 
C 84.871736 150.206844 84.032362 147.345772 83.436568 144.429589 
C 82.840774 141.513405 82.490656 138.552375 82.3899 135.577657 
L 29.198003 137.379314 
z
" style="fill:#9467bd;"/>
   </g>
   <g id="patch_7">
    <path d="M 36.309915 172.189396 
C 38.308305 177.353841 40.706658 182.354478 43.483125 187.145749 
C 46.259593 191.937021 49.405718 196.504335 52.89284 200.806082 
L 94.237319 167.291041 
C 92.493757 165.140167 90.920695 162.85651 89.532461 160.460875 
C 88.144227 158.065239 86.945051 155.564921 85.945856 152.982698 
L 36.309915 172.189396 
z
" style="fill:#8c564b;"/>
   </g>
   <g id="patch_8">
    <path d="M 52.89284 200.806082 
C 55.309534 203.787339 57.885689 206.635718 60.610017 209.33874 
C 63.334346 212.041763 66.202864 214.595474 69.203003 216.988686 
L 102.3924 175.382343 
C 100.89233 174.185737 99.458071 172.908881 98.095907 171.55737 
C 96.733743 170.205859 95.445665 168.781669 94.237319 167.291041 
L 52.89284 200.806082 
z
" style="fill:#e377c2;"/>
   </g>
   <g id="patch_9">
    <path d="M 69.203003 216.988686 
C 71.915934 219.152792 74.733075 221.182932 77.64433 223.071831 
C 80.555586 224.96073 83.557475 226.706128 86.639239 228.301772 
L 111.110518 181.038886 
C 109.569636 180.241064 108.068692 179.368365 106.613064 178.423915 
C 105.157436 177.479466 103.748865 176.464396 102.3924 175.382343 
L 69.203003 216.988686 
z
" style="fill:#7f7f7f;"/>
   </g>
   <g id="patch_10">
    <path d="M 86.639239 228.301772 
C 89.512632 229.789527 92.452369 231.145491 95.449289 232.365438 
C 98.44621 233.585385 101.497198 234.668048 104.592749 235.610053 
L 120.087273 184.693026 
C 118.539498 184.222024 117.014003 183.680693 115.515543 183.070719 
C 114.017083 182.460745 112.547215 181.782763 111.110518 181.038886 
L 86.639239 228.301772 
z
" style="fill:#bcbd22;"/>
   </g>
   <g id="patch_11">
    <path d="M 104.592749 235.610053 
C 107.340569 236.44624 110.121109 237.170867 112.92754 237.782154 
C 115.733971 238.393441 118.563995 238.890888 121.410661 239.273272 
L 128.496229 186.524636 
C 127.072896 186.333444 125.657884 186.084721 124.254668 185.779077 
C 122.851453 185.473434 121.461183 185.11112 120.087273 184.693026 
L 104.592749 235.610053 
z
" style="fill:#17becf;"/>
   </g>
   <g id="patch_12">
    <path d="M 121.410661 239.273272 
C 123.32608 239.530564 125.24815 239.735644 127.174734 239.888284 
C 129.101319 240.040923 131.031703 240.141065 132.96374 240.188599 
L 134.272769 186.9823 
C 133.30675 186.958533 132.341558 186.908462 131.378266 186.832142 
C 130.414973 186.755822 129.453938 186.653282 128.496229 186.524636 
L 121.410661 239.273272 
z
" style="fill:#1f77b4;"/>
   </g>
   <g id="patch_13">
    <path d="M 132.96374 240.188599 
C 134.774691 240.233154 136.586484 240.231472 138.397349 240.183557 
C 140.208214 240.135641 142.017561 240.041507 143.823622 239.901246 
L 139.702709 186.838623 
C 138.799679 186.908753 137.895006 186.955821 136.989573 186.979778 
C 136.084141 187.003736 135.178244 187.004577 134.272769 186.9823 
L 132.96374 240.188599 
z
" style="fill:#ff7f0e;"/>
   </g>
   <g id="patch_14">
    <path d="M 143.823622 239.901246 
C 145.498064 239.771206 147.169195 239.601556 148.835609 239.392438 
C 150.502024 239.183319 152.163256 238.934791 153.81791 238.647062 
L 144.699853 186.211531 
C 143.872526 186.355396 143.04191 186.47966 142.208703 186.584219 
C 141.375496 186.688778 140.539931 186.773603 139.702709 186.838623 
L 143.823622 239.901246 
z
" style="fill:#2ca02c;"/>
   </g>
   <g id="patch_15">
    <path d="M 153.81791 238.647062 
C 155.299572 238.389414 156.775608 238.100396 158.245023 237.7802 
C 159.714438 237.460005 161.176902 237.108704 162.63143 236.726536 
L 149.106614 185.251268 
C 148.379349 185.442352 147.648117 185.618002 146.91341 185.7781 
C 146.178702 185.938198 145.440685 186.082707 144.699853 186.211531 
L 153.81791 238.647062 
z
" style="fill:#d62728;"/>
   </g>
   <g id="patch_16">
    <path d="M 162.63143 236.726536 
C 164.05373 236.352835 165.468132 235.9497 166.873727 235.517391 
C 168.279322 235.085081 169.675807 234.62369 171.062283 234.133514 
L 153.32204 183.954757 
C 152.628802 184.199845 151.930559 184.43054 151.227762 184.646695 
C 150.524965 184.86285 149.817763 185.064417 149.106614 185.251268 
L 162.63143 236.726536 
z
" style="fill:#9467bd;"/>
   </g>
   <g id="patch_17">
    <path d="M 171.062283 234.133514 
C 172.376259 233.66897 173.680984 233.178664 174.975705 232.662882 
C 176.270426 232.1471 177.554892 231.605939 178.828361 231.039714 
L 157.205079 182.407857 
C 156.568345 182.69097 155.926111 182.96155 155.278751 183.219441 
C 154.631391 183.477332 153.979028 183.722485 153.32204 183.954757 
L 171.062283 234.133514 
z
" style="fill:#8c564b;"/>
   </g>
   <g id="patch_18">
    <path d="M 178.828361 231.039714 
C 179.910947 230.558362 180.98542 230.058969 182.051332 229.541744 
C 183.117244 229.024519 184.174447 228.489534 185.222498 227.937012 
L 160.402147 180.856506 
C 159.878122 181.132767 159.349521 181.40026 158.816564 181.658872 
C 158.283608 181.917485 157.746372 182.167181 157.205079 182.407857 
L 178.828361 231.039714 
z
" style="fill:#e377c2;"/>
   </g>
   <g id="patch_19">
    <path d="M 185.222498 227.937012 
C 186.192324 227.42573 187.154194 226.899495 188.107762 226.358495 
C 189.06133 225.817496 190.006483 225.261796 190.942883 224.691596 
L 163.26234 179.233798 
C 162.79414 179.518898 162.321564 179.796748 161.844779 180.067248 
C 161.367995 180.337747 160.887061 180.600865 160.402147 180.856506 
L 185.222498 227.937012 
z
" style="fill:#7f7f7f;"/>
   </g>
   <g id="patch_20">
    <path d="M 190.942883 224.691596 
C 191.750667 224.199713 192.55186 223.697086 193.346248 223.18385 
C 194.140636 222.670613 194.928149 222.146812 195.708576 221.612586 
L 165.645187 177.694293 
C 165.254973 177.961406 164.861217 178.223307 164.464023 178.479925 
C 164.066829 178.736543 163.666232 178.987857 163.26234 179.233798 
L 190.942883 224.691596 
z
" style="fill:#bcbd22;"/>
   </g>
   <g id="patch_21">
    <path d="M 195.708576 221.612586 
C 196.465209 221.094648 197.215119 220.566955 197.958116 220.029639 
C 198.701114 219.492323 199.437137 218.945429 200.166003 218.389094 
L 167.8739 176.082547 
C 167.509467 176.360715 167.141455 176.634162 166.769957 176.90282 
C 166.398458 177.171477 166.023503 177.435324 165.645187 177.694293 
L 195.708576 221.612586 
z
" style="fill:#17becf;"/>
   </g>
   <g id="patch_22">
    <path d="M 200.166003 218.389094 
C 200.833237 217.879802 201.494424 217.362636 202.149424 216.837703 
C 202.804424 216.31277 203.453192 215.780108 204.095592 215.239828 
L 169.838694 174.507914 
C 169.517495 174.778054 169.19311 175.044385 168.86561 175.306851 
C 168.53811 175.569318 168.207517 175.827901 167.8739 176.082547 
L 200.166003 218.389094 
z
" style="fill:#1f77b4;"/>
   </g>
   <g id="patch_23">
    <path d="M 204.095592 215.239828 
C 204.724261 214.711097 205.346788 214.175106 205.963049 213.631963 
C 206.57931 213.08882 207.189262 212.538562 207.792785 211.981298 
L 171.687291 172.878649 
C 171.38553 173.157281 171.080553 173.43241 170.772423 173.703981 
C 170.464293 173.975553 170.153029 174.243548 169.838694 174.507914 
L 204.095592 215.239828 
z
" style="fill:#ff7f0e;"/>
   </g>
   <g id="patch_24">
    <path d="M 207.792785 211.981298 
C 208.388304 211.431425 208.977522 210.874767 209.560326 210.311434 
C 210.143129 209.748101 210.719479 209.17813 211.289262 208.601631 
L 173.43553 171.188816 
C 173.150638 171.477065 172.862463 171.762051 172.571061 172.043717 
C 172.27966 172.325384 171.98505 172.603712 171.687291 172.878649 
L 207.792785 211.981298 
z
" style="fill:#2ca02c;"/>
   </g>
   <g id="patch_25">
    <path d="M 211.289262 208.601631 
C 211.843281 208.041084 212.391057 207.4744 212.932489 206.901686 
C 213.47392 206.328972 214.008975 205.750262 214.537553 205.165663 
L 175.059675 169.470832 
C 174.795386 169.763131 174.527859 170.052486 174.257143 170.338843 
C 173.986427 170.6252 173.712539 170.908542 173.43553 171.188816 
L 211.289262 208.601631 
z
" style="fill:#d62728;"/>
   </g>
   <g id="patch_26">
    <path d="M 214.537553 205.165663 
C 214.977604 204.678975 215.413145 204.188228 215.844121 203.693486 
C 216.275097 203.198743 216.701489 202.700027 217.123243 202.1974 
L 176.35252 167.9867 
C 176.141643 168.238013 175.928447 168.487372 175.712959 168.734743 
C 175.497471 168.982114 175.2797 169.227487 175.059675 169.470832 
L 214.537553 205.165663 
z
" style="fill:#9467bd;"/>
   </g>
   <g id="matplotlib.axis_1">
    <g id="text_1">
     <!-- Clinically Healthy Reference -->
     <g transform="translate(0.72 283.749344)scale(0.17 -0.17)">
      <defs>
       <path d="M 67 4 
Q 61.8125 1.3125 56.203125 -0.046875 
Q 50.59375 -1.421875 44.484375 -1.421875 
Q 26.265625 -1.421875 15.625 8.765625 
Q 4.984375 18.953125 4.984375 36.375 
Q 4.984375 53.859375 15.625 64.03125 
Q 26.265625 74.21875 44.484375 74.21875 
Q 50.59375 74.21875 56.203125 72.84375 
Q 61.8125 71.484375 67 68.796875 
L 67 53.71875 
Q 61.765625 57.28125 56.6875 58.9375 
Q 51.609375 60.59375 46 60.59375 
Q 35.9375 60.59375 30.171875 54.140625 
Q 24.421875 47.703125 24.421875 36.375 
Q 24.421875 25.09375 30.171875 18.640625 
Q 35.9375 12.203125 46 12.203125 
Q 51.609375 12.203125 56.6875 13.859375 
Q 61.765625 15.53125 67 19.09375 
z
" id="DejaVuSans-Bold-67"/>
       <path d="M 8.40625 75.984375 
L 25.875 75.984375 
L 25.875 0 
L 8.40625 0 
z
" id="DejaVuSans-Bold-108"/>
       <path d="M 8.40625 54.6875 
L 25.875 54.6875 
L 25.875 0 
L 8.40625 0 
z
M 8.40625 75.984375 
L 25.875 75.984375 
L 25.875 61.71875 
L 8.40625 61.71875 
z
" id="DejaVuSans-Bold-105"/>
       <path d="M 63.375 33.296875 
L 63.375 0 
L 45.796875 0 
L 45.796875 5.421875 
L 45.796875 25.484375 
Q 45.796875 32.5625 45.484375 35.25 
Q 45.171875 37.9375 44.390625 39.203125 
Q 43.359375 40.921875 41.59375 41.875 
Q 39.84375 42.828125 37.59375 42.828125 
Q 32.125 42.828125 29 38.59375 
Q 25.875 34.375 25.875 26.90625 
L 25.875 0 
L 8.40625 0 
L 8.40625 54.6875 
L 25.875 54.6875 
L 25.875 46.6875 
Q 29.828125 51.46875 34.265625 53.734375 
Q 38.71875 56 44.09375 56 
Q 53.5625 56 58.46875 50.1875 
Q 63.375 44.390625 63.375 33.296875 
z
" id="DejaVuSans-Bold-110"/>
       <path d="M 52.59375 52.984375 
L 52.59375 38.71875 
Q 49.03125 41.15625 45.4375 42.328125 
Q 41.84375 43.5 37.984375 43.5 
Q 30.671875 43.5 26.59375 39.234375 
Q 22.515625 34.96875 22.515625 27.296875 
Q 22.515625 19.625 26.59375 15.34375 
Q 30.671875 11.078125 37.984375 11.078125 
Q 42.09375 11.078125 45.78125 12.296875 
Q 49.46875 13.53125 52.59375 15.921875 
L 52.59375 1.609375 
Q 48.484375 0.09375 44.265625 -0.65625 
Q 40.046875 -1.421875 35.796875 -1.421875 
Q 21 -1.421875 12.640625 6.171875 
Q 4.296875 13.765625 4.296875 27.296875 
Q 4.296875 40.828125 12.640625 48.40625 
Q 21 56 35.796875 56 
Q 40.09375 56 44.265625 55.25 
Q 48.4375 54.5 52.59375 52.984375 
z
" id="DejaVuSans-Bold-99"/>
       <path d="M 32.90625 24.609375 
Q 27.4375 24.609375 24.671875 22.75 
Q 21.921875 20.90625 21.921875 17.28125 
Q 21.921875 13.96875 24.140625 12.078125 
Q 26.375 10.203125 30.328125 10.203125 
Q 35.25 10.203125 38.625 13.734375 
Q 42 17.28125 42 22.609375 
L 42 24.609375 
z
M 59.625 31.203125 
L 59.625 0 
L 42 0 
L 42 8.109375 
Q 38.484375 3.125 34.078125 0.84375 
Q 29.6875 -1.421875 23.390625 -1.421875 
Q 14.890625 -1.421875 9.59375 3.53125 
Q 4.296875 8.5 4.296875 16.40625 
Q 4.296875 26.03125 10.90625 30.515625 
Q 17.53125 35.015625 31.6875 35.015625 
L 42 35.015625 
L 42 36.375 
Q 42 40.53125 38.71875 42.453125 
Q 35.453125 44.390625 28.515625 44.390625 
Q 22.90625 44.390625 18.0625 43.265625 
Q 13.234375 42.140625 9.078125 39.890625 
L 9.078125 53.21875 
Q 14.703125 54.59375 20.359375 55.296875 
Q 26.03125 56 31.6875 56 
Q 46.484375 56 53.046875 50.171875 
Q 59.625 44.34375 59.625 31.203125 
z
" id="DejaVuSans-Bold-97"/>
       <path d="M 1.21875 54.6875 
L 18.703125 54.6875 
L 33.40625 17.578125 
L 45.90625 54.6875 
L 63.375 54.6875 
L 40.375 -5.171875 
Q 36.921875 -14.3125 32.296875 -17.9375 
Q 27.6875 -21.578125 20.125 -21.578125 
L 10.015625 -21.578125 
L 10.015625 -10.109375 
L 15.484375 -10.109375 
Q 19.921875 -10.109375 21.9375 -8.6875 
Q 23.96875 -7.28125 25.09375 -3.609375 
L 25.59375 -2.09375 
z
" id="DejaVuSans-Bold-121"/>
       <path id="DejaVuSans-Bold-32"/>
       <path d="M 9.1875 72.90625 
L 27.984375 72.90625 
L 27.984375 45.125 
L 55.71875 45.125 
L 55.71875 72.90625 
L 74.515625 72.90625 
L 74.515625 0 
L 55.71875 0 
L 55.71875 30.90625 
L 27.984375 30.90625 
L 27.984375 0 
L 9.1875 0 
z
" id="DejaVuSans-Bold-72"/>
       <path d="M 62.984375 27.484375 
L 62.984375 22.515625 
L 22.125 22.515625 
Q 22.75 16.359375 26.5625 13.28125 
Q 30.375 10.203125 37.203125 10.203125 
Q 42.71875 10.203125 48.5 11.84375 
Q 54.296875 13.484375 60.40625 16.796875 
L 60.40625 3.328125 
Q 54.203125 0.984375 48 -0.21875 
Q 41.796875 -1.421875 35.59375 -1.421875 
Q 20.75 -1.421875 12.515625 6.125 
Q 4.296875 13.671875 4.296875 27.296875 
Q 4.296875 40.671875 12.375 48.328125 
Q 20.453125 56 34.625 56 
Q 47.515625 56 55.25 48.234375 
Q 62.984375 40.484375 62.984375 27.484375 
z
M 45.015625 33.296875 
Q 45.015625 38.28125 42.109375 41.328125 
Q 39.203125 44.390625 34.515625 44.390625 
Q 29.4375 44.390625 26.265625 41.53125 
Q 23.09375 38.671875 22.3125 33.296875 
z
" id="DejaVuSans-Bold-101"/>
       <path d="M 27.484375 70.21875 
L 27.484375 54.6875 
L 45.515625 54.6875 
L 45.515625 42.1875 
L 27.484375 42.1875 
L 27.484375 19 
Q 27.484375 15.1875 29 13.84375 
Q 30.515625 12.5 35.015625 12.5 
L 44 12.5 
L 44 0 
L 29 0 
Q 18.65625 0 14.328125 4.3125 
Q 10.015625 8.640625 10.015625 19 
L 10.015625 42.1875 
L 1.3125 42.1875 
L 1.3125 54.6875 
L 10.015625 54.6875 
L 10.015625 70.21875 
z
" id="DejaVuSans-Bold-116"/>
       <path d="M 63.375 33.296875 
L 63.375 0 
L 45.796875 0 
L 45.796875 5.421875 
L 45.796875 25.390625 
Q 45.796875 32.5625 45.484375 35.25 
Q 45.171875 37.9375 44.390625 39.203125 
Q 43.359375 40.921875 41.59375 41.875 
Q 39.84375 42.828125 37.59375 42.828125 
Q 32.125 42.828125 29 38.59375 
Q 25.875 34.375 25.875 26.90625 
L 25.875 0 
L 8.40625 0 
L 8.40625 75.984375 
L 25.875 75.984375 
L 25.875 46.6875 
Q 29.828125 51.46875 34.265625 53.734375 
Q 38.71875 56 44.09375 56 
Q 53.5625 56 58.46875 50.1875 
Q 63.375 44.390625 63.375 33.296875 
z
" id="DejaVuSans-Bold-104"/>
       <path d="M 35.890625 40.578125 
Q 41.796875 40.578125 44.359375 42.765625 
Q 46.921875 44.96875 46.921875 50 
Q 46.921875 54.984375 44.359375 57.125 
Q 41.796875 59.28125 35.890625 59.28125 
L 27.984375 59.28125 
L 27.984375 40.578125 
z
M 27.984375 27.59375 
L 27.984375 0 
L 9.1875 0 
L 9.1875 72.90625 
L 37.890625 72.90625 
Q 52.296875 72.90625 59 68.0625 
Q 65.71875 63.234375 65.71875 52.78125 
Q 65.71875 45.5625 62.21875 40.921875 
Q 58.734375 36.28125 51.703125 34.078125 
Q 55.5625 33.203125 58.609375 30.09375 
Q 61.671875 27 64.796875 20.703125 
L 75 0 
L 54.984375 0 
L 46.09375 18.109375 
Q 43.40625 23.578125 40.640625 25.578125 
Q 37.890625 27.59375 33.296875 27.59375 
z
" id="DejaVuSans-Bold-82"/>
       <path d="M 44.390625 75.984375 
L 44.390625 64.5 
L 34.71875 64.5 
Q 31 64.5 29.53125 63.15625 
Q 28.078125 61.8125 28.078125 58.5 
L 28.078125 54.6875 
L 43.015625 54.6875 
L 43.015625 42.1875 
L 28.078125 42.1875 
L 28.078125 0 
L 10.59375 0 
L 10.59375 42.1875 
L 1.90625 42.1875 
L 1.90625 54.6875 
L 10.59375 54.6875 
L 10.59375 58.5 
Q 10.59375 67.4375 15.578125 71.703125 
Q 20.5625 75.984375 31 75.984375 
z
" id="DejaVuSans-Bold-102"/>
       <path d="M 49.03125 39.796875 
Q 46.734375 40.875 44.453125 41.375 
Q 42.1875 41.890625 39.890625 41.890625 
Q 33.15625 41.890625 29.515625 37.5625 
Q 25.875 33.25 25.875 25.203125 
L 25.875 0 
L 8.40625 0 
L 8.40625 54.6875 
L 25.875 54.6875 
L 25.875 45.703125 
Q 29.25 51.078125 33.609375 53.53125 
Q 37.984375 56 44.09375 56 
Q 44.96875 56 45.984375 55.921875 
Q 47.015625 55.859375 48.96875 55.609375 
z
" id="DejaVuSans-Bold-114"/>
      </defs>
      <use xlink:href="#DejaVuSans-Bold-67"/>
      <use x="73.388672" xlink:href="#DejaVuSans-Bold-108"/>
      <use x="107.666016" xlink:href="#DejaVuSans-Bold-105"/>
      <use x="141.943359" xlink:href="#DejaVuSans-Bold-110"/>
      <use x="213.134766" xlink:href="#DejaVuSans-Bold-105"/>
      <use x="247.412109" xlink:href="#DejaVuSans-Bold-99"/>
      <use x="306.689453" xlink:href="#DejaVuSans-Bold-97"/>
      <use x="374.169922" xlink:href="#DejaVuSans-Bold-108"/>
      <use x="408.447266" xlink:href="#DejaVuSans-Bold-108"/>
      <use x="442.724609" xlink:href="#DejaVuSans-Bold-121"/>
      <use x="507.910156" xlink:href="#DejaVuSans-Bold-32"/>
      <use x="542.724609" xlink:href="#DejaVuSans-Bold-72"/>
      <use x="626.416016" xlink:href="#DejaVuSans-Bold-101"/>
      <use x="694.238281" xlink:href="#DejaVuSans-Bold-97"/>
      <use x="761.71875" xlink:href="#DejaVuSans-Bold-108"/>
      <use x="795.996094" xlink:href="#DejaVuSans-Bold-116"/>
      <use x="843.798828" xlink:href="#DejaVuSans-Bold-104"/>
      <use x="914.990234" xlink:href="#DejaVuSans-Bold-121"/>
      <use x="980.175781" xlink:href="#DejaVuSans-Bold-32"/>
      <use x="1014.990234" xlink:href="#DejaVuSans-Bold-82"/>
      <use x="1091.992188" xlink:href="#DejaVuSans-Bold-101"/>
      <use x="1159.814453" xlink:href="#DejaVuSans-Bold-102"/>
      <use x="1203.320312" xlink:href="#DejaVuSans-Bold-101"/>
      <use x="1271.142578" xlink:href="#DejaVuSans-Bold-114"/>
      <use x="1320.458984" xlink:href="#DejaVuSans-Bold-101"/>
      <use x="1388.28125" xlink:href="#DejaVuSans-Bold-110"/>
      <use x="1459.472656" xlink:href="#DejaVuSans-Bold-99"/>
      <use x="1518.75" xlink:href="#DejaVuSans-Bold-101"/>
     </g>
    </g>
   </g>
   <g id="matplotlib.axis_2"/>
  </g>
 </g>
</svg>
