<?xml version="1.0" encoding="utf-8" standalone="no"?>
<!DOCTYPE svg PUBLIC "-//W3C//DTD SVG 1.1//EN"
  "http://www.w3.org/Graphics/SVG/1.1/DTD/svg11.dtd">
<!-- Created with matplotlib (https://matplotlib.org/) -->
<svg height="288.137625pt" version="1.1" viewBox="0 0 271.163594 288.137625" width="271.163594pt" xmlns="http://www.w3.org/2000/svg" xmlns:xlink="http://www.w3.org/1999/xlink">
 <metadata>
  <rdf:RDF xmlns:cc="http://creativecommons.org/ns#" xmlns:dc="http://purl.org/dc/elements/1.1/" xmlns:rdf="http://www.w3.org/1999/02/22-rdf-syntax-ns#">
   <cc:Work>
    <dc:type rdf:resource="http://purl.org/dc/dcmitype/StillImage"/>
    <dc:date>2024-02-20T16:06:39.034059</dc:date>
    <dc:format>image/svg+xml</dc:format>
    <dc:creator>
     <cc:Agent>
      <dc:title>Matplotlib v3.3.4, https://matplotlib.org/</dc:title>
     </cc:Agent>
    </dc:creator>
   </cc:Work>
  </rdf:RDF>
 </metadata>
 <defs>
  <style type="text/css">*{stroke-linecap:butt;stroke-linejoin:round;}</style>
 </defs>
 <g id="figure_1">
  <g id="patch_1">
   <path d="M 0 288.137625 
L 271.163594 288.137625 
L 271.163594 -0 
L 0 -0 
z
" style="fill:#ffffff;"/>
  </g>
  <g id="axes_1">
   <g id="patch_2">
    <path d="M 217.123244 202.197399 
C 228.359921 188.806049 236.126632 172.850579 239.734679 155.745809 
C 243.342727 138.64104 242.682216 120.907948 237.811718 104.118981 
C 232.941219 87.330015 224.009078 71.996533 211.807335 59.478202 
C 199.605592 46.959871 184.505887 37.637974 167.847159 32.339114 
L 151.714478 83.057557 
C 160.043842 85.706987 167.593694 90.367935 173.694566 96.627101 
C 179.795437 102.886266 184.261508 110.553008 186.696757 118.947491 
C 189.132007 127.341974 189.462262 136.20852 187.658238 144.760905 
C 185.854214 153.313289 181.970859 161.291024 176.352521 167.986699 
L 217.123244 202.197399 
z
" style="fill:#1f77b4;"/>
   </g>
   <g id="patch_3">
    <path d="M 167.847159 32.339114 
C 154.32705 28.038595 140.082586 26.484219 125.953156 27.767582 
C 111.823725 29.050944 98.092424 33.146331 85.568401 39.812413 
C 73.044377 46.478495 61.978561 55.581711 53.02303 66.585633 
C 44.0675 77.589555 37.401687 90.273709 33.418391 103.890653 
L 84.500094 118.833327 
C 86.491742 112.024854 89.824648 105.682777 94.302413 100.180816 
C 98.780179 94.678855 104.313087 90.127248 110.575099 86.794207 
C 116.837111 83.461166 123.702761 81.413472 130.767476 80.771791 
C 137.832192 80.13011 144.954423 80.907298 151.714478 83.057557 
L 167.847159 32.339114 
z
" style="fill:#ff7f0e;"/>
   </g>
   <g id="patch_4">
    <path d="M 33.418391 103.890653 
C 29.455216 117.438811 28.226329 131.640966 29.803427 145.668515 
C 31.380525 159.696063 35.732328 173.270789 42.604937 185.600695 
L 89.093367 159.688347 
C 85.657062 153.523394 83.481161 146.736031 82.692612 139.722257 
C 81.904063 132.708483 82.518507 125.607406 84.500094 118.833327 
L 33.418391 103.890653 
z
" style="fill:#2ca02c;"/>
   </g>
   <g id="patch_5">
    <path d="M 42.604937 185.600695 
C 48.554068 196.273821 56.296826 205.843306 65.493267 213.889004 
C 74.689708 221.934702 85.203244 228.337116 96.572281 232.815149 
L 116.077039 183.295575 
C 110.39252 181.056558 105.135752 177.855351 100.537532 173.832502 
C 95.939311 169.809653 92.067932 165.024911 89.093367 159.688347 
L 42.604937 185.600695 
z
" style="fill:#d62728;"/>
   </g>
   <g id="patch_6">
    <path d="M 96.572281 232.815149 
C 101.41965 234.72443 106.400657 236.275263 111.475126 237.455139 
C 116.549595 238.635015 121.703846 239.440754 126.896305 239.865857 
L 131.239051 186.820928 
C 128.642821 186.608377 126.065696 186.205508 123.528462 185.61557 
C 120.991227 185.025631 118.500724 184.250215 116.077039 183.295575 
L 96.572281 232.815149 
z
" style="fill:#9467bd;"/>
   </g>
   <g id="patch_7">
    <path d="M 126.896305 239.865857 
C 130.19931 240.136271 133.513143 240.252284 136.826973 240.213517 
C 140.140803 240.174749 143.451015 239.981244 146.74679 239.633633 
L 141.164293 186.704816 
C 139.516406 186.878622 137.8613 186.975375 136.204385 186.994758 
C 134.54747 187.014142 132.890554 186.956136 131.239051 186.820928 
L 126.896305 239.865857 
z
" style="fill:#8c564b;"/>
   </g>
   <g id="patch_8">
    <path d="M 146.74679 239.633633 
C 149.543865 239.33862 152.32815 238.932863 155.093086 238.417316 
C 157.858023 237.901769 160.601441 237.276838 163.316879 236.543994 
L 149.449338 185.159997 
C 148.091619 185.526419 146.71991 185.838885 145.337442 186.096658 
C 143.954973 186.354431 142.562831 186.55731 141.164293 186.704816 
L 146.74679 239.633633 
z
" style="fill:#e377c2;"/>
   </g>
   <g id="patch_9">
    <path d="M 163.316879 236.543994 
C 165.308367 236.006531 167.283811 235.411292 169.24071 234.759033 
C 171.197608 234.106775 173.135133 233.397771 175.050831 232.632921 
L 155.316314 183.20446 
C 154.358465 183.586885 153.389703 183.941387 152.411253 184.267517 
C 151.432804 184.593646 150.445082 184.891265 149.449338 185.159997 
L 163.316879 236.543994 
z
" style="fill:#7f7f7f;"/>
   </g>
   <g id="patch_10">
    <path d="M 175.050831 232.632921 
C 176.657509 231.991448 178.248309 231.310902 179.821815 230.591888 
C 181.395321 229.872875 182.951064 229.115608 184.487658 228.320763 
L 160.034727 181.048381 
C 159.26643 181.445804 158.488559 181.824437 157.701806 182.183944 
C 156.915053 182.543451 156.119653 182.883724 155.316314 183.20446 
L 175.050831 232.632921 
z
" style="fill:#bcbd22;"/>
   </g>
   <g id="patch_11">
    <path d="M 184.487658 228.320763 
C 185.921804 227.578912 187.338884 226.804525 188.737799 225.998204 
C 190.136714 225.191882 191.517102 224.353835 192.877889 223.484713 
L 164.229843 178.630357 
C 163.549449 179.064918 162.859256 179.483941 162.159798 179.887102 
C 161.460341 180.290263 160.7518 180.677456 160.034727 181.048381 
L 184.487658 228.320763 
z
" style="fill:#17becf;"/>
   </g>
   <g id="patch_12">
    <path d="M 192.877889 223.484713 
C 193.457325 223.114633 194.033162 222.738948 194.605318 222.35771 
C 195.177475 221.976472 195.745924 221.5897 196.310586 221.197448 
L 165.946192 177.486724 
C 165.66386 177.68285 165.379636 177.876236 165.093558 178.066855 
C 164.807479 178.257474 164.519561 178.445317 164.229843 178.630357 
L 192.877889 223.484713 
z
" style="fill:#1f77b4;"/>
   </g>
   <g id="patch_13">
    <path d="M 196.310586 221.197448 
C 196.69674 220.9292 197.081113 220.658396 197.463678 220.385054 
C 197.846244 220.111712 198.226994 219.835839 198.605904 219.557451 
L 167.09385 176.666726 
C 166.904395 176.805919 166.71402 176.943856 166.522737 177.080527 
C 166.331455 177.217198 166.139269 177.3526 165.946192 177.486724 
L 196.310586 221.197448 
z
" style="fill:#ff7f0e;"/>
   </g>
   <g id="patch_14">
    <path d="M 198.605904 219.557451 
C 198.945492 219.307954 199.283596 219.056442 199.620198 218.802929 
C 199.9568 218.549416 200.291893 218.293906 200.62546 218.036414 
L 168.103628 175.906207 
C 167.936845 176.034953 167.769298 176.162708 167.600997 176.289464 
C 167.432697 176.416221 167.263645 176.541977 167.09385 176.666726 
L 198.605904 219.557451 
z
" style="fill:#2ca02c;"/>
   </g>
   <g id="patch_15">
    <path d="M 200.62546 218.036414 
C 200.941471 217.792473 201.256107 217.546757 201.569354 217.299277 
C 201.8826 217.051797 202.194452 216.802556 202.504894 216.551567 
L 169.043346 175.163783 
C 168.888124 175.289278 168.732199 175.413898 168.575575 175.537638 
C 168.418952 175.661379 168.261634 175.784237 168.103628 175.906207 
L 200.62546 218.036414 
z
" style="fill:#d62728;"/>
   </g>
   <g id="patch_16">
    <path d="M 202.504894 216.551567 
C 202.74635 216.356353 202.98695 216.160084 203.226688 215.962764 
C 203.466426 215.765445 203.705299 215.567077 203.943301 215.367668 
L 169.762549 174.571834 
C 169.643548 174.671539 169.524111 174.770722 169.404242 174.869382 
C 169.284373 174.968042 169.164073 175.066177 169.043346 175.163783 
L 202.504894 216.551567 
z
" style="fill:#9467bd;"/>
   </g>
   <g id="patch_17">
    <path d="M 203.943301 215.367668 
C 204.150701 215.193898 204.357437 215.019338 204.563506 214.843991 
C 204.769575 214.668645 204.974974 214.492514 205.1797 214.315601 
L 170.380748 174.0458 
C 170.278386 174.134257 170.175686 174.222323 170.072652 174.309996 
C 169.969617 174.397669 169.866249 174.484949 169.762549 174.571834 
L 203.943301 215.367668 
z
" style="fill:#8c564b;"/>
   </g>
   <g id="patch_18">
    <path d="M 205.1797 214.315601 
C 205.374358 214.147388 205.568406 213.97847 205.761839 213.80885 
C 205.955273 213.63923 206.148091 213.46891 206.340289 213.297892 
L 170.961043 173.536946 
C 170.864944 173.622455 170.768535 173.707615 170.671818 173.792425 
C 170.575101 173.877235 170.478078 173.961694 170.380748 174.0458 
L 205.1797 214.315601 
z
" style="fill:#e377c2;"/>
   </g>
   <g id="patch_19">
    <path d="M 206.340289 213.297892 
C 206.515919 213.141616 206.69103 212.98476 206.865621 212.827324 
C 207.040211 212.669889 207.21428 212.511876 207.387823 212.353287 
L 171.48481 173.064644 
C 171.398038 173.143938 171.311004 173.222945 171.223709 173.301662 
C 171.136414 173.38038 171.048858 173.458808 170.961043 173.536946 
L 206.340289 213.297892 
z
" style="fill:#7f7f7f;"/>
   </g>
   <g id="patch_20">
    <path d="M 207.387823 212.353287 
C 207.544995 212.209659 207.701735 212.065561 207.858042 211.920992 
C 208.014349 211.776424 208.170222 211.631388 208.325658 211.485884 
L 171.953728 172.630942 
C 171.876009 172.703694 171.798073 172.776212 171.719919 172.848496 
C 171.641766 172.92078 171.563396 172.99283 171.48481 173.064644 
L 207.387823 212.353287 
z
" style="fill:#bcbd22;"/>
   </g>
   <g id="patch_21">
    <path d="M 208.325658 211.485884 
C 208.471379 211.349476 208.616715 211.212658 208.761666 211.075432 
C 208.906617 210.938206 209.051181 210.800573 209.195358 210.662534 
L 172.388577 172.219267 
C 172.316489 172.288287 172.244207 172.357103 172.171731 172.425716 
C 172.099256 172.494329 172.026588 172.562738 171.953728 172.630942 
L 208.325658 211.485884 
z
" style="fill:#17becf;"/>
   </g>
   <g id="patch_22">
    <path d="M 209.195358 210.662534 
C 209.30429 210.558238 209.413001 210.453711 209.52149 210.348954 
C 209.629978 210.244196 209.738244 210.139208 209.846287 210.03399 
L 172.714042 171.904995 
C 172.660021 171.957604 172.605888 172.010098 172.551643 172.062477 
C 172.497399 172.114856 172.443044 172.167119 172.388577 172.219267 
L 209.195358 210.662534 
z
" style="fill:#1f77b4;"/>
   </g>
   <g id="patch_23">
    <path d="M 209.846287 210.03399 
C 209.941618 209.94115 210.036776 209.848132 210.131759 209.754935 
C 210.226742 209.661739 210.32155 209.568364 210.416183 209.474812 
L 172.99899 171.625406 
C 172.951674 171.672182 172.904269 171.718869 172.856778 171.765468 
C 172.809286 171.812066 172.761708 171.858575 172.714042 171.904995 
L 209.846287 210.03399 
z
" style="fill:#ff7f0e;"/>
   </g>
   <g id="patch_24">
    <path d="M 210.416183 209.474812 
C 210.507661 209.384378 210.598975 209.293779 210.690124 209.203015 
C 210.781274 209.112251 210.872259 209.021321 210.963078 208.930227 
L 173.272438 171.353114 
C 173.227028 171.398661 173.181535 171.444125 173.135961 171.489508 
C 173.090386 171.53489 173.044729 171.580189 172.99899 171.625406 
L 210.416183 209.474812 
z
" style="fill:#2ca02c;"/>
   </g>
   <g id="patch_25">
    <path d="M 210.963078 208.930227 
C 211.050766 208.842275 211.1383 208.754169 211.225679 208.66591 
C 211.313058 208.577651 211.400283 208.489239 211.487352 208.400675 
L 173.534575 171.088337 
C 173.49104 171.13262 173.447427 171.176825 173.403738 171.220955 
C 173.360048 171.265084 173.316281 171.309137 173.272438 171.353114 
L 210.963078 208.930227 
z
" style="fill:#d62728;"/>
   </g>
   <g id="patch_26">
    <path d="M 211.487352 208.400675 
C 211.571314 208.315272 211.655132 208.229727 211.738805 208.144041 
C 211.822479 208.058355 211.906007 207.972528 211.989391 207.88656 
L 173.785594 170.83128 
C 173.743902 170.874264 173.702138 170.917177 173.660301 170.96002 
C 173.618464 171.002863 173.576556 171.045636 173.534575 171.088337 
L 211.487352 208.400675 
z
" style="fill:#9467bd;"/>
   </g>
   <g id="patch_27">
    <path d="M 211.989391 207.88656 
C 212.072774 207.800592 212.156012 207.714483 212.239105 207.628234 
C 212.322198 207.541985 212.405145 207.455596 212.487947 207.369067 
L 174.034872 170.572534 
C 173.993471 170.615798 173.951998 170.658993 173.910451 170.702117 
C 173.868905 170.745242 173.827285 170.788296 173.785594 170.83128 
L 211.989391 207.88656 
z
" style="fill:#8c564b;"/>
   </g>
   <g id="patch_28">
    <path d="M 212.487947 207.369067 
C 212.570748 207.282538 212.653403 207.19587 212.735912 207.109062 
C 212.818421 207.022254 212.900783 206.935307 212.982998 206.848221 
L 174.282397 170.312111 
C 174.24129 170.355654 174.200109 170.399127 174.158854 170.442531 
C 174.1176 170.485935 174.076272 170.529269 174.034872 170.572534 
L 212.487947 207.369067 
z
" style="fill:#e377c2;"/>
   </g>
   <g id="patch_29">
    <path d="M 212.982998 206.848221 
C 213.053032 206.774039 213.122958 206.699756 213.192778 206.625372 
C 213.262598 206.550989 213.332311 206.476505 213.401917 206.401921 
L 174.491857 170.08896 
C 174.457054 170.126252 174.422198 170.163494 174.387288 170.200686 
C 174.352378 170.237878 174.317414 170.275019 174.282397 170.312111 
L 212.982998 206.848221 
z
" style="fill:#7f7f7f;"/>
   </g>
   <g id="patch_30">
    <path d="M 213.401917 206.401921 
C 213.465471 206.333821 213.528936 206.265638 213.592312 206.197371 
C 213.655687 206.129105 213.718973 206.060756 213.782169 205.992323 
L 174.681983 169.884161 
C 174.650385 169.918378 174.618742 169.952553 174.587054 169.986686 
C 174.555367 170.020819 174.523634 170.054911 174.491857 170.08896 
L 213.401917 206.401921 
z
" style="fill:#bcbd22;"/>
   </g>
   <g id="patch_31">
    <path d="M 213.782169 205.992323 
C 213.842355 205.92715 213.902459 205.861901 213.962483 205.796577 
C 214.022506 205.731254 214.082447 205.665855 214.142306 205.600382 
L 174.862052 169.688191 
C 174.832122 169.720928 174.802151 169.753627 174.77214 169.786289 
C 174.742128 169.818951 174.712076 169.851575 174.681983 169.884161 
L 213.782169 205.992323 
z
" style="fill:#17becf;"/>
   </g>
   <g id="patch_32">
    <path d="M 214.142306 205.600382 
C 214.199173 205.538182 214.255965 205.475915 214.312683 205.413581 
C 214.369401 205.351247 214.426045 205.288845 214.482615 205.226377 
L 175.032206 169.501188 
C 175.003921 169.532423 174.975599 169.563623 174.94724 169.594791 
C 174.918881 169.625958 174.890485 169.657091 174.862052 169.688191 
L 214.142306 205.600382 
z
" style="fill:#1f77b4;"/>
   </g>
   <g id="patch_33">
    <path d="M 214.482615 205.226377 
C 214.536207 205.167196 214.589733 205.107955 214.643192 205.048655 
C 214.696651 204.989354 214.750043 204.929993 214.803368 204.870572 
L 175.192582 169.323286 
C 175.16592 169.352996 175.139224 169.382677 175.112494 169.412327 
C 175.085765 169.441978 175.059002 169.471598 175.032206 169.501188 
L 214.482615 205.226377 
z
" style="fill:#ff7f0e;"/>
   </g>
   <g id="patch_34">
    <path d="M 214.803368 204.870572 
C 214.856693 204.811151 214.909952 204.75167 214.963143 204.692129 
C 215.016334 204.632588 215.069459 204.572987 215.122516 204.513327 
L 175.352156 169.144664 
C 175.325628 169.174494 175.299066 169.204294 175.27247 169.234064 
C 175.245874 169.263835 175.219245 169.293575 175.192582 169.323286 
L 214.803368 204.870572 
z
" style="fill:#2ca02c;"/>
   </g>
   <g id="patch_35">
    <path d="M 215.122516 204.513327 
C 215.172625 204.456982 215.222675 204.400583 215.272664 204.344131 
C 215.322653 204.28768 215.372582 204.231175 215.422452 204.174617 
L 175.502124 168.975309 
C 175.47719 169.003587 175.452225 169.03184 175.42723 169.060066 
C 175.402236 169.088292 175.377211 169.116491 175.352156 169.144664 
L 215.122516 204.513327 
z
" style="fill:#d62728;"/>
   </g>
   <g id="patch_36">
    <path d="M 215.422452 204.174617 
C 215.469389 204.121384 215.516273 204.068104 215.563104 204.014778 
C 215.609935 203.961451 215.656713 203.908078 215.703437 203.854658 
L 175.642617 168.815329 
C 175.619255 168.842039 175.595866 168.868726 175.572451 168.895389 
C 175.549035 168.922052 175.525593 168.948692 175.502124 168.975309 
L 215.422452 204.174617 
z
" style="fill:#9467bd;"/>
   </g>
   <g id="patch_37">
    <path d="M 215.703437 203.854658 
C 215.74724 203.804577 215.790997 203.754455 215.834706 203.704292 
C 215.878416 203.654129 215.922078 203.603925 215.965693 203.55368 
L 175.773745 168.66484 
C 175.751938 168.689962 175.730106 168.715064 175.708252 168.740146 
C 175.686397 168.765227 175.664519 168.790288 175.642617 168.815329 
L 215.703437 203.854658 
z
" style="fill:#8c564b;"/>
   </g>
   <g id="patch_38">
    <path d="M 215.965693 203.55368 
C 216.003493 203.510135 216.041256 203.46656 216.078984 203.422954 
C 216.116713 203.379348 216.154405 203.335712 216.192063 203.292045 
L 175.88693 168.534022 
C 175.868101 168.555856 175.849255 168.577674 175.830391 168.599477 
C 175.811527 168.62128 175.792645 168.643068 175.773745 168.66484 
L 215.965693 203.55368 
z
" style="fill:#e377c2;"/>
   </g>
   <g id="patch_39">
    <path d="M 216.192063 203.292045 
C 216.22972 203.248378 216.267342 203.20468 216.304928 203.160952 
C 216.342515 203.117223 216.380065 203.073464 216.417581 203.029675 
L 175.999689 168.402838 
C 175.980931 168.424732 175.962156 168.446612 175.943363 168.468476 
C 175.924569 168.49034 175.905759 168.512189 175.88693 168.534022 
L 216.192063 203.292045 
z
" style="fill:#7f7f7f;"/>
   </g>
   <g id="patch_40">
    <path d="M 216.417581 203.029675 
C 216.449323 202.992624 216.48104 202.955551 216.512732 202.918456 
C 216.544424 202.881361 216.57609 202.844244 216.60773 202.807106 
L 176.094764 168.291553 
C 176.078943 168.310122 176.06311 168.32868 176.047264 168.347228 
C 176.031419 168.365775 176.01556 168.384312 175.999689 168.402838 
L 216.417581 203.029675 
z
" style="fill:#bcbd22;"/>
   </g>
   <g id="patch_41">
    <path d="M 216.60773 202.807106 
C 216.636496 202.773342 216.665241 202.739559 216.693964 202.705759 
C 216.722688 202.671959 216.75139 202.638141 216.780072 202.604305 
L 176.180934 168.190153 
C 176.166594 168.207071 176.152242 168.22398 176.137881 168.24088 
C 176.123519 168.25778 176.109147 168.274671 176.094764 168.291553 
L 216.60773 202.807106 
z
" style="fill:#17becf;"/>
   </g>
   <g id="patch_42">
    <path d="M 216.780072 202.604305 
C 216.808753 202.570469 216.837413 202.536616 216.866052 202.502744 
C 216.894691 202.468872 216.923309 202.434982 216.951905 202.401075 
L 176.266851 168.088537 
C 176.252553 168.105491 176.238244 168.122436 176.223924 168.139372 
C 176.209605 168.156308 176.195275 168.173235 176.180934 168.190153 
L 216.780072 202.604305 
z
" style="fill:#1f77b4;"/>
   </g>
   <g id="patch_43">
    <path d="M 216.951905 202.401075 
C 216.980502 202.367167 217.009077 202.333242 217.037631 202.299299 
C 217.066186 202.265355 217.094719 202.231394 217.12323 202.197415 
L 176.352514 167.986708 
C 176.338258 168.003697 176.323991 168.020678 176.309714 168.037649 
C 176.295437 168.054621 176.281149 168.071584 176.266851 168.088537 
L 216.951905 202.401075 
z
" style="fill:#ff7f0e;"/>
   </g>
   <g id="matplotlib.axis_1">
    <g id="text_1">
     <!-- Clinically Healthy Reference -->
     <g transform="translate(0.72 283.749344)scale(0.17 -0.17)">
      <defs>
       <path d="M 67 4 
Q 61.8125 1.3125 56.203125 -0.046875 
Q 50.59375 -1.421875 44.484375 -1.421875 
Q 26.265625 -1.421875 15.625 8.765625 
Q 4.984375 18.953125 4.984375 36.375 
Q 4.984375 53.859375 15.625 64.03125 
Q 26.265625 74.21875 44.484375 74.21875 
Q 50.59375 74.21875 56.203125 72.84375 
Q 61.8125 71.484375 67 68.796875 
L 67 53.71875 
Q 61.765625 57.28125 56.6875 58.9375 
Q 51.609375 60.59375 46 60.59375 
Q 35.9375 60.59375 30.171875 54.140625 
Q 24.421875 47.703125 24.421875 36.375 
Q 24.421875 25.09375 30.171875 18.640625 
Q 35.9375 12.203125 46 12.203125 
Q 51.609375 12.203125 56.6875 13.859375 
Q 61.765625 15.53125 67 19.09375 
z
" id="DejaVuSans-Bold-67"/>
       <path d="M 8.40625 75.984375 
L 25.875 75.984375 
L 25.875 0 
L 8.40625 0 
z
" id="DejaVuSans-Bold-108"/>
       <path d="M 8.40625 54.6875 
L 25.875 54.6875 
L 25.875 0 
L 8.40625 0 
z
M 8.40625 75.984375 
L 25.875 75.984375 
L 25.875 61.71875 
L 8.40625 61.71875 
z
" id="DejaVuSans-Bold-105"/>
       <path d="M 63.375 33.296875 
L 63.375 0 
L 45.796875 0 
L 45.796875 5.421875 
L 45.796875 25.484375 
Q 45.796875 32.5625 45.484375 35.25 
Q 45.171875 37.9375 44.390625 39.203125 
Q 43.359375 40.921875 41.59375 41.875 
Q 39.84375 42.828125 37.59375 42.828125 
Q 32.125 42.828125 29 38.59375 
Q 25.875 34.375 25.875 26.90625 
L 25.875 0 
L 8.40625 0 
L 8.40625 54.6875 
L 25.875 54.6875 
L 25.875 46.6875 
Q 29.828125 51.46875 34.265625 53.734375 
Q 38.71875 56 44.09375 56 
Q 53.5625 56 58.46875 50.1875 
Q 63.375 44.390625 63.375 33.296875 
z
" id="DejaVuSans-Bold-110"/>
       <path d="M 52.59375 52.984375 
L 52.59375 38.71875 
Q 49.03125 41.15625 45.4375 42.328125 
Q 41.84375 43.5 37.984375 43.5 
Q 30.671875 43.5 26.59375 39.234375 
Q 22.515625 34.96875 22.515625 27.296875 
Q 22.515625 19.625 26.59375 15.34375 
Q 30.671875 11.078125 37.984375 11.078125 
Q 42.09375 11.078125 45.78125 12.296875 
Q 49.46875 13.53125 52.59375 15.921875 
L 52.59375 1.609375 
Q 48.484375 0.09375 44.265625 -0.65625 
Q 40.046875 -1.421875 35.796875 -1.421875 
Q 21 -1.421875 12.640625 6.171875 
Q 4.296875 13.765625 4.296875 27.296875 
Q 4.296875 40.828125 12.640625 48.40625 
Q 21 56 35.796875 56 
Q 40.09375 56 44.265625 55.25 
Q 48.4375 54.5 52.59375 52.984375 
z
" id="DejaVuSans-Bold-99"/>
       <path d="M 32.90625 24.609375 
Q 27.4375 24.609375 24.671875 22.75 
Q 21.921875 20.90625 21.921875 17.28125 
Q 21.921875 13.96875 24.140625 12.078125 
Q 26.375 10.203125 30.328125 10.203125 
Q 35.25 10.203125 38.625 13.734375 
Q 42 17.28125 42 22.609375 
L 42 24.609375 
z
M 59.625 31.203125 
L 59.625 0 
L 42 0 
L 42 8.109375 
Q 38.484375 3.125 34.078125 0.84375 
Q 29.6875 -1.421875 23.390625 -1.421875 
Q 14.890625 -1.421875 9.59375 3.53125 
Q 4.296875 8.5 4.296875 16.40625 
Q 4.296875 26.03125 10.90625 30.515625 
Q 17.53125 35.015625 31.6875 35.015625 
L 42 35.015625 
L 42 36.375 
Q 42 40.53125 38.71875 42.453125 
Q 35.453125 44.390625 28.515625 44.390625 
Q 22.90625 44.390625 18.0625 43.265625 
Q 13.234375 42.140625 9.078125 39.890625 
L 9.078125 53.21875 
Q 14.703125 54.59375 20.359375 55.296875 
Q 26.03125 56 31.6875 56 
Q 46.484375 56 53.046875 50.171875 
Q 59.625 44.34375 59.625 31.203125 
z
" id="DejaVuSans-Bold-97"/>
       <path d="M 1.21875 54.6875 
L 18.703125 54.6875 
L 33.40625 17.578125 
L 45.90625 54.6875 
L 63.375 54.6875 
L 40.375 -5.171875 
Q 36.921875 -14.3125 32.296875 -17.9375 
Q 27.6875 -21.578125 20.125 -21.578125 
L 10.015625 -21.578125 
L 10.015625 -10.109375 
L 15.484375 -10.109375 
Q 19.921875 -10.109375 21.9375 -8.6875 
Q 23.96875 -7.28125 25.09375 -3.609375 
L 25.59375 -2.09375 
z
" id="DejaVuSans-Bold-121"/>
       <path id="DejaVuSans-Bold-32"/>
       <path d="M 9.1875 72.90625 
L 27.984375 72.90625 
L 27.984375 45.125 
L 55.71875 45.125 
L 55.71875 72.90625 
L 74.515625 72.90625 
L 74.515625 0 
L 55.71875 0 
L 55.71875 30.90625 
L 27.984375 30.90625 
L 27.984375 0 
L 9.1875 0 
z
" id="DejaVuSans-Bold-72"/>
       <path d="M 62.984375 27.484375 
L 62.984375 22.515625 
L 22.125 22.515625 
Q 22.75 16.359375 26.5625 13.28125 
Q 30.375 10.203125 37.203125 10.203125 
Q 42.71875 10.203125 48.5 11.84375 
Q 54.296875 13.484375 60.40625 16.796875 
L 60.40625 3.328125 
Q 54.203125 0.984375 48 -0.21875 
Q 41.796875 -1.421875 35.59375 -1.421875 
Q 20.75 -1.421875 12.515625 6.125 
Q 4.296875 13.671875 4.296875 27.296875 
Q 4.296875 40.671875 12.375 48.328125 
Q 20.453125 56 34.625 56 
Q 47.515625 56 55.25 48.234375 
Q 62.984375 40.484375 62.984375 27.484375 
z
M 45.015625 33.296875 
Q 45.015625 38.28125 42.109375 41.328125 
Q 39.203125 44.390625 34.515625 44.390625 
Q 29.4375 44.390625 26.265625 41.53125 
Q 23.09375 38.671875 22.3125 33.296875 
z
" id="DejaVuSans-Bold-101"/>
       <path d="M 27.484375 70.21875 
L 27.484375 54.6875 
L 45.515625 54.6875 
L 45.515625 42.1875 
L 27.484375 42.1875 
L 27.484375 19 
Q 27.484375 15.1875 29 13.84375 
Q 30.515625 12.5 35.015625 12.5 
L 44 12.5 
L 44 0 
L 29 0 
Q 18.65625 0 14.328125 4.3125 
Q 10.015625 8.640625 10.015625 19 
L 10.015625 42.1875 
L 1.3125 42.1875 
L 1.3125 54.6875 
L 10.015625 54.6875 
L 10.015625 70.21875 
z
" id="DejaVuSans-Bold-116"/>
       <path d="M 63.375 33.296875 
L 63.375 0 
L 45.796875 0 
L 45.796875 5.421875 
L 45.796875 25.390625 
Q 45.796875 32.5625 45.484375 35.25 
Q 45.171875 37.9375 44.390625 39.203125 
Q 43.359375 40.921875 41.59375 41.875 
Q 39.84375 42.828125 37.59375 42.828125 
Q 32.125 42.828125 29 38.59375 
Q 25.875 34.375 25.875 26.90625 
L 25.875 0 
L 8.40625 0 
L 8.40625 75.984375 
L 25.875 75.984375 
L 25.875 46.6875 
Q 29.828125 51.46875 34.265625 53.734375 
Q 38.71875 56 44.09375 56 
Q 53.5625 56 58.46875 50.1875 
Q 63.375 44.390625 63.375 33.296875 
z
" id="DejaVuSans-Bold-104"/>
       <path d="M 35.890625 40.578125 
Q 41.796875 40.578125 44.359375 42.765625 
Q 46.921875 44.96875 46.921875 50 
Q 46.921875 54.984375 44.359375 57.125 
Q 41.796875 59.28125 35.890625 59.28125 
L 27.984375 59.28125 
L 27.984375 40.578125 
z
M 27.984375 27.59375 
L 27.984375 0 
L 9.1875 0 
L 9.1875 72.90625 
L 37.890625 72.90625 
Q 52.296875 72.90625 59 68.0625 
Q 65.71875 63.234375 65.71875 52.78125 
Q 65.71875 45.5625 62.21875 40.921875 
Q 58.734375 36.28125 51.703125 34.078125 
Q 55.5625 33.203125 58.609375 30.09375 
Q 61.671875 27 64.796875 20.703125 
L 75 0 
L 54.984375 0 
L 46.09375 18.109375 
Q 43.40625 23.578125 40.640625 25.578125 
Q 37.890625 27.59375 33.296875 27.59375 
z
" id="DejaVuSans-Bold-82"/>
       <path d="M 44.390625 75.984375 
L 44.390625 64.5 
L 34.71875 64.5 
Q 31 64.5 29.53125 63.15625 
Q 28.078125 61.8125 28.078125 58.5 
L 28.078125 54.6875 
L 43.015625 54.6875 
L 43.015625 42.1875 
L 28.078125 42.1875 
L 28.078125 0 
L 10.59375 0 
L 10.59375 42.1875 
L 1.90625 42.1875 
L 1.90625 54.6875 
L 10.59375 54.6875 
L 10.59375 58.5 
Q 10.59375 67.4375 15.578125 71.703125 
Q 20.5625 75.984375 31 75.984375 
z
" id="DejaVuSans-Bold-102"/>
       <path d="M 49.03125 39.796875 
Q 46.734375 40.875 44.453125 41.375 
Q 42.1875 41.890625 39.890625 41.890625 
Q 33.15625 41.890625 29.515625 37.5625 
Q 25.875 33.25 25.875 25.203125 
L 25.875 0 
L 8.40625 0 
L 8.40625 54.6875 
L 25.875 54.6875 
L 25.875 45.703125 
Q 29.25 51.078125 33.609375 53.53125 
Q 37.984375 56 44.09375 56 
Q 44.96875 56 45.984375 55.921875 
Q 47.015625 55.859375 48.96875 55.609375 
z
" id="DejaVuSans-Bold-114"/>
      </defs>
      <use xlink:href="#DejaVuSans-Bold-67"/>
      <use x="73.388672" xlink:href="#DejaVuSans-Bold-108"/>
      <use x="107.666016" xlink:href="#DejaVuSans-Bold-105"/>
      <use x="141.943359" xlink:href="#DejaVuSans-Bold-110"/>
      <use x="213.134766" xlink:href="#DejaVuSans-Bold-105"/>
      <use x="247.412109" xlink:href="#DejaVuSans-Bold-99"/>
      <use x="306.689453" xlink:href="#DejaVuSans-Bold-97"/>
      <use x="374.169922" xlink:href="#DejaVuSans-Bold-108"/>
      <use x="408.447266" xlink:href="#DejaVuSans-Bold-108"/>
      <use x="442.724609" xlink:href="#DejaVuSans-Bold-121"/>
      <use x="507.910156" xlink:href="#DejaVuSans-Bold-32"/>
      <use x="542.724609" xlink:href="#DejaVuSans-Bold-72"/>
      <use x="626.416016" xlink:href="#DejaVuSans-Bold-101"/>
      <use x="694.238281" xlink:href="#DejaVuSans-Bold-97"/>
      <use x="761.71875" xlink:href="#DejaVuSans-Bold-108"/>
      <use x="795.996094" xlink:href="#DejaVuSans-Bold-116"/>
      <use x="843.798828" xlink:href="#DejaVuSans-Bold-104"/>
      <use x="914.990234" xlink:href="#DejaVuSans-Bold-121"/>
      <use x="980.175781" xlink:href="#DejaVuSans-Bold-32"/>
      <use x="1014.990234" xlink:href="#DejaVuSans-Bold-82"/>
      <use x="1091.992188" xlink:href="#DejaVuSans-Bold-101"/>
      <use x="1159.814453" xlink:href="#DejaVuSans-Bold-102"/>
      <use x="1203.320312" xlink:href="#DejaVuSans-Bold-101"/>
      <use x="1271.142578" xlink:href="#DejaVuSans-Bold-114"/>
      <use x="1320.458984" xlink:href="#DejaVuSans-Bold-101"/>
      <use x="1388.28125" xlink:href="#DejaVuSans-Bold-110"/>
      <use x="1459.472656" xlink:href="#DejaVuSans-Bold-99"/>
      <use x="1518.75" xlink:href="#DejaVuSans-Bold-101"/>
     </g>
    </g>
   </g>
   <g id="matplotlib.axis_2"/>
  </g>
 </g>
</svg>
